<svg width="16" height="17" viewBox="0 0 16 17" fill="none" xmlns="http://www.w3.org/2000/svg">
<path d="M8.33333 1.83325H10.1333C11.2534 1.83325 11.8135 1.83325 12.2413 2.05124C12.6176 2.24299 12.9236 2.54895 13.1153 2.92527C13.3333 3.35309 13.3333 3.91315 13.3333 5.03325V11.9666C13.3333 13.0867 13.3333 13.6467 13.1153 14.0746C12.9236 14.4509 12.6176 14.7569 12.2413 14.9486C11.8135 15.1666 11.2534 15.1666 10.1333 15.1666H5.86667C4.74656 15.1666 4.18651 15.1666 3.75869 14.9486C3.38236 14.7569 3.0764 14.4509 2.88465 14.0746C2.66667 13.6467 2.66667 13.0867 2.66667 11.9666V11.4999M10.6667 9.16659H7.66667M10.6667 6.49992H8.33333M10.6667 11.8333H5.33333M4 7.16659V3.49992C4 2.94763 4.44772 2.49992 5 2.49992C5.55228 2.49992 6 2.94763 6 3.49992V7.16659C6 8.27115 5.10457 9.16659 4 9.16659C2.89543 9.16659 2 8.27116 2 7.16659V4.49992" stroke="#344054" stroke-width="1.5" stroke-linecap="round" stroke-linejoin="round"/>
</svg>
