<svg width="643" height="532" viewBox="0 0 643 532" fill="none" xmlns="http://www.w3.org/2000/svg">
<circle cx="508" cy="135.838" r="135" fill="#F6F7F9"/>
<g clip-path="url(#clip0_7853_42925)">
<rect y="112.838" width="551" height="419.018" rx="12.2676" fill="#111928"/>
<rect width="64.0702" height="419.018" transform="translate(0 112.838)" fill="#1D2739"/>
<path d="M28.7771 158.373H27.1251V152.157H24.9271V151.009C26.2291 150.981 27.1251 150.253 27.3211 149.301H28.7771V158.373ZM26.7471 188.703L25.1231 188.591C25.1091 188.465 25.0811 188.255 25.0811 188.073C25.0811 186.505 26.2571 185.091 28.3151 185.091C30.3171 185.091 31.5071 186.393 31.5071 187.947C31.5071 189.123 30.8491 190.089 29.7571 190.761L27.9931 191.853C27.5591 192.119 27.1951 192.441 27.0691 192.889H31.5631V194.373H24.9971C25.0251 192.819 25.5711 191.601 27.1531 190.621L28.6511 189.683C29.4631 189.179 29.8131 188.633 29.8131 187.975C29.8131 187.233 29.3091 186.561 28.2871 186.561C27.2231 186.561 26.7051 187.303 26.7051 188.241C26.7051 188.381 26.7331 188.549 26.7471 188.703ZM27.6011 226.257L26.8311 225.011L29.3371 222.771H25.2071V221.301H31.5071V222.701L29.0431 224.857C30.4011 224.885 31.7591 225.865 31.7591 227.615C31.7591 229.169 30.5131 230.583 28.3571 230.583C26.2571 230.583 25.0111 229.225 24.8991 227.713L26.5371 227.377C26.5791 228.427 27.3351 229.141 28.3431 229.141C29.4491 229.141 30.0651 228.427 30.0651 227.601C30.0651 226.551 29.2251 226.103 28.4551 226.103C28.0211 226.103 27.7411 226.187 27.6011 226.257ZM24.9971 264.385V262.565L28.8611 257.301H31.0171V262.901H32.5431V264.385H31.0171V266.373H29.3651V264.385H24.9971ZM29.3651 262.901V258.995L26.5091 262.901H29.3651ZM24.9831 299.867L26.5651 299.461C26.6351 300.427 27.3491 301.155 28.3991 301.155C29.3511 301.155 30.1211 300.511 30.1211 299.503C30.1211 298.383 29.2951 297.823 28.3711 297.823C27.7271 297.823 27.1811 298.089 26.8591 298.453L25.2771 297.879L26.3971 293.301H31.3671V294.771H27.5311L26.9711 297.067C27.3631 296.661 28.0631 296.437 28.7071 296.437C30.5131 296.437 31.8151 297.557 31.8151 299.461C31.8151 301.169 30.4991 302.597 28.3991 302.597C26.4391 302.597 25.0951 301.295 24.9831 299.867ZM31.9831 329.539L31.5071 330.911C31.1711 330.729 30.6951 330.547 29.9531 330.547C28.2451 330.547 27.0131 331.681 26.8591 333.445C27.3351 332.717 28.2031 332.367 29.1691 332.367C30.9751 332.367 32.2491 333.571 32.2491 335.433C32.2491 337.323 30.7091 338.583 28.8051 338.583C26.4951 338.583 25.1791 336.693 25.1791 334.369C25.1791 331.079 27.2371 329.091 30.0511 329.091C30.8911 329.091 31.5911 329.287 31.9831 329.539ZM27.0411 335.461C27.0411 336.497 27.8811 337.155 28.8051 337.155C29.7571 337.155 30.5691 336.511 30.5691 335.461C30.5691 334.397 29.7571 333.767 28.8051 333.767C27.8531 333.767 27.0411 334.397 27.0411 335.461ZM31.3811 365.301V366.771C30.6251 367.401 28.0631 369.697 27.6571 374.373H25.9211C26.3131 369.305 29.4771 366.771 29.4771 366.771H24.6051V365.301H31.3811ZM28.4831 405.081C29.3931 405.067 29.9811 404.507 29.9811 403.751C29.9811 403.065 29.4071 402.463 28.4831 402.463C27.5591 402.463 26.9991 403.065 26.9991 403.751C26.9991 404.507 27.5871 405.067 28.4831 405.081ZM28.4831 409.169C29.5891 409.169 30.1911 408.525 30.1911 407.783C30.1911 407.041 29.5891 406.383 28.4831 406.383C27.3911 406.383 26.7891 407.041 26.7891 407.783C26.7891 408.525 27.3911 409.169 28.4831 409.169ZM28.4831 410.583C26.4111 410.583 25.1231 409.463 25.1231 407.951C25.1231 406.915 25.8371 406.061 26.8031 405.725C25.9351 405.403 25.3331 404.549 25.3331 403.653C25.3331 402.141 26.6631 401.091 28.4831 401.091C30.3031 401.091 31.6471 402.141 31.6471 403.653C31.6471 404.535 31.0451 405.403 30.1771 405.725C31.1291 406.061 31.8571 406.915 31.8571 407.951C31.8571 409.463 30.5691 410.583 28.4831 410.583ZM25.3051 446.065L25.7671 444.693C26.1171 444.917 26.7891 445.113 27.3911 445.113C29.2951 445.113 30.3171 443.965 30.4011 442.257C30.0651 442.845 29.2671 443.307 28.1891 443.307C26.5511 443.307 25.0531 442.187 25.0531 440.255C25.0531 438.379 26.5651 437.091 28.4691 437.091C30.3591 437.091 32.0531 438.435 32.0531 441.333C32.0531 444.623 30.4851 446.583 27.4051 446.583C26.6631 446.583 25.7671 446.373 25.3051 446.065ZM30.1771 440.199C30.1771 439.191 29.3511 438.519 28.4411 438.519C27.5171 438.519 26.7051 439.177 26.7051 440.199C26.7051 441.263 27.5031 441.893 28.4411 441.893C29.3511 441.893 30.1771 441.235 30.1771 440.199ZM28.7771 482.373H27.1251V476.157H24.9271V475.009C26.2291 474.981 27.1251 474.253 27.3211 473.301H28.7771V482.373ZM32.2041 477.837C32.2041 478.985 32.4141 479.867 32.8481 480.427C33.1561 480.833 33.5901 481.099 34.2481 481.099C34.9062 481.099 35.3262 480.833 35.6482 480.427C36.0821 479.867 36.2781 478.985 36.2781 477.837C36.2781 476.689 36.0821 475.807 35.6482 475.247C35.3262 474.841 34.9062 474.575 34.2481 474.575C33.5901 474.575 33.1561 474.841 32.8481 475.247C32.4001 475.807 32.2041 476.689 32.2041 477.837ZM30.5381 477.837C30.5381 476.633 30.7341 475.499 31.3501 474.575C31.9381 473.693 32.8901 473.091 34.2481 473.091C35.6061 473.091 36.5442 473.693 37.1322 474.575C37.7481 475.499 37.9441 476.633 37.9441 477.837C37.9441 479.041 37.7481 480.175 37.1322 481.099C36.5442 481.981 35.6061 482.583 34.2481 482.583C32.8901 482.583 31.9381 481.981 31.3501 481.099C30.7341 480.175 30.5381 479.041 30.5381 477.837Z" fill="#E0B9AF"/>
<path d="M92.8353 162.623C91.6953 162.623 90.6453 163.463 90.6453 165.143C90.6453 166.793 91.6803 167.678 92.8503 167.678C94.2003 167.678 94.6953 166.763 94.8603 166.193L96.1053 166.733C95.7603 167.768 94.7253 168.983 92.8503 168.983C90.7503 168.983 89.2053 167.333 89.2053 165.143C89.2053 162.893 90.7803 161.318 92.8353 161.318C94.7553 161.318 95.7453 162.518 96.0453 163.613L94.7703 164.153C94.5903 163.448 94.0653 162.623 92.8353 162.623ZM100.776 167.723C101.976 167.723 103.026 166.823 103.026 165.143C103.026 163.478 101.976 162.578 100.776 162.578C99.5762 162.578 98.5262 163.478 98.5262 165.143C98.5262 166.823 99.5762 167.723 100.776 167.723ZM100.776 161.318C102.936 161.318 104.466 162.953 104.466 165.143C104.466 167.348 102.936 168.983 100.776 168.983C98.6162 168.983 97.0862 167.348 97.0862 165.143C97.0862 162.953 98.6162 161.318 100.776 161.318ZM107.68 164.588V168.758H106.27V161.543H107.65V162.578C108.175 161.678 109.03 161.333 109.87 161.333C111.595 161.333 112.45 162.578 112.45 164.183V168.758H111.04V164.423C111.04 163.418 110.62 162.608 109.36 162.608C108.25 162.608 107.68 163.493 107.68 164.588ZM114.018 166.883L115.293 166.433C115.383 167.183 115.953 167.783 116.973 167.783C117.768 167.783 118.203 167.333 118.203 166.823C118.203 166.373 117.873 166.028 117.273 165.893L116.043 165.623C114.918 165.383 114.243 164.618 114.243 163.598C114.243 162.368 115.398 161.318 116.808 161.318C118.788 161.318 119.403 162.608 119.553 163.253L118.308 163.718C118.248 163.343 117.948 162.518 116.808 162.518C116.088 162.518 115.608 162.983 115.608 163.478C115.608 163.913 115.878 164.228 116.433 164.348L117.603 164.603C118.908 164.888 119.598 165.683 119.598 166.748C119.598 167.768 118.743 168.983 116.958 168.983C114.978 168.983 114.138 167.708 114.018 166.883ZM123.365 159.263V161.543H124.925V162.818H123.365V166.568C123.365 167.228 123.635 167.558 124.37 167.558C124.55 167.558 124.805 167.528 124.925 167.498V168.698C124.805 168.743 124.445 168.833 123.965 168.833C122.735 168.833 121.955 168.083 121.955 166.778V162.818H120.575V161.543H120.965C121.745 161.543 122.075 161.063 122.075 160.433V159.263H123.365ZM133.587 162.623C132.447 162.623 131.397 163.463 131.397 165.143C131.397 166.793 132.432 167.678 133.602 167.678C134.952 167.678 135.447 166.763 135.612 166.193L136.857 166.733C136.512 167.768 135.477 168.983 133.602 168.983C131.502 168.983 129.957 167.333 129.957 165.143C129.957 162.893 131.532 161.318 133.587 161.318C135.507 161.318 136.497 162.518 136.797 163.613L135.522 164.153C135.342 163.448 134.817 162.623 133.587 162.623ZM141.528 167.723C142.728 167.723 143.778 166.823 143.778 165.143C143.778 163.478 142.728 162.578 141.528 162.578C140.328 162.578 139.278 163.478 139.278 165.143C139.278 166.823 140.328 167.723 141.528 167.723ZM141.528 161.318C143.688 161.318 145.218 162.953 145.218 165.143C145.218 167.348 143.688 168.983 141.528 168.983C139.368 168.983 137.838 167.348 137.838 165.143C137.838 162.953 139.368 161.318 141.528 161.318ZM148.432 164.588V168.758H147.022V161.543H148.402V162.578C148.927 161.678 149.782 161.333 150.622 161.333C152.347 161.333 153.202 162.578 153.202 164.183V168.758H151.792V164.423C151.792 163.418 151.372 162.608 150.112 162.608C149.002 162.608 148.432 163.493 148.432 164.588ZM158.25 157.853C158.73 157.853 159.03 157.958 159.09 158.003V159.263C159.015 159.233 158.835 159.173 158.475 159.173C157.98 159.173 157.335 159.398 157.335 160.388V161.543H162.105V168.758H160.71V162.818H157.335V168.758H155.88V162.818H154.545V161.543H155.88V160.328C155.88 158.723 156.945 157.853 158.25 157.853ZM160.395 158.783C160.395 158.213 160.845 157.763 161.4 157.763C161.97 157.763 162.42 158.213 162.42 158.783C162.42 159.338 161.97 159.788 161.4 159.788C160.845 159.788 160.395 159.338 160.395 158.783ZM163.973 169.148L165.338 168.833C165.443 169.838 166.208 170.603 167.303 170.603C168.818 170.603 169.508 169.823 169.508 168.263V167.228C169.163 167.888 168.383 168.413 167.303 168.413C165.383 168.413 163.988 166.958 163.988 164.918C163.988 162.968 165.323 161.408 167.303 161.408C168.413 161.408 169.163 161.828 169.523 162.548V161.543H170.918V168.218C170.918 170.048 170.018 171.833 167.303 171.833C165.503 171.833 164.153 170.693 163.973 169.148ZM167.513 167.228C168.728 167.228 169.568 166.313 169.568 164.918C169.568 163.523 168.728 162.608 167.513 162.608C166.268 162.608 165.428 163.523 165.428 164.918C165.428 166.328 166.238 167.228 167.513 167.228ZM183.64 163.568H176.695V162.413H183.64V163.568ZM183.64 166.493H176.695V165.308H183.64V166.493ZM189.036 164.633V163.343C189.906 163.343 190.686 162.938 190.686 161.828V159.773C190.686 157.913 191.631 156.983 193.386 156.983H193.581V158.108H193.386C192.276 158.108 191.916 158.588 191.916 159.683V162.143C191.916 163.148 191.316 163.808 190.356 163.988C191.316 164.168 191.916 164.828 191.916 165.833V168.278C191.916 169.373 192.276 169.853 193.386 169.853H193.581V170.978H193.386C191.631 170.978 190.686 170.048 190.686 168.188V166.148C190.686 165.038 189.906 164.633 189.036 164.633ZM98.7003 203.758H97.3053V196.543H98.6553V197.503C99.1053 196.708 100.005 196.333 100.845 196.333C101.745 196.333 102.615 196.768 103.005 197.698C103.575 196.663 104.505 196.333 105.42 196.333C106.68 196.333 107.91 197.188 107.91 199.078V203.758H106.515V199.228C106.515 198.283 106.05 197.578 104.985 197.578C103.995 197.578 103.32 198.358 103.32 199.393V203.758H101.91V199.228C101.91 198.298 101.46 197.578 100.38 197.578C99.3753 197.578 98.7003 198.328 98.7003 199.408V203.758ZM111.082 199.408H115.027C114.997 198.373 114.322 197.563 113.047 197.563C111.862 197.563 111.142 198.478 111.082 199.408ZM115.237 201.283L116.452 201.703C116.047 202.978 114.892 203.983 113.212 203.983C111.277 203.983 109.582 202.573 109.582 200.128C109.582 197.863 111.217 196.318 113.032 196.318C115.252 196.318 116.497 197.848 116.497 200.098C116.497 200.278 116.482 200.458 116.467 200.548H111.037C111.067 201.838 111.997 202.738 113.212 202.738C114.382 202.738 114.967 202.093 115.237 201.283ZM120.187 194.263V196.543H121.747V197.818H120.187V201.568C120.187 202.228 120.457 202.558 121.192 202.558C121.372 202.558 121.627 202.528 121.747 202.498V203.698C121.627 203.743 121.267 203.833 120.787 203.833C119.557 203.833 118.777 203.083 118.777 201.778V197.818H117.397V196.543H117.787C118.567 196.543 118.897 196.063 118.897 195.433V194.263H120.187ZM125.039 199.513V203.758H123.629V192.898H125.039V197.383C125.564 196.618 126.404 196.333 127.229 196.333C128.954 196.333 129.809 197.578 129.809 199.183V203.758H128.399V199.423C128.399 198.418 127.979 197.608 126.719 197.608C125.639 197.608 125.069 198.448 125.039 199.513ZM135.141 202.723C136.341 202.723 137.391 201.823 137.391 200.143C137.391 198.478 136.341 197.578 135.141 197.578C133.941 197.578 132.891 198.478 132.891 200.143C132.891 201.823 133.941 202.723 135.141 202.723ZM135.141 196.318C137.301 196.318 138.831 197.953 138.831 200.143C138.831 202.348 137.301 203.983 135.141 203.983C132.981 203.983 131.451 202.348 131.451 200.143C131.451 197.953 132.981 196.318 135.141 196.318ZM141.475 200.128C141.475 201.613 142.24 202.708 143.59 202.708C144.88 202.708 145.675 201.583 145.675 200.098C145.675 198.613 144.895 197.593 143.605 197.593C142.315 197.593 141.475 198.643 141.475 200.128ZM145.69 202.783V202.663C145.345 203.353 144.58 203.953 143.455 203.953C141.34 203.953 140.035 202.273 140.035 200.128C140.035 198.088 141.415 196.348 143.455 196.348C144.73 196.348 145.42 196.978 145.66 197.563V192.898H147.055V202.423C147.055 203.113 147.115 203.638 147.13 203.758H145.765C145.735 203.593 145.69 203.218 145.69 202.783ZM149.394 202.798C149.394 202.213 149.844 201.748 150.429 201.748C151.014 201.748 151.479 202.213 151.479 202.798C151.479 203.383 151.014 203.833 150.429 203.833C149.844 203.833 149.394 203.383 149.394 202.798ZM149.379 197.518C149.379 196.933 149.829 196.468 150.414 196.468C150.999 196.468 151.464 196.933 151.464 197.518C151.464 198.103 150.999 198.553 150.414 198.553C149.829 198.553 149.379 198.103 149.379 197.518ZM192.956 202.798C192.956 202.258 193.421 201.793 194.051 201.793C194.696 201.793 195.266 202.273 195.266 203.218C195.266 205.198 193.976 206.023 193.046 206.143V205.363C193.781 205.198 194.276 204.463 194.291 203.743C194.246 203.773 194.126 203.818 193.961 203.818C193.406 203.818 192.956 203.443 192.956 202.798ZM102.06 237.888C101.67 238.638 100.77 238.983 99.9303 238.983C98.2503 238.983 97.2303 237.723 97.2303 236.088V231.543H98.6403V235.878C98.6403 236.868 99.0903 237.738 100.275 237.738C101.415 237.738 101.985 236.988 101.985 235.893V231.543H103.395V237.423C103.395 237.993 103.44 238.503 103.47 238.758H102.12C102.09 238.593 102.06 238.188 102.06 237.888ZM109.806 231.468V232.968C109.596 232.938 109.386 232.923 109.191 232.923C108.006 232.923 107.211 233.553 107.211 235.143V238.758H105.801V231.543H107.181V232.803C107.706 231.693 108.606 231.423 109.341 231.423C109.536 231.423 109.731 231.453 109.806 231.468ZM112.719 238.758H111.309V227.898H112.719V238.758ZM115.058 237.798C115.058 237.213 115.508 236.748 116.093 236.748C116.678 236.748 117.143 237.213 117.143 237.798C117.143 238.383 116.678 238.833 116.093 238.833C115.508 238.833 115.058 238.383 115.058 237.798ZM115.043 232.518C115.043 231.933 115.493 231.468 116.078 231.468C116.663 231.468 117.128 231.933 117.128 232.518C117.128 233.103 116.663 233.553 116.078 233.553C115.493 233.553 115.043 233.103 115.043 232.518ZM278.093 237.798C278.093 237.258 278.558 236.793 279.188 236.793C279.833 236.793 280.403 237.273 280.403 238.218C280.403 240.198 279.113 241.023 278.183 241.143V240.363C278.918 240.198 279.413 239.463 279.428 238.743C279.383 238.773 279.263 238.818 279.098 238.818C278.543 238.818 278.093 238.443 278.093 237.798ZM98.7153 269.513V273.758H97.3053V262.898H98.7153V267.383C99.2403 266.618 100.08 266.333 100.905 266.333C102.63 266.333 103.485 267.578 103.485 269.183V273.758H102.075V269.423C102.075 268.418 101.655 267.608 100.395 267.608C99.3153 267.608 98.7453 268.448 98.7153 269.513ZM106.643 269.408H110.588C110.558 268.373 109.883 267.563 108.608 267.563C107.423 267.563 106.703 268.478 106.643 269.408ZM110.798 271.283L112.013 271.703C111.608 272.978 110.453 273.983 108.773 273.983C106.838 273.983 105.143 272.573 105.143 270.128C105.143 267.863 106.778 266.318 108.593 266.318C110.813 266.318 112.058 267.848 112.058 270.098C112.058 270.278 112.043 270.458 112.028 270.548H106.598C106.628 271.838 107.558 272.738 108.773 272.738C109.943 272.738 110.528 272.093 110.798 271.283ZM113.408 271.823C113.408 270.533 114.353 269.813 115.598 269.633L117.548 269.348C117.983 269.288 118.103 269.063 118.103 268.808C118.103 268.103 117.638 267.518 116.543 267.518C115.553 267.518 114.998 268.133 114.908 268.973L113.558 268.658C113.708 267.278 114.953 266.318 116.513 266.318C118.673 266.318 119.513 267.548 119.513 268.958V272.573C119.513 273.203 119.573 273.578 119.603 273.758H118.223C118.193 273.578 118.148 273.308 118.148 272.783C117.833 273.293 117.113 273.983 115.823 273.983C114.353 273.983 113.408 272.963 113.408 271.823ZM116.018 272.798C117.173 272.798 118.103 272.243 118.103 270.668V270.338L115.898 270.668C115.298 270.758 114.848 271.103 114.848 271.748C114.848 272.288 115.298 272.798 116.018 272.798ZM122.55 270.128C122.55 271.613 123.315 272.708 124.665 272.708C125.955 272.708 126.75 271.583 126.75 270.098C126.75 268.613 125.97 267.593 124.68 267.593C123.39 267.593 122.55 268.643 122.55 270.128ZM126.765 272.783V272.663C126.42 273.353 125.655 273.953 124.53 273.953C122.415 273.953 121.11 272.273 121.11 270.128C121.11 268.088 122.49 266.348 124.53 266.348C125.805 266.348 126.495 266.978 126.735 267.563V262.898H128.13V272.423C128.13 273.113 128.19 273.638 128.205 273.758H126.84C126.81 273.593 126.765 273.218 126.765 272.783ZM131.443 269.408H135.388C135.358 268.373 134.683 267.563 133.408 267.563C132.223 267.563 131.503 268.478 131.443 269.408ZM135.598 271.283L136.813 271.703C136.408 272.978 135.253 273.983 133.573 273.983C131.638 273.983 129.943 272.573 129.943 270.128C129.943 267.863 131.578 266.318 133.393 266.318C135.613 266.318 136.858 267.848 136.858 270.098C136.858 270.278 136.843 270.458 136.828 270.548H131.398C131.428 271.838 132.358 272.738 133.573 272.738C134.743 272.738 135.328 272.093 135.598 271.283ZM142.663 266.468V267.968C142.453 267.938 142.243 267.923 142.048 267.923C140.863 267.923 140.068 268.553 140.068 270.143V273.758H138.658V266.543H140.038V267.803C140.563 266.693 141.463 266.423 142.198 266.423C142.393 266.423 142.588 266.453 142.663 266.468ZM143.491 271.883L144.766 271.433C144.856 272.183 145.426 272.783 146.446 272.783C147.241 272.783 147.676 272.333 147.676 271.823C147.676 271.373 147.346 271.028 146.746 270.893L145.516 270.623C144.391 270.383 143.716 269.618 143.716 268.598C143.716 267.368 144.871 266.318 146.281 266.318C148.261 266.318 148.876 267.608 149.026 268.253L147.781 268.718C147.721 268.343 147.421 267.518 146.281 267.518C145.561 267.518 145.081 267.983 145.081 268.478C145.081 268.913 145.351 269.228 145.906 269.348L147.076 269.603C148.381 269.888 149.071 270.683 149.071 271.748C149.071 272.768 148.216 273.983 146.431 273.983C144.451 273.983 143.611 272.708 143.491 271.883ZM150.888 272.798C150.888 272.213 151.338 271.748 151.923 271.748C152.508 271.748 152.973 272.213 152.973 272.798C152.973 273.383 152.508 273.833 151.923 273.833C151.338 273.833 150.888 273.383 150.888 272.798ZM150.873 267.518C150.873 266.933 151.323 266.468 151.908 266.468C152.493 266.468 152.958 266.933 152.958 267.518C152.958 268.103 152.493 268.553 151.908 268.553C151.323 268.553 150.873 268.103 150.873 267.518ZM158.523 269.633V268.343C159.393 268.343 160.173 267.938 160.173 266.828V264.773C160.173 262.913 161.118 261.983 162.873 261.983H163.068V263.108H162.873C161.763 263.108 161.403 263.588 161.403 264.683V267.143C161.403 268.148 160.803 268.808 159.843 268.988C160.803 269.168 161.403 269.828 161.403 270.833V273.278C161.403 274.373 161.763 274.853 162.873 274.853H163.068V275.978H162.873C161.118 275.978 160.173 275.048 160.173 273.188V271.148C160.173 270.038 159.393 269.633 158.523 269.633ZM104.205 299.773C104.205 299.233 104.58 298.858 105.12 298.858C105.645 298.858 106.02 299.233 106.02 299.773C106.02 299.863 106.005 299.968 105.99 300.043L105.36 302.863H104.85L104.235 300.058C104.22 299.983 104.205 299.848 104.205 299.773ZM112.578 308.983C109.833 308.983 107.298 306.988 107.298 303.433C107.298 299.878 109.938 297.898 112.578 297.898C115.008 297.898 116.718 299.218 117.258 301.273L115.893 301.753C115.488 300.148 114.318 299.248 112.578 299.248C110.643 299.248 108.798 300.658 108.798 303.433C108.798 306.208 110.643 307.633 112.578 307.633C114.393 307.633 115.533 306.538 115.968 305.083L117.273 305.563C116.703 307.558 115.023 308.983 112.578 308.983ZM121.87 307.723C123.07 307.723 124.12 306.823 124.12 305.143C124.12 303.478 123.07 302.578 121.87 302.578C120.67 302.578 119.62 303.478 119.62 305.143C119.62 306.823 120.67 307.723 121.87 307.723ZM121.87 301.318C124.03 301.318 125.56 302.953 125.56 305.143C125.56 307.348 124.03 308.983 121.87 308.983C119.71 308.983 118.18 307.348 118.18 305.143C118.18 302.953 119.71 301.318 121.87 301.318ZM128.774 304.588V308.758H127.364V301.543H128.744V302.578C129.269 301.678 130.124 301.333 130.964 301.333C132.689 301.333 133.544 302.578 133.544 304.183V308.758H132.134V304.423C132.134 303.418 131.714 302.608 130.454 302.608C129.344 302.608 128.774 303.493 128.774 304.588ZM137.677 299.263V301.543H139.237V302.818H137.677V306.568C137.677 307.228 137.947 307.558 138.682 307.558C138.862 307.558 139.117 307.528 139.237 307.498V308.698C139.117 308.743 138.757 308.833 138.277 308.833C137.047 308.833 136.267 308.083 136.267 306.778V302.818H134.887V301.543H135.277C136.057 301.543 136.387 301.063 136.387 300.433V299.263H137.677ZM141.961 304.408H145.906C145.876 303.373 145.201 302.563 143.926 302.563C142.741 302.563 142.021 303.478 141.961 304.408ZM146.116 306.283L147.331 306.703C146.926 307.978 145.771 308.983 144.091 308.983C142.156 308.983 140.461 307.573 140.461 305.128C140.461 302.863 142.096 301.318 143.911 301.318C146.131 301.318 147.376 302.848 147.376 305.098C147.376 305.278 147.361 305.458 147.346 305.548H141.916C141.946 306.838 142.876 307.738 144.091 307.738C145.261 307.738 145.846 307.093 146.116 306.283ZM150.585 304.588V308.758H149.175V301.543H150.555V302.578C151.08 301.678 151.935 301.333 152.775 301.333C154.5 301.333 155.355 302.578 155.355 304.183V308.758H153.945V304.423C153.945 303.418 153.525 302.608 152.265 302.608C151.155 302.608 150.585 303.493 150.585 304.588ZM159.488 299.263V301.543H161.048V302.818H159.488V306.568C159.488 307.228 159.758 307.558 160.493 307.558C160.673 307.558 160.928 307.528 161.048 307.498V308.698C160.928 308.743 160.568 308.833 160.088 308.833C158.858 308.833 158.078 308.083 158.078 306.778V302.818H156.698V301.543H157.088C157.868 301.543 158.198 301.063 158.198 300.433V299.263H159.488ZM166.47 305.068H162.405V303.838H166.47V305.068ZM174.987 299.488H171.432V308.758H169.962V299.488H166.407V298.123H174.987V299.488ZM177.079 311.773H175.534L177.334 307.963L174.229 301.543H175.849L178.099 306.523L180.259 301.543H181.774L177.079 311.773ZM184.526 311.608H183.131V301.543H184.496V302.668C184.886 301.948 185.741 301.378 186.911 301.378C189.071 301.378 190.226 303.043 190.226 305.143C190.226 307.288 188.981 308.953 186.866 308.953C185.756 308.953 184.916 308.428 184.526 307.783V311.608ZM188.786 305.143C188.786 303.703 187.976 302.623 186.656 302.623C185.366 302.623 184.511 303.703 184.511 305.143C184.511 306.628 185.366 307.693 186.656 307.693C187.961 307.693 188.786 306.628 188.786 305.143ZM192.937 304.408H196.882C196.852 303.373 196.177 302.563 194.902 302.563C193.717 302.563 192.997 303.478 192.937 304.408ZM197.092 306.283L198.307 306.703C197.902 307.978 196.747 308.983 195.067 308.983C193.132 308.983 191.437 307.573 191.437 305.128C191.437 302.863 193.072 301.318 194.887 301.318C197.107 301.318 198.352 302.848 198.352 305.098C198.352 305.278 198.337 305.458 198.322 305.548H192.892C192.922 306.838 193.852 307.738 195.067 307.738C196.237 307.738 196.822 307.093 197.092 306.283ZM199.406 299.773C199.406 299.233 199.781 298.858 200.321 298.858C200.846 298.858 201.221 299.233 201.221 299.773C201.221 299.863 201.206 299.968 201.191 300.043L200.561 302.863H200.051L199.436 300.058C199.421 299.983 199.406 299.848 199.406 299.773ZM202.963 307.798C202.963 307.213 203.413 306.748 203.998 306.748C204.583 306.748 205.048 307.213 205.048 307.798C205.048 308.383 204.583 308.833 203.998 308.833C203.413 308.833 202.963 308.383 202.963 307.798ZM202.948 302.518C202.948 301.933 203.398 301.468 203.983 301.468C204.568 301.468 205.033 301.933 205.033 302.518C205.033 303.103 204.568 303.553 203.983 303.553C203.398 303.553 202.948 303.103 202.948 302.518ZM325.993 307.798C325.993 307.258 326.458 306.793 327.088 306.793C327.733 306.793 328.303 307.273 328.303 308.218C328.303 310.198 327.013 311.023 326.083 311.143V310.363C326.818 310.198 327.313 309.463 327.328 308.743C327.283 308.773 327.163 308.818 326.998 308.818C326.443 308.818 325.993 308.443 325.993 307.798ZM104.205 334.773C104.205 334.233 104.58 333.858 105.12 333.858C105.645 333.858 106.02 334.233 106.02 334.773C106.02 334.863 106.005 334.968 105.99 335.043L105.36 337.863H104.85L104.235 335.058C104.22 334.983 104.205 334.848 104.205 334.773ZM114.444 343.758L113.289 340.788H108.579L107.454 343.758H105.879L110.109 333.123H111.804L116.034 343.758H114.444ZM110.919 334.653L109.104 339.423H112.764L110.919 334.653ZM121.762 342.888C121.372 343.638 120.472 343.983 119.632 343.983C117.952 343.983 116.932 342.723 116.932 341.088V336.543H118.342V340.878C118.342 341.868 118.792 342.738 119.977 342.738C121.117 342.738 121.687 341.988 121.687 340.893V336.543H123.097V342.423C123.097 342.993 123.142 343.503 123.172 343.758H121.822C121.792 343.593 121.762 343.188 121.762 342.888ZM127.394 334.263V336.543H128.954V337.818H127.394V341.568C127.394 342.228 127.664 342.558 128.399 342.558C128.579 342.558 128.834 342.528 128.954 342.498V343.698C128.834 343.743 128.474 343.833 127.994 343.833C126.764 343.833 125.984 343.083 125.984 341.778V337.818H124.604V336.543H124.994C125.774 336.543 126.104 336.063 126.104 335.433V334.263H127.394ZM132.246 339.513V343.758H130.836V332.898H132.246V337.383C132.771 336.618 133.611 336.333 134.436 336.333C136.161 336.333 137.016 337.578 137.016 339.183V343.758H135.606V339.423C135.606 338.418 135.186 337.608 133.926 337.608C132.846 337.608 132.276 338.448 132.246 339.513ZM142.348 342.723C143.548 342.723 144.598 341.823 144.598 340.143C144.598 338.478 143.548 337.578 142.348 337.578C141.148 337.578 140.098 338.478 140.098 340.143C140.098 341.823 141.148 342.723 142.348 342.723ZM142.348 336.318C144.508 336.318 146.038 337.953 146.038 340.143C146.038 342.348 144.508 343.983 142.348 343.983C140.188 343.983 138.658 342.348 138.658 340.143C138.658 337.953 140.188 336.318 142.348 336.318ZM151.847 336.468V337.968C151.637 337.938 151.427 337.923 151.232 337.923C150.047 337.923 149.252 338.553 149.252 340.143V343.758H147.842V336.543H149.222V337.803C149.747 336.693 150.647 336.423 151.382 336.423C151.577 336.423 151.772 336.453 151.847 336.468ZM154.745 343.758H153.35V336.543H154.745V343.758ZM153.035 333.813C153.035 333.243 153.485 332.793 154.04 332.793C154.61 332.793 155.06 333.243 155.06 333.813C155.06 334.368 154.61 334.818 154.04 334.818C153.485 334.818 153.035 334.368 153.035 333.813ZM162.334 343.758H156.544V342.528L160.504 337.818H156.604V336.543H162.259V337.773L158.299 342.483H162.334V343.758ZM163.681 341.823C163.681 340.533 164.626 339.813 165.871 339.633L167.821 339.348C168.256 339.288 168.376 339.063 168.376 338.808C168.376 338.103 167.911 337.518 166.816 337.518C165.826 337.518 165.271 338.133 165.181 338.973L163.831 338.658C163.981 337.278 165.226 336.318 166.786 336.318C168.946 336.318 169.786 337.548 169.786 338.958V342.573C169.786 343.203 169.846 343.578 169.876 343.758H168.496C168.466 343.578 168.421 343.308 168.421 342.783C168.106 343.293 167.386 343.983 166.096 343.983C164.626 343.983 163.681 342.963 163.681 341.823ZM166.291 342.798C167.446 342.798 168.376 342.243 168.376 340.668V340.338L166.171 340.668C165.571 340.758 165.121 341.103 165.121 341.748C165.121 342.288 165.571 342.798 166.291 342.798ZM173.873 334.263V336.543H175.433V337.818H173.873V341.568C173.873 342.228 174.143 342.558 174.878 342.558C175.058 342.558 175.313 342.528 175.433 342.498V343.698C175.313 343.743 174.953 343.833 174.473 343.833C173.243 343.833 172.463 343.083 172.463 341.778V337.818H171.083V336.543H171.473C172.253 336.543 172.583 336.063 172.583 335.433V334.263H173.873ZM178.71 343.758H177.315V336.543H178.71V343.758ZM177 333.813C177 333.243 177.45 332.793 178.005 332.793C178.575 332.793 179.025 333.243 179.025 333.813C179.025 334.368 178.575 334.818 178.005 334.818C177.45 334.818 177 334.368 177 333.813ZM184.199 342.723C185.399 342.723 186.449 341.823 186.449 340.143C186.449 338.478 185.399 337.578 184.199 337.578C182.999 337.578 181.949 338.478 181.949 340.143C181.949 341.823 182.999 342.723 184.199 342.723ZM184.199 336.318C186.359 336.318 187.889 337.953 187.889 340.143C187.889 342.348 186.359 343.983 184.199 343.983C182.039 343.983 180.509 342.348 180.509 340.143C180.509 337.953 182.039 336.318 184.199 336.318ZM191.103 339.588V343.758H189.693V336.543H191.073V337.578C191.598 336.678 192.453 336.333 193.293 336.333C195.018 336.333 195.873 337.578 195.873 339.183V343.758H194.463V339.423C194.463 338.418 194.043 337.608 192.783 337.608C191.673 337.608 191.103 338.493 191.103 339.588ZM197.516 334.773C197.516 334.233 197.891 333.858 198.431 333.858C198.956 333.858 199.331 334.233 199.331 334.773C199.331 334.863 199.316 334.968 199.301 335.043L198.671 337.863H198.161L197.546 335.058C197.531 334.983 197.516 334.848 197.516 334.773ZM201.073 342.798C201.073 342.213 201.523 341.748 202.108 341.748C202.693 341.748 203.158 342.213 203.158 342.798C203.158 343.383 202.693 343.833 202.108 343.833C201.523 343.833 201.073 343.383 201.073 342.798ZM201.058 337.518C201.058 336.933 201.508 336.468 202.093 336.468C202.678 336.468 203.143 336.933 203.143 337.518C203.143 338.103 202.678 338.553 202.093 338.553C201.508 338.553 201.058 338.103 201.058 337.518ZM374.597 377.798C374.597 377.258 375.062 376.793 375.692 376.793C376.337 376.793 376.907 377.273 376.907 378.218C376.907 380.198 375.617 381.023 374.687 381.143V380.363C375.422 380.198 375.917 379.463 375.932 378.743C375.887 378.773 375.767 378.818 375.602 378.818C375.047 378.818 374.597 378.443 374.597 377.798ZM100.725 408.343V409.633C99.8553 409.633 99.0753 410.038 99.0753 411.148V413.188C99.0753 415.048 98.1303 415.978 96.3753 415.978H96.1803V414.853H96.3753C97.4853 414.853 97.8453 414.373 97.8453 413.278V410.833C97.8453 409.828 98.4453 409.168 99.4053 408.988C98.4453 408.808 97.8453 408.148 97.8453 407.143V404.683C97.8453 403.588 97.4853 403.108 96.3753 403.108H96.1803V401.983H96.3753C98.1303 401.983 99.0753 402.913 99.0753 404.773V406.828C99.0753 407.938 99.8553 408.343 100.725 408.343ZM102.443 412.798C102.443 412.258 102.908 411.793 103.538 411.793C104.183 411.793 104.753 412.273 104.753 413.218C104.753 415.198 103.463 416.023 102.533 416.143V415.363C103.268 415.198 103.763 414.463 103.778 413.743C103.733 413.773 103.613 413.818 103.448 413.818C102.893 413.818 102.443 413.443 102.443 412.798ZM93.2253 443.343V444.633C92.3553 444.633 91.5753 445.038 91.5753 446.148V448.188C91.5753 450.048 90.6303 450.978 88.8753 450.978H88.6803V449.853H88.8753C89.9853 449.853 90.3453 449.373 90.3453 448.278V445.833C90.3453 444.828 90.9453 444.168 91.9053 443.988C90.9453 443.808 90.3453 443.148 90.3453 442.143V439.683C90.3453 438.588 89.9853 438.108 88.8753 438.108H88.6803V436.983H88.8753C90.6303 436.983 91.5753 437.913 91.5753 439.773V441.828C91.5753 442.938 92.3553 443.343 93.2253 443.343ZM95.0184 447.828C95.0184 447.318 95.4684 446.883 96.0684 446.883C96.6834 446.883 97.2234 447.333 97.2234 448.233C97.2234 450.108 95.9934 450.888 95.1084 451.008V450.273C95.8134 450.108 96.2784 449.418 96.2934 448.728C96.2484 448.758 96.1434 448.803 95.9784 448.803C95.4534 448.803 95.0184 448.443 95.0184 447.828ZM95.0334 442.518C95.0334 441.933 95.4834 441.468 96.0684 441.468C96.6534 441.468 97.1184 441.933 97.1184 442.518C97.1184 443.103 96.6534 443.553 96.0684 443.553C95.4834 443.553 95.0334 443.103 95.0334 442.518ZM92.8353 477.623C91.6953 477.623 90.6453 478.463 90.6453 480.143C90.6453 481.793 91.6803 482.678 92.8503 482.678C94.2003 482.678 94.6953 481.763 94.8603 481.193L96.1053 481.733C95.7603 482.768 94.7253 483.983 92.8503 483.983C90.7503 483.983 89.2053 482.333 89.2053 480.143C89.2053 477.893 90.7803 476.318 92.8353 476.318C94.7553 476.318 95.7453 477.518 96.0453 478.613L94.7703 479.153C94.5903 478.448 94.0653 477.623 92.8353 477.623ZM100.776 482.723C101.976 482.723 103.026 481.823 103.026 480.143C103.026 478.478 101.976 477.578 100.776 477.578C99.5762 477.578 98.5262 478.478 98.5262 480.143C98.5262 481.823 99.5762 482.723 100.776 482.723ZM100.776 476.318C102.936 476.318 104.466 477.953 104.466 480.143C104.466 482.348 102.936 483.983 100.776 483.983C98.6162 483.983 97.0862 482.348 97.0862 480.143C97.0862 477.953 98.6162 476.318 100.776 476.318ZM107.68 479.588V483.758H106.27V476.543H107.65V477.578C108.175 476.678 109.03 476.333 109.87 476.333C111.595 476.333 112.45 477.578 112.45 479.183V483.758H111.04V479.423C111.04 478.418 110.62 477.608 109.36 477.608C108.25 477.608 107.68 478.493 107.68 479.588ZM114.018 481.883L115.293 481.433C115.383 482.183 115.953 482.783 116.973 482.783C117.768 482.783 118.203 482.333 118.203 481.823C118.203 481.373 117.873 481.028 117.273 480.893L116.043 480.623C114.918 480.383 114.243 479.618 114.243 478.598C114.243 477.368 115.398 476.318 116.808 476.318C118.788 476.318 119.403 477.608 119.553 478.253L118.308 478.718C118.248 478.343 117.948 477.518 116.808 477.518C116.088 477.518 115.608 477.983 115.608 478.478C115.608 478.913 115.878 479.228 116.433 479.348L117.603 479.603C118.908 479.888 119.598 480.683 119.598 481.748C119.598 482.768 118.743 483.983 116.958 483.983C114.978 483.983 114.138 482.708 114.018 481.883ZM123.365 474.263V476.543H124.925V477.818H123.365V481.568C123.365 482.228 123.635 482.558 124.37 482.558C124.55 482.558 124.805 482.528 124.925 482.498V483.698C124.805 483.743 124.445 483.833 123.965 483.833C122.735 483.833 121.955 483.083 121.955 481.778V477.818H120.575V476.543H120.965C121.745 476.543 122.075 476.063 122.075 475.433V474.263H123.365ZM131.397 480.128C131.397 481.613 132.162 482.708 133.512 482.708C134.802 482.708 135.597 481.583 135.597 480.098C135.597 478.613 134.817 477.593 133.527 477.593C132.237 477.593 131.397 478.643 131.397 480.128ZM135.612 482.783V482.663C135.267 483.353 134.502 483.953 133.377 483.953C131.262 483.953 129.957 482.273 129.957 480.128C129.957 478.088 131.337 476.348 133.377 476.348C134.652 476.348 135.342 476.978 135.582 477.563V472.898H136.977V482.423C136.977 483.113 137.037 483.638 137.052 483.758H135.687C135.657 483.593 135.612 483.218 135.612 482.783ZM138.926 481.823C138.926 480.533 139.871 479.813 141.116 479.633L143.066 479.348C143.501 479.288 143.621 479.063 143.621 478.808C143.621 478.103 143.156 477.518 142.061 477.518C141.071 477.518 140.516 478.133 140.426 478.973L139.076 478.658C139.226 477.278 140.471 476.318 142.031 476.318C144.191 476.318 145.031 477.548 145.031 478.958V482.573C145.031 483.203 145.091 483.578 145.121 483.758H143.741C143.711 483.578 143.666 483.308 143.666 482.783C143.351 483.293 142.631 483.983 141.341 483.983C139.871 483.983 138.926 482.963 138.926 481.823ZM141.536 482.798C142.691 482.798 143.621 482.243 143.621 480.668V480.338L141.416 480.668C140.816 480.758 140.366 481.103 140.366 481.748C140.366 482.288 140.816 482.798 141.536 482.798ZM149.117 474.263V476.543H150.677V477.818H149.117V481.568C149.117 482.228 149.387 482.558 150.122 482.558C150.302 482.558 150.557 482.528 150.677 482.498V483.698C150.557 483.743 150.197 483.833 149.717 483.833C148.487 483.833 147.707 483.083 147.707 481.778V477.818H146.327V476.543H146.717C147.497 476.543 147.827 476.063 147.827 475.433V474.263H149.117ZM152.109 481.823C152.109 480.533 153.054 479.813 154.299 479.633L156.249 479.348C156.684 479.288 156.804 479.063 156.804 478.808C156.804 478.103 156.339 477.518 155.244 477.518C154.254 477.518 153.699 478.133 153.609 478.973L152.259 478.658C152.409 477.278 153.654 476.318 155.214 476.318C157.374 476.318 158.214 477.548 158.214 478.958V482.573C158.214 483.203 158.274 483.578 158.304 483.758H156.924C156.894 483.578 156.849 483.308 156.849 482.783C156.534 483.293 155.814 483.983 154.524 483.983C153.054 483.983 152.109 482.963 152.109 481.823ZM154.719 482.798C155.874 482.798 156.804 482.243 156.804 480.668V480.338L154.599 480.668C153.999 480.758 153.549 481.103 153.549 481.748C153.549 482.288 153.999 482.798 154.719 482.798ZM170.881 478.568H163.936V477.413H170.881V478.568ZM170.881 481.493H163.936V480.308H170.881V481.493ZM176.352 481.823C176.352 480.533 177.297 479.813 178.542 479.633L180.492 479.348C180.927 479.288 181.047 479.063 181.047 478.808C181.047 478.103 180.582 477.518 179.487 477.518C178.497 477.518 177.942 478.133 177.852 478.973L176.502 478.658C176.652 477.278 177.897 476.318 179.457 476.318C181.617 476.318 182.457 477.548 182.457 478.958V482.573C182.457 483.203 182.517 483.578 182.547 483.758H181.167C181.137 483.578 181.092 483.308 181.092 482.783C180.777 483.293 180.057 483.983 178.767 483.983C177.297 483.983 176.352 482.963 176.352 481.823ZM178.962 482.798C180.117 482.798 181.047 482.243 181.047 480.668V480.338L178.842 480.668C178.242 480.758 177.792 481.103 177.792 481.748C177.792 482.288 178.242 482.798 178.962 482.798ZM188.719 476.543H190.174L192.049 481.973L193.639 476.543H195.124L192.784 483.758H191.329L189.409 478.268L187.534 483.758H186.049L183.679 476.543H185.224L186.844 481.973L188.719 476.543ZM196.025 481.823C196.025 480.533 196.97 479.813 198.215 479.633L200.165 479.348C200.6 479.288 200.72 479.063 200.72 478.808C200.72 478.103 200.255 477.518 199.16 477.518C198.17 477.518 197.615 478.133 197.525 478.973L196.175 478.658C196.325 477.278 197.57 476.318 199.13 476.318C201.29 476.318 202.13 477.548 202.13 478.958V482.573C202.13 483.203 202.19 483.578 202.22 483.758H200.84C200.81 483.578 200.765 483.308 200.765 482.783C200.45 483.293 199.73 483.983 198.44 483.983C196.97 483.983 196.025 482.963 196.025 481.823ZM198.635 482.798C199.79 482.798 200.72 482.243 200.72 480.668V480.338L198.515 480.668C197.915 480.758 197.465 481.103 197.465 481.748C197.465 482.288 197.915 482.798 198.635 482.798ZM205.722 483.758H204.327V476.543H205.722V483.758ZM204.012 473.813C204.012 473.243 204.462 472.793 205.017 472.793C205.587 472.793 206.037 473.243 206.037 473.813C206.037 474.368 205.587 474.818 205.017 474.818C204.462 474.818 204.012 474.368 204.012 473.813ZM210.011 474.263V476.543H211.571V477.818H210.011V481.568C210.011 482.228 210.281 482.558 211.016 482.558C211.196 482.558 211.451 482.528 211.571 482.498V483.698C211.451 483.743 211.091 483.833 210.611 483.833C209.381 483.833 208.601 483.083 208.601 481.778V477.818H207.221V476.543H207.611C208.391 476.543 208.721 476.063 208.721 475.433V474.263H210.011ZM216.753 481.823C216.753 480.533 217.698 479.813 218.943 479.633L220.893 479.348C221.328 479.288 221.448 479.063 221.448 478.808C221.448 478.103 220.983 477.518 219.888 477.518C218.898 477.518 218.343 478.133 218.253 478.973L216.903 478.658C217.053 477.278 218.298 476.318 219.858 476.318C222.018 476.318 222.858 477.548 222.858 478.958V482.573C222.858 483.203 222.918 483.578 222.948 483.758H221.568C221.538 483.578 221.493 483.308 221.493 482.783C221.178 483.293 220.458 483.983 219.168 483.983C217.698 483.983 216.753 482.963 216.753 481.823ZM219.363 482.798C220.518 482.798 221.448 482.243 221.448 480.668V480.338L219.243 480.668C218.643 480.758 218.193 481.103 218.193 481.748C218.193 482.288 218.643 482.798 219.363 482.798ZM224.004 483.758L226.689 480.083L224.094 476.543H225.804L227.574 479.078L229.314 476.543H230.979L228.414 480.083C228.849 480.668 230.634 483.173 231.069 483.758H229.374L227.514 481.103L225.684 483.758H224.004ZM233.817 483.758H232.422V476.543H233.817V483.758ZM232.107 473.813C232.107 473.243 232.557 472.793 233.112 472.793C233.682 472.793 234.132 473.243 234.132 473.813C234.132 474.368 233.682 474.818 233.112 474.818C232.557 474.818 232.107 474.368 232.107 473.813ZM239.306 482.723C240.506 482.723 241.556 481.823 241.556 480.143C241.556 478.478 240.506 477.578 239.306 477.578C238.106 477.578 237.056 478.478 237.056 480.143C237.056 481.823 238.106 482.723 239.306 482.723ZM239.306 476.318C241.466 476.318 242.996 477.953 242.996 480.143C242.996 482.348 241.466 483.983 239.306 483.983C237.146 483.983 235.616 482.348 235.616 480.143C235.616 477.953 237.146 476.318 239.306 476.318ZM244.125 481.883L245.4 481.433C245.49 482.183 246.06 482.783 247.08 482.783C247.875 482.783 248.31 482.333 248.31 481.823C248.31 481.373 247.98 481.028 247.38 480.893L246.15 480.623C245.025 480.383 244.35 479.618 244.35 478.598C244.35 477.368 245.505 476.318 246.915 476.318C248.895 476.318 249.51 477.608 249.66 478.253L248.415 478.718C248.355 478.343 248.055 477.518 246.915 477.518C246.195 477.518 245.715 477.983 245.715 478.478C245.715 478.913 245.985 479.228 246.54 479.348L247.71 479.603C249.015 479.888 249.705 480.683 249.705 481.748C249.705 482.768 248.85 483.983 247.065 483.983C245.085 483.983 244.245 482.708 244.125 481.883ZM251.208 479.003C251.208 475.733 252.453 473.483 254.058 471.848L254.913 472.598C253.383 474.308 252.423 476.363 252.423 479.003C252.423 481.643 253.383 483.698 254.913 485.408L254.058 486.158C252.453 484.523 251.208 482.273 251.208 479.003ZM258.846 477.623C257.706 477.623 256.656 478.463 256.656 480.143C256.656 481.793 257.691 482.678 258.861 482.678C260.211 482.678 260.706 481.763 260.871 481.193L262.116 481.733C261.771 482.768 260.736 483.983 258.861 483.983C256.761 483.983 255.216 482.333 255.216 480.143C255.216 477.893 256.791 476.318 258.846 476.318C260.766 476.318 261.756 477.518 262.056 478.613L260.781 479.153C260.601 478.448 260.076 477.623 258.846 477.623ZM266.787 482.723C267.987 482.723 269.037 481.823 269.037 480.143C269.037 478.478 267.987 477.578 266.787 477.578C265.587 477.578 264.537 478.478 264.537 480.143C264.537 481.823 265.587 482.723 266.787 482.723ZM266.787 476.318C268.947 476.318 270.477 477.953 270.477 480.143C270.477 482.348 268.947 483.983 266.787 483.983C264.627 483.983 263.097 482.348 263.097 480.143C263.097 477.953 264.627 476.318 266.787 476.318ZM273.691 479.588V483.758H272.281V476.543H273.661V477.578C274.186 476.678 275.041 476.333 275.881 476.333C277.606 476.333 278.461 477.578 278.461 479.183V483.758H277.051V479.423C277.051 478.418 276.631 477.608 275.371 477.608C274.261 477.608 273.691 478.493 273.691 479.588ZM283.509 472.853C283.989 472.853 284.289 472.958 284.349 473.003V474.263C284.274 474.233 284.094 474.173 283.734 474.173C283.239 474.173 282.594 474.398 282.594 475.388V476.543H287.364V483.758H285.969V477.818H282.594V483.758H281.139V477.818H279.804V476.543H281.139V475.328C281.139 473.723 282.204 472.853 283.509 472.853ZM285.654 473.783C285.654 473.213 286.104 472.763 286.659 472.763C287.229 472.763 287.679 473.213 287.679 473.783C287.679 474.338 287.229 474.788 286.659 474.788C286.104 474.788 285.654 474.338 285.654 473.783ZM289.231 484.148L290.596 483.833C290.701 484.838 291.466 485.603 292.561 485.603C294.076 485.603 294.766 484.823 294.766 483.263V482.228C294.421 482.888 293.641 483.413 292.561 483.413C290.641 483.413 289.246 481.958 289.246 479.918C289.246 477.968 290.581 476.408 292.561 476.408C293.671 476.408 294.421 476.828 294.781 477.548V476.543H296.176V483.218C296.176 485.048 295.276 486.833 292.561 486.833C290.761 486.833 289.411 485.693 289.231 484.148ZM292.771 482.228C293.986 482.228 294.826 481.313 294.826 479.918C294.826 478.523 293.986 477.608 292.771 477.608C291.526 477.608 290.686 478.523 290.686 479.918C290.686 481.328 291.496 482.228 292.771 482.228ZM300.933 479.003C300.933 482.273 299.688 484.523 298.083 486.158L297.228 485.408C298.758 483.698 299.718 481.643 299.718 479.003C299.718 476.363 298.758 474.308 297.228 472.598L298.083 471.848C299.688 473.483 300.933 475.733 300.933 479.003ZM302.88 482.828C302.88 482.318 303.33 481.883 303.93 481.883C304.545 481.883 305.085 482.333 305.085 483.233C305.085 485.108 303.855 485.888 302.97 486.008V485.273C303.675 485.108 304.14 484.418 304.155 483.728C304.11 483.758 304.005 483.803 303.84 483.803C303.315 483.803 302.88 483.443 302.88 482.828ZM302.895 477.518C302.895 476.933 303.345 476.468 303.93 476.468C304.515 476.468 304.98 476.933 304.98 477.518C304.98 478.103 304.515 478.553 303.93 478.553C303.345 478.553 302.895 478.103 302.895 477.518Z" fill="#FED0C2"/>
<path d="M156.954 194.773C156.954 194.233 157.329 193.858 157.869 193.858C158.394 193.858 158.769 194.233 158.769 194.773C158.769 194.863 158.754 194.968 158.739 195.043L158.109 197.863H157.599L156.984 195.058C156.969 194.983 156.954 194.848 156.954 194.773ZM169.932 203.758H168.747L168.612 202.258C168.147 203.098 166.992 203.983 165.207 203.983C162.537 203.983 160.047 202.033 160.047 198.433C160.047 194.833 162.687 192.898 165.312 192.898C167.622 192.898 169.407 194.188 170.022 196.108L168.687 196.678C168.207 195.148 166.962 194.248 165.312 194.248C163.407 194.248 161.547 195.613 161.547 198.433C161.547 201.253 163.347 202.648 165.252 202.648C167.622 202.648 168.477 200.968 168.537 199.873H164.847V198.553H169.932V203.758ZM178.657 203.758H172.192V193.123H178.657V194.488H173.662V197.758H178.192V199.138H173.662V202.393H178.657V203.758ZM188.287 194.488H184.732V203.758H183.262V194.488H179.707V193.123H188.287V194.488ZM189.489 194.773C189.489 194.233 189.864 193.858 190.404 193.858C190.929 193.858 191.304 194.233 191.304 194.773C191.304 194.863 191.289 194.968 191.274 195.043L190.644 197.863H190.134L189.519 195.058C189.504 194.983 189.489 194.848 189.489 194.773ZM122.618 229.773C122.618 229.233 122.993 228.858 123.533 228.858C124.058 228.858 124.433 229.233 124.433 229.773C124.433 229.863 124.418 229.968 124.403 230.043L123.773 232.863H123.263L122.648 230.058C122.633 229.983 122.618 229.848 122.618 229.773ZM127.646 234.513V238.758H126.236V227.898H127.646V232.383C128.171 231.618 129.011 231.333 129.836 231.333C131.561 231.333 132.416 232.578 132.416 234.183V238.758H131.006V234.423C131.006 233.418 130.586 232.608 129.326 232.608C128.246 232.608 127.676 233.448 127.646 234.513ZM136.549 229.263V231.543H138.109V232.818H136.549V236.568C136.549 237.228 136.819 237.558 137.554 237.558C137.734 237.558 137.989 237.528 138.109 237.498V238.698C137.989 238.743 137.629 238.833 137.149 238.833C135.919 238.833 135.139 238.083 135.139 236.778V232.818H133.759V231.543H134.149C134.929 231.543 135.259 231.063 135.259 230.433V229.263H136.549ZM141.881 229.263V231.543H143.441V232.818H141.881V236.568C141.881 237.228 142.151 237.558 142.886 237.558C143.066 237.558 143.321 237.528 143.441 237.498V238.698C143.321 238.743 142.961 238.833 142.481 238.833C141.251 238.833 140.471 238.083 140.471 236.778V232.818H139.091V231.543H139.481C140.261 231.543 140.591 231.063 140.591 230.433V229.263H141.881ZM146.571 241.608H145.176V231.543H146.541V232.668C146.931 231.948 147.786 231.378 148.956 231.378C151.116 231.378 152.271 233.043 152.271 235.143C152.271 237.288 151.026 238.953 148.911 238.953C147.801 238.953 146.961 238.428 146.571 237.783V241.608ZM150.831 235.143C150.831 233.703 150.021 232.623 148.701 232.623C147.411 232.623 146.556 233.703 146.556 235.143C146.556 236.628 147.411 237.693 148.701 237.693C150.006 237.693 150.831 236.628 150.831 235.143ZM153.393 236.883L154.668 236.433C154.758 237.183 155.328 237.783 156.348 237.783C157.143 237.783 157.578 237.333 157.578 236.823C157.578 236.373 157.248 236.028 156.648 235.893L155.418 235.623C154.293 235.383 153.618 234.618 153.618 233.598C153.618 232.368 154.773 231.318 156.183 231.318C158.163 231.318 158.778 232.608 158.928 233.253L157.683 233.718C157.623 233.343 157.323 232.518 156.183 232.518C155.463 232.518 154.983 232.983 154.983 233.478C154.983 233.913 155.253 234.228 155.808 234.348L156.978 234.603C158.283 234.888 158.973 235.683 158.973 236.748C158.973 237.768 158.118 238.983 156.333 238.983C154.353 238.983 153.513 237.708 153.393 236.883ZM160.79 237.798C160.79 237.213 161.24 236.748 161.825 236.748C162.41 236.748 162.875 237.213 162.875 237.798C162.875 238.383 162.41 238.833 161.825 238.833C161.24 238.833 160.79 238.383 160.79 237.798ZM160.775 232.518C160.775 231.933 161.225 231.468 161.81 231.468C162.395 231.468 162.86 231.933 162.86 232.518C162.86 233.103 162.395 233.553 161.81 233.553C161.225 233.553 160.775 233.103 160.775 232.518ZM170.511 228.123L165.366 238.758H164.001L169.146 228.123H170.511ZM174.92 228.123L169.775 238.758H168.41L173.555 228.123H174.92ZM179.144 229.173C178.649 229.173 178.004 229.413 178.004 230.403V231.543H181.334V227.898H182.744V238.758H181.334V232.818H178.004V238.758H176.549V232.818H175.214V231.543H176.549V230.328C176.549 228.723 177.614 227.853 178.919 227.853C179.399 227.853 179.699 227.958 179.759 228.003V229.263C179.684 229.233 179.504 229.173 179.144 229.173ZM186.532 238.758H185.137V231.543H186.532V238.758ZM184.822 228.813C184.822 228.243 185.272 227.793 185.827 227.793C186.397 227.793 186.847 228.243 186.847 228.813C186.847 229.368 186.397 229.818 185.827 229.818C185.272 229.818 184.822 229.368 184.822 228.813ZM191.961 232.623C190.821 232.623 189.771 233.463 189.771 235.143C189.771 236.793 190.806 237.678 191.976 237.678C193.326 237.678 193.821 236.763 193.986 236.193L195.231 236.733C194.886 237.768 193.851 238.983 191.976 238.983C189.876 238.983 188.331 237.333 188.331 235.143C188.331 232.893 189.906 231.318 191.961 231.318C193.881 231.318 194.871 232.518 195.171 233.613L193.896 234.153C193.716 233.448 193.191 232.623 191.961 232.623ZM203.35 231.543L200.275 234.588L203.41 238.758H201.64L199.285 235.578L198.28 236.583V238.758H196.885V227.898H198.28V234.738L201.4 231.543H203.35ZM207.475 237.723C208.675 237.723 209.725 236.823 209.725 235.143C209.725 233.478 208.675 232.578 207.475 232.578C206.275 232.578 205.225 233.478 205.225 235.143C205.225 236.823 206.275 237.723 207.475 237.723ZM207.475 231.318C209.635 231.318 211.165 232.953 211.165 235.143C211.165 237.348 209.635 238.983 207.475 238.983C205.315 238.983 203.785 237.348 203.785 235.143C203.785 232.953 205.315 231.318 207.475 231.318ZM214.364 241.608H212.969V231.543H214.334V232.668C214.724 231.948 215.579 231.378 216.749 231.378C218.909 231.378 220.064 233.043 220.064 235.143C220.064 237.288 218.819 238.953 216.704 238.953C215.594 238.953 214.754 238.428 214.364 237.783V241.608ZM218.624 235.143C218.624 233.703 217.814 232.623 216.494 232.623C215.204 232.623 214.349 233.703 214.349 235.143C214.349 236.628 215.204 237.693 216.494 237.693C217.799 237.693 218.624 236.628 218.624 235.143ZM222.776 234.408H226.721C226.691 233.373 226.016 232.563 224.741 232.563C223.556 232.563 222.836 233.478 222.776 234.408ZM226.931 236.283L228.146 236.703C227.741 237.978 226.586 238.983 224.906 238.983C222.971 238.983 221.276 237.573 221.276 235.128C221.276 232.863 222.911 231.318 224.726 231.318C226.946 231.318 228.191 232.848 228.191 235.098C228.191 235.278 228.176 235.458 228.161 235.548H222.731C222.761 236.838 223.691 237.738 224.906 237.738C226.076 237.738 226.661 237.093 226.931 236.283ZM231.401 234.588V238.758H229.991V231.543H231.371V232.578C231.896 231.678 232.751 231.333 233.591 231.333C235.316 231.333 236.171 232.578 236.171 234.183V238.758H234.761V234.423C234.761 233.418 234.341 232.608 233.081 232.608C231.971 232.608 231.401 233.493 231.401 234.588ZM237.964 236.823C237.964 235.533 238.909 234.813 240.154 234.633L242.104 234.348C242.539 234.288 242.659 234.063 242.659 233.808C242.659 233.103 242.194 232.518 241.099 232.518C240.109 232.518 239.554 233.133 239.464 233.973L238.114 233.658C238.264 232.278 239.509 231.318 241.069 231.318C243.229 231.318 244.069 232.548 244.069 233.958V237.573C244.069 238.203 244.129 238.578 244.159 238.758H242.779C242.749 238.578 242.704 238.308 242.704 237.783C242.389 238.293 241.669 238.983 240.379 238.983C238.909 238.983 237.964 237.963 237.964 236.823ZM240.574 237.798C241.729 237.798 242.659 237.243 242.659 235.668V235.338L240.454 235.668C239.854 235.758 239.404 236.103 239.404 236.748C239.404 237.288 239.854 237.798 240.574 237.798ZM247.66 241.608H246.265V231.543H247.63V232.668C248.02 231.948 248.875 231.378 250.045 231.378C252.205 231.378 253.36 233.043 253.36 235.143C253.36 237.288 252.115 238.953 250 238.953C248.89 238.953 248.05 238.428 247.66 237.783V241.608ZM251.92 235.143C251.92 233.703 251.11 232.623 249.79 232.623C248.5 232.623 247.645 233.703 247.645 235.143C247.645 236.628 248.5 237.693 249.79 237.693C251.095 237.693 251.92 236.628 251.92 235.143ZM256.552 238.758H255.157V231.543H256.552V238.758ZM254.842 228.813C254.842 228.243 255.292 227.793 255.847 227.793C256.417 227.793 256.867 228.243 256.867 228.813C256.867 229.368 256.417 229.818 255.847 229.818C255.292 229.818 254.842 229.368 254.842 228.813ZM258.801 237.798C258.801 237.213 259.251 236.748 259.836 236.748C260.421 236.748 260.886 237.213 260.886 237.798C260.886 238.383 260.421 238.833 259.836 238.833C259.251 238.833 258.801 238.383 258.801 237.798ZM264.535 238.758H263.14V231.543H264.535V238.758ZM262.825 228.813C262.825 228.243 263.275 227.793 263.83 227.793C264.4 227.793 264.85 228.243 264.85 228.813C264.85 229.368 264.4 229.818 263.83 229.818C263.275 229.818 262.825 229.368 262.825 228.813ZM270.024 237.723C271.224 237.723 272.274 236.823 272.274 235.143C272.274 233.478 271.224 232.578 270.024 232.578C268.824 232.578 267.774 233.478 267.774 235.143C267.774 236.823 268.824 237.723 270.024 237.723ZM270.024 231.318C272.184 231.318 273.714 232.953 273.714 235.143C273.714 237.348 272.184 238.983 270.024 238.983C267.864 238.983 266.334 237.348 266.334 235.143C266.334 232.953 267.864 231.318 270.024 231.318ZM274.625 229.773C274.625 229.233 275 228.858 275.54 228.858C276.065 228.858 276.44 229.233 276.44 229.773C276.44 229.863 276.425 229.968 276.41 230.043L275.78 232.863H275.27L274.655 230.058C274.64 229.983 274.625 229.848 274.625 229.773ZM210.524 299.773C210.524 299.233 210.899 298.858 211.439 298.858C211.964 298.858 212.339 299.233 212.339 299.773C212.339 299.863 212.324 299.968 212.309 300.043L211.679 302.863H211.169L210.554 300.058C210.539 299.983 210.524 299.848 210.524 299.773ZM213.545 306.823C213.545 305.533 214.49 304.813 215.735 304.633L217.685 304.348C218.12 304.288 218.24 304.063 218.24 303.808C218.24 303.103 217.775 302.518 216.68 302.518C215.69 302.518 215.135 303.133 215.045 303.973L213.695 303.658C213.845 302.278 215.09 301.318 216.65 301.318C218.81 301.318 219.65 302.548 219.65 303.958V307.573C219.65 308.203 219.71 308.578 219.74 308.758H218.36C218.33 308.578 218.285 308.308 218.285 307.783C217.97 308.293 217.25 308.983 215.96 308.983C214.49 308.983 213.545 307.963 213.545 306.823ZM216.155 307.798C217.31 307.798 218.24 307.243 218.24 305.668V305.338L216.035 305.668C215.435 305.758 214.985 306.103 214.985 306.748C214.985 307.288 215.435 307.798 216.155 307.798ZM223.241 311.608H221.846V301.543H223.211V302.668C223.601 301.948 224.456 301.378 225.626 301.378C227.786 301.378 228.941 303.043 228.941 305.143C228.941 307.288 227.696 308.953 225.581 308.953C224.471 308.953 223.631 308.428 223.241 307.783V311.608ZM227.501 305.143C227.501 303.703 226.691 302.623 225.371 302.623C224.081 302.623 223.226 303.703 223.226 305.143C223.226 306.628 224.081 307.693 225.371 307.693C226.676 307.693 227.501 306.628 227.501 305.143ZM232.133 311.608H230.738V301.543H232.103V302.668C232.493 301.948 233.348 301.378 234.518 301.378C236.678 301.378 237.833 303.043 237.833 305.143C237.833 307.288 236.588 308.953 234.473 308.953C233.363 308.953 232.523 308.428 232.133 307.783V311.608ZM236.393 305.143C236.393 303.703 235.583 302.623 234.263 302.623C232.973 302.623 232.118 303.703 232.118 305.143C232.118 306.628 232.973 307.693 234.263 307.693C235.568 307.693 236.393 306.628 236.393 305.143ZM241.04 308.758H239.63V297.898H241.04V308.758ZM244.833 308.758H243.438V301.543H244.833V308.758ZM243.123 298.813C243.123 298.243 243.573 297.793 244.128 297.793C244.698 297.793 245.148 298.243 245.148 298.813C245.148 299.368 244.698 299.818 244.128 299.818C243.573 299.818 243.123 299.368 243.123 298.813ZM250.262 302.623C249.122 302.623 248.072 303.463 248.072 305.143C248.072 306.793 249.107 307.678 250.277 307.678C251.627 307.678 252.122 306.763 252.287 306.193L253.532 306.733C253.187 307.768 252.152 308.983 250.277 308.983C248.177 308.983 246.632 307.333 246.632 305.143C246.632 302.893 248.207 301.318 250.262 301.318C252.182 301.318 253.172 302.518 253.472 303.613L252.197 304.153C252.017 303.448 251.492 302.623 250.262 302.623ZM254.663 306.823C254.663 305.533 255.608 304.813 256.853 304.633L258.803 304.348C259.238 304.288 259.358 304.063 259.358 303.808C259.358 303.103 258.893 302.518 257.798 302.518C256.808 302.518 256.253 303.133 256.163 303.973L254.813 303.658C254.963 302.278 256.208 301.318 257.768 301.318C259.928 301.318 260.768 302.548 260.768 303.958V307.573C260.768 308.203 260.828 308.578 260.858 308.758H259.478C259.448 308.578 259.403 308.308 259.403 307.783C259.088 308.293 258.368 308.983 257.078 308.983C255.608 308.983 254.663 307.963 254.663 306.823ZM257.273 307.798C258.428 307.798 259.358 307.243 259.358 305.668V305.338L257.153 305.668C256.553 305.758 256.103 306.103 256.103 306.748C256.103 307.288 256.553 307.798 257.273 307.798ZM264.854 299.263V301.543H266.414V302.818H264.854V306.568C264.854 307.228 265.124 307.558 265.859 307.558C266.039 307.558 266.294 307.528 266.414 307.498V308.698C266.294 308.743 265.934 308.833 265.454 308.833C264.224 308.833 263.444 308.083 263.444 306.778V302.818H262.064V301.543H262.454C263.234 301.543 263.564 301.063 263.564 300.433V299.263H264.854ZM269.692 308.758H268.297V301.543H269.692V308.758ZM267.982 298.813C267.982 298.243 268.432 297.793 268.987 297.793C269.557 297.793 270.007 298.243 270.007 298.813C270.007 299.368 269.557 299.818 268.987 299.818C268.432 299.818 267.982 299.368 267.982 298.813ZM275.18 307.723C276.38 307.723 277.43 306.823 277.43 305.143C277.43 303.478 276.38 302.578 275.18 302.578C273.98 302.578 272.93 303.478 272.93 305.143C272.93 306.823 273.98 307.723 275.18 307.723ZM275.18 301.318C277.34 301.318 278.87 302.953 278.87 305.143C278.87 307.348 277.34 308.983 275.18 308.983C273.02 308.983 271.49 307.348 271.49 305.143C271.49 302.953 273.02 301.318 275.18 301.318ZM282.084 304.588V308.758H280.674V301.543H282.054V302.578C282.579 301.678 283.434 301.333 284.274 301.333C285.999 301.333 286.854 302.578 286.854 304.183V308.758H285.444V304.423C285.444 303.418 285.024 302.608 283.764 302.608C282.654 302.608 282.084 303.493 282.084 304.588ZM294.407 298.123L289.262 308.758H287.897L293.042 298.123H294.407ZM295.601 309.538V301.543H297.011V309.598C297.011 310.903 296.261 311.833 295.016 311.833C294.476 311.833 294.266 311.758 294.176 311.728V310.543C294.251 310.558 294.416 310.588 294.626 310.588C295.361 310.588 295.601 310.198 295.601 309.538ZM295.286 298.783C295.286 298.213 295.736 297.763 296.291 297.763C296.861 297.763 297.311 298.213 297.311 298.783C297.311 299.338 296.861 299.788 296.291 299.788C295.736 299.788 295.286 299.338 295.286 298.783ZM298.735 306.883L300.01 306.433C300.1 307.183 300.67 307.783 301.69 307.783C302.485 307.783 302.92 307.333 302.92 306.823C302.92 306.373 302.59 306.028 301.99 305.893L300.76 305.623C299.635 305.383 298.96 304.618 298.96 303.598C298.96 302.368 300.115 301.318 301.525 301.318C303.505 301.318 304.12 302.608 304.27 303.253L303.025 303.718C302.965 303.343 302.665 302.518 301.525 302.518C300.805 302.518 300.325 302.983 300.325 303.478C300.325 303.913 300.595 304.228 301.15 304.348L302.32 304.603C303.625 304.888 304.315 305.683 304.315 306.748C304.315 307.768 303.46 308.983 301.675 308.983C299.695 308.983 298.855 307.708 298.735 306.883ZM309.209 307.723C310.409 307.723 311.459 306.823 311.459 305.143C311.459 303.478 310.409 302.578 309.209 302.578C308.009 302.578 306.959 303.478 306.959 305.143C306.959 306.823 308.009 307.723 309.209 307.723ZM309.209 301.318C311.369 301.318 312.899 302.953 312.899 305.143C312.899 307.348 311.369 308.983 309.209 308.983C307.049 308.983 305.519 307.348 305.519 305.143C305.519 302.953 307.049 301.318 309.209 301.318ZM316.113 304.588V308.758H314.703V301.543H316.083V302.578C316.608 301.678 317.463 301.333 318.303 301.333C320.028 301.333 320.883 302.578 320.883 304.183V308.758H319.473V304.423C319.473 303.418 319.053 302.608 317.793 302.608C316.683 302.608 316.113 303.493 316.113 304.588ZM322.526 299.773C322.526 299.233 322.901 298.858 323.441 298.858C323.966 298.858 324.341 299.233 324.341 299.773C324.341 299.863 324.326 299.968 324.311 300.043L323.681 302.863H323.171L322.556 300.058C322.541 299.983 322.526 299.848 322.526 299.773ZM208.634 334.773C208.634 334.233 209.009 333.858 209.549 333.858C210.074 333.858 210.449 334.233 210.449 334.773C210.449 334.863 210.434 334.968 210.419 335.043L209.789 337.863H209.279L208.664 335.058C208.649 334.983 208.634 334.848 208.634 334.773ZM212.402 333.123H215.867C217.892 333.123 219.077 334.323 219.077 336.003C219.077 337.143 218.417 337.953 217.487 338.298C218.702 338.598 219.407 339.678 219.407 340.863C219.407 342.543 218.072 343.758 216.122 343.758H212.402V333.123ZM213.872 337.773H215.702C216.887 337.773 217.592 337.068 217.592 336.078C217.592 335.073 216.857 334.413 215.642 334.413H213.872V337.773ZM213.872 342.468H215.912C217.097 342.468 217.907 341.808 217.907 340.773C217.907 339.753 217.262 339.033 215.972 339.033H213.872V342.468ZM222.263 339.408H226.208C226.178 338.373 225.503 337.563 224.228 337.563C223.043 337.563 222.323 338.478 222.263 339.408ZM226.418 341.283L227.633 341.703C227.228 342.978 226.073 343.983 224.393 343.983C222.458 343.983 220.763 342.573 220.763 340.128C220.763 337.863 222.398 336.318 224.213 336.318C226.433 336.318 227.678 337.848 227.678 340.098C227.678 340.278 227.663 340.458 227.648 340.548H222.218C222.248 341.838 223.178 342.738 224.393 342.738C225.563 342.738 226.148 342.093 226.418 341.283ZM229.028 341.823C229.028 340.533 229.973 339.813 231.218 339.633L233.168 339.348C233.603 339.288 233.723 339.063 233.723 338.808C233.723 338.103 233.258 337.518 232.163 337.518C231.173 337.518 230.618 338.133 230.528 338.973L229.178 338.658C229.328 337.278 230.573 336.318 232.133 336.318C234.293 336.318 235.133 337.548 235.133 338.958V342.573C235.133 343.203 235.193 343.578 235.223 343.758H233.843C233.813 343.578 233.768 343.308 233.768 342.783C233.453 343.293 232.733 343.983 231.443 343.983C229.973 343.983 229.028 342.963 229.028 341.823ZM231.638 342.798C232.793 342.798 233.723 342.243 233.723 340.668V340.338L231.518 340.668C230.918 340.758 230.468 341.103 230.468 341.748C230.468 342.288 230.918 342.798 231.638 342.798ZM241.335 336.468V337.968C241.125 337.938 240.915 337.923 240.72 337.923C239.535 337.923 238.74 338.553 238.74 340.143V343.758H237.33V336.543H238.71V337.803C239.235 336.693 240.135 336.423 240.87 336.423C241.065 336.423 241.26 336.453 241.335 336.468ZM243.679 339.408H247.624C247.594 338.373 246.919 337.563 245.644 337.563C244.459 337.563 243.739 338.478 243.679 339.408ZM247.834 341.283L249.049 341.703C248.644 342.978 247.489 343.983 245.809 343.983C243.874 343.983 242.179 342.573 242.179 340.128C242.179 337.863 243.814 336.318 245.629 336.318C247.849 336.318 249.094 337.848 249.094 340.098C249.094 340.278 249.079 340.458 249.064 340.548H243.634C243.664 341.838 244.594 342.738 245.809 342.738C246.979 342.738 247.564 342.093 247.834 341.283ZM254.899 336.468V337.968C254.689 337.938 254.479 337.923 254.284 337.923C253.099 337.923 252.304 338.553 252.304 340.143V343.758H250.894V336.543H252.274V337.803C252.799 336.693 253.699 336.423 254.434 336.423C254.629 336.423 254.824 336.453 254.899 336.468ZM89.1303 376.883L90.4053 376.433C90.4953 377.183 91.0653 377.783 92.0853 377.783C92.8803 377.783 93.3153 377.333 93.3153 376.823C93.3153 376.373 92.9853 376.028 92.3853 375.893L91.1553 375.623C90.0303 375.383 89.3553 374.618 89.3553 373.598C89.3553 372.368 90.5103 371.318 91.9203 371.318C93.9003 371.318 94.5153 372.608 94.6653 373.253L93.4203 373.718C93.3603 373.343 93.0603 372.518 91.9203 372.518C91.2003 372.518 90.7203 372.983 90.7203 373.478C90.7203 373.913 90.9903 374.228 91.5453 374.348L92.7153 374.603C94.0203 374.888 94.7103 375.683 94.7103 376.748C94.7103 377.768 93.8553 378.983 92.0703 378.983C90.0903 378.983 89.2503 377.708 89.1303 376.883ZM103.053 371.543L99.9775 374.588L103.113 378.758H101.343L98.9875 375.578L97.9825 376.583V378.758H96.5875V367.898H97.9825V374.738L101.103 371.543H103.053ZM111.627 379.943H103.947V378.758H111.627V379.943ZM114.447 378.758H113.052V367.898H114.447V372.563C114.792 371.918 115.632 371.333 116.832 371.333C119.022 371.333 120.147 373.013 120.147 375.113C120.147 377.258 118.932 378.953 116.787 378.953C115.722 378.953 114.897 378.488 114.447 377.708V378.758ZM118.707 375.113C118.707 373.553 117.882 372.578 116.577 372.578C115.332 372.578 114.432 373.553 114.432 375.113C114.432 376.673 115.332 377.693 116.577 377.693C117.867 377.693 118.707 376.673 118.707 375.113ZM121.494 376.823C121.494 375.533 122.439 374.813 123.684 374.633L125.634 374.348C126.069 374.288 126.189 374.063 126.189 373.808C126.189 373.103 125.724 372.518 124.629 372.518C123.639 372.518 123.084 373.133 122.994 373.973L121.644 373.658C121.794 372.278 123.039 371.318 124.599 371.318C126.759 371.318 127.599 372.548 127.599 373.958V377.573C127.599 378.203 127.659 378.578 127.689 378.758H126.309C126.279 378.578 126.234 378.308 126.234 377.783C125.919 378.293 125.199 378.983 123.909 378.983C122.439 378.983 121.494 377.963 121.494 376.823ZM124.104 377.798C125.259 377.798 126.189 377.243 126.189 375.668V375.338L123.984 375.668C123.384 375.758 122.934 376.103 122.934 376.748C122.934 377.288 123.384 377.798 124.104 377.798ZM130.711 374.408H134.656C134.626 373.373 133.951 372.563 132.676 372.563C131.491 372.563 130.771 373.478 130.711 374.408ZM134.866 376.283L136.081 376.703C135.676 377.978 134.521 378.983 132.841 378.983C130.906 378.983 129.211 377.573 129.211 375.128C129.211 372.863 130.846 371.318 132.661 371.318C134.881 371.318 136.126 372.848 136.126 375.098C136.126 375.278 136.111 375.458 136.096 375.548H130.666C130.696 376.838 131.626 377.738 132.841 377.738C134.011 377.738 134.596 377.093 134.866 376.283ZM144.6 369.353L144.15 370.553C143.79 370.343 143.145 370.133 142.41 370.133C140.385 370.133 139.11 371.618 138.99 373.613C139.38 372.968 140.265 372.353 141.555 372.353C143.475 372.353 144.885 373.553 144.885 375.668C144.885 377.753 143.19 378.983 141.285 378.983C139.425 378.983 137.49 377.693 137.49 374.483C137.49 370.868 139.665 368.813 142.5 368.813C143.385 368.813 144.15 369.038 144.6 369.353ZM139.2 375.668C139.2 376.943 140.235 377.708 141.3 377.708C142.44 377.708 143.4 376.958 143.4 375.668C143.4 374.363 142.425 373.613 141.3 373.613C140.175 373.613 139.2 374.363 139.2 375.668ZM147.467 375.128C147.467 376.613 148.232 377.708 149.582 377.708C150.872 377.708 151.667 376.583 151.667 375.098C151.667 373.613 150.887 372.593 149.597 372.593C148.307 372.593 147.467 373.643 147.467 375.128ZM151.682 377.783V377.663C151.337 378.353 150.572 378.953 149.447 378.953C147.332 378.953 146.027 377.273 146.027 375.128C146.027 373.088 147.407 371.348 149.447 371.348C150.722 371.348 151.412 371.978 151.652 372.563V367.898H153.047V377.423C153.047 378.113 153.107 378.638 153.122 378.758H151.757C151.727 378.593 151.682 378.218 151.682 377.783ZM154.77 376.118L156.18 375.698C156.27 376.898 157.155 377.708 158.37 377.708C159.525 377.708 160.455 376.943 160.455 375.743C160.455 374.408 159.48 373.733 158.355 373.733C157.665 373.733 157.005 374.003 156.585 374.438C156.075 374.243 155.64 374.048 155.145 373.868L156.405 369.038H161.535V370.388H157.38L156.66 373.178C157.095 372.698 157.875 372.458 158.64 372.458C160.545 372.458 161.94 373.673 161.94 375.683C161.94 377.513 160.53 378.998 158.37 378.998C156.3 378.998 154.905 377.648 154.77 376.118ZM170.338 369.353L169.888 370.553C169.528 370.343 168.883 370.133 168.148 370.133C166.123 370.133 164.848 371.618 164.728 373.613C165.118 372.968 166.003 372.353 167.293 372.353C169.213 372.353 170.623 373.553 170.623 375.668C170.623 377.753 168.928 378.983 167.023 378.983C165.163 378.983 163.228 377.693 163.228 374.483C163.228 370.868 165.403 368.813 168.238 368.813C169.123 368.813 169.888 369.038 170.338 369.353ZM164.938 375.668C164.938 376.943 165.973 377.708 167.038 377.708C168.178 377.708 169.138 376.958 169.138 375.668C169.138 374.363 168.163 373.613 167.038 373.613C165.913 373.613 164.938 374.363 164.938 375.668ZM173.204 375.128C173.204 376.613 173.969 377.708 175.319 377.708C176.609 377.708 177.404 376.583 177.404 375.098C177.404 373.613 176.624 372.593 175.334 372.593C174.044 372.593 173.204 373.643 173.204 375.128ZM177.419 377.783V377.663C177.074 378.353 176.309 378.953 175.184 378.953C173.069 378.953 171.764 377.273 171.764 375.128C171.764 373.088 173.144 371.348 175.184 371.348C176.459 371.348 177.149 371.978 177.389 372.563V367.898H178.784V377.423C178.784 378.113 178.844 378.638 178.859 378.758H177.494C177.464 378.593 177.419 378.218 177.419 377.783ZM180.507 376.118L181.917 375.698C182.007 376.898 182.892 377.708 184.107 377.708C185.262 377.708 186.192 376.943 186.192 375.743C186.192 374.408 185.217 373.733 184.092 373.733C183.402 373.733 182.742 374.003 182.322 374.438C181.812 374.243 181.377 374.048 180.882 373.868L182.142 369.038H187.272V370.388H183.117L182.397 373.178C182.832 372.698 183.612 372.458 184.377 372.458C186.282 372.458 187.677 373.673 187.677 375.683C187.677 377.513 186.267 378.998 184.107 378.998C182.037 378.998 180.642 377.648 180.507 376.118ZM189.055 378.413L189.535 377.198C189.955 377.453 190.675 377.663 191.305 377.663C193.66 377.663 194.62 376.118 194.68 374.213C194.335 374.858 193.48 375.458 192.16 375.458C190.48 375.458 188.8 374.318 188.8 372.173C188.8 370.163 190.48 368.813 192.385 368.813C194.29 368.813 196.165 370.178 196.165 373.283C196.165 376.853 194.575 378.983 191.305 378.983C190.555 378.983 189.535 378.743 189.055 378.413ZM194.485 372.143C194.485 370.883 193.45 370.103 192.385 370.103C191.305 370.103 190.285 370.868 190.285 372.143C190.285 373.463 191.275 374.198 192.385 374.198C193.465 374.198 194.485 373.433 194.485 372.143ZM204.086 369.038V370.448C203.186 371.168 200.441 373.613 199.976 378.758H198.461C198.896 373.103 202.466 370.388 202.466 370.388H196.991V369.038H204.086ZM206.282 374.408H210.227C210.197 373.373 209.522 372.563 208.247 372.563C207.062 372.563 206.342 373.478 206.282 374.408ZM210.437 376.283L211.652 376.703C211.247 377.978 210.092 378.983 208.412 378.983C206.477 378.983 204.782 377.573 204.782 375.128C204.782 372.863 206.417 371.318 208.232 371.318C210.452 371.318 211.697 372.848 211.697 375.098C211.697 375.278 211.682 375.458 211.667 375.548H206.237C206.267 376.838 207.197 377.738 208.412 377.738C209.582 377.738 210.167 377.093 210.437 376.283ZM216.467 378.758H215.027V371.903H212.672V370.868C214.022 370.838 214.952 370.088 215.177 369.038H216.467V378.758ZM218.44 378.413L218.92 377.198C219.34 377.453 220.06 377.663 220.69 377.663C223.045 377.663 224.005 376.118 224.065 374.213C223.72 374.858 222.865 375.458 221.545 375.458C219.865 375.458 218.185 374.318 218.185 372.173C218.185 370.163 219.865 368.813 221.77 368.813C223.675 368.813 225.55 370.178 225.55 373.283C225.55 376.853 223.96 378.983 220.69 378.983C219.94 378.983 218.92 378.743 218.44 378.413ZM223.87 372.143C223.87 370.883 222.835 370.103 221.77 370.103C220.69 370.103 219.67 370.868 219.67 372.143C219.67 373.463 220.66 374.198 221.77 374.198C222.85 374.198 223.87 373.433 223.87 372.143ZM234.102 369.353L233.652 370.553C233.292 370.343 232.647 370.133 231.912 370.133C229.887 370.133 228.612 371.618 228.492 373.613C228.882 372.968 229.767 372.353 231.057 372.353C232.977 372.353 234.387 373.553 234.387 375.668C234.387 377.753 232.692 378.983 230.787 378.983C228.927 378.983 226.992 377.693 226.992 374.483C226.992 370.868 229.167 368.813 232.002 368.813C232.887 368.813 233.652 369.038 234.102 369.353ZM228.702 375.668C228.702 376.943 229.737 377.708 230.802 377.708C231.942 377.708 232.902 376.958 232.902 375.668C232.902 374.363 231.927 373.613 230.802 373.613C229.677 373.613 228.702 374.363 228.702 375.668ZM239.099 378.758H237.659V371.903H235.304V370.868C236.654 370.838 237.584 370.088 237.809 369.038H239.099V378.758ZM240.742 376.118L242.152 375.698C242.242 376.898 243.127 377.708 244.342 377.708C245.497 377.708 246.427 376.943 246.427 375.743C246.427 374.408 245.452 373.733 244.327 373.733C243.637 373.733 242.977 374.003 242.557 374.438C242.047 374.243 241.612 374.048 241.117 373.868L242.377 369.038H247.507V370.388H243.352L242.632 373.178C243.067 372.698 243.847 372.458 244.612 372.458C246.517 372.458 247.912 373.673 247.912 375.683C247.912 377.513 246.502 378.998 244.342 378.998C242.272 378.998 240.877 377.648 240.742 376.118ZM249.184 376.823C249.184 375.533 250.129 374.813 251.374 374.633L253.324 374.348C253.759 374.288 253.879 374.063 253.879 373.808C253.879 373.103 253.414 372.518 252.319 372.518C251.329 372.518 250.774 373.133 250.684 373.973L249.334 373.658C249.484 372.278 250.729 371.318 252.289 371.318C254.449 371.318 255.289 372.548 255.289 373.958V377.573C255.289 378.203 255.349 378.578 255.379 378.758H253.999C253.969 378.578 253.924 378.308 253.924 377.783C253.609 378.293 252.889 378.983 251.599 378.983C250.129 378.983 249.184 377.963 249.184 376.823ZM251.794 377.798C252.949 377.798 253.879 377.243 253.879 375.668V375.338L251.674 375.668C251.074 375.758 250.624 376.103 250.624 376.748C250.624 377.288 251.074 377.798 251.794 377.798ZM260.516 372.623C259.376 372.623 258.326 373.463 258.326 375.143C258.326 376.793 259.361 377.678 260.531 377.678C261.881 377.678 262.376 376.763 262.541 376.193L263.786 376.733C263.441 377.768 262.406 378.983 260.531 378.983C258.431 378.983 256.886 377.333 256.886 375.143C256.886 372.893 258.461 371.318 260.516 371.318C262.436 371.318 263.426 372.518 263.726 373.613L262.451 374.153C262.271 373.448 261.746 372.623 260.516 372.623ZM269.07 372.818H267.33V378.758H265.875V372.818H264.54V371.543H265.875V370.328C265.875 368.723 266.94 367.853 268.245 367.853C268.725 367.853 269.025 367.958 269.085 368.003V369.263C269.01 369.233 268.83 369.173 268.47 369.173C267.975 369.173 267.33 369.413 267.33 370.403V371.543H269.07V372.818ZM271.129 375.128C271.129 376.613 271.894 377.708 273.244 377.708C274.534 377.708 275.329 376.583 275.329 375.098C275.329 373.613 274.549 372.593 273.259 372.593C271.969 372.593 271.129 373.643 271.129 375.128ZM275.344 377.783V377.663C274.999 378.353 274.234 378.953 273.109 378.953C270.994 378.953 269.689 377.273 269.689 375.128C269.689 373.088 271.069 371.348 273.109 371.348C274.384 371.348 275.074 371.978 275.314 372.563V367.898H276.709V377.423C276.709 378.113 276.769 378.638 276.784 378.758H275.419C275.389 378.593 275.344 378.218 275.344 377.783ZM278.432 376.568V374.873L282.602 369.038H284.627V375.203H286.292V376.568H284.627V378.758H283.202V376.568H278.432ZM283.202 375.203V370.448L279.782 375.203H283.202ZM287.045 376.568V374.873L291.215 369.038H293.24V375.203H294.905V376.568H293.24V378.758H291.815V376.568H287.045ZM291.815 375.203V370.448L288.395 375.203H291.815ZM299.334 373.178C300.369 373.163 301.134 372.533 301.134 371.588C301.134 370.718 300.429 370.028 299.334 370.028C298.239 370.028 297.534 370.718 297.534 371.588C297.534 372.533 298.299 373.163 299.334 373.178ZM299.334 377.708C300.639 377.708 301.374 376.988 301.374 376.073C301.374 375.143 300.624 374.408 299.334 374.408C298.044 374.408 297.294 375.143 297.294 376.073C297.294 376.988 298.029 377.708 299.334 377.708ZM299.334 378.983C297.099 378.983 295.809 377.753 295.809 376.193C295.809 375.008 296.619 374.138 297.654 373.793C296.769 373.463 296.064 372.593 296.064 371.513C296.064 369.923 297.474 368.813 299.334 368.813C301.194 368.813 302.604 369.923 302.604 371.513C302.604 372.563 301.914 373.463 301.014 373.793C302.049 374.123 302.859 375.008 302.859 376.193C302.859 377.753 301.569 378.983 299.334 378.983ZM304.052 376.568V374.873L308.222 369.038H310.247V375.203H311.912V376.568H310.247V378.758H308.822V376.568H304.052ZM308.822 375.203V370.448L305.402 375.203H308.822ZM314.255 374.408H318.2C318.17 373.373 317.495 372.563 316.22 372.563C315.035 372.563 314.315 373.478 314.255 374.408ZM318.41 376.283L319.625 376.703C319.22 377.978 318.065 378.983 316.385 378.983C314.45 378.983 312.755 377.573 312.755 375.128C312.755 372.863 314.39 371.318 316.205 371.318C318.425 371.318 319.67 372.848 319.67 375.098C319.67 375.278 319.655 375.458 319.64 375.548H314.21C314.24 376.838 315.17 377.738 316.385 377.738C317.555 377.738 318.14 377.093 318.41 376.283ZM328.145 369.353L327.695 370.553C327.335 370.343 326.69 370.133 325.955 370.133C323.93 370.133 322.655 371.618 322.535 373.613C322.925 372.968 323.81 372.353 325.1 372.353C327.02 372.353 328.43 373.553 328.43 375.668C328.43 377.753 326.735 378.983 324.83 378.983C322.97 378.983 321.035 377.693 321.035 374.483C321.035 370.868 323.21 368.813 326.045 368.813C326.93 368.813 327.695 369.038 328.145 369.353ZM322.745 375.668C322.745 376.943 323.78 377.708 324.845 377.708C325.985 377.708 326.945 376.958 326.945 375.668C326.945 374.363 325.97 373.613 324.845 373.613C323.72 373.613 322.745 374.363 322.745 375.668ZM331.012 375.128C331.012 376.613 331.777 377.708 333.127 377.708C334.417 377.708 335.212 376.583 335.212 375.098C335.212 373.613 334.432 372.593 333.142 372.593C331.852 372.593 331.012 373.643 331.012 375.128ZM335.227 377.783V377.663C334.882 378.353 334.117 378.953 332.992 378.953C330.877 378.953 329.572 377.273 329.572 375.128C329.572 373.088 330.952 371.348 332.992 371.348C334.267 371.348 334.957 371.978 335.197 372.563V367.898H336.592V377.423C336.592 378.113 336.652 378.638 336.667 378.758H335.302C335.272 378.593 335.227 378.218 335.227 377.783ZM341.165 374.243L340.445 373.028L343.31 370.388H338.66V369.038H345.26V370.358L342.485 372.923C343.91 372.923 345.485 373.883 345.485 375.878C345.485 377.513 344.225 378.998 341.96 378.998C339.71 378.998 338.435 377.528 338.345 375.938L339.785 375.608C339.845 376.898 340.775 377.708 341.945 377.708C343.28 377.708 344 376.883 344 375.908C344 374.633 342.98 374.093 342.02 374.093C341.72 374.093 341.42 374.153 341.165 374.243ZM346.936 378.413L347.416 377.198C347.836 377.453 348.556 377.663 349.186 377.663C351.541 377.663 352.501 376.118 352.561 374.213C352.216 374.858 351.361 375.458 350.041 375.458C348.361 375.458 346.681 374.318 346.681 372.173C346.681 370.163 348.361 368.813 350.266 368.813C352.171 368.813 354.046 370.178 354.046 373.283C354.046 376.853 352.456 378.983 349.186 378.983C348.436 378.983 347.416 378.743 346.936 378.413ZM352.366 372.143C352.366 370.883 351.331 370.103 350.266 370.103C349.186 370.103 348.166 370.868 348.166 372.143C348.166 373.463 349.156 374.198 350.266 374.198C351.346 374.198 352.366 373.433 352.366 372.143ZM359.027 372.623C357.887 372.623 356.837 373.463 356.837 375.143C356.837 376.793 357.872 377.678 359.042 377.678C360.392 377.678 360.887 376.763 361.052 376.193L362.297 376.733C361.952 377.768 360.917 378.983 359.042 378.983C356.942 378.983 355.397 377.333 355.397 375.143C355.397 372.893 356.972 371.318 359.027 371.318C360.947 371.318 361.937 372.518 362.237 373.613L360.962 374.153C360.782 373.448 360.257 372.623 359.027 372.623ZM363.428 376.823C363.428 375.533 364.373 374.813 365.618 374.633L367.568 374.348C368.003 374.288 368.123 374.063 368.123 373.808C368.123 373.103 367.658 372.518 366.563 372.518C365.573 372.518 365.018 373.133 364.928 373.973L363.578 373.658C363.728 372.278 364.973 371.318 366.533 371.318C368.693 371.318 369.533 372.548 369.533 373.958V377.573C369.533 378.203 369.593 378.578 369.623 378.758H368.243C368.213 378.578 368.168 378.308 368.168 377.783C367.853 378.293 367.133 378.983 365.843 378.983C364.373 378.983 363.428 377.963 363.428 376.823ZM366.038 377.798C367.193 377.798 368.123 377.243 368.123 375.668V375.338L365.918 375.668C365.318 375.758 364.868 376.103 364.868 376.748C364.868 377.288 365.318 377.798 366.038 377.798ZM371.129 369.773C371.129 369.233 371.504 368.858 372.044 368.858C372.569 368.858 372.944 369.233 372.944 369.773C372.944 369.863 372.929 369.968 372.914 370.043L372.284 372.863H371.774L371.159 370.058C371.144 369.983 371.129 369.848 371.129 369.773Z" fill="#82D7D3"/>
</g>
<defs>
<clipPath id="clip0_7853_42925">
<rect y="112.838" width="551" height="419.018" rx="12.2676" fill="white"/>
</clipPath>
</defs>
</svg>
