<svg width="139" height="56" viewBox="0 0 139 56" fill="none" xmlns="http://www.w3.org/2000/svg">
<rect x="0.846497" y="1.41602" width="137.35" height="53.5686" rx="8.12745" fill="#151F32"/>
<path d="M36.0673 28.9644C36.0792 28.0444 36.3235 27.1424 36.7777 26.3423C37.2318 25.5422 37.8809 24.87 38.6647 24.3881C38.1668 23.677 37.5099 23.0919 36.7463 22.679C35.9827 22.2662 35.1334 22.0371 34.2657 22.01C32.4149 21.8157 30.6207 23.1175 29.6775 23.1175C28.7162 23.1175 27.2641 22.0293 25.7004 22.0615C24.689 22.0941 23.7032 22.3883 22.8393 22.9152C21.9753 23.4421 21.2626 24.1838 20.7705 25.068C18.6389 28.7585 20.2289 34.1823 22.2708 37.1655C23.2924 38.6262 24.4863 40.2579 26.0486 40.2001C27.5773 40.1366 28.1483 39.2252 29.9937 39.2252C31.8219 39.2252 32.3576 40.2001 33.9515 40.1633C35.592 40.1366 36.6255 38.696 37.6113 37.2214C38.3453 36.1806 38.9101 35.0302 39.2848 33.813C38.3318 33.4099 37.5185 32.7352 36.9463 31.8729C36.3741 31.0107 36.0685 29.9992 36.0673 28.9644Z" fill="#2EBDB6"/>
<path d="M33.0567 20.0484C33.9511 18.9747 34.3918 17.5946 34.285 16.2012C32.9185 16.3447 31.6563 16.9978 30.7498 18.0303C30.3065 18.5348 29.9671 19.1216 29.7508 19.7573C29.5345 20.393 29.4456 21.0651 29.4892 21.7351C30.1727 21.7422 30.8489 21.594 31.4668 21.3019C32.0848 21.0097 32.6284 20.5811 33.0567 20.0484Z" fill="#2EBDB6"/>
<path d="M51.6858 21.7629V15.9933H53.2711C54.6838 15.9933 55.8485 16.9639 55.8485 18.8943C55.8485 20.8139 54.6622 21.7629 53.2495 21.7629H51.6858ZM53.2818 22.7012C55.223 22.7012 56.9377 21.3963 56.9377 18.8943C56.9377 16.3816 55.2446 15.0551 53.3034 15.0551H50.6289V22.7012H53.2818ZM60.5044 21.9571C59.6416 21.9571 58.8867 21.31 58.8867 20.1022C58.8867 18.9051 59.6416 18.258 60.5044 18.258C61.3671 18.258 62.122 18.9051 62.122 20.1022C62.122 21.31 61.3671 21.9571 60.5044 21.9571ZM60.5044 17.3522C58.9514 17.3522 57.8514 18.5276 57.8514 20.1022C57.8514 21.6874 58.9514 22.8629 60.5044 22.8629C62.0573 22.8629 63.1573 21.6874 63.1573 20.1022C63.1573 18.5276 62.0573 17.3522 60.5044 17.3522ZM67.2715 17.5139L65.9235 21.4178L64.7588 17.5139H63.648L65.3519 22.7012H66.4196L67.7676 18.7541L69.148 22.7012H70.1941L71.8764 17.5139H70.8088L69.6657 21.4178L68.3176 17.5139H67.2715ZM73.9143 19.7031C73.9143 18.9159 74.3241 18.2796 75.1222 18.2796C76.0281 18.2796 76.33 18.862 76.33 19.5845V22.7012H77.3437V19.412C77.3437 18.258 76.729 17.3629 75.4888 17.3629C74.8849 17.3629 74.2702 17.611 73.8928 18.258V17.5139H72.9006V22.7012H73.9143V19.7031ZM79.97 22.7012V14.8933H78.9563V22.7012H79.97ZM83.916 21.9571C83.0533 21.9571 82.2984 21.31 82.2984 20.1022C82.2984 18.9051 83.0533 18.258 83.916 18.258C84.7788 18.258 85.5337 18.9051 85.5337 20.1022C85.5337 21.31 84.7788 21.9571 83.916 21.9571ZM83.916 17.3522C82.3631 17.3522 81.2631 18.5276 81.2631 20.1022C81.2631 21.6874 82.3631 22.8629 83.916 22.8629C85.469 22.8629 86.569 21.6874 86.569 20.1022C86.569 18.5276 85.469 17.3522 83.916 17.3522ZM87.5424 21.31C87.5424 22.1296 88.2218 22.8629 89.2787 22.8629C90.2061 22.8629 90.7238 22.3669 90.9503 22.0002C90.9503 22.3776 90.9826 22.5718 91.0042 22.7012H91.9963C91.9748 22.5718 91.9316 22.3022 91.9316 21.8492V19.2502C91.9316 18.2365 91.3277 17.3522 89.7748 17.3522C88.6532 17.3522 87.7581 18.0423 87.6503 19.0345L88.6209 19.261C88.6856 18.6571 89.0846 18.2149 89.7963 18.2149C90.5836 18.2149 90.9179 18.6355 90.9179 19.1423C90.9179 19.3257 90.8316 19.4874 90.5189 19.5306L89.1169 19.7355C88.2218 19.8649 87.5424 20.3825 87.5424 21.31ZM89.4189 22.011C88.9012 22.011 88.5777 21.6443 88.5777 21.2561C88.5777 20.7923 88.9012 20.5443 89.3326 20.4796L90.9179 20.2423V20.4796C90.9179 21.612 90.2493 22.011 89.4189 22.011ZM94.1148 20.0914C94.1148 19.0237 94.7187 18.2688 95.6462 18.2688C96.5736 18.2688 97.1344 19.0022 97.1344 20.0698C97.1344 21.1374 96.5628 21.9463 95.6354 21.9463C94.6648 21.9463 94.1148 21.159 94.1148 20.0914ZM97.1452 22.0002C97.1452 22.3129 97.1775 22.5825 97.1991 22.7012H98.1805C98.1697 22.6149 98.1266 22.2374 98.1266 21.7414V14.8933H97.1236V18.2473C96.9511 17.8267 96.455 17.3737 95.5383 17.3737C94.0717 17.3737 93.0795 18.6247 93.0795 20.0914C93.0795 21.6335 94.0177 22.8414 95.5383 22.8414C96.3471 22.8414 96.8971 22.41 97.1452 21.9139V22.0002ZM104.769 21.9571C103.906 21.9571 103.151 21.31 103.151 20.1022C103.151 18.9051 103.906 18.258 104.769 18.258C105.631 18.258 106.386 18.9051 106.386 20.1022C106.386 21.31 105.631 21.9571 104.769 21.9571ZM104.769 17.3522C103.216 17.3522 102.116 18.5276 102.116 20.1022C102.116 21.6874 103.216 22.8629 104.769 22.8629C106.321 22.8629 107.421 21.6874 107.421 20.1022C107.421 18.5276 106.321 17.3522 104.769 17.3522ZM109.732 19.7031C109.732 18.9159 110.142 18.2796 110.94 18.2796C111.846 18.2796 112.148 18.862 112.148 19.5845V22.7012H113.162V19.412C113.162 18.258 112.547 17.3629 111.307 17.3629C110.703 17.3629 110.088 17.611 109.711 18.258V17.5139H108.718V22.7012H109.732V19.7031Z" fill="#ABE5E2"/>
<path d="M57.9691 40.7012L56.9575 38.0137H52.4281L51.4317 40.7012H49.5142L53.6813 29.9967H55.7799L59.947 40.7012H57.9691ZM54.6928 31.9594L53.0623 36.3378H56.3234L54.6928 31.9594ZM62.9214 43.5698H61.1851V33.3484H62.8761V34.3449C63.0673 34.0127 63.3693 33.7359 63.782 33.5145C64.1947 33.2931 64.6728 33.1823 65.2163 33.1823C66.2732 33.1823 67.1035 33.5447 67.7075 34.2694C68.3114 34.984 68.6134 35.9 68.6134 37.0172C68.6134 38.1345 68.2963 39.0605 67.6622 39.7953C67.0281 40.52 66.1926 40.8823 65.1559 40.8823C64.6526 40.8823 64.2047 40.7867 63.8122 40.5955C63.4196 40.4042 63.1227 40.1627 62.9214 39.8708V43.5698ZM66.862 37.0172C66.862 36.3328 66.6808 35.7842 66.3184 35.3716C65.9561 34.9488 65.478 34.7374 64.8841 34.7374C64.3003 34.7374 63.8222 34.9488 63.4498 35.3716C63.0875 35.7842 62.9063 36.3328 62.9063 37.0172C62.9063 37.7118 63.0875 38.2704 63.4498 38.6931C63.8222 39.1159 64.3003 39.3273 64.8841 39.3273C65.4679 39.3273 65.941 39.1159 66.3034 38.6931C66.6758 38.2704 66.862 37.7118 66.862 37.0172ZM72.0333 43.5698H70.297V33.3484H71.988V34.3449C72.1792 34.0127 72.4812 33.7359 72.8939 33.5145C73.3066 33.2931 73.7847 33.1823 74.3282 33.1823C75.3851 33.1823 76.2155 33.5447 76.8194 34.2694C77.4233 34.984 77.7253 35.9 77.7253 37.0172C77.7253 38.1345 77.4082 39.0605 76.7741 39.7953C76.14 40.52 75.3045 40.8823 74.2678 40.8823C73.7645 40.8823 73.3166 40.7867 72.9241 40.5955C72.5315 40.4042 72.2346 40.1627 72.0333 39.8708V43.5698ZM75.9739 37.0172C75.9739 36.3328 75.7927 35.7842 75.4304 35.3716C75.068 34.9488 74.5899 34.7374 73.996 34.7374C73.4122 34.7374 72.9341 34.9488 72.5617 35.3716C72.1994 35.7842 72.0182 36.3328 72.0182 37.0172C72.0182 37.7118 72.1994 38.2704 72.5617 38.6931C72.9341 39.1159 73.4122 39.3273 73.996 39.3273C74.5798 39.3273 75.0529 39.1159 75.4153 38.6931C75.7877 38.2704 75.9739 37.7118 75.9739 37.0172ZM90.3406 32.5029L88.71 33.0163C88.6396 32.6036 88.4332 32.2261 88.091 31.8839C87.7488 31.5417 87.2556 31.3706 86.6114 31.3706C86.0779 31.3706 85.6351 31.5216 85.2828 31.8235C84.9405 32.1255 84.7694 32.4878 84.7694 32.9106C84.7694 33.6454 85.1871 34.1033 86.0226 34.2845L87.5626 34.6016C88.4886 34.7827 89.2032 35.1501 89.7065 35.7037C90.2098 36.2573 90.4614 36.9166 90.4614 37.6816C90.4614 38.5673 90.1192 39.3323 89.4347 39.9765C88.7603 40.6106 87.8394 40.9276 86.6718 40.9276C85.4136 40.9276 84.4322 40.6005 83.7277 39.9463C83.0231 39.282 82.6255 38.512 82.5349 37.6363L84.2259 37.1531C84.2863 37.7571 84.5279 38.2654 84.9506 38.678C85.3734 39.0907 85.9471 39.2971 86.6718 39.2971C87.2958 39.2971 87.7739 39.1612 88.1061 38.8894C88.4483 38.6076 88.6194 38.2503 88.6194 37.8174C88.6194 37.4652 88.4936 37.1632 88.242 36.9116C87.9903 36.6499 87.6381 36.4687 87.1851 36.368L85.6753 36.051C84.8399 35.8799 84.1756 35.5326 83.6824 35.0092C83.1992 34.4858 82.9577 33.8316 82.9577 33.0465C82.9577 32.1506 83.315 31.3806 84.0296 30.7365C84.7443 30.0923 85.5998 29.7702 86.5963 29.7702C87.7337 29.7702 88.6043 30.047 89.2083 30.6006C89.8122 31.1441 90.1896 31.7782 90.3406 32.5029ZM94.382 31.0988V33.3484H95.907V34.9035H94.382V38.3157C94.382 38.6378 94.4575 38.8743 94.6085 39.0253C94.7595 39.1662 94.996 39.2367 95.3181 39.2367C95.5194 39.2367 95.7207 39.2165 95.922 39.1763V40.6257C95.6604 40.7364 95.303 40.7918 94.8501 40.7918C94.1656 40.7918 93.6271 40.6005 93.2346 40.218C92.842 39.8255 92.6458 39.287 92.6458 38.6025V34.9035H91.287V33.3484H91.6644C92.0368 33.3484 92.3187 33.2427 92.5099 33.0314C92.7011 32.82 92.7968 32.5432 92.7968 32.201V31.0988H94.382ZM99.3992 38.7384C99.8018 39.1511 100.29 39.3574 100.864 39.3574C101.437 39.3574 101.921 39.1511 102.313 38.7384C102.716 38.3257 102.917 37.752 102.917 37.0172C102.917 36.2925 102.716 35.7289 102.313 35.3263C101.921 34.9136 101.437 34.7072 100.864 34.7072C100.29 34.7072 99.8018 34.9136 99.3992 35.3263C99.0066 35.7289 98.8104 36.2925 98.8104 37.0172C98.8104 37.742 99.0066 38.3157 99.3992 38.7384ZM100.864 33.122C101.971 33.122 102.882 33.4893 103.596 34.2241C104.321 34.9589 104.684 35.8899 104.684 37.0172C104.684 38.1446 104.321 39.0806 103.596 39.8255C102.882 40.5603 101.971 40.9276 100.864 40.9276C99.7666 40.9276 98.8557 40.5603 98.131 39.8255C97.4163 39.0806 97.059 38.1446 97.059 37.0172C97.059 35.8899 97.4163 34.9589 98.131 34.2241C98.8557 33.4893 99.7666 33.122 100.864 33.122ZM110.679 33.3031V35.0847C110.478 35.0545 110.286 35.0394 110.105 35.0394C108.787 35.0394 108.127 35.7591 108.127 37.1984V40.7012H106.376V33.3484H108.082V34.5261C108.253 34.1335 108.53 33.8265 108.912 33.6051C109.295 33.3736 109.728 33.2578 110.211 33.2578C110.372 33.2578 110.528 33.2729 110.679 33.3031ZM113.29 36.2171H116.899C116.879 35.754 116.712 35.3665 116.4 35.0545C116.098 34.7425 115.661 34.5865 115.087 34.5865C114.563 34.5865 114.141 34.7525 113.819 35.0847C113.497 35.4068 113.32 35.7842 113.29 36.2171ZM117.095 38.1345L118.575 38.6025C118.363 39.2769 117.966 39.8356 117.382 40.2784C116.808 40.7112 116.098 40.9276 115.253 40.9276C114.206 40.9276 113.315 40.5703 112.581 39.8557C111.856 39.141 111.494 38.1848 111.494 36.9871C111.494 35.8597 111.846 34.9337 112.55 34.209C113.265 33.4843 114.106 33.122 115.072 33.122C116.199 33.122 117.08 33.4692 117.714 34.1637C118.348 34.8482 118.665 35.7742 118.665 36.9418C118.665 37.2538 118.65 37.44 118.62 37.5004H113.245C113.265 38.054 113.466 38.512 113.849 38.8743C114.241 39.2367 114.709 39.4178 115.253 39.4178C116.199 39.4178 116.813 38.9901 117.095 38.1345Z" fill="white"/>
<rect x="0.846497" y="1.41602" width="137.35" height="53.5686" rx="8.12745" stroke="#D5F2F0"/>
</svg>
