<svg width="48" height="49" viewBox="0 0 48 49" fill="none" xmlns="http://www.w3.org/2000/svg">
<rect y="0.5" width="48" height="48" rx="24" fill="#F2F4F7"/>
<g opacity="0.08">
<rect x="0.375" y="0.875" width="47.25" height="47.25" rx="23.625" stroke="#101828" stroke-width="0.75"/>
</g>
<path d="M33.3332 35C33.3332 33.3718 33.3332 32.5578 33.1322 31.8953C32.6798 30.4039 31.5126 29.2367 30.0212 28.7843C29.3587 28.5833 28.5447 28.5833 26.9165 28.5833H21.0832C19.455 28.5833 18.6409 28.5833 17.9785 28.7843C16.487 29.2367 15.3199 30.4039 14.8675 31.8953C14.6665 32.5578 14.6665 33.3718 14.6665 35M29.2498 19.25C29.2498 22.1495 26.8993 24.5 23.9998 24.5C21.1003 24.5 18.7498 22.1495 18.7498 19.25C18.7498 16.3505 21.1003 14 23.9998 14C26.8993 14 29.2498 16.3505 29.2498 19.25Z" stroke="#475467" stroke-width="2.33333" stroke-linecap="round" stroke-linejoin="round"/>
</svg>
