<svg width="16" height="17" viewBox="0 0 16 17" fill="none" xmlns="http://www.w3.org/2000/svg">
<path d="M10.6667 5.8342V3.5013C10.6667 2.94681 10.6667 2.66956 10.5499 2.49918C10.4478 2.35032 10.2898 2.24919 10.1118 2.21892C9.90819 2.18426 9.65646 2.30044 9.153 2.53281L3.23934 5.26219C2.79034 5.46942 2.56583 5.57304 2.4014 5.73374C2.25604 5.87581 2.14508 6.04923 2.077 6.24075C2 6.45739 2 6.70465 2 7.19917V10.5009M11 10.1675H11.0067M2 7.96753L2 12.3675C2 13.1143 2 13.4876 2.14532 13.7728C2.27316 14.0237 2.47713 14.2277 2.72801 14.3555C3.01323 14.5009 3.3866 14.5009 4.13333 14.5009H11.8667C12.6134 14.5009 12.9868 14.5009 13.272 14.3555C13.5229 14.2277 13.7268 14.0237 13.8547 13.7728C14 13.4876 14 13.1143 14 12.3675V7.96753C14 7.22079 14 6.84742 13.8547 6.56221C13.7268 6.31133 13.5229 6.10735 13.272 5.97952C12.9868 5.8342 12.6134 5.8342 11.8667 5.8342L4.13333 5.83419C3.3866 5.83419 3.01323 5.8342 2.72801 5.97952C2.47713 6.10735 2.27316 6.31132 2.14532 6.56221C2 6.84742 2 7.22079 2 7.96753ZM11.3333 10.1675C11.3333 10.3516 11.1841 10.5009 11 10.5009C10.8159 10.5009 10.6667 10.3516 10.6667 10.1675C10.6667 9.98343 10.8159 9.83419 11 9.83419C11.1841 9.83419 11.3333 9.98343 11.3333 10.1675Z" stroke="#2EBDB6" stroke-width="1.5" stroke-linecap="round" stroke-linejoin="round"/>
</svg>
