<svg width="36" height="36" viewBox="0 0 36 36" fill="none" xmlns="http://www.w3.org/2000/svg">
<g style="mix-blend-mode:multiply">
<rect x="2" y="2" width="32" height="32" rx="16" fill="#EAF8F8"/>
<path d="M11.333 19.6664L17.7612 22.8805C17.8486 22.9242 17.8923 22.9461 17.9382 22.9547C17.9788 22.9623 18.0205 22.9623 18.0611 22.9547C18.107 22.9461 18.1507 22.9242 18.2382 22.8805L24.6663 19.6664M11.333 16.3331L17.7612 13.119C17.8486 13.0752 17.8923 13.0534 17.9382 13.0448C17.9788 13.0372 18.0205 13.0372 18.0611 13.0448C18.107 13.0534 18.1507 13.0752 18.2382 13.119L24.6663 16.3331L18.2382 19.5471C18.1507 19.5909 18.107 19.6127 18.0611 19.6213C18.0205 19.6289 17.9788 19.6289 17.9382 19.6213C17.8923 19.6127 17.8486 19.5909 17.7612 19.5471L11.333 16.3331Z" stroke="#2EBDB6" stroke-width="1.33333" stroke-linecap="round" stroke-linejoin="round"/>
<rect x="2" y="2" width="32" height="32" rx="16" stroke="#EAF8F8" stroke-width="4"/>
</g>
</svg>
