<svg width="16" height="17" viewBox="0 0 16 17" fill="none" xmlns="http://www.w3.org/2000/svg">
<path d="M10.6667 5.83322V3.50032C10.6667 2.94583 10.6667 2.66858 10.5499 2.4982C10.4478 2.34934 10.2898 2.24822 10.1118 2.21794C9.90819 2.18328 9.65646 2.29947 9.153 2.53183L3.23934 5.26121C2.79034 5.46845 2.56583 5.57206 2.4014 5.73276C2.25604 5.87483 2.14508 6.04825 2.077 6.23977C2 6.45641 2 6.70367 2 7.19819V10.4999M11 10.1666H11.0067M2 7.96655L2 12.3666C2 13.1133 2 13.4867 2.14532 13.7719C2.27316 14.0228 2.47713 14.2267 2.72801 14.3546C3.01323 14.4999 3.3866 14.4999 4.13333 14.4999H11.8667C12.6134 14.4999 12.9868 14.4999 13.272 14.3546C13.5229 14.2267 13.7268 14.0228 13.8547 13.7719C14 13.4867 14 13.1133 14 12.3666V7.96655C14 7.21982 14 6.84645 13.8547 6.56123C13.7268 6.31035 13.5229 6.10638 13.272 5.97854C12.9868 5.83322 12.6134 5.83322 11.8667 5.83322L4.13333 5.83322C3.3866 5.83322 3.01323 5.83322 2.72801 5.97854C2.47713 6.10637 2.27316 6.31035 2.14532 6.56123C2 6.84645 2 7.21982 2 7.96655ZM11.3333 10.1666C11.3333 10.3506 11.1841 10.4999 11 10.4999C10.8159 10.4999 10.6667 10.3506 10.6667 10.1666C10.6667 9.98246 10.8159 9.83322 11 9.83322C11.1841 9.83322 11.3333 9.98246 11.3333 10.1666Z" stroke="#667085" stroke-width="1.5" stroke-linecap="round" stroke-linejoin="round"/>
</svg>
