<svg width="32" height="32" viewBox="0 0 32 32" fill="none" xmlns="http://www.w3.org/2000/svg">
<rect width="32" height="32" rx="8" fill="#F2F4F7"/>
<path d="M10.5785 16.3992L10.5786 16.3992L10.5815 16.3942C10.7117 16.1718 10.8216 15.8763 10.8987 15.5962C10.9757 15.3164 11.0333 15.0038 11.0333 14.7416V13.1916C11.0333 10.4442 13.2665 8.2162 16.0173 8.20825C18.7571 8.20862 20.9917 10.4425 20.9917 13.1916V14.7499C20.9917 15.0124 21.0493 15.3253 21.1278 15.6063C21.2061 15.8866 21.3188 16.1841 21.4556 16.4089C21.4559 16.4093 21.4562 16.4098 21.4564 16.4102L22.3952 17.972C22.3953 17.9723 22.3955 17.9726 22.3957 17.973C22.661 18.4201 22.7106 18.9446 22.532 19.424C22.351 19.9013 21.9719 20.2742 21.4743 20.4425C20.5981 20.7346 19.6998 20.9609 18.7957 21.1063L18.7956 21.1062L18.7856 21.108C18.69 21.1254 18.6204 21.1377 18.5547 21.1436L18.5362 21.1453L18.5178 21.1484C18.3835 21.1708 18.247 21.1861 18.0948 21.203L18.0948 21.2028L18.0824 21.2045C17.9133 21.2276 17.7341 21.2433 17.54 21.2601L17.54 21.2601L17.5352 21.2606C17.0348 21.309 16.5259 21.3333 16.0167 21.3333C15.4989 21.3333 14.9813 21.309 14.4724 21.2605L14.4724 21.2604L14.4619 21.2596C14.2503 21.2439 14.0467 21.2205 13.8427 21.1891L13.8427 21.189L13.8327 21.1876C13.7104 21.1713 13.5909 21.1554 13.4794 21.1395C13.4261 21.1301 13.3748 21.1231 13.3339 21.1175L13.3301 21.117C13.2824 21.1105 13.2476 21.1057 13.2144 21.0997L13.2144 21.0996L13.2094 21.0988C12.3056 20.9441 11.4223 20.7331 10.5498 20.4422L10.5462 20.4411C10.0168 20.269 9.62962 19.8918 9.46062 19.4348L9.45983 19.4327C9.29522 18.9937 9.34635 18.4602 9.63809 17.9638L10.5785 16.3992ZM15.9917 15.4666C16.6178 15.4666 17.125 14.9594 17.125 14.3333V11.7499C17.125 11.1238 16.6178 10.6166 15.9917 10.6166C15.3655 10.6166 14.8583 11.1238 14.8583 11.7499V14.3333C14.8583 14.9594 15.3655 15.4666 15.9917 15.4666Z" fill="#4A5873" stroke="#4A5873"/>
<path d="M16 23.8334C15.4904 23.8334 14.9888 23.6328 14.6299 23.2816C15.0853 23.3192 15.55 23.3417 16.0167 23.3417C16.4753 23.3417 16.932 23.3193 17.3794 23.2816C17.0189 23.6239 16.5328 23.8334 16 23.8334Z" fill="#4A5873" stroke="#4A5873"/>
<circle cx="20.5" cy="8.5" r="2.75" fill="#ED1C24" stroke="white" stroke-width="0.5"/>
</svg>
