<svg width="95" height="30" viewBox="0 0 95 30" fill="none" xmlns="http://www.w3.org/2000/svg">
<g style="mix-blend-mode:multiply">
<path d="M15.0859 10.492H17.8579C19.4779 10.492 20.4259 11.452 20.4259 12.796C20.4259 13.708 19.8979 14.356 19.1539 14.632C20.1259 14.872 20.6899 15.736 20.6899 16.684C20.6899 18.028 19.6219 19 18.0619 19H15.0859V10.492ZM16.2619 14.212H17.7259C18.6739 14.212 19.2379 13.648 19.2379 12.856C19.2379 12.052 18.6499 11.524 17.6779 11.524H16.2619V14.212ZM16.2619 17.968H17.8939C18.8419 17.968 19.4899 17.44 19.4899 16.612C19.4899 15.796 18.9739 15.22 17.9419 15.22H16.2619V17.968ZM23.3126 19H22.1846V10.312H23.3126V19ZM24.8715 17.452C24.8715 16.42 25.6275 15.844 26.6235 15.7L28.1835 15.472C28.5315 15.424 28.6275 15.244 28.6275 15.04C28.6275 14.476 28.2555 14.008 27.3795 14.008C26.5875 14.008 26.1435 14.5 26.0715 15.172L24.9915 14.92C25.1115 13.816 26.1075 13.048 27.3555 13.048C29.0835 13.048 29.7555 14.032 29.7555 15.16V18.052C29.7555 18.556 29.8035 18.856 29.8275 19H28.7235C28.6995 18.856 28.6635 18.64 28.6635 18.22C28.4115 18.628 27.8355 19.18 26.8035 19.18C25.6275 19.18 24.8715 18.364 24.8715 17.452ZM26.9595 18.232C27.8835 18.232 28.6275 17.788 28.6275 16.528V16.264L26.8635 16.528C26.3835 16.6 26.0235 16.876 26.0235 17.392C26.0235 17.824 26.3835 18.232 26.9595 18.232ZM33.9367 14.092C33.0247 14.092 32.1847 14.764 32.1847 16.108C32.1847 17.428 33.0127 18.136 33.9487 18.136C35.0287 18.136 35.4247 17.404 35.5567 16.948L36.5527 17.38C36.2767 18.208 35.4487 19.18 33.9487 19.18C32.2687 19.18 31.0327 17.86 31.0327 16.108C31.0327 14.308 32.2927 13.048 33.9367 13.048C35.4727 13.048 36.2647 14.008 36.5047 14.884L35.4847 15.316C35.3407 14.752 34.9207 14.092 33.9367 14.092ZM43.048 13.228L40.588 15.664L43.096 19H41.68L39.796 16.456L38.992 17.26V19H37.876V10.312H38.992V15.784L41.488 13.228H43.048ZM45.3087 19H44.1807V10.312H45.3087V19ZM48.3436 19H47.2276V13.228H48.3436V19ZM46.9756 11.044C46.9756 10.588 47.3356 10.228 47.7796 10.228C48.2356 10.228 48.5956 10.588 48.5956 11.044C48.5956 11.488 48.2356 11.848 47.7796 11.848C47.3356 11.848 46.9756 11.488 46.9756 11.044ZM49.7227 17.5L50.7427 17.14C50.8147 17.74 51.2707 18.22 52.0867 18.22C52.7227 18.22 53.0707 17.86 53.0707 17.452C53.0707 17.092 52.8067 16.816 52.3267 16.708L51.3427 16.492C50.4427 16.3 49.9027 15.688 49.9027 14.872C49.9027 13.888 50.8267 13.048 51.9547 13.048C53.5387 13.048 54.0307 14.08 54.1507 14.596L53.1547 14.968C53.1067 14.668 52.8667 14.008 51.9547 14.008C51.3787 14.008 50.9947 14.38 50.9947 14.776C50.9947 15.124 51.2107 15.376 51.6547 15.472L52.5907 15.676C53.6347 15.904 54.1867 16.54 54.1867 17.392C54.1867 18.208 53.5027 19.18 52.0747 19.18C50.4907 19.18 49.8187 18.16 49.7227 17.5ZM57.2005 11.404V13.228H58.4485V14.248H57.2005V17.248C57.2005 17.776 57.4165 18.04 58.0045 18.04C58.1485 18.04 58.3525 18.016 58.4485 17.992V18.952C58.3525 18.988 58.0645 19.06 57.6805 19.06C56.6965 19.06 56.0725 18.46 56.0725 17.416V14.248H54.9685V13.228H55.2805C55.9045 13.228 56.1685 12.844 56.1685 12.34V11.404H57.2005Z" fill="#ED1C24"/>
<g clip-path="url(#clip0_6993_44279)">
<path d="M69.465 11.465L76.535 18.535M78 15C78 17.7614 75.7614 20 73 20C70.2386 20 68 17.7614 68 15C68 12.2386 70.2386 10 73 10C75.7614 10 78 12.2386 78 15Z" stroke="#ED1C24" stroke-width="1.5" stroke-linecap="round" stroke-linejoin="round"/>
</g>
<rect x="0.5" y="0.5" width="94" height="29" rx="7.5" stroke="#EAECF0"/>
</g>
<defs>
<clipPath id="clip0_6993_44279">
<rect width="12" height="12" fill="white" transform="translate(67 9)"/>
</clipPath>
</defs>
</svg>
