<svg width="37" height="22" viewBox="0 0 37 22" fill="none" xmlns="http://www.w3.org/2000/svg">
<g style="mix-blend-mode:multiply">
<rect x="1" y="0.5" width="35" height="21" rx="10.5" fill="#EEF4FF"/>
<path d="M15.7248 15L14.9208 12.864H11.3208L10.5288 15H9.00477L12.3168 6.492H13.9848L17.2968 15H15.7248ZM13.1208 8.052L11.8248 11.532H14.4168L13.1208 8.052ZM19.876 10.404H21.376C22.288 10.404 22.84 9.9 22.84 9.096C22.84 8.28 22.288 7.764 21.376 7.764H19.876V10.404ZM21.592 11.676H19.876V15H18.436V6.492H21.592C23.224 6.492 24.304 7.596 24.304 9.084C24.304 10.584 23.224 11.676 21.592 11.676ZM27.0953 15H25.6313V6.492H27.0953V15Z" fill="#3538CD"/>
<rect x="1" y="0.5" width="35" height="21" rx="10.5" stroke="#C7D7FE"/>
</g>
</svg>
