<svg width="46" height="22" viewBox="0 0 46 22" fill="none" xmlns="http://www.w3.org/2000/svg">
<g style="mix-blend-mode:multiply">
<rect x="1" y="0.5" width="44" height="21" rx="10.5" fill="#EEF4FF"/>
<path d="M14.9928 15H9.65281V6.492H11.0928V13.632H14.9928V15ZM17.5691 15H16.1891V9.156H17.5691V15ZM15.9731 7.104C15.9731 6.6 16.3811 6.192 16.8731 6.192C17.3771 6.192 17.7851 6.6 17.7851 7.104C17.7851 7.608 17.3771 8.004 16.8731 8.004C16.3811 8.004 15.9731 7.608 15.9731 7.104ZM20.7568 11.628V15H19.3648V9.156H20.7208V9.936C21.1048 9.264 21.8008 8.988 22.4488 8.988C23.8768 8.988 24.5608 10.02 24.5608 11.304V15H23.1688V11.544C23.1688 10.824 22.8448 10.248 21.9688 10.248C21.1768 10.248 20.7568 10.86 20.7568 11.628ZM31.7275 9.156L29.3275 11.628L31.7755 15H30.0715L28.3555 12.612L27.6355 13.368V15H26.2555V6.312H27.6355V11.52L29.8795 9.156H31.7275ZM32.2668 13.416L33.4788 13.08C33.5268 13.608 33.9228 14.076 34.6668 14.076C35.2428 14.076 35.5428 13.764 35.5428 13.404C35.5428 13.092 35.3268 12.852 34.8588 12.756L33.9948 12.564C32.9628 12.336 32.4228 11.664 32.4228 10.86C32.4228 9.84 33.3588 8.976 34.5708 8.976C36.2028 8.976 36.7308 10.032 36.8268 10.608L35.6508 10.944C35.6028 10.608 35.3508 10.068 34.5708 10.068C34.0788 10.068 33.7308 10.38 33.7308 10.74C33.7308 11.052 33.9588 11.28 34.3188 11.352L35.2068 11.532C36.3108 11.772 36.8868 12.444 36.8868 13.308C36.8868 14.196 36.1668 15.18 34.6788 15.18C32.9868 15.18 32.3388 14.076 32.2668 13.416Z" fill="#3538CD"/>
<rect x="1" y="0.5" width="44" height="21" rx="10.5" stroke="#C7D7FE"/>
</g>
</svg>
