<svg width="16" height="17" viewBox="0 0 16 17" fill="none" xmlns="http://www.w3.org/2000/svg">
<path d="M10.6664 5.83333C10.6664 6.54058 10.3854 7.21885 9.8853 7.71895C9.38521 8.21905 8.70693 8.5 7.99968 8.5C7.29244 8.5 6.61416 8.21905 6.11407 7.71895C5.61397 7.21885 5.33302 6.54058 5.33302 5.83333M2.42183 5.43426L1.95516 11.0343C1.85491 12.2373 1.80479 12.8388 2.00814 13.3028C2.18681 13.7105 2.49637 14.0469 2.88781 14.2588C3.33333 14.5 3.93692 14.5 5.14411 14.5H10.8553C12.0624 14.5 12.666 14.5 13.1116 14.2588C13.503 14.0469 13.8126 13.7105 13.9912 13.3028C14.1946 12.8388 14.1445 12.2373 14.0442 11.0343L13.5775 5.43426C13.4913 4.39917 13.4482 3.88162 13.2189 3.4899C13.0171 3.14496 12.7165 2.8684 12.356 2.6959C11.9466 2.5 11.4273 2.5 10.3886 2.5L5.61078 2.5C4.5721 2.5 4.05276 2.5 3.64336 2.6959C3.28285 2.8684 2.98228 3.14496 2.78044 3.4899C2.55122 3.88162 2.50809 4.39917 2.42183 5.43426Z" stroke="#151F32" stroke-width="1.5" stroke-linecap="round" stroke-linejoin="round"/>
</svg>
