<svg width="16" height="16" viewBox="0 0 16 16" fill="none" xmlns="http://www.w3.org/2000/svg">
<path d="M1.96606 0.612721C1.5918 0.238468 0.98502 0.238468 0.610767 0.612721C0.236515 0.986973 0.236515 1.59376 0.610767 1.96801L6.14489 7.50213L0.610825 13.0362C0.236573 13.4104 0.236572 14.0172 0.610825 14.3915C0.985077 14.7657 1.59186 14.7657 1.96611 14.3915L7.50018 8.85742L13.0342 14.3915C13.4085 14.7657 14.0153 14.7657 14.3895 14.3915C14.7638 14.0172 14.7638 13.4104 14.3895 13.0362L8.85546 7.50213L14.3896 1.96801C14.7638 1.59376 14.7638 0.986973 14.3896 0.612721C14.0153 0.238468 13.4086 0.238468 13.0343 0.612721L7.50018 6.14684L1.96606 0.612721Z" fill="#8C8F97"/>
</svg>
