<svg width="36" height="36" viewBox="0 0 36 36" fill="none" xmlns="http://www.w3.org/2000/svg">
<circle cx="18" cy="18" r="18" fill="#EAF8F8"/>
<path d="M11.334 14.8387C11.334 12.4654 11.834 11.5987 13.6807 11.392C14.0273 11.3454 14.4073 11.332 14.8473 11.332H21.1607C21.594 11.332 21.9807 11.3454 22.3273 11.392C24.174 11.5987 24.674 12.4654 24.674 14.8387V19.052C24.674 21.4254 24.174 22.292 22.3273 22.4987C21.9807 22.5454 21.6007 22.5587 21.1607 22.5587H14.8473C14.414 22.5587 14.0273 22.5454 13.6807 22.4987C11.834 22.292 11.334 21.4254 11.334 19.052V17.3987" stroke="#2EBDB6" stroke-width="1.5" stroke-linecap="round" stroke-linejoin="round"/>
<path d="M19.0547 15.5469H21.508" stroke="#2EBDB6" stroke-width="1.5" stroke-linecap="round" stroke-linejoin="round"/>
<path d="M14.4941 19.4062H14.5075H21.5141" stroke="#2EBDB6" stroke-width="1.5" stroke-linecap="round" stroke-linejoin="round"/>
<path d="M14.666 24.668H21.3327" stroke="#2EBDB6" stroke-width="1.5" stroke-linecap="round" stroke-linejoin="round"/>
<path d="M14.7965 15.5326H14.8025" stroke="#2EBDB6" stroke-width="2" stroke-linecap="round" stroke-linejoin="round"/>
<path d="M16.9957 15.5326H17.0017" stroke="#2EBDB6" stroke-width="2" stroke-linecap="round" stroke-linejoin="round"/>
</svg>
