<svg width="16" height="16" viewBox="0 0 16 16" fill="none" xmlns="http://www.w3.org/2000/svg">
<g clip-path="url(#clip0_6021_13403)">
<path d="M5.33334 5.33203V3.46536C5.33334 2.71863 5.33334 2.34526 5.47866 2.06004C5.60649 1.80916 5.81047 1.60519 6.06135 1.47736C6.34656 1.33203 6.71993 1.33203 7.46667 1.33203H12.5333C13.2801 1.33203 13.6534 1.33203 13.9387 1.47736C14.1895 1.60519 14.3935 1.80916 14.5213 2.06004C14.6667 2.34526 14.6667 2.71863 14.6667 3.46536V8.53203C14.6667 9.27877 14.6667 9.65214 14.5213 9.93735C14.3935 10.1882 14.1895 10.3922 13.9387 10.52C13.6534 10.6654 13.2801 10.6654 12.5333 10.6654H10.6667M3.46667 14.6654H8.53334C9.28007 14.6654 9.65344 14.6654 9.93866 14.52C10.1895 14.3922 10.3935 14.1882 10.5213 13.9374C10.6667 13.6521 10.6667 13.2788 10.6667 12.532V7.46536C10.6667 6.71863 10.6667 6.34526 10.5213 6.06004C10.3935 5.80916 10.1895 5.60519 9.93866 5.47736C9.65344 5.33203 9.28007 5.33203 8.53334 5.33203H3.46667C2.71993 5.33203 2.34656 5.33203 2.06135 5.47736C1.81047 5.60519 1.60649 5.80916 1.47866 6.06004C1.33334 6.34526 1.33334 6.71863 1.33334 7.46536V12.532C1.33334 13.2788 1.33334 13.6521 1.47866 13.9374C1.60649 14.1882 1.81047 14.3922 2.06135 14.52C2.34656 14.6654 2.71993 14.6654 3.46667 14.6654Z" stroke="#8C8F97" stroke-width="1.5" stroke-linecap="round" stroke-linejoin="round"/>
</g>
<defs>
<clipPath id="clip0_6021_13403">
<rect width="16" height="16" fill="white"/>
</clipPath>
</defs>
</svg>
