<svg width="33" height="34" viewBox="0 0 33 34" fill="none" xmlns="http://www.w3.org/2000/svg">
<rect x="0.5" y="0.720703" width="32" height="33" rx="6" fill="#F6F6F6"/>
<path d="M19.1667 18.3214V21.1214C19.1667 23.4547 18.2334 24.388 15.9 24.388H13.1C10.7667 24.388 9.83337 23.4547 9.83337 21.1214V18.3214C9.83337 15.988 10.7667 15.0547 13.1 15.0547H15.9C18.2334 15.0547 19.1667 15.988 19.1667 18.3214Z" stroke="#292D32" stroke-width="1.5" stroke-linecap="round" stroke-linejoin="round"/>
<path d="M23.1667 14.3214V17.1214C23.1667 19.4547 22.2334 20.388 19.9 20.388H19.1667V18.3214C19.1667 15.988 18.2334 15.0547 15.9 15.0547H13.8334V14.3214C13.8334 11.988 14.7667 11.0547 17.1 11.0547H19.9C22.2334 11.0547 23.1667 11.988 23.1667 14.3214Z" stroke="#292D32" stroke-width="1.5" stroke-linecap="round" stroke-linejoin="round"/>
</svg>
