<svg width="16" height="16" viewBox="0 0 16 16" fill="none" xmlns="http://www.w3.org/2000/svg">
<path d="M10.6666 8.59967V11.3997C10.6666 13.733 9.73325 14.6663 7.39992 14.6663H4.59992C2.26659 14.6663 1.33325 13.733 1.33325 11.3997V8.59967C1.33325 6.26634 2.26659 5.33301 4.59992 5.33301H7.39992C9.73325 5.33301 10.6666 6.26634 10.6666 8.59967Z" stroke="#98A2B3" stroke-width="1.5" stroke-linecap="round" stroke-linejoin="round"/>
<path d="M14.6666 4.59967V7.39967C14.6666 9.73301 13.7333 10.6663 11.3999 10.6663H10.6666V8.59967C10.6666 6.26634 9.73325 5.33301 7.39992 5.33301H5.33325V4.59967C5.33325 2.26634 6.26659 1.33301 8.59992 1.33301H11.3999C13.7333 1.33301 14.6666 2.26634 14.6666 4.59967Z" stroke="#98A2B3" stroke-width="1.5" stroke-linecap="round" stroke-linejoin="round"/>
</svg>
