<svg width="21" height="20" viewBox="0 0 21 20" fill="none" xmlns="http://www.w3.org/2000/svg">
<path d="M13.8334 13.3337V15.667C13.8334 16.6004 13.8334 17.0671 13.6517 17.4236C13.4919 17.7372 13.2369 17.9922 12.9233 18.152C12.5668 18.3337 12.1001 18.3337 11.1667 18.3337H4.83335C3.89993 18.3337 3.43322 18.3337 3.0767 18.152C2.7631 17.9922 2.50813 17.7372 2.34834 17.4236C2.16669 17.0671 2.16669 16.6004 2.16669 15.667V9.33366C2.16669 8.40024 2.16669 7.93353 2.34834 7.57701C2.50813 7.2634 2.7631 7.00844 3.0767 6.84865C3.43322 6.66699 3.89993 6.66699 4.83335 6.66699H7.16669M9.83335 13.3337H16.1667C17.1001 13.3337 17.5668 13.3337 17.9233 13.152C18.2369 12.9922 18.4919 12.7372 18.6517 12.4236C18.8334 12.0671 18.8334 11.6004 18.8334 10.667V4.33366C18.8334 3.40024 18.8334 2.93353 18.6517 2.57701C18.4919 2.2634 18.2369 2.00844 17.9233 1.84865C17.5668 1.66699 17.1001 1.66699 16.1667 1.66699H9.83335C8.89993 1.66699 8.43322 1.66699 8.0767 1.84865C7.7631 2.00844 7.50813 2.2634 7.34834 2.57701C7.16669 2.93353 7.16669 3.40024 7.16669 4.33366V10.667C7.16669 11.6004 7.16669 12.0671 7.34834 12.4236C7.50813 12.7372 7.7631 12.9922 8.0767 13.152C8.43322 13.3337 8.89993 13.3337 9.83335 13.3337Z" stroke="#98A2B3" stroke-width="1.5" stroke-linecap="round" stroke-linejoin="round"/>
</svg>
