<svg width="16" height="17" viewBox="0 0 16 17" fill="none" xmlns="http://www.w3.org/2000/svg">
<path d="M1.33337 8.49988L7.76153 11.714C7.84898 11.7577 7.89271 11.7795 7.93857 11.7882C7.9792 11.7958 8.02088 11.7958 8.06151 11.7882C8.10737 11.7795 8.1511 11.7577 8.23855 11.714L14.6667 8.49988M1.33337 11.8332L7.76153 15.0473C7.84898 15.091 7.89271 15.1129 7.93857 15.1215C7.9792 15.1291 8.02088 15.1291 8.06151 15.1215C8.10737 15.1129 8.1511 15.091 8.23855 15.0473L14.6667 11.8332M1.33337 5.16655L7.76153 1.95247C7.84898 1.90874 7.89271 1.88688 7.93857 1.87827C7.9792 1.87065 8.02088 1.87065 8.06151 1.87827C8.10737 1.88688 8.1511 1.90874 8.23855 1.95247L14.6667 5.16655L8.23855 8.38062C8.1511 8.42435 8.10737 8.44621 8.06151 8.45482C8.02088 8.46244 7.9792 8.46244 7.93857 8.45482C7.89271 8.44621 7.84898 8.42435 7.76153 8.38062L1.33337 5.16655Z" stroke="#667085" stroke-width="1.5" stroke-linecap="round" stroke-linejoin="round"/>
</svg>
