<svg width="16" height="17" viewBox="0 0 16 17" fill="none" xmlns="http://www.w3.org/2000/svg">
<path d="M1.33325 8.50037L7.7614 11.7144C7.84886 11.7582 7.89259 11.78 7.93845 11.7886C7.97908 11.7963 8.02076 11.7963 8.06139 11.7886C8.10725 11.78 8.15098 11.7582 8.23843 11.7144L14.6666 8.50037M1.33325 11.8337L7.7614 15.0478C7.84886 15.0915 7.89259 15.1134 7.93845 15.122C7.97908 15.1296 8.02076 15.1296 8.06139 15.122C8.10725 15.1134 8.15098 15.0915 8.23843 15.0478L14.6666 11.8337M1.33325 5.16704L7.7614 1.95296C7.84886 1.90923 7.89259 1.88737 7.93845 1.87876C7.97908 1.87114 8.02076 1.87114 8.06139 1.87876C8.10725 1.88737 8.15098 1.90923 8.23843 1.95296L14.6666 5.16704L8.23843 8.38111C8.15098 8.42484 8.10725 8.4467 8.06139 8.45531C8.02076 8.46293 7.97908 8.46293 7.93845 8.45531C7.89259 8.4467 7.84886 8.42484 7.7614 8.38111L1.33325 5.16704Z" stroke="#2EBDB6" stroke-width="1.5" stroke-linecap="round" stroke-linejoin="round"/>
</svg>
