<svg width="86" height="86" viewBox="0 0 86 86" fill="none" xmlns="http://www.w3.org/2000/svg">
<rect width="86" height="86" rx="43" fill="#29303D"/>
<path fill-rule="evenodd" clip-rule="evenodd" d="M37.1365 27.9197C37.1365 26.5869 37.6659 25.3088 38.6083 24.3664C39.5507 23.424 40.8288 22.8945 42.1616 22.8945H55.5659C56.8986 22.8945 58.1768 23.424 59.1192 24.3664C60.0616 25.3088 60.591 26.5869 60.591 27.9197V58.0764C60.591 58.7363 60.461 59.3897 60.2085 59.9994C59.9559 60.6091 59.5858 61.163 59.1192 61.6297C58.6525 62.0963 58.0986 62.4664 57.4889 62.719C56.8792 62.9715 56.2258 63.1015 55.5659 63.1015H42.3453C42.2841 63.1039 42.2229 63.1052 42.1616 63.1054H30.4343C29.1016 63.1054 27.8234 62.576 26.881 61.6336C25.9386 60.6912 25.4092 59.413 25.4092 58.0803V44.6858C25.4092 43.7554 26.1636 43.0009 27.092 43.0009H29.5978V40.4893C29.5978 39.5386 29.8001 38.5988 30.1913 37.7322C30.5825 36.8657 31.1535 36.0923 31.8665 35.4634C32.5795 34.8345 33.4182 34.3645 34.3268 34.0846C35.2354 33.8047 36.1932 33.7213 37.1365 33.84V27.9197ZM40.4865 35.257C41.2707 35.8848 41.9037 36.6807 42.3387 37.5861C42.7738 38.4914 42.9998 39.4829 43.0001 40.4874V43.0009H45.5039C46.4342 43.0009 47.1887 43.7554 47.1887 44.6858V58.0803C47.1887 58.6666 47.087 59.2276 46.9033 59.7514H55.5659C56.0101 59.7514 56.4362 59.5749 56.7503 59.2608C57.0644 58.9467 57.2409 58.5206 57.2409 58.0764V27.9197C57.2409 27.4754 57.0644 27.0494 56.7503 26.7352C56.4362 26.4211 56.0101 26.2446 55.5659 26.2446H51.989C52.1363 26.4993 52.2139 26.7882 52.214 27.0823C52.2142 27.3765 52.1368 27.6655 51.9898 27.9202C51.8428 28.175 51.6313 28.3866 51.3766 28.5337C51.1219 28.6808 50.8329 28.7582 50.5388 28.7582H47.1887C46.8944 28.7585 46.6052 28.6814 46.3502 28.5344C46.0952 28.3875 45.8834 28.1759 45.7361 27.9211C45.5889 27.6663 45.5114 27.3771 45.5115 27.0828C45.5115 26.7885 45.5891 26.4994 45.7365 26.2446H42.1616C41.7173 26.2446 41.2913 26.4211 40.9772 26.7352C40.663 27.0494 40.4865 27.4754 40.4865 27.9197V35.257ZM42.2671 59.7514C42.6925 59.725 43.0919 59.5375 43.3838 59.227C43.6758 58.9166 43.8384 58.5065 43.8386 58.0803V46.353H28.7593V58.0803C28.7593 59.0048 29.5098 59.7553 30.4343 59.7553H40.4865V59.7514H42.2671ZM33.931 38.1185C34.3995 37.6492 34.9968 37.3295 35.6472 37.1999C36.2976 37.0703 36.9718 37.1366 37.5844 37.3905C38.1971 37.6444 38.7206 38.0744 39.0886 38.6261C39.4567 39.1777 39.6527 39.8262 39.652 40.4893V43.0009H32.9479V40.4893C32.9479 39.6 33.3016 38.7478 33.931 38.1185ZM34.6249 50.5396H37.9769V55.5667H34.6229L34.6249 50.5396Z" fill="#2EBDB6"/>
</svg>
