<svg width="16" height="16" viewBox="0 0 16 16" fill="none" xmlns="http://www.w3.org/2000/svg">
<g clip-path="url(#clip0_4377_77491)">
<path d="M5.66668 10.334L10.3333 5.6673M6.00001 2.66732V1.33398M10 13.334V14.6673M2.66668 6.00065H1.33334M13.3333 10.0007H14.6667M3.27615 3.27679L2.33334 2.33398M12.7239 12.7244L13.6667 13.6673M8.00003 11.7718L6.58582 13.186C5.54442 14.2274 3.85598 14.2274 2.81458 13.186C1.77319 12.1446 1.77319 10.4562 2.81458 9.41481L4.2288 8.00059M11.7713 8.00059L13.1855 6.58638C14.2269 5.54498 14.2269 3.85654 13.1855 2.81514C12.1441 1.77374 10.4556 1.77374 9.41425 2.81514L8.00003 4.22936" stroke="#ED1C24" stroke-width="1.5" stroke-linecap="round" stroke-linejoin="round"/>
</g>
<defs>
<clipPath id="clip0_4377_77491">
<rect width="16" height="16" fill="white"/>
</clipPath>
</defs>
</svg>
