<svg width="36" height="37" viewBox="0 0 36 37" fill="none" xmlns="http://www.w3.org/2000/svg">
<circle cx="18" cy="18.5" r="18" fill="#D25026"/>
<path d="M19.2 28.34H17.16V26.2C14.38 25.82 13.06 23.8 12.88 22.1L15.36 21.5C15.48 22.76 16.32 23.92 18.16 23.92C19.46 23.92 20.22 23.3 20.22 22.42C20.22 21.74 19.72 21.22 18.72 21L16.88 20.6C14.72 20.12 13.38 18.76 13.38 16.84C13.38 14.72 15.02 13.16 17.16 12.82V10.68H19.2V12.88C21.5 13.3 22.5 14.9 22.78 16.24L20.32 16.94C20.2 16.24 19.68 15.08 18.04 15.08C16.76 15.08 16.06 15.82 16.06 16.64C16.06 17.26 16.5 17.78 17.44 17.98L19.26 18.4C21.78 18.96 22.92 20.46 22.92 22.26C22.92 24.1 21.6 25.8 19.2 26.18V28.34Z" fill="white"/>
</svg>
