<svg width="16" height="17" viewBox="0 0 16 17" fill="none" xmlns="http://www.w3.org/2000/svg">
<path d="M11.9999 7.16817L9.33319 4.5015M1.6665 14.8348L3.92275 14.5841C4.19841 14.5535 4.33624 14.5382 4.46507 14.4965C4.57936 14.4595 4.68814 14.4072 4.78843 14.3411C4.90147 14.2665 4.99953 14.1685 5.19565 13.9724L13.9999 5.16817C14.7362 4.43179 14.7362 3.23788 13.9999 2.5015C13.2635 1.76512 12.0696 1.76512 11.3332 2.5015L2.52899 11.3057C2.33287 11.5018 2.23481 11.5999 2.16026 11.7129C2.09413 11.8132 2.04185 11.922 2.00485 12.0363C1.96314 12.1651 1.94783 12.3029 1.9172 12.5786L1.6665 14.8348Z" stroke="#344054" stroke-width="1.5" stroke-linecap="round" stroke-linejoin="round"/>
</svg>
