<svg width="16" height="17" viewBox="0 0 16 17" fill="none" xmlns="http://www.w3.org/2000/svg">
<path d="M7.99998 13.8332H14M2 13.8332H3.11636C3.44248 13.8332 3.60554 13.8332 3.75899 13.7963C3.89504 13.7637 4.0251 13.7098 4.1444 13.6367C4.27895 13.5542 4.39425 13.4389 4.62486 13.2083L13 4.83316C13.5523 4.28087 13.5523 3.38544 13 2.83316C12.4477 2.28087 11.5523 2.28087 11 2.83316L2.62484 11.2083C2.39424 11.4389 2.27894 11.5542 2.19648 11.6888C2.12338 11.8081 2.0695 11.9381 2.03684 12.0742C2 12.2276 2 12.3907 2 12.7168V13.8332Z" stroke="#475467" stroke-width="1.5" stroke-linecap="round" stroke-linejoin="round"/>
</svg>
