<svg width="60" height="60" viewBox="0 0 60 60" fill="none" xmlns="http://www.w3.org/2000/svg">
<g filter="url(#filter0_d_3222_18864)">
<rect x="2" y="1" width="56" height="56" rx="12" fill="white"/>
<path d="M18.3333 23.1666L27.8591 29.8346C28.6304 30.3746 29.0161 30.6446 29.4357 30.7492C29.8062 30.8415 30.1938 30.8415 30.5644 30.7492C30.9839 30.6446 31.3696 30.3746 32.1409 29.8346L41.6667 23.1666M23.9333 38.3333H36.0667C38.0269 38.3333 39.007 38.3333 39.7556 37.9518C40.4142 37.6163 40.9496 37.0808 41.2852 36.4223C41.6667 35.6736 41.6667 34.6935 41.6667 32.7333V25.2666C41.6667 23.3064 41.6667 22.3264 41.2852 21.5777C40.9496 20.9191 40.4142 20.3837 39.7556 20.0481C39.007 19.6666 38.0269 19.6666 36.0667 19.6666H23.9333C21.9732 19.6666 20.9931 19.6666 20.2444 20.0481C19.5858 20.3837 19.0504 20.9191 18.7148 21.5777C18.3333 22.3264 18.3333 23.3064 18.3333 25.2666V32.7333C18.3333 34.6935 18.3333 35.6736 18.7148 36.4223C19.0504 37.0808 19.5858 37.6163 20.2444 37.9518C20.9931 38.3333 21.9732 38.3333 23.9333 38.3333Z" stroke="#344054" stroke-width="2" stroke-linecap="round" stroke-linejoin="round"/>
<rect x="2.5" y="1.5" width="55" height="55" rx="11.5" stroke="#EAECF0"/>
</g>
<defs>
<filter id="filter0_d_3222_18864" x="0" y="0" width="60" height="60" filterUnits="userSpaceOnUse" color-interpolation-filters="sRGB">
<feFlood flood-opacity="0" result="BackgroundImageFix"/>
<feColorMatrix in="SourceAlpha" type="matrix" values="0 0 0 0 0 0 0 0 0 0 0 0 0 0 0 0 0 0 127 0" result="hardAlpha"/>
<feOffset dy="1"/>
<feGaussianBlur stdDeviation="1"/>
<feColorMatrix type="matrix" values="0 0 0 0 0.0627451 0 0 0 0 0.0941176 0 0 0 0 0.156863 0 0 0 0.05 0"/>
<feBlend mode="normal" in2="BackgroundImageFix" result="effect1_dropShadow_3222_18864"/>
<feBlend mode="normal" in="SourceGraphic" in2="effect1_dropShadow_3222_18864" result="shape"/>
</filter>
</defs>
</svg>
