<svg width="153" height="120" viewBox="0 0 153 120" fill="none" xmlns="http://www.w3.org/2000/svg">
<circle cx="76.5" cy="52" r="52" fill="#EAECF0"/>
<g filter="url(#filter0_dd_7273_46306)">
<path d="M78.1 16C67.3273 16 57.7978 21.3233 51.9987 29.4829C50.105 29.0363 48.1301 28.8 46.1 28.8C31.9615 28.8 20.5 40.2615 20.5 54.4C20.5 68.5385 31.9615 80 46.1 80L110.1 80C122.471 80 132.5 69.9712 132.5 57.6C132.5 45.2288 122.471 35.2 110.1 35.2C109.221 35.2 108.354 35.2506 107.502 35.349C102.598 23.9677 91.2797 16 78.1 16Z" fill="#F9FAFB"/>
<ellipse cx="46.1" cy="54.4008" rx="25.6" ry="25.6" fill="url(#paint0_linear_7273_46306)"/>
<circle cx="78.1001" cy="48" r="32" fill="url(#paint1_linear_7273_46306)"/>
<ellipse cx="110.1" cy="57.5992" rx="22.4" ry="22.4" fill="url(#paint2_linear_7273_46306)"/>
</g>
<circle cx="21.5" cy="19" r="5" fill="#F2F4F7"/>
<circle cx="18.5" cy="109" r="7" fill="#F2F4F7"/>
<circle cx="145.5" cy="35" r="7" fill="#F2F4F7"/>
<circle cx="134.5" cy="8" r="4" fill="#F2F4F7"/>
<g filter="url(#filter1_b_7273_46306)">
<rect x="52.5" y="62" width="48" height="48" rx="24" fill="#344054" fill-opacity="0.4"/>
<path d="M78.5 76.2695V80.4001C78.5 80.9601 78.5 81.2401 78.609 81.4541C78.7049 81.6422 78.8578 81.7952 79.046 81.8911C79.2599 82.0001 79.5399 82.0001 80.1 82.0001H84.2305M80.5 87H72.5M80.5 91H72.5M74.5 83H72.5M78.5 76H73.3C71.6198 76 70.7798 76 70.138 76.327C69.5735 76.6146 69.1146 77.0735 68.827 77.638C68.5 78.2798 68.5 79.1198 68.5 80.8V91.2C68.5 92.8802 68.5 93.7202 68.827 94.362C69.1146 94.9265 69.5735 95.3854 70.138 95.673C70.7798 96 71.6198 96 73.3 96H79.7C81.3802 96 82.2202 96 82.862 95.673C83.4265 95.3854 83.8854 94.9265 84.173 94.362C84.5 93.7202 84.5 92.8802 84.5 91.2V82L78.5 76Z" stroke="white" stroke-width="2" stroke-linecap="round" stroke-linejoin="round"/>
</g>
<defs>
<filter id="filter0_dd_7273_46306" x="0.5" y="16" width="152" height="104" filterUnits="userSpaceOnUse" color-interpolation-filters="sRGB">
<feFlood flood-opacity="0" result="BackgroundImageFix"/>
<feColorMatrix in="SourceAlpha" type="matrix" values="0 0 0 0 0 0 0 0 0 0 0 0 0 0 0 0 0 0 127 0" result="hardAlpha"/>
<feMorphology radius="4" operator="erode" in="SourceAlpha" result="effect1_dropShadow_7273_46306"/>
<feOffset dy="8"/>
<feGaussianBlur stdDeviation="4"/>
<feColorMatrix type="matrix" values="0 0 0 0 0.0627451 0 0 0 0 0.0941176 0 0 0 0 0.156863 0 0 0 0.03 0"/>
<feBlend mode="normal" in2="BackgroundImageFix" result="effect1_dropShadow_7273_46306"/>
<feColorMatrix in="SourceAlpha" type="matrix" values="0 0 0 0 0 0 0 0 0 0 0 0 0 0 0 0 0 0 127 0" result="hardAlpha"/>
<feMorphology radius="4" operator="erode" in="SourceAlpha" result="effect2_dropShadow_7273_46306"/>
<feOffset dy="20"/>
<feGaussianBlur stdDeviation="12"/>
<feColorMatrix type="matrix" values="0 0 0 0 0.0627451 0 0 0 0 0.0941176 0 0 0 0 0.156863 0 0 0 0.08 0"/>
<feBlend mode="normal" in2="effect1_dropShadow_7273_46306" result="effect2_dropShadow_7273_46306"/>
<feBlend mode="normal" in="SourceGraphic" in2="effect2_dropShadow_7273_46306" result="shape"/>
</filter>
<filter id="filter1_b_7273_46306" x="44.5" y="54" width="64" height="64" filterUnits="userSpaceOnUse" color-interpolation-filters="sRGB">
<feFlood flood-opacity="0" result="BackgroundImageFix"/>
<feGaussianBlur in="BackgroundImageFix" stdDeviation="4"/>
<feComposite in2="SourceAlpha" operator="in" result="effect1_backgroundBlur_7273_46306"/>
<feBlend mode="normal" in="SourceGraphic" in2="effect1_backgroundBlur_7273_46306" result="shape"/>
</filter>
<linearGradient id="paint0_linear_7273_46306" x1="26.4429" y1="37.4865" x2="71.7" y2="80.0007" gradientUnits="userSpaceOnUse">
<stop stop-color="#D0D5DD"/>
<stop offset="0.350715" stop-color="white" stop-opacity="0"/>
</linearGradient>
<linearGradient id="paint1_linear_7273_46306" x1="53.5287" y1="26.8571" x2="110.1" y2="80" gradientUnits="userSpaceOnUse">
<stop stop-color="#D0D5DD"/>
<stop offset="0.350715" stop-color="white" stop-opacity="0"/>
</linearGradient>
<linearGradient id="paint2_linear_7273_46306" x1="92.8999" y1="42.7992" x2="132.5" y2="79.9992" gradientUnits="userSpaceOnUse">
<stop stop-color="#D0D5DD"/>
<stop offset="0.350715" stop-color="white" stop-opacity="0"/>
</linearGradient>
</defs>
</svg>
