<svg width="41" height="40" viewBox="0 0 41 40" fill="none" xmlns="http://www.w3.org/2000/svg">
<path d="M27.1667 20.418V15.668C27.1667 14.2678 27.1667 13.5678 26.8942 13.033C26.6545 12.5626 26.272 12.1801 25.8016 11.9405C25.2669 11.668 24.5668 11.668 23.1667 11.668H17.8333C16.4332 11.668 15.7331 11.668 15.1984 11.9405C14.728 12.1801 14.3455 12.5626 14.1058 13.033C13.8333 13.5678 13.8333 14.2678 13.8333 15.668V24.3346C13.8333 25.7348 13.8333 26.4348 14.1058 26.9696C14.3455 27.44 14.728 27.8225 15.1984 28.0622C15.7331 28.3346 16.4332 28.3346 17.8332 28.3346H20.9167M22.1667 19.168H17.1667M18.8333 22.5013H17.1667M23.8333 15.8346H17.1667M23 25.8346L25.5 28.3346M25.5 28.3346L28 25.8346M25.5 28.3346V23.3346" stroke="#475467" stroke-width="1.66667" stroke-linecap="round" stroke-linejoin="round"/>
</svg>
