<svg width="21" height="20" viewBox="0 0 21 20" fill="none" xmlns="http://www.w3.org/2000/svg">
<path d="M2.51677 10.5946C2.40328 10.4149 2.34654 10.3251 2.31477 10.1865C2.29091 10.0824 2.29091 9.91824 2.31477 9.81415C2.34654 9.67556 2.40328 9.58571 2.51677 9.40601C3.45461 7.92103 6.24617 4.16699 10.5003 4.16699C14.7545 4.16699 17.5461 7.92103 18.4839 9.40601C18.5974 9.58571 18.6541 9.67556 18.6859 9.81415C18.7098 9.91824 18.7098 10.0824 18.6859 10.1865C18.6541 10.3251 18.5974 10.4149 18.4839 10.5946C17.5461 12.0796 14.7545 15.8337 10.5003 15.8337C6.24617 15.8337 3.45461 12.0796 2.51677 10.5946Z" stroke="#475467" stroke-width="2" stroke-linecap="round" stroke-linejoin="round"/>
<path d="M10.5003 12.5003C11.881 12.5003 13.0003 11.381 13.0003 10.0003C13.0003 8.61961 11.881 7.50033 10.5003 7.50033C9.11962 7.50033 8.00034 8.61961 8.00034 10.0003C8.00034 11.381 9.11962 12.5003 10.5003 12.5003Z" stroke="#475467" stroke-width="2" stroke-linecap="round" stroke-linejoin="round"/>
</svg>
