<svg width="21" height="20" viewBox="0 0 21 20" fill="none" xmlns="http://www.w3.org/2000/svg">
<path d="M18.225 7.64992C17.9834 7.26659 17.725 6.90825 17.4584 6.57492C17.15 6.18325 16.5667 6.14992 16.2167 6.49992L13.7167 8.99992C13.9 9.54992 13.9334 10.1833 13.7667 10.8416C13.475 12.0166 12.525 12.9666 11.35 13.2583C10.6917 13.4249 10.0584 13.3916 9.50837 13.2083C9.50837 13.2083 8.31671 14.3999 7.45837 15.2583C7.04171 15.6749 7.17504 16.4083 7.73337 16.6249C8.62504 16.9666 9.55004 17.1416 10.5 17.1416C11.9834 17.1416 13.425 16.7083 14.7417 15.8999C16.0834 15.0666 17.2917 13.8416 18.2667 12.2833C19.0584 11.0249 19.0167 8.90825 18.225 7.64992Z" fill="#606B81"/>
<path d="M12.1834 8.3167L8.8167 11.6834C8.3917 11.25 8.1167 10.65 8.1167 10C8.1167 8.6917 9.18337 7.6167 10.5 7.6167C11.15 7.6167 11.75 7.8917 12.1834 8.3167Z" fill="#606B81"/>
<path d="M15.7084 4.79173L12.8834 7.61673C12.2751 7.00006 11.4334 6.6334 10.5001 6.6334C8.63341 6.6334 7.13341 8.14173 7.13341 10.0001C7.13341 10.9334 7.50841 11.7751 8.11675 12.3834L5.30008 15.2084H5.29175C4.36675 14.4584 3.51675 13.5001 2.79175 12.3667C1.95841 11.0584 1.95841 8.9334 2.79175 7.62506C3.75841 6.1084 4.94175 4.91673 6.25841 4.10007C7.57508 3.30007 9.01675 2.8584 10.5001 2.8584C12.3584 2.8584 14.1584 3.54173 15.7084 4.79173Z" fill="#606B81"/>
<path d="M12.8834 10.0001C12.8834 11.3084 11.8167 12.3834 10.5001 12.3834C10.4501 12.3834 10.4084 12.3834 10.3584 12.3667L12.8667 9.8584C12.8834 9.9084 12.8834 9.95007 12.8834 10.0001Z" fill="#606B81"/>
<path d="M18.6417 1.8584C18.3917 1.6084 17.9834 1.6084 17.7334 1.8584L2.3584 17.2417C2.1084 17.4917 2.1084 17.9001 2.3584 18.1501C2.4834 18.2667 2.64173 18.3334 2.8084 18.3334C2.97507 18.3334 3.1334 18.2667 3.2584 18.1417L18.6417 2.7584C18.9001 2.5084 18.9001 2.1084 18.6417 1.8584Z" fill="#606B81"/>
</svg>
