<svg width="16" height="16" viewBox="0 0 16 16" fill="none" xmlns="http://www.w3.org/2000/svg">
<g clip-path="url(#clip0_5110_64549)">
<path d="M6.60032 2.82799C7.05921 2.72057 7.52903 2.66688 8.00033 2.66799C12.667 2.66799 15.3337 8.00132 15.3337 8.00132C14.929 8.75839 14.4464 9.47114 13.8937 10.128M9.41366 9.41465C9.23056 9.61115 9.00976 9.76876 8.76443 9.87807C8.5191 9.98738 8.25426 10.0462 7.98572 10.0509C7.71718 10.0556 7.45043 10.0062 7.2014 9.90565C6.95236 9.80506 6.72614 9.65534 6.53622 9.46542C6.34631 9.2755 6.19659 9.04928 6.096 8.80025C5.99541 8.55121 5.94601 8.28447 5.95075 8.01593C5.95549 7.74738 6.01426 7.48255 6.12358 7.23722C6.23289 6.99189 6.39049 6.77108 6.58699 6.58799M11.9603 11.9613C10.8207 12.83 9.43306 13.3112 8.00033 13.3347C3.33366 13.3347 0.666992 8.00132 0.666992 8.00132C1.49625 6.45592 2.64642 5.10572 4.04033 4.04132L11.9603 11.9613Z" stroke="black" stroke-width="2" stroke-linecap="round" stroke-linejoin="round"/>
<path d="M0.666992 0.667969L15.3337 15.3346" stroke="black" stroke-width="1.5" stroke-linecap="round" stroke-linejoin="round"/>
</g>
<defs>
<clipPath id="clip0_5110_64549">
<rect width="16" height="16" fill="white"/>
</clipPath>
</defs>
</svg>
