<svg width="124" height="46" viewBox="0 0 124 46" fill="none" xmlns="http://www.w3.org/2000/svg">
<path d="M12.9858 32.6748C12.5439 31.4393 11.6568 30.595 10.632 30.595H4.96287C4.96287 30.595 2.37622 30.5966 1.99131 27.709L0.720947 29.2328L1.02666 32.8554C1.02666 32.8554 1.63649 37.2699 4.96287 38.2932H10.632C10.632 38.2932 12.0259 37.8624 12.5058 37.1654C12.9858 36.4685 13.282 35.5054 13.282 34.4425C13.282 33.8058 13.1743 33.2038 12.9858 32.6748Z" fill="url(#paint0_linear_1684_855)"/>
<path d="M30.5949 10.0165C30.5236 10.2478 30.4444 10.4885 30.3573 10.7325C30.3557 10.7372 30.3541 10.742 30.3525 10.7467C29.5605 12.9675 28.0763 15.5921 25.4929 15.5921H9.0241C3.38985 15.5921 4.85504 20.5722 4.88831 20.6831C-0.277087 7.70703 9.0241 7.70703 9.0241 7.70703H29.3879C30.1403 7.81949 31.04 8.29469 30.5949 10.0165Z" fill="url(#paint1_linear_1684_855)"/>
<path d="M22.0558 20.609C21.4602 19.3434 20.2611 18.4785 18.8783 18.4785H10.6827H4.60019C4.60019 18.4785 -2.90951 18.4785 1.26114 31.4546C1.23421 31.3437 0.0509671 26.3636 4.60019 26.3636H10.6827H17.8946H18.8783C19.8651 26.3636 20.7601 25.9217 21.4079 25.2089C22.0558 24.4945 22.4549 23.5093 22.4549 22.4211C22.4549 21.7685 22.3124 21.1523 22.0558 20.609Z" fill="url(#paint2_linear_1684_855)"/>
<path d="M48.834 13.4654C49.6414 13.4654 50.1185 13.5755 50.3755 13.6489V9.53831C49.9717 9.35481 48.9808 9.1713 47.9532 9.1713C43.9527 9.1713 41.3836 11.8138 41.3836 15.8876V17.9429H38.3741V22.1269H41.3836V36H46.3016V22.1269H53.4951V36H58.3764V9.42821H53.4951V17.9429H46.3016V15.9611C46.3016 13.9425 47.7697 13.4654 48.834 13.4654ZM68.4649 36V17.9429H63.5836V36H68.4649ZM62.9964 12.034C62.9964 13.6489 64.3544 15.0068 66.0059 15.0068C67.6942 15.0068 69.0154 13.6489 69.0154 12.034C69.0154 10.3457 67.6942 8.98779 66.0059 8.98779C64.3544 8.98779 62.9964 10.3457 62.9964 12.034ZM81.8019 21.9067C84.2241 21.9067 85.3619 23.4481 85.8023 24.9529L90.1698 23.4848C89.399 20.4386 86.6097 17.3924 81.6918 17.3924C76.4435 17.3924 72.3329 21.3929 72.3329 26.9715C72.3329 32.5134 76.5169 36.5505 81.8386 36.5505C86.6464 36.5505 89.4724 33.4676 90.2799 30.4581L85.9858 29.0267C85.5821 30.4214 84.3343 32.073 81.8386 32.073C79.3429 32.073 77.2142 30.2379 77.2142 26.9715C77.2142 23.705 79.3062 21.9067 81.8019 21.9067ZM111.376 17.9429H104.99L98.7507 24.6593V9.42821H93.8694V36H98.7507V31.2288L100.769 29.1001L105.54 36H111.523L104.146 25.5401L111.376 17.9429ZM113.899 32.9171C113.899 34.7522 115.403 36.2569 117.238 36.2569C119.11 36.2569 120.615 34.7522 120.615 32.9171C120.615 31.082 119.11 29.5773 117.238 29.5773C115.403 29.5773 113.899 31.082 113.899 32.9171Z" fill="#151F32"/>
<defs>
<linearGradient id="paint0_linear_1684_855" x1="12.2599" y1="27.7016" x2="1.81616" y2="37.6545" gradientUnits="userSpaceOnUse">
<stop stop-color="#E21C23"/>
<stop offset="1" stop-color="#AE1E22"/>
</linearGradient>
<linearGradient id="paint1_linear_1684_855" x1="3.32642" y1="17.0983" x2="16.6339" y2="-0.812826" gradientUnits="userSpaceOnUse">
<stop stop-color="#ED1A70"/>
<stop offset="1" stop-color="#F15D2F"/>
</linearGradient>
<linearGradient id="paint2_linear_1684_855" x1="20.3713" y1="18.4378" x2="9.67023" y2="33.9829" gradientUnits="userSpaceOnUse">
<stop stop-color="#6AC28C"/>
<stop offset="1" stop-color="#38BDB1"/>
</linearGradient>
</defs>
</svg>
