<svg width="82" height="48" viewBox="0 0 82 48" fill="none" xmlns="http://www.w3.org/2000/svg">
<circle cx="24" cy="24" r="24" fill="#F6F7F9"/>
<path d="M22.4756 30.3947C22.1836 29.5782 21.5974 29.0203 20.9202 29.0203H17.1741C17.1741 29.0203 15.4649 29.0214 15.2105 27.1133L14.3711 28.1202L14.5731 30.514C14.5731 30.514 14.9761 33.4311 17.1741 34.1073H20.9202C20.9202 34.1073 21.8413 33.8226 22.1585 33.362C22.4756 32.9015 22.6713 32.2651 22.6713 31.5628C22.6713 31.142 22.6002 30.7442 22.4756 30.3947Z" fill="url(#paint0_linear_8322_38392)"/>
<path d="M34.1126 15.4206C34.0655 15.5734 34.0131 15.7325 33.9556 15.8937C33.9545 15.8968 33.9535 15.9 33.9524 15.9031C33.4291 17.3706 32.4483 19.105 30.7412 19.105H19.8587C16.1357 19.105 17.1039 22.3957 17.1258 22.469C13.7126 13.8945 19.8587 13.8945 19.8587 13.8945H33.315C33.8122 13.9688 34.4067 14.2829 34.1126 15.4206Z" fill="url(#paint1_linear_8322_38392)"/>
<path d="M28.4688 22.4234C28.0753 21.5871 27.2829 21.0156 26.3692 21.0156H20.9536H16.9343C16.9343 21.0156 11.9719 21.0156 14.7279 29.5901C14.7101 29.5168 13.9282 26.226 16.9343 26.226H20.9536H25.7192H26.3692C27.0212 26.226 27.6126 25.934 28.0407 25.463C28.4688 24.991 28.7326 24.3399 28.7326 23.6208C28.7326 23.1896 28.6384 22.7824 28.4688 22.4234Z" fill="url(#paint2_linear_8322_38392)"/>
<circle cx="58" cy="24" r="23" fill="black" stroke="white" stroke-width="2"/>
<circle cx="58.5" cy="23.5" r="6.5" fill="white"/>
<defs>
<linearGradient id="paint0_linear_8322_38392" x1="21.9959" y1="27.1084" x2="15.0948" y2="33.6852" gradientUnits="userSpaceOnUse">
<stop stop-color="#E21C23"/>
<stop offset="1" stop-color="#AE1E22"/>
</linearGradient>
<linearGradient id="paint1_linear_8322_38392" x1="16.0938" y1="20.1002" x2="24.8872" y2="8.26467" gradientUnits="userSpaceOnUse">
<stop stop-color="#ED1A70"/>
<stop offset="1" stop-color="#F15D2F"/>
</linearGradient>
<linearGradient id="paint2_linear_8322_38392" x1="27.3558" y1="20.9887" x2="20.2846" y2="31.2608" gradientUnits="userSpaceOnUse">
<stop stop-color="#6AC28C"/>
<stop offset="1" stop-color="#38BDB1"/>
</linearGradient>
</defs>
</svg>
