<svg width="121" height="30" viewBox="0 0 121 30" fill="none" xmlns="http://www.w3.org/2000/svg">
<g style="mix-blend-mode:multiply">
<path d="M13.3272 19H11.8872V10.492H17.1792V11.848H13.3272V14.236H16.7832V15.568H13.3272V19ZM21.747 18.352C21.459 18.88 20.775 19.168 20.091 19.168C18.699 19.168 17.883 18.136 17.883 16.84V13.156H19.275V16.588C19.275 17.308 19.611 17.92 20.451 17.92C21.255 17.92 21.675 17.38 21.675 16.612V13.156H23.067V17.932C23.067 18.412 23.103 18.784 23.127 19H21.795C21.771 18.868 21.747 18.592 21.747 18.352ZM26.2608 15.628V19H24.8688V13.156H26.2248V13.936C26.6088 13.264 27.3048 12.988 27.9528 12.988C29.3808 12.988 30.0648 14.02 30.0648 15.304V19H28.6728V15.544C28.6728 14.824 28.3488 14.248 27.4728 14.248C26.6808 14.248 26.2608 14.86 26.2608 15.628ZM32.6954 16.06C32.6954 17.176 33.3194 17.92 34.2674 17.92C35.1794 17.92 35.8154 17.164 35.8154 16.048C35.8154 14.932 35.1914 14.236 34.2794 14.236C33.3674 14.236 32.6954 14.944 32.6954 16.06ZM37.1594 10.312V17.932C37.1594 18.46 37.2074 18.904 37.2194 19H35.8874C35.8634 18.868 35.8274 18.484 35.8274 18.244C35.5514 18.736 34.9394 19.144 34.1114 19.144C32.4314 19.144 31.3034 17.824 31.3034 16.06C31.3034 14.38 32.4434 13 34.0874 13C35.1074 13 35.6234 13.468 35.8034 13.84V10.312H37.1594ZM43.3107 19H41.9547V10.312H43.3227V13.876C43.5867 13.42 44.2587 13 45.1587 13C46.9107 13 47.8587 14.332 47.8587 16.048C47.8587 17.812 46.8147 19.144 45.1107 19.144C44.2827 19.144 43.6467 18.784 43.3107 18.22V19ZM46.4547 16.06C46.4547 14.896 45.8067 14.236 44.8827 14.236C43.9947 14.236 43.3107 14.896 43.3107 16.06C43.3107 17.212 43.9947 17.908 44.8827 17.908C45.7947 17.908 46.4547 17.212 46.4547 16.06ZM48.8369 17.416C48.8369 16.372 49.6049 15.796 50.6009 15.652L52.1009 15.424C52.4369 15.376 52.5329 15.208 52.5329 15.004C52.5329 14.512 52.1969 14.116 51.4289 14.116C50.6969 14.116 50.2889 14.584 50.2289 15.172L48.9569 14.884C49.0649 13.876 49.9769 12.976 51.4169 12.976C53.2169 12.976 53.9009 13.996 53.9009 15.16V18.064C53.9009 18.592 53.9609 18.94 53.9729 19H52.6769C52.6649 18.964 52.6169 18.724 52.6169 18.256C52.3409 18.7 51.7649 19.18 50.8169 19.18C49.5929 19.18 48.8369 18.34 48.8369 17.416ZM51.0809 18.088C51.8609 18.088 52.5329 17.716 52.5329 16.576V16.312L51.0089 16.54C50.5769 16.612 50.2289 16.852 50.2289 17.332C50.2289 17.728 50.5289 18.088 51.0809 18.088ZM56.9756 19H55.5836V10.312H56.9756V19ZM58.3877 17.416C58.3877 16.372 59.1557 15.796 60.1517 15.652L61.6517 15.424C61.9877 15.376 62.0837 15.208 62.0837 15.004C62.0837 14.512 61.7477 14.116 60.9797 14.116C60.2477 14.116 59.8397 14.584 59.7797 15.172L58.5077 14.884C58.6157 13.876 59.5277 12.976 60.9677 12.976C62.7677 12.976 63.4517 13.996 63.4517 15.16V18.064C63.4517 18.592 63.5117 18.94 63.5237 19H62.2277C62.2157 18.964 62.1677 18.724 62.1677 18.256C61.8917 18.7 61.3157 19.18 60.3677 19.18C59.1437 19.18 58.3877 18.34 58.3877 17.416ZM60.6317 18.088C61.4117 18.088 62.0837 17.716 62.0837 16.576V16.312L60.5597 16.54C60.1277 16.612 59.7797 16.852 59.7797 17.332C59.7797 17.728 60.0797 18.088 60.6317 18.088ZM66.5264 15.628V19H65.1344V13.156H66.4904V13.936C66.8744 13.264 67.5704 12.988 68.2184 12.988C69.6464 12.988 70.3304 14.02 70.3304 15.304V19H68.9384V15.544C68.9384 14.824 68.6144 14.248 67.7384 14.248C66.9464 14.248 66.5264 14.86 66.5264 15.628ZM74.569 14.26C73.717 14.26 72.961 14.896 72.961 16.072C72.961 17.248 73.717 17.908 74.593 17.908C75.505 17.908 75.925 17.272 76.057 16.828L77.281 17.272C77.005 18.184 76.129 19.18 74.593 19.18C72.877 19.18 71.569 17.848 71.569 16.072C71.569 14.272 72.877 12.976 74.557 12.976C76.129 12.976 76.993 13.96 77.233 14.896L75.985 15.352C75.853 14.836 75.457 14.26 74.569 14.26ZM79.4306 15.436H82.2986C82.2746 14.752 81.8186 14.14 80.8586 14.14C79.9826 14.14 79.4786 14.812 79.4306 15.436ZM82.4546 16.96L83.6306 17.332C83.3186 18.352 82.3946 19.18 80.9906 19.18C79.4066 19.18 78.0026 18.028 78.0026 16.048C78.0026 14.2 79.3706 12.976 80.8466 12.976C82.6466 12.976 83.7026 14.164 83.7026 16.012C83.7026 16.24 83.6786 16.432 83.6666 16.456H79.3946C79.4306 17.344 80.1266 17.98 80.9906 17.98C81.8306 17.98 82.2626 17.536 82.4546 16.96Z" fill="#2EBDB6"/>
<path d="M103.167 12.3332V10.0003C103.167 9.44583 103.167 9.16858 103.05 8.9982C102.948 8.84934 102.79 8.74822 102.612 8.71794C102.408 8.68328 102.156 8.79947 101.653 9.03183L95.7393 11.7612C95.2903 11.9684 95.0658 12.0721 94.9014 12.2328C94.756 12.3748 94.6451 12.5483 94.577 12.7398C94.5 12.9564 94.5 13.2037 94.5 13.6982V16.9999M103.5 16.6666H103.507M94.5 14.4666L94.5 18.8666C94.5 19.6133 94.5 19.9867 94.6453 20.2719C94.7732 20.5228 94.9771 20.7267 95.228 20.8546C95.5132 20.9999 95.8866 20.9999 96.6333 20.9999H104.367C105.113 20.9999 105.487 20.9999 105.772 20.8546C106.023 20.7267 106.227 20.5228 106.355 20.2719C106.5 19.9867 106.5 19.6133 106.5 18.8666V14.4666C106.5 13.7198 106.5 13.3464 106.355 13.0612C106.227 12.8103 106.023 12.6064 105.772 12.4785C105.487 12.3332 105.113 12.3332 104.367 12.3332L96.6333 12.3332C95.8866 12.3332 95.5132 12.3332 95.228 12.4785C94.9771 12.6064 94.7732 12.8103 94.6453 13.0612C94.5 13.3464 94.5 13.7198 94.5 14.4666ZM103.833 16.6666C103.833 16.8506 103.684 16.9999 103.5 16.9999C103.316 16.9999 103.167 16.8506 103.167 16.6666C103.167 16.4825 103.316 16.3332 103.5 16.3332C103.684 16.3332 103.833 16.4825 103.833 16.6666Z" stroke="#2EBDB6" stroke-width="1.5" stroke-linecap="round" stroke-linejoin="round"/>
<rect x="1" y="0.5" width="119" height="29" rx="14.5" stroke="#2EBDB6"/>
</g>
</svg>
