<svg width="590" height="223" viewBox="0 0 590 223" fill="none" xmlns="http://www.w3.org/2000/svg">
<path fill-rule="evenodd" clip-rule="evenodd" d="M289.379 229.159C287 221.318 270.514 216.626 263.24 213.841C248.854 208.332 234.207 203.652 219.632 198.806C205.057 193.959 190.457 189.146 176.195 183.306C166.935 179.515 156.142 175.355 148.514 168.271C132.263 153.176 167.068 145.744 175.754 142.714C197.848 135.001 223.68 127.795 241.829 111.987C252.662 102.55 254.809 91.5077 247.96 78.3941C245.741 74.127 241.617 69.6855 242.476 64.6262C243.393 59.223 247.926 54.9092 251.818 51.762C266.016 40.2904 284.39 33.9653 301.261 28.0192C319.448 21.5904 338.162 16.2934 356.471 10.7482C364.235 8.39725 371.473 3.02652 378.159 -1.57865C386.925 -7.61525 395.46 -14.0044 404.065 -20.2872C423.001 -34.0913 442.462 -48.4862 464.292 -57.0753C477.963 -62.4547 493.774 -65.4235 507.763 -58.3224C514.786 -54.7569 519.958 -47.8828 525.171 -41.9613C531.477 -34.8101 537.655 -27.5333 544.169 -20.5864C565.153 1.78655 591.573 21.8825 622.387 14.0866C627.048 12.9065 631.38 10.9222 635.926 9.43494C638.822 8.49035 641.64 8.45897 643.687 11.3563C648.827 18.6215 644.065 33.9356 642.465 41.3955C638.961 57.7254 634.287 73.7192 630.265 89.8971C627.603 100.597 622.006 115.804 625.208 126.882C628.061 136.752 642.594 140.162 650.797 142.994C658.483 145.644 671.849 148.572 675.302 157.6C676.975 161.978 675.285 166.525 673.223 170.277C669.606 176.844 664.767 182.159 661.875 189.282C657.135 200.966 654.696 215.823 659.517 228.221C662.857 236.811 669.338 241.155 677.038 244.857C680.275 246.415 682.829 247.437 684.087 251.158C686.088 257.067 685.759 264.05 685.586 270.134C684.971 291.905 681.414 313.841 676.435 334.819C673.947 345.302 671.036 355.881 666.475 365.552C663.491 371.899 659.23 379.665 652.395 381.699C644.483 384.062 635.212 383.549 626.85 383.592C611.229 383.671 595.587 383.042 579.962 382.269C543.829 380.477 507.723 377.658 471.645 373.811C446.227 371.086 420.326 368.489 395.329 362.24C390.449 361.004 385.678 359.288 381.082 357.116C376.189 354.854 370.928 354.76 365.715 355.074C333.362 357.029 301.855 372.355 272.507 384.83C265.057 387.995 257.609 391.165 250.06 394.077C243.571 396.581 236.061 400.447 228.934 400.137C214.893 399.53 221.166 379.964 223.893 371.941C233.491 343.692 248.966 317.595 262.756 291.553C269.308 279.155 275.939 266.761 281.817 253.974C284.88 247.324 291.464 236.032 289.379 229.159Z" stroke="#ED1A70" stroke-width="0.793971"/>
<path fill-rule="evenodd" clip-rule="evenodd" d="M294.69 226.131C287.134 219.34 276.395 215.859 267.278 212.288C254.157 207.146 240.84 202.566 227.62 197.711C215.12 193.119 202.572 188.446 190.517 182.592C183.166 179.022 174.037 174.854 168.966 167.842C157.97 152.643 190.632 145.693 198.372 142.898C217.618 135.954 239.735 129.075 255.175 114.733C264.816 105.777 266.699 95.1375 260.451 83.0128C258.29 78.8176 255.655 75.4719 256.236 70.4828C256.907 64.7091 261.012 60.0086 264.977 56.372C277.394 44.9791 294.115 38.353 309.487 32.4038C325.368 26.2579 342.044 20.2883 358.068 16.5298C364.475 15.0251 371.085 10.7306 376.827 7.23612C385.661 1.85605 394.283 -3.88161 403.015 -9.4305C420.759 -20.7119 439.068 -31.9422 459.055 -38.5666C473.484 -43.3494 489.368 -45.5257 504.202 -40.0328C519.236 -34.4604 528.96 -21.7659 539.833 -10.185C558.619 9.84055 583.044 33.7153 611.729 30.5652C616.079 30.0887 619.92 28.4953 624.096 27.4502C626.242 26.9113 628.743 26.4886 630.476 28.3714C634.974 33.2595 630.454 46.0025 629.191 51.1531C625.7 65.386 621.149 79.29 617.248 93.3912C614.149 104.588 609.781 117.306 610.831 129.169C612.106 143.564 633.13 147.799 642.362 155.445C658.369 168.706 640.233 184.401 632.261 195.384C623.105 207.994 618.253 227.459 633.077 238.311C638.747 242.46 644.707 244.162 648.615 250.62C654.726 260.719 656.313 273.872 657.239 285.382C658.625 302.688 657.934 320.422 654.853 337.357C652.644 349.482 648.693 368.641 635.318 371.286C626.317 373.075 616.515 372.714 607.194 372.592C593.237 372.41 579.274 371.622 565.326 370.638C533.137 368.397 500.934 364.943 468.935 360.122C447.1 356.83 382.704 335.959 378.293 335.845C365.144 335.51 351.728 340.267 339.558 344.562C323.368 350.274 307.643 357.243 291.885 364.055C284.383 367.293 276.903 370.746 269.22 373.531C263.752 375.513 256.527 377.97 250.635 376.013C239.135 372.197 245.184 353.8 247.642 346.047C255.168 322.281 267.043 300.101 277.744 277.852C282.994 266.93 288.367 255.985 292.69 244.59C294.433 239.989 299.359 230.325 294.69 226.131Z" stroke="#ED1A70" stroke-width="0.793971"/>
<path fill-rule="evenodd" clip-rule="evenodd" d="M300.439 219.774C281.614 207.29 258.791 200.64 238.135 191.687C227.766 187.192 217.289 182.522 207.662 176.354C202.655 173.147 196.382 169.074 193.869 163.27C187.146 147.742 216.542 141.335 224.963 138.154C241.243 132.001 259.766 125.489 272.404 112.767C280.124 104.991 282.203 95.3921 277.244 85.0725C275.045 80.4936 272.636 76.7651 273.18 71.4617C273.731 66.0887 276.847 61.483 280.268 57.7065C290.096 46.848 304.314 40.0686 317.308 34.3008C332.555 27.5491 348.288 21.9921 364.382 17.6746C378.475 13.8872 391.086 5.38146 403.877 -1.56253C420.823 -10.7595 438.24 -19.5736 456.89 -24.5974C471.621 -28.5626 487.282 -29.8314 502.256 -25.2454C517.478 -20.5664 528.896 -10.1685 539.861 1.45632C556.438 19.0298 577.675 42.8705 602.839 43.9099C606.499 44.0634 609.63 43.2657 613.112 42.4426C614.803 42.0423 616.959 41.431 618.33 43.0136C621.629 46.8254 616.845 57.5538 615.687 61.1409C611.991 72.5916 607.617 83.7782 603.721 95.1517C600.084 105.77 595.998 116.923 595.178 128.337C593.876 146.515 616.484 150.166 620.578 165.894C623.119 175.66 616.417 185.208 610.903 192.075C604.112 200.524 592.956 208.076 591.888 220.111C591.093 229.075 597.488 232.244 603.156 237.173C612.761 245.524 617.376 259.354 620.258 271.481C624.154 287.868 625.458 305.287 623.788 321.917C623.032 329.455 621.737 337.449 618.315 344.151C615.11 350.431 611.069 353.001 604.537 353.863C584.538 356.494 562.718 353.698 542.138 351.527C516.281 348.797 490.443 344.975 464.886 339.625C447.458 335.976 429.551 331.957 413.032 324.658C408.726 322.755 404.262 320.623 400.599 317.51C397.836 315.174 396.315 313.018 392.623 312.316C381.68 310.236 368.882 315.456 358.882 318.999C342.889 324.66 327.378 331.648 311.825 338.415C302.751 342.371 286.09 351.269 275.992 344.877C267.275 339.358 271.309 324.303 273.347 316.539C278.504 296.903 287.166 278.434 294.758 259.814C298.238 251.28 301.919 242.629 304.205 233.613C304.791 231.314 305.89 228.171 305.503 225.706C305.053 222.884 302.752 221.314 300.439 219.774Z" stroke="#ED1A70" stroke-width="0.793971"/>
<path fill-rule="evenodd" clip-rule="evenodd" d="M302.786 223.288C285.589 212.415 266.553 204.948 248.696 195.3C240.689 190.974 232.531 186.364 225.587 180.243C221.852 176.952 217.648 172.661 216.843 167.425C214.533 152.395 238.564 146.638 247.863 142.941C261.684 137.461 277.616 131.34 287.841 119.811C294.539 112.259 295.374 103.81 290.94 94.5601C286.182 84.638 287.608 75.9781 294.257 67.6649C302.594 57.2479 314.976 50.319 326.551 44.5668C340.499 37.6486 355.055 32.0818 370.039 27.934C384.612 23.9013 397.881 17.149 411.774 11.1861C430.194 3.28232 449.56 -3.68638 469.775 -4.7978C487.375 -5.76472 504.801 -1.51735 519.93 8.58127C535.728 19.1185 546.749 35.0476 560.808 47.7261C569.577 55.6343 581.599 65.9697 593.714 66.4438C597.754 66.6019 603.931 62.9159 602.844 69.9551C602.223 73.9805 600.014 78.0086 598.4 81.6295C595.792 87.4809 593.014 93.2436 590.32 99.051C584.578 111.43 578.284 124.201 575.252 137.734C571.427 154.776 586.947 162.377 589.885 177.621C591.467 185.824 588.116 193.749 584.055 200.401C581.428 204.709 578.334 208.684 575.101 212.497C571.724 216.479 567.385 220.041 564.784 224.663C561.074 231.242 565.112 236.514 568.029 242.717C573.157 253.617 576.997 265.098 579.462 276.899C582.486 291.364 584.03 306.709 581.983 321.286C581.188 326.961 579.873 333.117 576.572 337.748C573.271 342.38 568.755 343.479 563.526 343.942C548.021 345.329 531.366 342.755 515.54 340.328C495.731 337.288 475.975 333.18 456.607 327.579C443.238 323.712 429.659 319.276 417.355 312.294C413.776 310.261 410.269 307.987 407.153 305.21C405.014 303.306 403.342 300.524 400.73 299.393C392.56 295.867 379.93 301.42 372.363 304.027C357.259 309.229 343.108 316.741 328.053 322.036C319.837 324.926 307.083 329.833 298.725 324.172C290.866 318.851 292.769 306.207 294.184 298.396C296.963 283.039 302.499 268.444 306.939 253.614C308.763 247.513 310.837 241.079 311.266 234.606C311.643 228.839 307.194 226.076 302.786 223.288Z" stroke="#ED1A70" stroke-width="0.793971"/>
<path fill-rule="evenodd" clip-rule="evenodd" d="M306.008 222.588C291.951 212.698 276.232 204.887 262.039 194.809C253.73 188.907 239.515 179.057 240.922 166.817C242.46 153.369 260.138 147.735 270.126 143.706C282.013 138.91 295.908 133.059 304.15 122.488C306.757 119.145 308.646 115.188 308.615 110.727C308.583 105.953 306.037 102.527 304.542 98.185C301.405 89.0756 304.413 80.1122 309.8 72.9645C317.414 62.8598 328.603 55.8156 339.424 50.0029C351.687 43.4293 364.571 38.1463 377.892 34.2292C390.621 30.4778 403.112 26.4235 415.738 22.2793C432.246 16.8509 449.346 12.5489 466.885 12.3914C484.164 12.2394 501.198 16.538 516.343 25.8211C531.118 34.8805 543.11 47.7661 554.257 61.2104C560.583 68.8416 570.761 80.0289 580.942 81.7972C585.47 82.5852 589.297 81.2953 586.633 87.6572C583.277 95.6681 577.707 102.955 573.238 110.284C566.793 120.86 560.173 131.657 555.592 143.31C552.667 150.752 552.308 157.232 554.965 164.943C556.993 170.815 559.892 176.36 561.098 182.503C563.931 196.92 556.34 209.654 549.764 221.365C545.533 228.898 541.411 234.91 540.793 244.012C540.061 254.77 541.684 265.751 542.264 276.521C542.899 288.348 543.255 300.742 540.353 312.193C537.77 322.388 532.645 328.144 522.544 328.622C506.79 329.37 489.659 324.739 474.164 320.349C458.394 315.885 442.538 310.305 428.097 302.008C420.3 297.527 414.06 291.395 406.788 286.251C397.646 279.797 383.613 287.466 374.921 290.84C360.49 296.44 316.619 319.199 312.335 289.199C310.547 276.677 314.299 263.507 316.301 251.388C317.128 246.36 318.65 240.167 317.632 234.993C316.522 229.356 310.235 225.566 306.008 222.588Z" stroke="#ED1A70" stroke-width="0.793971"/>
<path fill-rule="evenodd" clip-rule="evenodd" d="M311.718 222.078C300.428 212.684 287.798 204.395 277.333 193.733C270.548 186.829 263.018 177.147 266.022 166.802C269.412 155.128 282.653 148.688 292.51 144.386C302.666 139.954 314.925 135.116 321.323 125.121C323.358 121.939 324.665 118.076 323.945 114.132C323.257 110.349 321.019 107.029 320.285 103.188C318.634 94.5615 321.385 86.2264 326.094 79.3706C340.024 59.0894 366.352 47.6421 388.376 40.6435C399.4 37.1419 411.106 34.7453 422.475 32.1377C437.228 28.754 452.324 26.4395 467.577 27.1718C500.005 28.7255 526.508 45.7342 548.75 70.1059C555.75 77.7775 561.954 86.4868 570.881 91.6661C575.485 94.3421 575.519 97.241 572.961 101.699C568.961 108.668 563.36 114.752 558.485 121.027C551.55 129.951 544.455 139.025 538.911 148.89C535.09 155.69 532.771 161.834 533.939 169.971C534.772 175.773 536.656 181.375 537.828 187.112C540.054 198.012 539.963 209.516 536.863 220.035C534.395 228.375 530.869 236.339 527.073 244.061C522.142 254.111 518.371 263.952 515.632 274.952C511.994 289.514 508.506 315.415 489.431 314.533C468.391 313.557 445.478 301.955 428.356 289.197C422.606 284.914 417.219 279.163 410.47 276.754C400.37 273.157 392.025 275.881 382.176 278.849C367.43 283.291 336.328 296.261 329.015 273.037C326.118 263.836 327.299 253.966 326.459 244.534C325.532 233.967 319.425 228.477 311.718 222.078Z" stroke="#ED1A70" stroke-width="0.793971"/>
<path fill-rule="evenodd" clip-rule="evenodd" d="M317.833 221.391C305.565 208.416 280.79 188.475 288.859 167.563C293.12 156.513 304.391 149.472 314.091 144.386C321.895 140.284 331.709 136.688 335.914 127.924C339.004 121.481 334.757 114.716 334.626 107.844C334.466 99.3251 337.568 91.3885 342.298 84.7074C355.514 66.0355 378.264 54.7225 398.755 47.6415C420.037 40.2894 445.066 37.4757 467.808 39.6496C496.165 42.3638 520.918 56.1461 541.521 76.8078C545.323 80.6222 548.937 84.6223 552.658 88.5207C555.157 91.1351 558.387 93.4214 560.599 96.2957C564.285 101.089 563.167 106.241 560.311 110.935C556.204 117.692 550.376 123.368 545.104 129.093C537.894 136.926 530.462 144.723 524.134 153.276C519.884 159.03 515.472 165.178 515.644 172.906C515.761 178.177 517.024 183.42 518.578 188.451C521.913 199.238 523.988 208.147 522.161 219.485C519.144 238.103 511.402 256.345 502.244 272.336C495.056 284.885 483.6 304.466 467.065 302.449C452.233 300.651 440.468 289.257 428.516 280.775C422.705 276.651 416.515 273.148 409.823 270.979C401.386 268.245 394.196 268.188 385.671 269.874C371.322 272.712 350.183 278.649 340.597 262.28C337.058 256.24 335.952 249.219 333.145 242.867C329.448 234.466 324.022 227.935 317.833 221.391Z" stroke="#ED1A70" stroke-width="0.793971"/>
<path fill-rule="evenodd" clip-rule="evenodd" d="M326.014 219.563C315.535 204.487 302.036 185.575 310.853 166.762C315.123 157.648 322.951 150.928 330.792 145.312C336.408 141.288 346.157 137.686 348.016 129.916C349.378 124.2 347.76 117.358 348.75 111.374C350.109 103.147 353.65 95.6481 358.494 89.1588C371.112 72.2502 390.847 61.279 409.715 54.1903C450.714 38.7916 500.2 49.1392 533.936 80.4031C543.994 89.7217 556.213 99.1883 548.87 113.97C540.85 130.099 524.861 141.309 513.471 154.469C509.118 159.495 503.497 165.652 502.349 172.741C501.657 177.003 502.928 181.711 504.07 185.834C506.97 196.337 508.952 205.971 507.883 216.899C506.234 233.786 500.584 250.599 492.879 265.29C486.159 278.1 475.832 293.881 459.635 290.929C447.212 288.654 436.891 279.032 425.947 272.936C413.765 266.145 400.308 263.135 386.706 263.764C373.476 264.383 359.351 266.354 348.979 255.296C345.421 251.503 341.371 246.425 339.063 241.74C335.285 234.007 330.922 226.59 326.014 219.563Z" stroke="#ED1A70" stroke-width="0.793971"/>
<path fill-rule="evenodd" clip-rule="evenodd" d="M334.984 217.013C327.405 200.893 321.867 183.378 329.688 166.553C333.339 158.703 338.981 152.216 344.824 146.12C349.123 141.634 353.729 137.559 356.156 131.585C358.406 126.054 359.582 120.06 361.673 114.449C364.423 107.019 368.313 100.136 373.194 94.0657C385.434 78.8685 402.693 68.316 420.108 61.2428C428.537 57.8154 437.822 54.569 447.122 54.2724C456.103 53.9839 465.373 55.0006 474.238 56.7665C493.08 60.512 510.946 68.9024 525.928 81.7822C536.202 90.6174 543.166 100.112 537.399 113.91C530.897 129.463 516.909 141.15 506.105 153.211C498.694 161.483 490.156 169.972 491.992 182.299C493.451 192.109 495.022 201.364 494.186 211.298C492.907 225.964 488.816 240.126 482.154 252.942C476.052 264.628 467.206 275.641 453.164 274.565C442.037 273.707 431.725 267.419 421.169 263.874C409.4 259.909 397.592 259.311 385.44 259.624C374.515 259.895 363.74 258.515 354.533 251.503C352.65 250.07 350.651 248.496 349.008 246.755C346.912 244.533 346.241 241.911 345.107 239.058C342.125 231.526 338.413 224.309 334.984 217.013Z" stroke="#ED1A70" stroke-width="0.793971"/>
<path fill-rule="evenodd" clip-rule="evenodd" d="M344.423 212.692C339.852 196.595 338.981 180.352 345.258 164.869C347.941 158.247 351.736 152.318 354.981 146.015C357.593 140.934 360.08 136.196 363.467 131.64C371.507 120.848 376.933 108.369 385.873 98.2271C397.803 84.6748 413.092 74.5872 429.159 67.5811C437.004 64.1593 445.311 61.3015 453.882 59.9607C461.243 58.8088 469.025 60.1583 476.34 61.7323C490.677 64.8131 505.506 70.8485 517.134 80.6146C542.77 102.146 513.823 132.011 499.386 148.749C492.748 156.448 482.024 166.272 481.767 177.671C481.582 185.816 482.373 193.806 481.428 201.927C478.888 223.739 468.803 251.512 445.412 255.201C435.404 256.782 425.065 254.148 415.029 253.304C404.695 252.434 394.544 253.26 384.267 253.909C374.662 254.518 366.619 253.703 358.452 247.519C354.549 244.566 353.442 239.967 351.81 235.402C349.131 227.903 346.593 220.315 344.423 212.692Z" stroke="#ED1A70" stroke-width="0.793971"/>
<path fill-rule="evenodd" clip-rule="evenodd" d="M352.779 207.959C349.165 182.682 354.693 152.257 370.225 132.312C388.494 108.85 409.478 87.4209 436.01 75.1388C448.311 69.4441 462.12 64.3259 476.062 66.7714C486.671 68.6296 499.454 72.3259 507.432 80.5101C526.948 100.528 504.943 127.675 492.47 143.357C485.755 151.799 476.68 160.782 472.866 171.322C470.652 177.433 470.736 184.618 469.383 191.008C465.284 210.372 454.361 228.266 436.475 236.224C428.204 239.903 419.13 241.118 410.267 242.576C401.195 244.069 392.167 246.104 383.017 247.14C375.713 247.965 366.914 248.298 362.023 241.233C355.858 232.33 354.256 218.282 352.779 207.959Z" stroke="#ED1A70" stroke-width="0.793971"/>
<path fill-rule="evenodd" clip-rule="evenodd" d="M360.415 201.445C358.889 177.121 363.419 151.596 378.119 132.413C385.914 122.241 395.976 113.821 405.594 105.599C416.497 96.2792 428.335 88.0373 441.104 81.8894C457.002 74.2334 483.323 63.7515 498.04 81.2182C512.647 98.5556 496.036 122.722 486.099 136.634C479.727 145.548 472.615 154.107 466.791 163.511C463.633 168.609 461.639 174.006 459.339 179.567C452.991 194.966 441.594 209.06 428.554 218.661C415.916 227.967 399.077 235.445 383.635 238.229C376.972 239.433 371.637 238.375 367.621 232.037C362.046 223.223 361.043 211.493 360.415 201.445Z" stroke="#ED1A70" stroke-width="0.793971"/>
<path fill-rule="evenodd" clip-rule="evenodd" d="M367.325 192.707C366.577 171.113 372.403 149.445 385.28 132.505C399.714 113.515 421.247 98.9277 441.957 88.595C452.965 83.1043 476.492 70.1045 487.099 84.0331C497.705 97.9617 485.214 118.54 477.908 129.996C469.037 143.885 459.125 157.697 449.018 170.799C440.239 182.189 430.763 193.983 420.507 203.817C414.728 209.384 408.471 214.388 401.81 218.772C396.874 222.004 390.703 226.47 384.663 226.965C369.429 228.209 367.682 203.033 367.325 192.707Z" stroke="#ED1A70" stroke-width="0.793971"/>
<path fill-rule="evenodd" clip-rule="evenodd" d="M376.322 183.487C376.494 142.175 407.316 112.678 440.41 95.722C448.101 91.7834 469.299 79.5333 477.305 89.7463C485.065 99.6491 475.015 117.143 470.332 125.408C455.821 151.018 435.011 173.008 415.478 194.47C409.382 201.169 398.876 214.892 388.315 213.163C376.845 211.277 376.289 192.052 376.322 183.487Z" stroke="#ED1A70" stroke-width="0.793971"/>
<path fill-rule="evenodd" clip-rule="evenodd" d="M385.909 172.683C387.565 141.803 411.836 117.128 436.968 103.877C443.124 100.633 458.538 91.6535 465.817 97.9587C472.553 103.791 464.727 117.493 461.872 122.862C455.516 134.817 446.987 145.649 438.501 156.147C430.655 165.857 422.753 175.769 414.081 184.59C409.513 189.234 401.177 198.722 393.575 195.928C385.392 192.923 385.541 179.54 385.909 172.683Z" stroke="#ED1A70" stroke-width="0.793971"/>
<path fill-rule="evenodd" clip-rule="evenodd" d="M396.438 160.661C398.609 140.17 415.464 122.251 432.274 112.949C436.798 110.449 446.439 104.587 451.974 108.233C457.071 111.591 452.975 119.969 451.193 123.805C443.295 140.81 429.434 158.031 415.652 170.182C412.187 173.237 406.049 179.035 400.796 176.526C395.407 173.948 395.938 165.366 396.438 160.661Z" stroke="#ED1A70" stroke-width="0.793971"/>
<path fill-rule="evenodd" clip-rule="evenodd" d="M407.904 148.901C409.492 138.574 418.664 128.401 427.302 123.455C433.381 119.976 441.631 118.949 438.287 128.525C434.962 138.029 426.595 148.301 418.641 154.123C412.573 158.563 406.541 157.772 407.904 148.901Z" stroke="#ED1A70" stroke-width="0.793971"/>
<path fill-rule="evenodd" clip-rule="evenodd" d="M78.7771 315.435C73.1646 297.645 58.617 281.759 57.6237 262.221C56.8071 246.174 74.8101 239.438 83.8103 229.37C90.9627 221.37 93.0862 210.349 95.0911 199.784C96.8945 190.299 98.1909 180.695 100.262 171.277C101.605 165.186 103.526 153.441 109.766 151.376C115.739 149.398 123.652 155.74 128.563 159.42C134.967 164.215 140.974 169.573 147.275 174.506C157.896 182.829 169.19 187.965 181.659 192.294C195.849 197.22 210.146 201.8 224.549 206.036C235.159 209.172 245.817 212.246 256.253 216.056C262.8 218.448 276.855 222.406 279.106 229.746C280.18 233.249 278.189 238.078 276.902 241.519C274.725 247.343 271.924 252.909 269.081 258.386C263.787 268.588 258.061 278.528 252.449 288.533C245.165 301.519 238.292 314.205 232.647 328.164C226.816 342.608 221.515 357.313 215.983 371.908C212.237 381.795 208.793 392.669 201.398 400.258C192.132 409.751 181.068 405.964 169.809 409.244C160.124 412.064 153.777 388.213 150.586 382.008C147.367 375.723 142.801 370.341 139.757 363.987C135.958 356.055 133.397 347.544 130.562 339.226C127.096 329.052 124.015 319.302 112.421 318.49C105.824 318.031 99.2679 319.479 92.7301 319.977C88.4941 320.298 80.55 321.056 78.7771 315.435Z" stroke="#ED1A70" stroke-width="0.793971"/>
<path fill-rule="evenodd" clip-rule="evenodd" d="M82.5793 310.837C77.0922 296.158 65.3802 278.771 66.422 261.616C67.3111 246.956 81.923 240.727 90.0333 230.743C96.7301 222.507 97.6742 212.019 99.1275 201.559C100.294 193.168 101.337 184.737 103.029 176.446C104.276 170.336 105.927 160.156 111.465 157.314C116.444 154.76 124.443 160.923 128.595 164.033C134.653 168.575 140.237 173.806 145.903 178.867C155.856 187.756 165.643 195.5 177.841 200.571C190.092 205.664 202.664 208.453 215.424 211.453C225.407 213.8 235.389 216.302 245.172 219.532C252.459 221.936 262.738 224.729 267.737 231.403C271.693 236.683 263.553 249.836 261.324 254.286C256.732 263.438 251.608 272.273 246.458 281.07C240.18 291.791 233.319 301.576 228.399 313.136C219.598 333.805 214.266 357.864 200.253 375.458C191.801 386.07 180.494 391.514 168.296 393.947C163.465 394.911 160.246 388.246 158.434 384.339C155.423 377.85 153.239 370.986 150.447 364.4C147.834 358.236 144.449 352.648 141.313 346.774C138.137 340.823 135.838 334.439 132.987 328.343C131.219 324.558 129.263 320.123 125.751 317.704C122.115 315.2 117.329 315.125 113.193 315.218C105.432 315.41 86.4526 321.195 82.5793 310.837Z" stroke="#ED1A70" stroke-width="0.793971"/>
<path fill-rule="evenodd" clip-rule="evenodd" d="M86.8222 302.739C81.0115 289.496 73.511 273.081 76.6688 258.338C79.2489 246.284 90.6824 240.436 97.3097 231.104C102.822 223.344 102.872 213.606 103.962 204.244C104.858 196.564 105.76 188.851 107.375 181.315C108.6 175.6 110.08 167.906 114.913 164.597C119.044 161.768 126.164 166.785 129.672 169.292C135.647 173.567 141.024 178.75 146.354 183.858C155.072 192.216 163.54 201.397 174.116 207.155C184.389 212.74 195.175 214.626 206.311 217.043C214.84 218.896 223.371 220.917 231.71 223.674C238.112 225.788 245.986 228.207 250.584 233.534C254.556 238.125 250.301 246.234 248.356 250.891C245.143 258.577 241.222 265.92 237.386 273.261C233.245 281.182 228.32 288.819 224.418 296.833C216.214 313.696 210.879 331.247 198.925 345.858C191.184 355.323 179.909 365.187 168.12 367.54C159.641 369.23 154.43 349.804 151.8 343.885C147.492 334.209 141.818 324.386 135.053 316.309C129.249 309.389 120.363 309.375 112.329 309.833C107.296 310.118 102.191 310.985 97.1291 310.613C91.2693 310.181 89.2578 308.29 86.8222 302.739Z" stroke="#ED1A70" stroke-width="0.793971"/>
<path fill-rule="evenodd" clip-rule="evenodd" d="M90.6019 294.59C86.1153 283.266 82.2376 269.45 85.8056 257.43C88.9339 246.901 98.495 241.519 103.715 232.402C107.79 225.288 107.389 215.793 108.312 207.719C109.439 197.848 109.852 180.113 118.305 174.001C126.169 168.317 141.192 185.139 146.113 190.024C153.902 197.755 161.134 206.624 169.782 213.329C177.23 219.1 185.482 221.056 194.258 223.185C205.45 225.91 221.888 228.194 230.224 237.529C236.437 244.483 227.681 260.197 225.138 267.06C222.476 274.232 221.227 282.163 218.362 289.171C213.842 300.228 204.347 310.879 196.374 319.225C188.624 327.341 178.254 336.86 167.552 339.673C160.519 341.524 155.804 330.569 152.662 325.467C148.179 318.221 143.239 312.003 135.557 308.457C127.738 304.848 119.675 304.455 111.334 304.495C107.056 304.523 102.298 304.969 98.0846 303.704C93.4408 302.345 92.3275 298.942 90.6019 294.59Z" stroke="#ED1A70" stroke-width="0.793971"/>
<path fill-rule="evenodd" clip-rule="evenodd" d="M95.5513 285.812C92.608 275.751 91.5855 264.39 95.7244 254.716C99.1716 246.657 106.94 241.987 110.114 233.854C112.63 227.414 112.515 219.462 113.432 212.582C114.549 204.152 115.389 189.759 122.917 184.701C130.265 179.771 141.699 191.934 146.494 196.666C153.52 203.606 159.828 211.302 166.887 218.207C172.421 223.626 178.066 226.497 185.169 228.934C193.507 231.797 204.719 234.379 210.818 241.414C215.222 246.511 211.626 257.831 210.849 263.712C210.331 267.661 209.96 271.626 210.304 275.636C210.572 278.758 211.324 281.498 210.309 284.551C207.751 292.232 198.233 295.977 192.232 300.049C184.261 305.455 175.867 311.401 166.838 314.754C161.29 316.821 156.758 312.179 152.371 309.273C147.187 305.836 140.799 304.158 135.047 302.114C127.454 299.409 119.826 298.593 111.944 297.78C108.388 297.412 104.288 297.234 101.057 295.357C97.69 293.416 96.6144 289.443 95.5513 285.812Z" stroke="#ED1A70" stroke-width="0.793971"/>
<path fill-rule="evenodd" clip-rule="evenodd" d="M101.071 277.669C99.6701 268.899 100.748 259.796 104.854 252.074C107.999 246.148 113.223 241.78 115.202 235.198C117.046 229.062 117.656 222.529 118.806 216.214C120.025 209.536 121.515 198.539 127.848 194.93C134.673 191.041 143.241 199.127 147.986 203.61C153.982 209.274 159.183 215.742 164.831 221.768C169.069 226.25 173.905 230.063 179.18 233.079C184.718 236.265 191.701 238.815 195.656 244.288C199.156 249.138 197.587 256.737 198.603 262.411C199.689 268.472 202.694 274.282 200.508 280.418C196.001 293.072 176.331 296.849 165.482 300.33C154.78 303.776 144.223 300.009 133.702 296.569C126.754 294.298 119.749 292.709 112.736 290.754C105.586 288.758 102.304 285.387 101.071 277.669Z" stroke="#ED1A70" stroke-width="0.793971"/>
<path fill-rule="evenodd" clip-rule="evenodd" d="M106.412 270.815C106.069 257.607 114.46 248.026 119.087 236.585C122.871 227.219 122.726 210.208 132.284 205.098C143.136 199.297 156.248 217.978 162.655 224.784C169.764 232.331 179.859 237.182 185.966 245.595C189.175 250.01 189.059 255.058 189.608 260.264C190.212 265.981 191.104 271.743 188.909 277.145C184.588 287.777 171.13 291.731 161.521 294.858C151.574 298.095 140.954 294.865 131.219 291.384C120.897 287.702 106.767 284.36 106.412 270.815Z" stroke="#ED1A70" stroke-width="0.793971"/>
<path fill-rule="evenodd" clip-rule="evenodd" d="M110.962 265.847C112.088 256.027 117.806 246.609 122.166 238.029C125.806 230.874 128.163 217.955 136.012 214.74C145.236 210.959 154.573 221.214 160.506 227.44C166.342 233.556 173.922 239.59 178.325 246.901C182.914 254.515 180.572 267.316 176.917 274.765C172.84 283.073 163.707 288.42 155.178 290.684C146.249 293.063 136.522 290.108 128.153 286.53C119.206 282.705 109.646 277.249 110.962 265.847Z" stroke="#ED1A70" stroke-width="0.793971"/>
<path fill-rule="evenodd" clip-rule="evenodd" d="M115.613 262.673C117.01 254.367 121.351 246.398 125.409 239.234C128.54 233.704 132.877 224.595 139.16 222.528C146.071 220.253 153.776 224.51 158.39 229.855C162.939 235.127 168.096 241.899 170.5 248.456C175.731 262.734 162.52 284.423 148.551 287.151C135.306 289.737 112.823 279.222 115.613 262.673Z" stroke="#ED1A70" stroke-width="0.793971"/>
</svg>
