<svg width="225" height="161" viewBox="0 0 225 161" fill="none" xmlns="http://www.w3.org/2000/svg">
<path d="M70.8857 10.9798C70.8857 10.9798 99.3488 12.5592 108.363 17.8162C108.363 17.8162 107.086 31.66 106.436 44.546L106.174 46.6099C109.024 47.8955 111.769 49.4015 114.384 51.1142C114.384 51.1142 116.671 53.3266 117.532 58.2528C119.042 61.8812 120.842 65.382 122.914 68.7213C125.383 68.2822 127.945 67.7881 130.6 67.2389L130.874 59.0112C123.889 57.2723 126.569 55.841 126.569 55.841L127.333 55.6415C128.526 55.3275 129.762 55.2044 130.993 55.2767L130.999 55.0485L132.157 19.6578C132.157 19.6578 88.6581 1.00745 70.8857 10.9798ZM123.952 25.3311L122.059 25.2798C120.793 25.2398 119.533 25.16 118.267 25.0801C117.007 24.9833 115.747 24.8862 114.493 24.7495C113.233 24.6126 111.972 24.47 110.724 24.2648C111.99 24.2363 113.255 24.2705 114.521 24.3105C115.787 24.3503 117.047 24.4302 118.307 24.51C119.567 24.607 120.833 24.7039 122.087 24.8407L123.975 25.0516C124.602 25.1429 125.229 25.217 125.856 25.3253C125.223 25.3481 124.59 25.3311 123.952 25.3311ZM126.25 28.638C125.611 28.6551 124.978 28.638 124.345 28.6437L122.447 28.5868C121.181 28.5525 119.921 28.4726 118.661 28.3872C117.4 28.296 116.14 28.199 114.88 28.0564C113.626 27.9253 112.366 27.777 111.111 27.5719C112.383 27.5434 113.649 27.5776 114.914 27.6232C116.175 27.6573 117.44 27.7371 118.701 27.8227C119.961 27.9139 121.221 28.0109 122.481 28.1534L124.362 28.3643C124.99 28.4557 125.622 28.524 126.25 28.638ZM114.168 32.806C115.684 32.9143 117.195 33.0683 118.706 33.2222C120.217 33.3876 121.728 33.5587 123.233 33.7696L125.486 34.0947C126.238 34.2201 126.991 34.3284 127.738 34.4766C126.974 34.4595 126.215 34.4083 125.457 34.374L123.182 34.2087C121.665 34.1004 120.154 33.9464 118.643 33.7868C117.138 33.6214 115.627 33.4503 114.122 33.2394C112.617 33.0285 111.112 32.8118 109.612 32.5381C111.134 32.578 112.651 32.6863 114.168 32.806ZM125.97 50.3046C125.845 51.7131 125.885 53.1327 125.856 54.5411C125.816 55.9494 125.742 57.352 125.736 58.7375C125.731 59.0854 125.731 59.4274 125.736 59.7581C125.748 59.9235 125.748 60.0546 125.765 60.2314L125.816 60.7731C125.884 61.2194 125.833 61.6757 125.668 62.0959C125.547 62.3487 125.355 62.5607 125.115 62.7059C124.916 62.8225 124.698 62.9035 124.471 62.9453C123.73 63.0574 122.977 63.0612 122.236 62.9567C121.529 62.8712 120.822 62.7629 120.12 62.6375C120.106 62.6349 120.093 62.6269 120.085 62.6152C120.076 62.6035 120.073 62.5891 120.075 62.5747C120.077 62.5622 120.084 62.5507 120.093 62.5416C120.102 62.5325 120.113 62.5263 120.126 62.5235C120.833 62.4322 121.54 62.3639 122.247 62.3125C122.912 62.2807 123.571 62.1775 124.214 62.0046C124.499 61.8963 124.653 61.788 124.67 61.6624C124.712 61.4073 124.708 61.1466 124.659 60.8928L124.579 60.3854C124.551 60.2143 124.533 59.9919 124.516 59.8038C124.511 59.4331 124.511 59.0683 124.522 58.709C124.602 57.2723 124.744 55.8695 124.932 54.4612C125.138 53.1098 125.423 51.77 125.6 50.4188C124.802 50.2099 123.975 50.1367 123.154 50.202C122.727 50.2299 122.304 50.2928 121.888 50.3902C121.677 50.4357 121.483 50.4985 121.272 50.5555C121.035 50.6185 120.792 50.6623 120.548 50.6866C119.614 50.7481 118.677 50.6479 117.777 50.3902C116.894 50.1605 116.038 49.8395 115.222 49.4324L115.182 49.4151C115.101 49.3561 115.01 49.31 114.914 49.2784C114.835 49.2515 114.748 49.2535 114.669 49.284C114.577 49.3315 114.504 49.4103 114.464 49.5064C114.407 49.6203 114.365 49.741 114.339 49.8656L114.333 49.8713C114.332 49.8787 114.329 49.8858 114.324 49.892C114.32 49.8981 114.314 49.9033 114.308 49.9071C114.301 49.9109 114.294 49.9133 114.287 49.914C114.279 49.9147 114.272 49.9137 114.264 49.9112C114.254 49.9093 114.244 49.9037 114.236 49.8954C114.229 49.8871 114.225 49.8766 114.225 49.8656C114.205 49.72 114.204 49.5726 114.219 49.4265C114.247 49.2581 114.326 49.1027 114.447 48.9819C114.592 48.861 114.777 48.7998 114.966 48.8108C115.125 48.8117 115.282 48.8446 115.428 48.9077C116.271 49.1186 117.127 49.3183 117.976 49.4665C118.803 49.6259 119.643 49.7061 120.485 49.7061C120.69 49.7116 120.878 49.6776 121.078 49.6661C121.306 49.6433 121.546 49.6033 121.779 49.6033C122.242 49.5859 122.705 49.6031 123.165 49.6547C124.066 49.7568 124.961 49.9109 125.845 50.1164C125.884 50.126 125.918 50.1489 125.942 50.1812C125.966 50.2134 125.978 50.2531 125.976 50.2932L125.97 50.3046ZM125.24 44.8766L122.965 44.9736C121.454 45.0419 119.938 45.0591 118.421 45.0762C116.904 45.0819 115.394 45.0876 113.877 45.0477C112.36 45.0136 110.844 44.9736 109.327 44.8652C110.843 44.734 112.354 44.6714 113.871 44.6086C115.388 44.546 116.904 44.5288 118.415 44.506C119.932 44.5003 121.449 44.4946 122.965 44.5345L125.24 44.5972C125.999 44.6371 126.757 44.6599 127.515 44.717C126.757 44.7911 125.999 44.8254 125.24 44.8766ZM126.09 43.0749L124.191 43.0235C122.925 42.9837 121.665 42.9038 120.405 42.824C119.145 42.727 117.879 42.6301 116.625 42.4933C115.365 42.3564 114.111 42.2139 112.856 42.0087C114.128 41.9802 115.394 42.0143 116.654 42.0542C117.919 42.0942 119.179 42.174 120.445 42.2538C121.705 42.3507 122.965 42.4478 124.22 42.5844L126.107 42.7955C126.734 42.8867 127.361 42.9608 127.989 43.0692C127.356 43.092 126.723 43.0749 126.09 43.0749ZM112.463 38.696C113.734 38.6675 115 38.7017 116.266 38.7472C117.532 38.7814 118.792 38.8613 120.052 38.9468C121.312 39.038 122.572 39.135 123.832 39.2776L125.719 39.4884C126.347 39.5796 126.974 39.6538 127.601 39.7621C126.962 39.7792 126.329 39.7621 125.697 39.7678L123.798 39.7108C122.538 39.6767 121.272 39.5969 120.012 39.5113C118.752 39.4201 117.492 39.3231 116.232 39.1805C114.977 39.0494 113.717 38.9068 112.463 38.696ZM126.352 37.0424L124.454 36.9912C123.188 36.9569 121.928 36.8713 120.662 36.7915C119.402 36.6947 118.142 36.5976 116.887 36.4609C115.627 36.324 114.373 36.1814 113.119 35.9762C114.384 35.9477 115.65 35.9819 116.916 36.0219C118.182 36.0617 119.442 36.1416 120.702 36.2214C121.968 36.3184 123.228 36.4153 124.482 36.5521L126.369 36.7687C126.997 36.8599 127.624 36.9284 128.251 37.0367C127.618 37.0595 126.985 37.0424 126.352 37.0424ZM127.173 31.5916L125.275 31.5403C124.009 31.506 122.749 31.4205 121.489 31.3406C120.229 31.2438 118.969 31.1469 117.708 31.01C116.448 30.8731 115.194 30.7305 113.94 30.5253C115.211 30.4968 116.477 30.531 117.737 30.571C119.003 30.6108 120.263 30.6907 121.529 30.7705C122.789 30.8675 124.049 30.9644 125.303 31.1012L127.19 31.318C127.818 31.4091 128.45 31.4775 129.072 31.5858C128.439 31.6086 127.806 31.5916 127.173 31.5916ZM127.607 22.7995L125.332 22.6342C123.815 22.5258 122.304 22.3718 120.793 22.2122C119.288 22.0468 117.777 21.8758 116.272 21.6648C114.766 21.4539 113.261 21.2372 111.762 20.9635C113.284 21.0034 114.801 21.1117 116.317 21.2315C117.834 21.3399 119.345 21.4939 120.856 21.6477C122.367 21.8187 123.878 21.9841 125.377 22.2008L127.635 22.5201C128.388 22.6455 129.14 22.754 129.887 22.9021C129.123 22.8851 128.365 22.8337 127.607 22.7995ZM105.205 68.0599C104.928 67.1613 104.425 66.3485 103.745 65.6993L103.551 67.2389C88.7836 70.9734 80.4818 71.4924 76.0915 71.2585C81.7247 71.9883 92.8603 72.7125 109.766 70.6883C108.169 70.6599 105.467 69.5651 105.205 68.0599ZM106.875 51.9069C106.875 51.9069 106.345 51.5933 105.604 51.1087L105.501 51.924C105.957 51.8716 106.418 51.8659 106.875 51.9069Z" fill="#111928"/>
<path d="M71.7352 70.5001C72.4768 70.4358 73.2221 70.4245 73.9653 70.4664C74.6957 70.4919 75.4164 70.5624 76.1358 70.6544C76.2909 70.6742 76.4323 70.7536 76.5301 70.8757C76.628 70.9978 76.6745 71.1531 76.66 71.3089C76.6455 71.4646 76.5711 71.6087 76.4525 71.7107C76.3338 71.8126 76.1802 71.8645 76.024 71.8554C75.2702 71.8203 74.5227 71.7016 73.7951 71.5016C73.4259 71.4028 73.0652 71.275 72.7161 71.1194C72.3592 70.9648 72.0283 70.7559 71.7352 70.5001ZM71.7352 70.5001C72.502 70.5464 73.2149 70.5434 73.9371 70.5689C74.6571 70.5815 75.3717 70.6104 76.0903 70.6501L75.9786 71.8512C75.244 71.7567 74.5183 71.6028 73.8087 71.391C73.0797 71.1911 72.3819 70.8913 71.7352 70.5001Z" fill="#111928"/>
<path d="M150.38 26.7912C150.558 28.3544 150.71 29.9101 150.927 31.4428C151.039 32.2071 151.153 32.9711 151.332 33.7046C151.411 34.066 151.513 34.4221 151.637 34.7707C151.694 34.9357 151.762 35.0965 151.842 35.252L151.968 35.5482C152.02 35.6606 152.061 35.7783 152.088 35.8993C152.203 36.3622 152.193 36.8471 152.06 37.305C151.949 37.725 151.776 38.1258 151.546 38.4939C151.112 39.1867 150.596 39.8241 150.009 40.3919C149.865 40.5322 149.722 40.6716 149.574 40.8054L149.351 41.0053L149.238 41.1038C149.212 41.1262 149.187 41.1505 149.164 41.1765C149.075 41.2878 149.031 41.4286 149.04 41.571C149.061 41.7326 149.127 41.8851 149.23 42.0114C149.618 42.6505 150.239 43.1134 150.963 43.3022C150.989 43.3076 151.014 43.3191 151.036 43.3357C151.057 43.3523 151.075 43.3736 151.087 43.398L151.091 43.4077C151.719 44.6783 152.46 45.8899 153.305 47.0281C154.112 48.1551 155.04 49.1902 156.072 50.1148C156.558 50.5395 157.118 50.8713 157.723 51.0938C157.998 51.1895 158.288 51.2361 158.578 51.2312C158.717 51.2294 158.855 51.2158 158.992 51.1904C159.141 51.1657 159.324 51.1169 159.488 51.0816C160.149 50.931 160.798 50.7334 161.431 50.4904C161.723 50.3774 162.003 50.2338 162.265 50.0621C162.375 49.99 162.476 49.9051 162.567 49.8093C162.6 49.7764 162.63 49.7397 162.656 49.7001L162.677 49.6678C162.681 49.68 162.677 49.6294 162.679 49.7492L163.565 49.2494C164.146 49.707 164.668 50.2333 165.122 50.8169C165.574 51.3788 165.962 51.99 166.277 52.6388C166.924 53.9081 167.278 55.306 167.314 56.7301C167.315 56.7444 167.31 56.7585 167.301 56.7695C167.292 56.7806 167.279 56.788 167.265 56.7901C167.251 56.7923 167.236 56.7892 167.224 56.7814C167.212 56.7736 167.203 56.7616 167.199 56.7477L167.198 56.7443C167.04 56.0785 166.825 55.4272 166.558 54.7972C166.303 54.1747 165.987 53.5792 165.614 53.0196C165.247 52.4648 164.834 51.9426 164.377 51.4588C163.937 50.9852 163.45 50.5577 162.923 50.183L163.81 49.6832C163.814 49.7996 163.798 49.9158 163.761 50.0262C163.738 50.0993 163.708 50.1703 163.673 50.2382C163.613 50.3557 163.541 50.466 163.456 50.5666C163.31 50.739 163.143 50.8929 162.96 51.0246C162.633 51.2588 162.283 51.457 161.914 51.616C161.224 51.9134 160.505 52.1407 159.77 52.2947C159.585 52.3335 159.422 52.3778 159.219 52.412C159.003 52.4504 158.785 52.4653 158.566 52.4564C158.142 52.4446 157.722 52.3593 157.327 52.2042C156.598 51.9063 155.93 51.4759 155.358 50.9348C154.288 49.9159 153.383 48.7358 152.677 47.4373C151.969 46.1786 151.326 44.884 150.752 43.5587L150.88 43.6641C150.077 43.4332 149.381 42.9255 148.916 42.2308C148.763 42.058 148.659 41.8467 148.616 41.6195C148.582 41.3685 148.64 41.1134 148.78 40.9021C148.814 40.849 148.853 40.7988 148.896 40.7521L148.993 40.644L149.183 40.426C149.309 40.2807 149.429 40.1304 149.549 39.9805C150.023 39.3946 150.426 38.7546 150.75 38.0738C151.064 37.4888 151.179 36.8171 151.077 36.1608C151.062 36.0909 151.037 36.0233 151.004 35.9598L150.964 35.8605L150.899 35.716C150.806 35.5198 150.727 35.3174 150.662 35.1104C150.535 34.717 150.433 34.3161 150.356 33.9099C150.216 33.1211 150.127 32.324 150.091 31.5236C150.006 29.9434 150.064 28.359 150.263 26.7891C150.264 26.7815 150.266 26.7741 150.27 26.7674C150.274 26.7607 150.279 26.7548 150.285 26.7501C150.291 26.7454 150.298 26.7419 150.306 26.7399C150.313 26.7378 150.321 26.7373 150.328 26.7383C150.342 26.7402 150.354 26.7465 150.363 26.756C150.372 26.7656 150.378 26.778 150.38 26.7912ZM167.256 42.122C167.37 42.6922 167.38 43.2783 167.285 43.852C167.197 44.4336 167.021 44.9982 166.761 45.5259C166.498 46.0591 166.136 46.5368 165.693 46.9329C165.258 47.3278 164.739 47.6181 164.176 47.7818C164.607 47.4302 165.005 47.0399 165.365 46.6157C165.709 46.2016 166.002 45.7478 166.239 45.264C166.712 44.265 167.054 43.2089 167.256 42.122Z" fill="#151F32"/>
<path d="M168.807 39.5967C173.219 49.9752 185.085 52.9416 186.312 35.3879C187.092 24.2155 177.354 14.8337 169.992 15.3272C168.129 15.1509 166.25 15.2475 164.415 15.6138C161.894 16.149 159.496 17.1536 157.346 18.5751C154.678 20.2236 152.318 22.3248 150.373 24.7842C150.147 26.8968 150.616 29.0254 151.71 30.847C153.696 34.0596 157.083 35.0346 158.967 35.3305C159.607 35.4424 160.266 35.3879 160.879 35.1721C161.492 34.9564 162.039 34.5867 162.468 34.0985C162.772 33.7393 163 33.323 163.14 32.874C163.313 32.2165 163.617 31.6008 164.034 31.0642C164.452 30.5276 164.974 30.0811 165.569 29.7519C167.039 29.0241 168.839 29.244 169.692 33.668C170.403 37.3502 169.745 38.95 168.807 39.5967ZM102.038 104.164C104.035 103.827 106.05 103.605 108.072 103.5C110.084 103.366 112.094 103.32 114.105 103.322C116.116 103.329 118.126 103.387 120.136 103.532C122.158 103.649 124.172 103.883 126.167 104.234C124.17 104.572 122.155 104.795 120.133 104.9C118.122 105.033 116.111 105.08 114.1 105.075C112.089 105.066 110.078 105.008 108.068 104.863C106.046 104.745 104.033 104.512 102.038 104.164Z" fill="#151F32"/>
<path d="M122.989 99.1556C119.77 99.3043 116.552 99.4156 113.333 99.525L108.504 99.6934L106.089 99.7705C105.318 99.7757 104.549 99.853 103.792 100.002C102.293 100.3 100.866 100.886 99.5902 101.728L98.6177 102.403C98.3119 102.613 98.0199 102.843 97.7435 103.09C97.2061 103.583 96.744 104.153 96.3723 104.78C96.0061 105.406 95.7347 106.084 95.567 106.79C95.4845 107.141 95.429 107.499 95.4011 107.859C95.3792 108.038 95.3847 108.219 95.3764 108.399L95.375 108.996L95.3603 113.825L95.314 123.484L95.2229 133.142C95.1667 139.58 95.0571 146.018 94.8941 152.455L94.6054 162.111L94.531 164.524C94.5214 164.922 94.5 165.34 94.5001 165.72C94.4945 166.085 94.5167 166.451 94.5665 166.813C94.7605 168.282 95.3948 169.657 96.3859 170.758C96.8877 171.306 97.4634 171.781 98.0964 172.17C98.7433 172.543 99.4382 172.825 100.162 173.01C100.915 173.166 101.682 173.244 102.452 173.244L104.863 173.331C108.079 173.42 111.296 173.496 114.514 173.522C127.385 173.637 140.245 173.233 153.094 172.309C159.51 171.853 165.914 171.267 172.304 170.602C173.902 170.441 175.495 170.239 177.091 170.059C178.689 169.884 180.276 169.676 181.86 169.461L184.238 169.147L184.833 169.07L185.13 169.032C185.153 169.031 185.176 169.027 185.197 169.019L185.3 168.992C185.613 168.899 185.915 168.773 186.202 168.617C186.786 168.3 187.302 167.873 187.724 167.36C188.142 166.832 188.464 166.234 188.673 165.593C188.884 164.918 189.006 164.217 189.034 163.51C189.062 163.145 189.063 162.779 189.036 162.414L189.003 161.859L188.986 161.581L188.96 161.265C188.821 159.586 188.796 157.976 188.775 156.346C188.752 153.098 188.831 149.862 188.974 146.628C189.259 140.161 189.861 133.714 190.679 127.296C192.297 114.441 195.162 101.774 199.233 89.4732C201.289 83.3281 203.821 77.3529 206.808 71.6023C207.532 70.1551 208.347 68.7541 209.152 67.3513C209.99 66.0051 210.7 64.5829 211.271 63.1035C211.819 61.6158 212.19 60.0691 212.377 58.4951C212.474 57.7201 212.445 56.9344 212.289 56.169C212.225 55.7948 212.066 55.4434 211.827 55.1486C211.588 54.8539 211.277 54.6258 210.924 54.4865L210.916 54.4836C210.887 54.4732 210.863 54.4516 210.85 54.4236C210.836 54.3956 210.835 54.3635 210.845 54.3343C210.856 54.3052 210.877 54.2813 210.905 54.2681C210.933 54.2548 210.965 54.2532 210.995 54.2636C211.407 54.3876 211.777 54.6241 212.062 54.9466C212.337 55.2732 212.54 55.655 212.655 56.0664C212.875 56.8691 212.955 57.7037 212.893 58.5337C212.78 60.1686 212.475 61.7845 211.985 63.3481C211.471 64.9021 210.812 66.4044 210.017 67.8351C209.298 69.2674 208.526 70.6698 207.866 72.1304C206.461 75.0079 205.259 77.9808 204.089 80.9583C202.974 83.9598 201.92 86.9821 200.971 90.0397C199.063 96.154 197.483 102.366 196.24 108.649C195.602 111.787 195.039 114.941 194.51 118.1C194 121.262 193.547 124.433 193.151 127.613C192.764 130.793 192.392 133.975 192.11 137.167C191.825 140.358 191.591 143.552 191.407 146.75C191.226 149.947 191.109 153.148 191.093 156.339C191.093 157.928 191.102 159.54 191.209 161.072C191.417 162.827 191.263 164.606 190.756 166.299C190.452 167.188 189.991 168.015 189.396 168.742C188.785 169.469 188.038 170.069 187.197 170.51C186.773 170.734 186.327 170.911 185.865 171.04L185.676 171.087C185.601 171.105 185.524 171.12 185.447 171.129L185.145 171.164L184.542 171.234L182.126 171.506C180.515 171.689 178.906 171.865 177.3 172.006C175.693 172.152 174.088 172.321 172.479 172.448L167.655 172.829L162.826 173.126C161.216 173.23 159.606 173.301 157.995 173.377C156.385 173.454 154.775 173.536 153.164 173.587C146.723 173.871 140.278 173.975 133.837 174.097C127.396 174.2 120.954 174.261 114.512 174.28L104.847 174.292L102.431 174.29C101.589 174.317 100.748 174.258 99.9185 174.114C98.2076 173.768 96.6433 172.907 95.4354 171.647C93.9054 170.049 93.032 167.934 92.9885 165.722C92.975 165.297 92.9826 164.911 92.9786 164.504L92.9708 162.089L92.9487 152.429C92.9679 145.99 93.036 139.552 93.1531 133.114L93.3286 123.457L93.5489 113.801L93.6676 108.973L93.6864 108.363C93.7013 108.141 93.704 107.919 93.7356 107.698C93.7829 107.257 93.8639 106.819 93.9778 106.39C94.4339 104.669 95.4003 103.126 96.7498 101.965C97.0812 101.684 97.4301 101.425 97.7944 101.189C98.1341 100.968 98.4553 100.747 98.8279 100.521C100.282 99.6374 101.894 99.0452 103.574 98.7766C104.404 98.6464 105.244 98.5934 106.084 98.6184L108.498 98.651L113.327 98.7305C116.547 98.7806 119.766 98.8326 122.987 98.9219C123.017 98.9227 123.046 98.9352 123.067 98.9569C123.088 98.9785 123.1 99.0074 123.1 99.0377C123.101 99.068 123.089 99.0972 123.068 99.1192C123.048 99.1412 123.019 99.1542 122.989 99.1556Z" fill="#151F32"/>
<path d="M153.34 98.7642C154.612 98.4149 155.912 98.1734 157.224 98.0423C158.52 97.902 159.816 97.8305 161.113 97.8178C162.41 97.8047 163.707 97.8531 165.005 97.9698C166.32 98.0765 167.624 98.2954 168.902 98.624C167.63 98.9755 166.331 99.2178 165.018 99.3482C163.722 99.4883 162.426 99.56 161.129 99.5703C159.832 99.581 158.535 99.5329 157.237 99.416C155.922 99.3085 154.618 99.0905 153.34 98.7642ZM186.982 169.444C187.205 171.271 187.303 173.097 187.376 174.924C187.441 176.75 187.478 178.577 187.41 180.403C187.326 182.23 187.156 184.056 187.113 185.882C187.11 186.339 187.095 186.796 187.101 187.252C187.104 187.48 187.109 187.705 187.094 187.955C187.069 188.198 187.018 188.438 186.941 188.67C186.78 189.146 186.503 189.574 186.135 189.916C185.768 190.258 185.321 190.504 184.835 190.631C184.056 190.831 183.23 190.719 182.533 190.318C181.836 189.918 181.323 189.26 181.104 188.486C181.028 188.224 180.986 187.953 180.979 187.68L180.964 186.993C180.923 185.167 180.874 183.341 180.89 181.514C180.94 177.861 181.086 174.208 181.455 170.555C181.457 170.541 181.463 170.527 181.474 170.518C181.485 170.508 181.499 170.503 181.514 170.503C181.528 170.503 181.542 170.508 181.553 170.518C181.564 170.527 181.571 170.541 181.572 170.555C181.941 174.208 182.087 177.861 182.137 181.514C182.153 183.341 182.104 185.167 182.063 186.993L182.049 187.677C182.047 187.861 182.066 188.044 182.105 188.224C182.187 188.59 182.359 188.93 182.604 189.213C182.857 189.504 183.176 189.73 183.534 189.872C183.908 190.011 184.31 190.056 184.705 190.004C185.117 189.942 185.505 189.774 185.832 189.516C186.159 189.258 186.413 188.919 186.569 188.533C186.72 188.124 186.78 187.687 186.746 187.252C186.752 186.796 186.737 186.339 186.734 185.882C186.691 184.056 186.521 182.23 186.437 180.403C186.369 178.577 186.406 176.75 186.471 174.924C186.544 173.097 186.642 171.271 186.865 169.444C186.867 169.43 186.874 169.417 186.885 169.408C186.895 169.398 186.909 169.393 186.924 169.393C186.938 169.393 186.952 169.398 186.963 169.408C186.973 169.417 186.98 169.43 186.982 169.444ZM103.589 173.535C103.812 175.095 103.91 176.654 103.983 178.213C104.048 179.773 104.085 181.332 104.017 182.891C103.933 184.451 103.763 186.01 103.72 187.569C103.724 187.986 103.643 188.399 103.483 188.783C103.323 189.168 103.086 189.515 102.787 189.806C102.473 190.112 102.097 190.348 101.684 190.496C101.271 190.644 100.831 190.702 100.394 190.665C99.9568 190.629 99.5326 190.498 99.1502 190.283C98.7679 190.068 98.4362 189.773 98.1778 189.419C97.9065 189.043 97.7236 188.61 97.6427 188.154C97.5914 187.741 97.5673 187.325 97.5706 186.909C97.5302 185.35 97.4812 183.79 97.4971 182.231C97.5247 179.104 97.7132 175.982 98.0619 172.875C98.0636 172.86 98.0705 172.847 98.0812 172.838C98.092 172.828 98.1059 172.823 98.1203 172.823C98.1347 172.823 98.1486 172.828 98.1594 172.838C98.1702 172.847 98.177 172.86 98.1788 172.875C98.5274 175.982 98.716 179.104 98.7436 182.231C98.7595 183.79 98.7104 185.35 98.67 186.909C98.6643 187.294 98.6367 187.718 98.6658 187.999C98.7375 188.607 99.0439 189.163 99.5197 189.549C99.9955 189.934 100.603 190.119 101.213 190.063C101.823 190.006 102.386 189.714 102.784 189.249C103.181 188.783 103.381 188.18 103.341 187.569C103.298 186.01 103.128 184.451 103.044 182.891C102.976 181.332 103.013 179.773 103.077 178.213C103.15 176.654 103.249 175.095 103.472 173.535C103.474 173.521 103.481 173.508 103.492 173.499C103.502 173.49 103.516 173.484 103.53 173.484C103.545 173.484 103.558 173.49 103.569 173.499C103.58 173.508 103.587 173.521 103.589 173.535ZM131.007 55.2612C132.167 55.3795 133.328 55.5641 134.445 55.5999L134.415 55.5986L135.116 55.5611C135.223 55.5549 135.328 55.5913 135.408 55.6623C135.488 55.7333 135.537 55.8331 135.543 55.94C135.55 56.0468 135.514 56.152 135.443 56.2323C135.373 56.3127 135.273 56.3618 135.166 56.3689C134.907 56.3855 134.644 56.3982 134.38 56.4024C134.356 56.4028 134.333 56.3994 134.31 56.3923L134.276 56.3814C133.662 56.1883 133.036 56.039 132.401 55.9345C131.77 55.8397 131.133 55.783 130.495 55.7649C129.856 55.7466 129.217 55.7639 128.58 55.8166C127.929 55.8846 127.283 55.9884 126.644 56.1276L126.708 56.1023C126.614 56.1405 126.53 56.1989 126.461 56.2733C126.392 56.3477 126.34 56.4363 126.309 56.533C126.265 56.7077 126.423 56.9249 126.596 57.1121C127.027 57.4732 127.517 57.7563 128.045 57.9484C128.316 58.0442 128.582 58.1529 128.857 58.2382L129.689 58.4739C130.254 58.5986 130.819 58.7256 131.383 58.8266C131.427 58.8343 131.468 58.8536 131.502 58.8823L131.53 58.9069C132.172 59.4447 132.851 59.9367 133.563 60.3789C134.256 60.8245 134.986 61.2108 135.744 61.5336C136.463 61.8477 137.237 62.0172 138.021 62.0325C138.749 62.043 139.459 61.8135 140.043 61.3797L140.061 61.3664C140.159 61.2935 140.278 61.2529 140.4 61.2504C140.522 61.2479 140.643 61.2836 140.744 61.3524C141.434 61.8239 142.133 62.2824 142.816 62.7647C143.502 63.2421 144.185 63.7262 144.862 64.217C145.541 64.7055 146.205 65.218 146.877 65.7172C147.545 66.2226 148.204 66.7424 148.854 67.2766C148.865 67.2856 148.872 67.2982 148.874 67.3122C148.876 67.3261 148.873 67.3404 148.865 67.3522C148.858 67.3641 148.846 67.3726 148.832 67.3763C148.819 67.38 148.804 67.3786 148.792 67.3723C148.039 66.9965 147.296 66.6059 146.563 66.2006C145.834 65.7895 145.096 65.3916 144.373 64.9696C143.648 64.5517 142.929 64.1255 142.214 63.6909C141.496 63.2628 140.793 62.8109 140.082 62.372L140.782 62.3448C139.987 62.9552 139.002 63.2648 138.001 63.2187C137.069 63.1625 136.156 62.9224 135.317 62.5124C134.51 62.1338 133.748 61.665 133.046 61.115C132.354 60.573 131.705 59.977 131.107 59.3325L131.253 59.4127C130.684 59.2495 130.131 59.0535 129.571 58.8766C129.016 58.6843 128.461 58.4929 127.914 58.2707C127.349 58.0569 126.816 57.7667 126.33 57.4082C126.186 57.3023 126.066 57.1659 125.981 57.0088C125.895 56.8517 125.845 56.6777 125.833 56.4991C125.841 56.301 125.91 56.1102 126.03 55.9529C126.139 55.805 126.274 55.6786 126.429 55.58C126.437 55.5749 126.446 55.5709 126.455 55.5678L126.494 55.5547C127.134 55.3237 127.786 55.1304 128.449 54.9757C129.126 54.823 129.818 54.7475 130.512 54.7509C131.897 54.7608 133.268 55.0325 134.553 55.5518L134.449 55.5308C134.653 55.535 134.857 55.5476 135.065 55.5643L135.116 56.3721L134.415 56.3346L134.384 56.3333C133.796 56.242 133.215 56.1097 132.645 55.9372C132.081 55.7726 131.526 55.5842 130.98 55.372C130.967 55.367 130.956 55.3574 130.95 55.345C130.943 55.3326 130.942 55.3184 130.945 55.3048C130.948 55.2913 130.956 55.2794 130.968 55.2714C130.979 55.2634 130.993 55.2597 131.007 55.2612ZM131.129 51.1274C133.377 51.293 135.594 51.7558 137.721 52.5037C139.857 53.2052 141.948 54.0385 143.981 54.9988C146.008 55.9638 147.997 57.0012 149.925 58.145C151.865 59.2711 153.733 60.5149 155.52 61.8695C153.495 60.9052 151.498 59.9142 149.502 58.9279C147.502 57.9509 145.51 56.967 143.497 56.0308C141.496 55.0701 139.462 54.1887 137.417 53.3362C135.37 52.465 133.27 51.7272 131.129 51.1274ZM45.4447 120.031C46.1174 120.755 46.7959 121.485 47.4802 122.198C47.7311 121.251 48.0105 120.311 48.2727 119.358C47.3319 119.598 46.3892 119.822 45.4447 120.031ZM47.9135 122.654C48.6376 123.418 49.3674 124.188 50.1087 124.941L50.3253 125.157C50.5192 124.131 50.7301 123.105 50.9468 122.078C49.9319 122.272 48.9284 122.46 47.9135 122.654ZM50.7245 125.562C51.7166 126.56 52.7144 127.546 53.7349 128.51L54.0143 126.457L54.2538 124.479C53.0735 124.832 51.9047 125.209 50.7245 125.562ZM53.9231 128.692C54.3279 129.069 54.7385 129.451 55.1603 129.821C55.8275 130.437 56.5174 131.036 57.213 131.617C57.2815 130.175 57.3613 128.736 57.4524 127.301C56.2723 127.763 55.0977 128.219 53.9231 128.692ZM61.2156 130.237C60.0353 130.83 58.8494 131.406 57.6691 131.999C58.6133 132.778 59.5972 133.506 60.6169 134.183C60.8222 134.326 61.0274 134.457 61.2384 134.582L61.2156 130.237ZM65.3665 131.765C64.1634 132.803 62.9375 133.812 61.723 134.839C61.7131 134.846 61.7011 134.85 61.6889 134.85C62.3262 135.225 62.996 135.542 63.6902 135.797C64.269 136.028 64.8855 136.152 65.509 136.161C65.9249 136.162 66.3377 136.091 66.7292 135.95C66.2617 134.554 65.8112 133.162 65.3665 131.765ZM45.4447 120.031C46.1174 120.755 46.7959 121.485 47.4802 122.198C47.7311 121.251 48.0105 120.311 48.2727 119.358C47.3319 119.598 46.3892 119.822 45.4447 120.031ZM47.9135 122.654C48.6376 123.418 49.3674 124.188 50.1087 124.941L50.3253 125.157C50.5192 124.131 50.7301 123.105 50.9468 122.078C49.9319 122.272 48.9284 122.46 47.9135 122.654ZM50.7245 125.562C51.7166 126.56 52.7144 127.546 53.7349 128.51L54.0143 126.457L54.2538 124.479C53.0735 124.832 51.9047 125.209 50.7245 125.562ZM53.9231 128.692C54.3279 129.069 54.7385 129.451 55.1603 129.821C55.8275 130.437 56.5174 131.036 57.213 131.617C57.2815 130.175 57.3613 128.736 57.4524 127.301C56.2723 127.763 55.0977 128.219 53.9231 128.692ZM61.2156 130.237C60.0353 130.83 58.8494 131.406 57.6691 131.999C58.6133 132.778 59.5972 133.506 60.6169 134.183C60.8222 134.326 61.0274 134.457 61.2384 134.582L61.2156 130.237ZM65.3665 131.765C64.1634 132.803 62.9375 133.812 61.723 134.839C61.7131 134.846 61.7011 134.85 61.6889 134.85C62.3262 135.225 62.996 135.542 63.6902 135.797C64.269 136.028 64.8855 136.152 65.509 136.161C65.9249 136.162 66.3377 136.091 66.7292 135.95C66.2617 134.554 65.8112 133.162 65.3665 131.765ZM45.4447 120.031C46.1174 120.755 46.7959 121.485 47.4802 122.198C47.7311 121.251 48.0105 120.311 48.2727 119.358C47.3319 119.598 46.3892 119.822 45.4447 120.031ZM47.9135 122.654C48.6376 123.418 49.3674 124.188 50.1087 124.941L50.3253 125.157C50.5192 124.131 50.7301 123.105 50.9468 122.078C49.9319 122.272 48.9284 122.46 47.9135 122.654ZM50.7245 125.562C51.7166 126.56 52.7144 127.546 53.7349 128.51L54.0143 126.457L54.2538 124.479C53.0735 124.832 51.9047 125.209 50.7245 125.562ZM53.9231 128.692C54.3279 129.069 54.7385 129.451 55.1603 129.821C55.8275 130.437 56.5174 131.036 57.213 131.617C57.2815 130.175 57.3613 128.736 57.4524 127.301C56.2723 127.763 55.0977 128.219 53.9231 128.692ZM61.2156 130.237C60.0353 130.83 58.8494 131.406 57.6691 131.999C58.6133 132.778 59.5972 133.506 60.6169 134.183C60.8222 134.326 61.0274 134.457 61.2384 134.582L61.2156 130.237ZM65.3665 131.765C64.1634 132.803 62.9375 133.812 61.723 134.839C61.7131 134.846 61.7011 134.85 61.6889 134.85C62.3262 135.225 62.996 135.542 63.6902 135.797C64.269 136.028 64.8855 136.152 65.509 136.161C65.9249 136.162 66.3377 136.091 66.7292 135.95C66.2617 134.554 65.8112 133.162 65.3665 131.765ZM45.4447 120.031C46.1174 120.755 46.7959 121.485 47.4802 122.198C47.7311 121.251 48.0105 120.311 48.2727 119.358C47.3319 119.598 46.3892 119.822 45.4447 120.031ZM47.9135 122.654C48.6376 123.418 49.3674 124.188 50.1087 124.941L50.3253 125.157C50.5192 124.131 50.7301 123.105 50.9468 122.078C49.9319 122.272 48.9284 122.46 47.9135 122.654ZM50.7245 125.562C51.7166 126.56 52.7144 127.546 53.7349 128.51L54.0143 126.457L54.2538 124.479C53.0735 124.832 51.9047 125.209 50.7245 125.562ZM53.9231 128.692C54.3279 129.069 54.7385 129.451 55.1603 129.821C55.8275 130.437 56.5174 131.036 57.213 131.617C57.2815 130.175 57.3613 128.736 57.4524 127.301C56.2723 127.763 55.0977 128.219 53.9231 128.692ZM61.2156 130.237C60.0353 130.83 58.8494 131.406 57.6691 131.999C58.6133 132.778 59.5972 133.506 60.6169 134.183C60.8222 134.326 61.0274 134.457 61.2384 134.582L61.2156 130.237ZM65.3665 131.765C64.1634 132.803 62.9375 133.812 61.723 134.839C61.7131 134.846 61.7011 134.85 61.6889 134.85C62.3262 135.225 62.996 135.542 63.6902 135.797C64.269 136.028 64.8855 136.152 65.509 136.161C65.9249 136.162 66.3377 136.091 66.7292 135.95C66.2617 134.554 65.8112 133.162 65.3665 131.765ZM45.4447 120.031C46.1174 120.755 46.7959 121.485 47.4802 122.198C47.7311 121.251 48.0105 120.311 48.2727 119.358C47.3319 119.598 46.3892 119.822 45.4447 120.031ZM47.9135 122.654C48.6376 123.418 49.3674 124.188 50.1087 124.941L50.3253 125.157C50.5192 124.131 50.7301 123.105 50.9468 122.078C49.9319 122.272 48.9284 122.46 47.9135 122.654ZM50.7245 125.562C51.7166 126.56 52.7144 127.546 53.7349 128.51L54.0143 126.457L54.2538 124.479C53.0735 124.832 51.9047 125.209 50.7245 125.562ZM53.9231 128.692C54.3279 129.069 54.7385 129.451 55.1603 129.821C55.8275 130.437 56.5174 131.036 57.213 131.617C57.2815 130.175 57.3613 128.736 57.4524 127.301C56.2723 127.763 55.0977 128.219 53.9231 128.692ZM61.2156 130.237C60.0353 130.83 58.8494 131.406 57.6691 131.999C58.6133 132.778 59.5972 133.506 60.6169 134.183C60.8222 134.326 61.0274 134.457 61.2384 134.582L61.2156 130.237ZM65.3665 131.765C64.1634 132.803 62.9375 133.812 61.723 134.839C61.7131 134.846 61.7011 134.85 61.6889 134.85C62.3262 135.225 62.996 135.542 63.6902 135.797C64.269 136.028 64.8855 136.152 65.509 136.161C65.9249 136.162 66.3377 136.091 66.7292 135.95C66.2617 134.554 65.8112 133.162 65.3665 131.765ZM45.4447 120.031C46.1174 120.755 46.7959 121.485 47.4802 122.198C47.7311 121.251 48.0105 120.311 48.2727 119.358C47.3319 119.598 46.3892 119.822 45.4447 120.031ZM47.9135 122.654C48.6376 123.418 49.3674 124.188 50.1087 124.941L50.3253 125.157C50.5192 124.131 50.7301 123.105 50.9468 122.078C49.9319 122.272 48.9284 122.46 47.9135 122.654ZM50.7245 125.562C51.7166 126.56 52.7144 127.546 53.7349 128.51L54.0143 126.457L54.2538 124.479C53.0735 124.832 51.9047 125.209 50.7245 125.562ZM53.9231 128.692C54.3279 129.069 54.7385 129.451 55.1603 129.821C55.8275 130.437 56.5174 131.036 57.213 131.617C57.2815 130.175 57.3613 128.736 57.4524 127.301C56.2723 127.763 55.0977 128.219 53.9231 128.692ZM61.2156 130.237C60.0353 130.83 58.8494 131.406 57.6691 131.999C58.6133 132.778 59.5972 133.506 60.6169 134.183C60.8222 134.326 61.0274 134.457 61.2384 134.582L61.2156 130.237ZM65.3665 131.765C64.1634 132.803 62.9375 133.812 61.723 134.839C61.7131 134.846 61.7011 134.85 61.6889 134.85C62.3262 135.225 62.996 135.542 63.6902 135.797C64.269 136.028 64.8855 136.152 65.509 136.161C65.9249 136.162 66.3377 136.091 66.7292 135.95C66.2617 134.554 65.8112 133.162 65.3665 131.765ZM45.4447 120.031C46.1174 120.755 46.7959 121.485 47.4802 122.198C47.7311 121.251 48.0105 120.311 48.2727 119.358C47.3319 119.598 46.3892 119.822 45.4447 120.031ZM47.9135 122.654C48.6376 123.418 49.3674 124.188 50.1087 124.941L50.3253 125.157C50.5192 124.131 50.7301 123.105 50.9468 122.078C49.9319 122.272 48.9284 122.46 47.9135 122.654ZM50.7245 125.562C51.7166 126.56 52.7144 127.546 53.7349 128.51L54.0143 126.457L54.2538 124.479C53.0735 124.832 51.9047 125.209 50.7245 125.562ZM53.9231 128.692C54.3279 129.069 54.7385 129.451 55.1603 129.821C55.8275 130.437 56.5174 131.036 57.213 131.617C57.2815 130.175 57.3613 128.736 57.4524 127.301C56.2723 127.763 55.0977 128.219 53.9231 128.692ZM61.2156 130.237C60.0353 130.83 58.8494 131.406 57.6691 131.999C58.6133 132.778 59.5972 133.506 60.6169 134.183C60.8222 134.326 61.0274 134.457 61.2384 134.582L61.2156 130.237ZM65.3665 131.765C64.1634 132.803 62.9375 133.812 61.723 134.839C61.7131 134.846 61.7011 134.85 61.6889 134.85C62.3262 135.225 62.996 135.542 63.6902 135.797C64.269 136.028 64.8855 136.152 65.509 136.161C65.9249 136.162 66.3377 136.091 66.7292 135.95C66.2617 134.554 65.8112 133.162 65.3665 131.765ZM45.4447 120.031C46.1174 120.755 46.7959 121.485 47.4802 122.198C47.7311 121.251 48.0105 120.311 48.2727 119.358C47.3319 119.598 46.3892 119.822 45.4447 120.031ZM47.9135 122.654C48.6376 123.418 49.3674 124.188 50.1087 124.941L50.3253 125.157C50.5192 124.131 50.7301 123.105 50.9468 122.078C49.9319 122.272 48.9284 122.46 47.9135 122.654ZM50.7245 125.562C51.7166 126.56 52.7144 127.546 53.7349 128.51L54.0143 126.457L54.2538 124.479C53.0735 124.832 51.9047 125.209 50.7245 125.562ZM53.9231 128.692C54.3279 129.069 54.7385 129.451 55.1603 129.821C55.8275 130.437 56.5174 131.036 57.213 131.617C57.2815 130.175 57.3613 128.736 57.4524 127.301C56.2723 127.763 55.0977 128.219 53.9231 128.692ZM61.2156 130.237C60.0353 130.83 58.8494 131.406 57.6691 131.999C58.6133 132.778 59.5972 133.506 60.6169 134.183C60.8222 134.326 61.0274 134.457 61.2384 134.582L61.2156 130.237ZM65.3665 131.765C64.1634 132.803 62.9375 133.812 61.723 134.839C61.7131 134.846 61.7011 134.85 61.6889 134.85C62.3262 135.225 62.996 135.542 63.6902 135.797C64.269 136.028 64.8855 136.152 65.509 136.161C65.9249 136.162 66.3377 136.091 66.7292 135.95C66.2617 134.554 65.8112 133.162 65.3665 131.765ZM67.5443 147.782C66.8657 148.603 66.1929 149.418 65.5087 150.228C66.5578 150.501 67.6069 150.752 68.6732 150.963C68.2858 149.908 67.9148 148.848 67.5443 147.782ZM72.1797 149.783L71.507 148.038C70.7714 149.059 70.0302 150.074 69.289 151.094C70.4065 151.328 71.5241 151.534 72.653 151.705C72.7556 151.716 72.8583 151.727 72.9666 151.745C72.6989 151.094 72.4306 150.439 72.1797 149.783ZM75.424 147.936C74.7684 149.219 74.1468 150.524 73.514 151.824C74.8652 152.018 76.228 152.178 77.5849 152.286C76.8783 150.832 76.1652 149.373 75.424 147.936ZM80.4986 148.552L77.9841 152.326C78.7082 152.377 79.4323 152.423 80.1564 152.44C80.9034 152.469 81.6504 152.469 82.3972 152.463L80.4986 148.552ZM85.3394 148.409C84.6038 149.76 83.8568 151.1 83.11 152.44C84.6356 152.396 86.1581 152.274 87.6714 152.075C87.7136 152.07 87.7554 152.062 87.7968 152.052C86.959 150.843 86.1604 149.623 85.3394 148.409ZM90.3626 147.366C89.7126 148.899 89.0455 150.416 88.384 151.944C89.3851 151.787 90.374 151.561 91.3433 151.266C92.2343 151.044 93.1058 150.751 93.9489 150.387L93.9547 149.783C92.7518 148.985 91.5542 148.179 90.3626 147.366ZM120.034 88.8658L96.8968 72.3649C94.3343 70.6481 91.4141 69.5381 88.3582 69.1192C85.3024 68.7003 82.1912 68.9836 79.2613 69.9475C74.9736 71.4127 70.4635 74.5601 67.0253 80.9175C67.0253 80.9175 51.8986 109.603 45.2618 119.832C45.3075 119.877 45.3587 119.935 45.3987 119.98C45.3994 119.98 45.4002 119.98 45.4009 119.98C45.4016 119.979 45.4022 119.979 45.4027 119.978C45.4033 119.978 45.4037 119.977 45.404 119.977C45.4042 119.976 45.4044 119.975 45.4044 119.974C46.4193 119.632 47.4361 119.305 48.4548 118.994C48.4746 118.986 48.4957 118.983 48.5168 118.984C48.5379 118.986 48.5585 118.991 48.5773 119.001C48.5961 119.011 48.6127 119.024 48.626 119.04C48.6392 119.057 48.6489 119.076 48.6544 119.096C48.6601 119.123 48.6601 119.15 48.6544 119.176V119.188C48.4263 120.174 48.2096 121.166 47.9644 122.158C49.0591 121.924 50.1501 121.696 51.2372 121.474C51.3075 121.46 51.3803 121.475 51.44 121.514C51.4998 121.554 51.5416 121.615 51.5566 121.685C51.5623 121.723 51.5623 121.761 51.5566 121.799C51.3057 122.905 51.0662 124.011 50.7925 125.117C51.9728 124.815 53.1701 124.53 54.3561 124.217C54.3703 124.213 54.3852 124.212 54.3998 124.213C54.4144 124.215 54.4286 124.22 54.4413 124.228C54.4541 124.235 54.4652 124.245 54.4741 124.257C54.4829 124.269 54.4893 124.282 54.4929 124.296C54.4976 124.309 54.4995 124.323 54.4986 124.336L54.1964 126.48L53.957 128.436C55.1772 127.906 56.3878 127.366 57.589 126.816C57.6367 126.795 57.691 126.793 57.7401 126.811C57.7893 126.829 57.8292 126.866 57.8513 126.913C57.8624 126.939 57.8682 126.966 57.8684 126.993V127.005C57.8513 128.441 57.8209 129.874 57.7772 131.304C58.9803 130.682 60.1833 130.049 61.3864 129.439C61.4622 129.401 61.55 129.394 61.6309 129.419C61.7119 129.445 61.7797 129.501 61.8197 129.576C61.8424 129.622 61.8541 129.673 61.8539 129.724L61.8311 134.001C62.9999 133.088 64.1631 132.17 65.3376 131.275L65.3491 131.27C65.3692 131.254 65.3923 131.242 65.417 131.235C65.4417 131.228 65.4676 131.226 65.4931 131.229C65.5186 131.232 65.5432 131.24 65.5655 131.253C65.5877 131.266 65.6072 131.283 65.6227 131.304C65.6356 131.325 65.6453 131.348 65.6513 131.372C66.0446 132.883 66.4228 134.4 66.7859 135.922C66.8772 135.889 66.9667 135.851 67.0539 135.808C66.0504 136.481 64.7219 136.412 63.5986 136.082C62.4646 135.716 61.3805 135.21 60.3715 134.577C58.3736 133.311 56.494 131.869 54.7552 130.266C53.0276 128.658 51.3513 126.999 49.7719 125.254C48.2496 123.572 46.7842 121.845 45.4101 120.031C45.3987 120.026 45.3873 120.026 45.3873 120.014C45.3873 120.009 45.393 120.009 45.393 120.003C45.353 119.946 45.3018 119.895 45.2618 119.832C43.9675 121.833 42.9983 123.128 42.525 123.367C42.525 123.367 55.4167 140.7 66.5977 142.707C66.9627 138.306 67.4188 133.904 68.0688 129.525C68.696 125.146 69.46 120.778 70.4065 116.451C71.3123 112.104 72.5183 107.825 74.0158 103.645C74.7678 101.542 75.7087 99.5114 76.8267 97.5781C77.4048 96.6131 78.1085 95.7292 78.9193 94.9495C79.3336 94.5595 79.817 94.2501 80.3447 94.0373C80.604 93.9239 80.8864 93.8736 81.1689 93.8904C81.4513 93.9073 81.7258 93.9908 81.9697 94.1342C81.723 94.0207 81.4531 93.9667 81.1818 93.9766C80.9104 93.9866 80.6452 94.0601 80.4074 94.1913C79.9294 94.4412 79.4991 94.7731 79.1359 95.1718C78.4147 95.9853 77.8067 96.8925 77.3285 97.8687C76.3467 99.8252 75.5249 101.858 74.871 103.947C74.1925 106.028 73.5938 108.149 73.0579 110.276C72.5048 112.408 71.9916 114.546 71.5469 116.702C70.589 121.001 69.7737 125.334 68.9698 129.667L66.5977 142.707L65.2354 150.165C65.3038 150.182 65.3722 150.193 65.4406 150.211C66.1078 149.264 66.7862 148.323 67.4761 147.377C67.5006 147.345 67.5364 147.325 67.5759 147.319C67.6153 147.314 67.6553 147.325 67.6872 147.348C67.7118 147.366 67.7314 147.389 67.7441 147.417V147.422C68.1717 148.489 68.6108 149.561 69.0327 150.632C69.8082 149.526 70.5779 148.415 71.3648 147.32C71.4059 147.261 71.4684 147.221 71.5389 147.208C71.6093 147.196 71.6819 147.211 71.741 147.251C71.7812 147.286 71.8141 147.329 71.838 147.377L72.6533 149.606C72.8699 150.205 73.0753 150.809 73.2862 151.419C73.9704 150.165 74.6661 148.911 75.3275 147.645C75.3397 147.619 75.3615 147.6 75.3882 147.59C75.4149 147.58 75.4443 147.582 75.47 147.594C75.4871 147.611 75.5042 147.628 75.5214 147.645C76.2511 149.167 77.0151 150.661 77.7906 152.161L80.3393 147.97C80.3706 147.918 80.4211 147.88 80.4798 147.866C80.5385 147.851 80.6007 147.859 80.6529 147.89C80.684 147.916 80.7109 147.947 80.7327 147.981L80.7384 147.987L82.7454 151.881C83.5038 150.473 84.2564 149.053 85.0375 147.65L85.0432 147.645C85.0624 147.609 85.0888 147.577 85.1206 147.551C85.1525 147.525 85.1892 147.506 85.2286 147.495C85.268 147.484 85.3093 147.481 85.3499 147.486C85.3906 147.491 85.4298 147.504 85.4651 147.525C85.5113 147.547 85.5493 147.583 85.5734 147.628C86.3945 148.871 87.2212 150.108 88.0309 151.357C88.7208 149.903 89.3936 148.443 90.1006 147V146.983C90.1261 146.939 90.1673 146.907 90.216 146.892C90.2647 146.877 90.3172 146.881 90.3629 146.903C90.3716 146.91 90.3812 146.916 90.3914 146.921C91.5888 147.816 92.7748 148.722 93.9607 149.635L94.0234 145.016C93.9156 145.063 93.7989 145.087 93.6813 145.085C93.4469 145.076 93.2251 144.976 93.0624 144.807C92.8998 144.638 92.8089 144.413 92.8089 144.178C92.8089 143.944 92.8998 143.718 93.0624 143.549C93.2251 143.38 93.4469 143.281 93.6813 143.272C93.8071 143.267 93.9321 143.293 94.0463 143.346L94.5252 108.44C94.5252 108.44 94.2059 101.974 102.2 99.7444L127.225 99.9555C127.225 99.9555 122.977 93.8889 120.034 88.8658ZM48.6144 117.403C48.3795 117.396 48.1566 117.298 47.993 117.129C47.8293 116.96 47.7378 116.734 47.7378 116.499C47.7378 116.264 47.8293 116.038 47.993 115.87C48.1566 115.701 48.3795 115.603 48.6144 115.595C48.8488 115.603 49.071 115.702 49.2341 115.871C49.3971 116.039 49.4883 116.264 49.4884 116.499C49.4884 116.734 49.3973 116.959 49.2343 117.128C49.0713 117.296 48.8488 117.395 48.6144 117.403ZM50.9293 120.448C50.6949 120.439 50.4731 120.339 50.3105 120.17C50.1478 120.001 50.057 119.776 50.057 119.541C50.057 119.307 50.1478 119.081 50.3105 118.912C50.4731 118.743 50.6949 118.644 50.9293 118.635C51.1633 118.644 51.3845 118.744 51.5467 118.913C51.7089 119.082 51.7995 119.307 51.7996 119.541C51.7996 119.775 51.7091 120 51.547 120.169C51.3848 120.338 51.1633 120.438 50.9293 120.448ZM54.4815 123.128C54.2473 123.119 54.0255 123.02 53.8628 122.852C53.7001 122.683 53.6092 122.458 53.6092 122.224C53.6092 121.989 53.7001 121.764 53.8628 121.596C54.0255 121.427 54.2473 121.328 54.4815 121.32C54.7152 121.329 54.9364 121.428 55.0986 121.596C55.2608 121.765 55.3515 121.99 55.3515 122.224C55.3515 122.457 55.261 122.682 55.0988 122.851C54.9367 123.019 54.7152 123.119 54.4815 123.128ZM57.8171 125.739C57.5819 125.731 57.359 125.632 57.1954 125.463C57.0319 125.294 56.9404 125.068 56.9404 124.832C56.9404 124.597 57.0319 124.371 57.1954 124.202C57.359 124.033 57.5819 123.934 57.8171 123.926C58.0518 123.934 58.274 124.033 58.4371 124.203C58.6001 124.372 58.6912 124.597 58.6913 124.832C58.6913 125.067 58.6003 125.293 58.4373 125.462C58.2743 125.631 58.0518 125.73 57.8171 125.739ZM61.4377 128.054C61.2035 128.046 60.9817 127.947 60.819 127.778C60.6562 127.61 60.5653 127.384 60.5653 127.15C60.5653 126.916 60.6562 126.691 60.819 126.522C60.9817 126.353 61.2035 126.255 61.4377 126.246C61.6714 126.255 61.8926 126.354 62.0548 126.523C62.217 126.691 62.3077 126.916 62.3077 127.15C62.3078 127.384 62.2172 127.608 62.055 127.777C61.8929 127.946 61.6714 128.045 61.4377 128.054ZM65.714 129.941C65.4788 129.933 65.2559 129.834 65.0924 129.665C64.9288 129.496 64.8374 129.27 64.8374 129.034C64.8374 128.799 64.9288 128.573 65.0924 128.404C65.2559 128.235 65.4788 128.136 65.714 128.128C65.9487 128.136 66.1709 128.236 66.3339 128.405C66.4969 128.574 66.5881 128.799 66.5881 129.034C66.5881 129.269 66.4971 129.495 66.3341 129.664C66.1712 129.833 65.9487 129.932 65.714 129.941ZM44.5662 123.492C44.3395 123.484 44.1247 123.389 43.9671 123.225C43.8095 123.062 43.7215 122.844 43.7215 122.617C43.7215 122.39 43.8095 122.172 43.9671 122.009C44.1247 121.846 44.3395 121.75 44.5662 121.742C44.7925 121.751 45.0067 121.847 45.1638 122.01C45.3209 122.173 45.4086 122.39 45.4087 122.617C45.4087 122.843 45.321 123.061 45.164 123.224C45.007 123.387 44.7925 123.484 44.5662 123.492ZM47.6508 126.999C47.4237 126.991 47.2084 126.896 47.0504 126.733C46.8924 126.569 46.8041 126.351 46.8041 126.124C46.8041 125.896 46.8924 125.678 47.0504 125.515C47.2084 125.351 47.4237 125.256 47.6508 125.248C47.8775 125.257 48.0921 125.352 48.2496 125.516C48.407 125.679 48.4951 125.897 48.4951 126.123C48.4952 126.35 48.4072 126.568 48.2498 126.731C48.0924 126.895 47.8775 126.991 47.6508 126.999ZM50.878 130.363C50.6512 130.355 50.4365 130.259 50.2789 130.096C50.1213 129.933 50.0333 129.715 50.0333 129.488C50.0333 129.261 50.1213 129.043 50.2789 128.88C50.4365 128.716 50.6512 128.621 50.878 128.613C51.1043 128.621 51.3185 128.717 51.4756 128.88C51.6327 129.043 51.7205 129.261 51.7205 129.488C51.7206 129.714 51.6329 129.932 51.4759 130.095C51.3188 130.258 51.1043 130.354 50.878 130.363ZM54.3846 134.155C54.1568 134.147 53.941 134.051 53.7826 133.887C53.6242 133.723 53.5357 133.504 53.5357 133.277C53.5357 133.049 53.6242 132.83 53.7826 132.666C53.941 132.502 54.1568 132.406 54.3846 132.398C54.6119 132.407 54.827 132.503 54.9849 132.667C55.1428 132.83 55.231 133.049 55.2311 133.276C55.2311 133.504 55.143 133.722 54.9852 133.886C54.8274 134.05 54.6118 134.146 54.3846 134.155ZM57.8911 137.239C57.6634 137.232 57.4476 137.136 57.2892 136.972C57.1308 136.808 57.0422 136.589 57.0422 136.361C57.0422 136.133 57.1308 135.914 57.2892 135.751C57.4476 135.587 57.6634 135.491 57.8911 135.483C58.1184 135.491 58.3336 135.588 58.4915 135.751C58.6494 135.915 58.7376 136.134 58.7377 136.361C58.7377 136.588 58.6496 136.807 58.4918 136.971C58.334 137.135 58.1184 137.231 57.8911 137.239ZM61.6771 139.48C61.4496 139.473 61.2337 139.378 61.0753 139.215C60.9168 139.051 60.8282 138.832 60.8282 138.605C60.8282 138.377 60.9168 138.159 61.0753 137.995C61.2337 137.832 61.4496 137.737 61.6771 137.73C61.9041 137.737 62.1193 137.833 62.2772 137.996C62.4352 138.159 62.5235 138.377 62.5235 138.605C62.5236 138.832 62.4354 139.05 62.2775 139.213C62.1197 139.377 61.9041 139.472 61.6771 139.48ZM65.463 141.168C65.2352 141.16 65.0194 141.064 64.861 140.9C64.7026 140.737 64.6141 140.518 64.6141 140.29C64.6141 140.062 64.7026 139.843 64.861 139.679C65.0194 139.515 65.2352 139.419 65.463 139.412C65.6902 139.42 65.9053 139.516 66.0631 139.68C66.2209 139.844 66.3091 140.062 66.3092 140.289C66.3092 140.517 66.2211 140.735 66.0634 140.899C65.9057 141.063 65.6902 141.159 65.463 141.168ZM67.8862 145.085C67.6518 145.076 67.43 144.976 67.2674 144.807C67.1047 144.638 67.0139 144.413 67.0139 144.178C67.0139 143.944 67.1047 143.718 67.2674 143.549C67.43 143.38 67.6518 143.281 67.8862 143.272C68.1202 143.281 68.3413 143.381 68.5035 143.55C68.6656 143.719 68.7562 143.944 68.7562 144.178C68.7563 144.412 68.6658 144.637 68.5037 144.806C68.3417 144.975 68.1201 145.075 67.8862 145.085ZM72.5218 145.952C72.2878 145.943 72.0662 145.844 71.9036 145.676C71.7411 145.507 71.6503 145.282 71.6503 145.048C71.6503 144.814 71.7411 144.589 71.9036 144.42C72.0662 144.252 72.2878 144.153 72.5218 144.144C72.7555 144.153 72.9766 144.252 73.1388 144.421C73.301 144.589 73.3916 144.814 73.3917 145.048C73.3917 145.281 73.3012 145.506 73.1391 145.675C72.977 145.843 72.7555 145.943 72.5218 145.952ZM77.8871 146.533C77.6519 146.525 77.429 146.426 77.2654 146.257C77.1019 146.088 77.0104 145.862 77.0104 145.627C77.0104 145.391 77.1019 145.165 77.2654 144.996C77.429 144.827 77.6519 144.728 77.8871 144.72C78.1218 144.728 78.344 144.828 78.5071 144.997C78.6701 145.166 78.7613 145.391 78.7613 145.626C78.7614 145.861 78.6703 146.087 78.5074 146.256C78.3444 146.425 78.1218 146.524 77.8871 146.533ZM83.8283 146.459C83.5934 146.452 83.3704 146.354 83.2068 146.185C83.0431 146.016 82.9516 145.79 82.9516 145.555C82.9516 145.32 83.0431 145.094 83.2068 144.926C83.3704 144.757 83.5934 144.659 83.8283 144.652C84.0628 144.659 84.285 144.758 84.4482 144.926C84.6113 145.095 84.7025 145.32 84.7026 145.555C84.7026 145.79 84.6115 146.015 84.4485 146.184C84.2854 146.352 84.0628 146.451 83.8283 146.459ZM89.1879 145.809C88.9535 145.8 88.7317 145.7 88.5691 145.531C88.4064 145.362 88.3156 145.137 88.3156 144.902C88.3156 144.668 88.4064 144.442 88.5691 144.273C88.7317 144.104 88.9535 144.005 89.1879 143.996C89.4219 144.005 89.6431 144.105 89.8053 144.274C89.9675 144.443 90.0582 144.668 90.0582 144.902C90.0583 145.136 89.9678 145.361 89.8057 145.53C89.6435 145.699 89.4219 145.799 89.1879 145.809ZM88.384 151.944C89.3851 151.787 90.374 151.561 91.3433 151.266C92.2343 151.044 93.1058 150.751 93.9489 150.387L93.9547 149.783C92.7518 148.985 91.5542 148.179 90.3626 147.366C89.7126 148.899 89.0455 150.416 88.384 151.944ZM83.11 152.44C84.6356 152.396 86.1581 152.274 87.6714 152.075C87.7136 152.07 87.7554 152.062 87.7968 152.052C86.959 150.843 86.1604 149.623 85.3394 148.409C84.6038 149.76 83.8568 151.1 83.11 152.44ZM77.9841 152.326C78.7082 152.377 79.4323 152.423 80.1564 152.44C80.9034 152.469 81.6504 152.469 82.3972 152.463L80.4986 148.552L77.9841 152.326ZM73.514 151.824C74.8652 152.018 76.228 152.178 77.5849 152.286C76.8783 150.832 76.1652 149.373 75.424 147.936C74.7684 149.219 74.1468 150.524 73.514 151.824ZM71.507 148.038C70.7714 149.059 70.0302 150.074 69.289 151.094C70.4065 151.328 71.5241 151.534 72.653 151.705C72.7556 151.716 72.8583 151.727 72.9666 151.745C72.6989 151.094 72.4306 150.439 72.1797 149.783L71.507 148.038ZM65.5087 150.228C66.5578 150.501 67.6069 150.752 68.6732 150.963C68.2858 149.908 67.9148 148.848 67.5443 147.782C66.8657 148.603 66.1929 149.418 65.5087 150.228ZM65.509 136.161C65.9249 136.162 66.3377 136.091 66.7292 135.95C66.2617 134.554 65.8112 133.162 65.3665 131.765C64.1634 132.803 62.9375 133.812 61.723 134.839C61.7131 134.846 61.7011 134.85 61.6889 134.85C62.3262 135.225 62.996 135.542 63.6902 135.797C64.269 136.028 64.8855 136.152 65.509 136.161ZM61.2384 134.582L61.2156 130.237C60.0353 130.83 58.8494 131.406 57.6691 131.999C58.6133 132.778 59.5972 133.506 60.6169 134.183C60.8222 134.326 61.0274 134.457 61.2384 134.582ZM55.1603 129.821C55.8275 130.437 56.5174 131.036 57.213 131.617C57.2815 130.175 57.3613 128.736 57.4524 127.301C56.2723 127.763 55.0977 128.219 53.9231 128.692C54.3279 129.069 54.7385 129.451 55.1603 129.821ZM53.7349 128.51L54.0143 126.457L54.2538 124.479C53.0735 124.832 51.9047 125.209 50.7245 125.562C51.7166 126.56 52.7144 127.546 53.7349 128.51ZM50.1087 124.941L50.3253 125.157C50.5192 124.131 50.7301 123.105 50.9468 122.078C49.9319 122.272 48.9284 122.46 47.9135 122.654C48.6376 123.418 49.3674 124.188 50.1087 124.941ZM48.2727 119.358C47.3319 119.598 46.3892 119.822 45.4447 120.031C46.1174 120.755 46.7959 121.485 47.4802 122.198C47.7311 121.251 48.0105 120.311 48.2727 119.358ZM90.3626 147.366C89.7126 148.899 89.0455 150.416 88.384 151.944C89.3851 151.787 90.374 151.561 91.3433 151.266C92.2343 151.044 93.1058 150.751 93.9489 150.387L93.9547 149.783C92.7518 148.985 91.5542 148.179 90.3626 147.366ZM91.4344 151.545C90.2288 151.96 88.9962 152.291 87.7454 152.537C85.2316 152.945 82.6849 153.115 80.1392 153.044C77.5987 152.934 75.0698 152.637 72.573 152.155C71.3814 151.927 70.2011 151.653 69.0265 151.345C68.9948 151.353 68.9619 151.355 68.9296 151.35C68.8973 151.345 68.8663 151.334 68.8383 151.317C68.8326 151.311 68.8327 151.306 68.827 151.3C67.698 150.998 66.5862 150.646 65.4914 150.245C65.4743 150.268 65.4572 150.268 65.4458 150.251C65.4437 150.248 65.442 150.246 65.441 150.243C65.4401 150.24 65.4397 150.237 65.4401 150.234C65.3717 150.211 65.3038 150.188 65.2354 150.165L64.1629 156.038C64.1629 156.038 80.5953 162.481 93.869 156.038L93.9488 150.501C93.1395 150.915 92.2985 151.264 91.4344 151.545ZM68.7073 155.394C68.6776 155.423 68.6451 155.45 68.6103 155.474C68.5646 155.505 68.5147 155.53 68.4621 155.548C68.4322 155.565 68.3993 155.576 68.3652 155.582C68.3367 155.588 68.3081 155.593 68.274 155.599C68.2268 155.606 68.1791 155.61 68.1314 155.61C67.9039 155.603 67.6881 155.508 67.5296 155.345C67.3712 155.181 67.2826 154.963 67.2826 154.735C67.2826 154.507 67.3712 154.289 67.5296 154.125C67.6881 153.962 67.9039 153.867 68.1314 153.86C68.2587 153.859 68.3848 153.884 68.502 153.934C68.54 153.951 68.5763 153.972 68.6103 153.997C68.6451 154.02 68.6776 154.047 68.7073 154.076C68.8553 154.232 68.9469 154.433 68.9676 154.647C68.9882 154.861 68.9368 155.076 68.8213 155.257C68.7898 155.307 68.7511 155.353 68.7073 155.394ZM72.7612 157.007C72.5337 157 72.3178 156.905 72.1594 156.742C72.0009 156.578 71.9123 156.36 71.9123 156.132C71.9123 155.904 72.0009 155.686 72.1594 155.522C72.3178 155.359 72.5337 155.264 72.7612 155.257C72.9882 155.264 73.2034 155.36 73.3613 155.523C73.5193 155.686 73.6076 155.905 73.6077 156.132C73.6077 156.359 73.5195 156.577 73.3617 156.74C73.2038 156.904 72.9882 157 72.7612 157.007ZM77.2427 157.572C77.0152 157.565 76.7994 157.47 76.6409 157.306C76.4825 157.143 76.3938 156.924 76.3938 156.696C76.3938 156.469 76.4825 156.25 76.6409 156.087C76.7994 155.923 77.0152 155.828 77.2427 155.821C77.4698 155.829 77.685 155.924 77.8429 156.088C78.0008 156.251 78.0892 156.469 78.0892 156.696C78.0893 156.923 78.0011 157.142 77.8432 157.305C77.6854 157.468 77.4698 157.564 77.2427 157.572ZM82.152 157.435C81.9244 157.428 81.7086 157.333 81.5501 157.169C81.3916 157.006 81.303 156.787 81.303 156.56C81.303 156.332 81.3916 156.113 81.5501 155.95C81.7086 155.787 81.9244 155.691 82.152 155.684C82.379 155.692 82.5942 155.787 82.7521 155.951C82.91 156.114 82.9984 156.332 82.9984 156.559C82.9985 156.786 82.9103 157.005 82.7524 157.168C82.5945 157.331 82.379 157.427 82.152 157.435ZM87.0612 156.734C86.8337 156.727 86.6178 156.631 86.4594 156.468C86.3009 156.305 86.2123 156.086 86.2123 155.858C86.2123 155.631 86.3009 155.412 86.4594 155.249C86.6178 155.085 86.8337 154.99 87.0612 154.983C87.2882 154.991 87.5034 155.086 87.6614 155.249C87.8193 155.413 87.9076 155.631 87.9077 155.858C87.9077 156.085 87.8195 156.303 87.6617 156.467C87.5038 156.63 87.2882 156.726 87.0612 156.734ZM91.2747 155.61C91.0472 155.603 90.8314 155.508 90.6729 155.345C90.5145 155.181 90.4259 154.963 90.4259 154.735C90.4259 154.507 90.5145 154.289 90.6729 154.125C90.8314 153.962 91.0472 153.867 91.2747 153.86C91.5017 153.867 91.7169 153.963 91.8748 154.126C92.0327 154.289 92.121 154.508 92.121 154.735C92.1211 154.962 92.0329 155.18 91.8751 155.343C91.7172 155.507 91.5017 155.603 91.2747 155.61ZM85.3394 148.409C84.6038 149.76 83.8568 151.1 83.11 152.44C84.6356 152.396 86.1581 152.274 87.6714 152.075C87.7136 152.07 87.7554 152.062 87.7968 152.052C86.959 150.843 86.1604 149.623 85.3394 148.409ZM80.4986 148.552L77.9841 152.326C78.7082 152.377 79.4323 152.423 80.1564 152.44C80.9034 152.469 81.6504 152.469 82.3972 152.463L80.4986 148.552ZM75.424 147.936C74.7684 149.219 74.1468 150.524 73.514 151.824C74.8652 152.018 76.228 152.178 77.5849 152.286C76.8783 150.832 76.1652 149.373 75.424 147.936ZM72.1797 149.783L71.507 148.038C70.7714 149.059 70.0302 150.074 69.289 151.094C70.4065 151.328 71.5241 151.534 72.653 151.705C72.7556 151.716 72.8583 151.727 72.9666 151.745C72.6989 151.094 72.4306 150.439 72.1797 149.783ZM67.5443 147.782C66.8657 148.603 66.1929 149.418 65.5087 150.228C66.5578 150.501 67.6069 150.752 68.6732 150.963C68.2858 149.908 67.9148 148.848 67.5443 147.782ZM65.3665 131.765C64.1634 132.803 62.9375 133.812 61.723 134.839C61.7131 134.846 61.7011 134.85 61.6889 134.85C62.3262 135.225 62.996 135.542 63.6902 135.797C64.269 136.028 64.8855 136.152 65.509 136.161C65.9249 136.162 66.3377 136.091 66.7292 135.95C66.2617 134.554 65.8112 133.162 65.3665 131.765ZM61.2156 130.237C60.0353 130.83 58.8494 131.406 57.6691 131.999C58.6133 132.778 59.5972 133.506 60.6169 134.183C60.8222 134.326 61.0274 134.457 61.2384 134.582L61.2156 130.237ZM53.9231 128.692C54.3279 129.069 54.7385 129.451 55.1603 129.821C55.8275 130.437 56.5174 131.036 57.213 131.617C57.2815 130.175 57.3613 128.736 57.4524 127.301C56.2723 127.763 55.0977 128.219 53.9231 128.692ZM50.7245 125.562C51.7166 126.56 52.7144 127.546 53.7349 128.51L54.0143 126.457L54.2538 124.479C53.0735 124.832 51.9047 125.209 50.7245 125.562ZM47.9135 122.654C48.6376 123.418 49.3674 124.188 50.1087 124.941L50.3253 125.157C50.5192 124.131 50.7301 123.105 50.9468 122.078C49.9319 122.272 48.9284 122.46 47.9135 122.654ZM45.4447 120.031C46.1174 120.755 46.7959 121.485 47.4802 122.198C47.7311 121.251 48.0105 120.311 48.2727 119.358C47.3319 119.598 46.3892 119.822 45.4447 120.031ZM65.3665 131.765C64.1634 132.803 62.9375 133.812 61.723 134.839C61.7131 134.846 61.7011 134.85 61.6889 134.85C62.3262 135.225 62.996 135.542 63.6902 135.797C64.269 136.028 64.8855 136.152 65.509 136.161C65.9249 136.162 66.3377 136.091 66.7292 135.95C66.2617 134.554 65.8112 133.162 65.3665 131.765ZM61.2156 130.237C60.0353 130.83 58.8494 131.406 57.6691 131.999C58.6133 132.778 59.5972 133.506 60.6169 134.183C60.8222 134.326 61.0274 134.457 61.2384 134.582L61.2156 130.237ZM53.9231 128.692C54.3279 129.069 54.7385 129.451 55.1603 129.821C55.8275 130.437 56.5174 131.036 57.213 131.617C57.2815 130.175 57.3613 128.736 57.4524 127.301C56.2723 127.763 55.0977 128.219 53.9231 128.692ZM50.7245 125.562C51.7166 126.56 52.7144 127.546 53.7349 128.51L54.0143 126.457L54.2538 124.479C53.0735 124.832 51.9047 125.209 50.7245 125.562ZM47.9135 122.654C48.6376 123.418 49.3674 124.188 50.1087 124.941L50.3253 125.157C50.5192 124.131 50.7301 123.105 50.9468 122.078C49.9319 122.272 48.9284 122.46 47.9135 122.654ZM45.4447 120.031C46.1174 120.755 46.7959 121.485 47.4802 122.198C47.7311 121.251 48.0105 120.311 48.2727 119.358C47.3319 119.598 46.3892 119.822 45.4447 120.031ZM65.3665 131.765C64.1634 132.803 62.9375 133.812 61.723 134.839C61.7131 134.846 61.7011 134.85 61.6889 134.85C62.3262 135.225 62.996 135.542 63.6902 135.797C64.269 136.028 64.8855 136.152 65.509 136.161C65.9249 136.162 66.3377 136.091 66.7292 135.95C66.2617 134.554 65.8112 133.162 65.3665 131.765ZM61.2156 130.237C60.0353 130.83 58.8494 131.406 57.6691 131.999C58.6133 132.778 59.5972 133.506 60.6169 134.183C60.8222 134.326 61.0274 134.457 61.2384 134.582L61.2156 130.237ZM53.9231 128.692C54.3279 129.069 54.7385 129.451 55.1603 129.821C55.8275 130.437 56.5174 131.036 57.213 131.617C57.2815 130.175 57.3613 128.736 57.4524 127.301C56.2723 127.763 55.0977 128.219 53.9231 128.692ZM50.7245 125.562C51.7166 126.56 52.7144 127.546 53.7349 128.51L54.0143 126.457L54.2538 124.479C53.0735 124.832 51.9047 125.209 50.7245 125.562ZM47.9135 122.654C48.6376 123.418 49.3674 124.188 50.1087 124.941L50.3253 125.157C50.5192 124.131 50.7301 123.105 50.9468 122.078C49.9319 122.272 48.9284 122.46 47.9135 122.654ZM45.4447 120.031C46.1174 120.755 46.7959 121.485 47.4802 122.198C47.7311 121.251 48.0105 120.311 48.2727 119.358C47.3319 119.598 46.3892 119.822 45.4447 120.031ZM65.3665 131.765C64.1634 132.803 62.9375 133.812 61.723 134.839C61.7131 134.846 61.7011 134.85 61.6889 134.85C62.3262 135.225 62.996 135.542 63.6902 135.797C64.269 136.028 64.8855 136.152 65.509 136.161C65.9249 136.162 66.3377 136.091 66.7292 135.95C66.2617 134.554 65.8112 133.162 65.3665 131.765ZM61.2156 130.237C60.0353 130.83 58.8494 131.406 57.6691 131.999C58.6133 132.778 59.5972 133.506 60.6169 134.183C60.8222 134.326 61.0274 134.457 61.2384 134.582L61.2156 130.237ZM53.9231 128.692C54.3279 129.069 54.7385 129.451 55.1603 129.821C55.8275 130.437 56.5174 131.036 57.213 131.617C57.2815 130.175 57.3613 128.736 57.4524 127.301C56.2723 127.763 55.0977 128.219 53.9231 128.692ZM50.7245 125.562C51.7166 126.56 52.7144 127.546 53.7349 128.51L54.0143 126.457L54.2538 124.479C53.0735 124.832 51.9047 125.209 50.7245 125.562ZM47.9135 122.654C48.6376 123.418 49.3674 124.188 50.1087 124.941L50.3253 125.157C50.5192 124.131 50.7301 123.105 50.9468 122.078C49.9319 122.272 48.9284 122.46 47.9135 122.654ZM45.4447 120.031C46.1174 120.755 46.7959 121.485 47.4802 122.198C47.7311 121.251 48.0105 120.311 48.2727 119.358C47.3319 119.598 46.3892 119.822 45.4447 120.031ZM65.3665 131.765C64.1634 132.803 62.9375 133.812 61.723 134.839C61.7131 134.846 61.7011 134.85 61.6889 134.85C62.3262 135.225 62.996 135.542 63.6902 135.797C64.269 136.028 64.8855 136.152 65.509 136.161C65.9249 136.162 66.3377 136.091 66.7292 135.95C66.2617 134.554 65.8112 133.162 65.3665 131.765ZM61.2156 130.237C60.0353 130.83 58.8494 131.406 57.6691 131.999C58.6133 132.778 59.5972 133.506 60.6169 134.183C60.8222 134.326 61.0274 134.457 61.2384 134.582L61.2156 130.237ZM53.9231 128.692C54.3279 129.069 54.7385 129.451 55.1603 129.821C55.8275 130.437 56.5174 131.036 57.213 131.617C57.2815 130.175 57.3613 128.736 57.4524 127.301C56.2723 127.763 55.0977 128.219 53.9231 128.692ZM50.7245 125.562C51.7166 126.56 52.7144 127.546 53.7349 128.51L54.0143 126.457L54.2538 124.479C53.0735 124.832 51.9047 125.209 50.7245 125.562ZM47.9135 122.654C48.6376 123.418 49.3674 124.188 50.1087 124.941L50.3253 125.157C50.5192 124.131 50.7301 123.105 50.9468 122.078C49.9319 122.272 48.9284 122.46 47.9135 122.654ZM45.4447 120.031C46.1174 120.755 46.7959 121.485 47.4802 122.198C47.7311 121.251 48.0105 120.311 48.2727 119.358C47.3319 119.598 46.3892 119.822 45.4447 120.031ZM65.3665 131.765C64.1634 132.803 62.9375 133.812 61.723 134.839C61.7131 134.846 61.7011 134.85 61.6889 134.85C62.3262 135.225 62.996 135.542 63.6902 135.797C64.269 136.028 64.8855 136.152 65.509 136.161C65.9249 136.162 66.3377 136.091 66.7292 135.95C66.2617 134.554 65.8112 133.162 65.3665 131.765ZM61.2156 130.237C60.0353 130.83 58.8494 131.406 57.6691 131.999C58.6133 132.778 59.5972 133.506 60.6169 134.183C60.8222 134.326 61.0274 134.457 61.2384 134.582L61.2156 130.237ZM53.9231 128.692C54.3279 129.069 54.7385 129.451 55.1603 129.821C55.8275 130.437 56.5174 131.036 57.213 131.617C57.2815 130.175 57.3613 128.736 57.4524 127.301C56.2723 127.763 55.0977 128.219 53.9231 128.692ZM50.7245 125.562C51.7166 126.56 52.7144 127.546 53.7349 128.51L54.0143 126.457L54.2538 124.479C53.0735 124.832 51.9047 125.209 50.7245 125.562ZM47.9135 122.654C48.6376 123.418 49.3674 124.188 50.1087 124.941L50.3253 125.157C50.5192 124.131 50.7301 123.105 50.9468 122.078C49.9319 122.272 48.9284 122.46 47.9135 122.654ZM45.4447 120.031C46.1174 120.755 46.7959 121.485 47.4802 122.198C47.7311 121.251 48.0105 120.311 48.2727 119.358C47.3319 119.598 46.3892 119.822 45.4447 120.031ZM65.3665 131.765C64.1634 132.803 62.9375 133.812 61.723 134.839C61.7131 134.846 61.7011 134.85 61.6889 134.85C62.3262 135.225 62.996 135.542 63.6902 135.797C64.269 136.028 64.8855 136.152 65.509 136.161C65.9249 136.162 66.3377 136.091 66.7292 135.95C66.2617 134.554 65.8112 133.162 65.3665 131.765ZM61.2156 130.237C60.0353 130.83 58.8494 131.406 57.6691 131.999C58.6133 132.778 59.5972 133.506 60.6169 134.183C60.8222 134.326 61.0274 134.457 61.2384 134.582L61.2156 130.237ZM53.9231 128.692C54.3279 129.069 54.7385 129.451 55.1603 129.821C55.8275 130.437 56.5174 131.036 57.213 131.617C57.2815 130.175 57.3613 128.736 57.4524 127.301C56.2723 127.763 55.0977 128.219 53.9231 128.692ZM50.7245 125.562C51.7166 126.56 52.7144 127.546 53.7349 128.51L54.0143 126.457L54.2538 124.479C53.0735 124.832 51.9047 125.209 50.7245 125.562ZM47.9135 122.654C48.6376 123.418 49.3674 124.188 50.1087 124.941L50.3253 125.157C50.5192 124.131 50.7301 123.105 50.9468 122.078C49.9319 122.272 48.9284 122.46 47.9135 122.654ZM45.4447 120.031C46.1174 120.755 46.7959 121.485 47.4802 122.198C47.7311 121.251 48.0105 120.311 48.2727 119.358C47.3319 119.598 46.3892 119.822 45.4447 120.031Z" fill="#151F32"/>
<path d="M154.002 37.6254C154.23 37.6176 154.445 37.5218 154.603 37.3582C154.761 37.1947 154.849 36.9762 154.849 36.7489C154.849 36.5215 154.761 36.303 154.603 36.1395C154.445 35.976 154.23 35.8802 154.002 35.8723C153.775 35.8802 153.56 35.976 153.402 36.1395C153.244 36.303 153.156 36.5215 153.156 36.7489C153.156 36.9762 153.244 37.1947 153.402 37.3582C153.56 37.5218 153.775 37.6176 154.002 37.6254ZM167.906 38.7139C168.133 38.7061 168.348 38.6103 168.506 38.4468C168.664 38.2832 168.753 38.0647 168.753 37.8374C168.753 37.61 168.664 37.3915 168.506 37.228C168.348 37.0645 168.133 36.9687 167.906 36.9608C167.679 36.9687 167.463 37.0645 167.305 37.228C167.147 37.3915 167.059 37.61 167.059 37.8374C167.059 38.0647 167.147 38.2832 167.305 38.4468C167.463 38.6103 167.679 38.7061 167.906 38.7139ZM156.499 43.9132C156.514 44.2381 156.452 44.562 156.317 44.858C156.187 45.1583 156.004 45.4327 155.777 45.6679C155.547 45.9067 155.269 46.0943 154.962 46.2185C154.66 46.3476 154.328 46.3927 154.002 46.3491C154.268 46.1513 154.517 46.0069 154.737 45.8218C154.958 45.6504 155.166 45.4626 155.359 45.2598C155.756 44.8629 156.092 44.413 156.499 43.9132ZM152.4 34.0264C152.551 33.7488 152.793 33.5314 153.085 33.4102C153.372 33.2781 153.696 33.2497 154.002 33.3297C153.852 33.6077 153.61 33.8253 153.317 33.9459C153.03 34.0763 152.706 34.1047 152.4 34.0264ZM168.807 39.5969C168.717 39.7543 168.585 39.884 168.426 39.9722C168.268 40.0605 168.088 40.1038 167.906 40.0976C167.724 40.0976 167.544 40.0521 167.383 39.9652C167.224 39.8822 167.092 39.7541 167.004 39.5969C167.368 39.6213 167.631 39.6641 167.907 39.6596C168.208 39.6565 168.509 39.6355 168.807 39.5969Z" fill="#151F32"/>
<path d="M141.177 96.4865C141.35 94.5803 141.129 92.659 140.528 90.8418C139.948 89.0315 139.041 87.3433 137.85 85.8616C137.259 85.1264 136.604 84.446 135.891 83.8286L133.753 81.8815C132.333 80.5717 130.888 79.3098 129.488 77.9586C126.78 75.1728 124.396 72.0888 122.383 68.7656C120.327 65.4764 118.549 62.0209 117.069 58.4354C117.057 58.4079 117.049 58.3794 117.043 58.3503L117.041 58.3385C116.925 57.7073 116.794 57.0788 116.618 56.4633C116.445 55.8477 116.238 55.2426 115.995 54.651C115.751 54.064 115.467 53.4941 115.146 52.9452C114.836 52.4107 114.473 51.9087 114.063 51.4467L114.138 51.5055C112.537 50.4699 110.914 49.4682 109.252 48.5455C107.619 47.594 105.894 46.8112 104.103 46.2091C103.668 46.0767 103.22 45.9921 102.767 45.9566C102.572 45.925 102.373 45.9348 102.182 45.9854C101.991 46.036 101.814 46.1262 101.66 46.2502C101.542 46.3759 101.47 46.5376 101.455 46.7093C101.464 46.9031 101.518 47.092 101.614 47.2607C101.838 47.6544 102.115 48.0158 102.437 48.3347C103.816 49.6371 105.341 50.7757 106.981 51.728C107.021 51.7529 107.051 51.7905 107.067 51.8348C107.083 51.8791 107.083 51.9275 107.068 51.9721C107.053 52.0167 107.024 52.0549 106.984 52.0805C106.944 52.1061 106.897 52.1175 106.851 52.113C106.175 52.0573 105.496 52.094 104.83 52.222C104.165 52.3401 103.528 52.5817 102.951 52.9343C102.379 53.2847 101.906 53.7771 101.58 54.3638C101.259 54.959 101.061 55.6133 101 56.2871C100.995 56.3255 100.979 56.3614 100.952 56.3893L100.947 56.395C100.381 56.9459 99.9956 57.6552 99.841 58.4294C99.7907 58.8031 99.8583 59.1833 100.035 59.5167C100.222 59.8519 100.481 60.142 100.792 60.3665L100.797 60.3707C100.83 60.3978 100.853 60.4343 100.863 60.4752C100.873 60.5161 100.871 60.5592 100.855 60.5984C100.647 61.1217 100.491 61.6647 100.391 62.219C100.283 62.7615 100.278 63.3195 100.375 63.8641C100.417 64.1201 100.515 64.3638 100.66 64.5787C100.806 64.7935 100.996 64.9744 101.218 65.109C101.701 65.3491 102.238 65.4578 102.775 65.4243L102.579 65.7614L101.655 64.0658C101.627 64.0152 101.618 63.9566 101.629 63.8999C101.64 63.8433 101.67 63.7922 101.714 63.7554C101.759 63.7186 101.814 63.6983 101.872 63.6982C101.93 63.698 101.986 63.7179 102.03 63.7544C103.059 64.5563 103.984 65.4839 104.782 66.5157C104.983 66.7886 105.157 67.0806 105.302 67.3874C105.376 67.55 105.436 67.7194 105.478 67.8932C105.493 67.9677 105.512 68.0412 105.536 68.1134C105.549 68.1764 105.571 68.2372 105.602 68.294C105.887 68.7957 106.312 69.2027 106.826 69.4648C107.358 69.7608 107.926 69.9876 108.515 70.1397C109.082 70.3026 109.676 70.3493 110.262 70.2771C110.473 70.2592 110.686 70.2847 110.887 70.352C111.088 70.4193 111.273 70.5271 111.431 70.6686C111.702 70.8884 111.948 71.1367 112.166 71.4094C112.578 71.9277 112.947 72.4787 113.269 73.057C113.903 74.1935 114.446 75.3781 114.894 76.5998C115.124 77.2063 115.312 77.8494 115.522 78.4024C115.756 78.9856 116 79.5674 116.26 80.1467C117.293 82.4643 118.434 84.7435 119.628 86.988C121.966 91.4943 124.718 95.7728 127.85 99.7679C128.637 100.755 129.492 101.675 130.357 102.579L131.721 103.853C132.177 104.235 132.672 104.569 133.198 104.848C134.253 105.401 135.423 105.699 136.614 105.72C137.805 105.74 138.984 105.482 140.057 104.965L139.897 105.079L139.92 105.062L140.037 104.974C140.05 104.964 140.065 104.956 140.08 104.949C141.27 104.37 142.37 103.622 143.346 102.729C143.833 102.29 144.297 101.792 144.785 101.297L146.228 99.819L152.036 93.9419L152.039 93.9394C152.058 93.9202 152.079 93.9024 152.101 93.8862C154.354 92.2365 156.558 90.4815 158.698 88.6684C160.838 86.8532 162.932 84.981 164.913 82.995C166.91 81.0284 168.74 78.8999 170.386 76.6315C171.197 75.4936 171.887 74.274 172.444 72.9926C173.028 71.7209 173.269 70.3182 173.142 68.9246C173.139 68.9097 173.143 68.8944 173.151 68.882C173.16 68.8697 173.174 68.8614 173.188 68.8589C173.203 68.8569 173.218 68.8606 173.23 68.8693C173.243 68.878 173.251 68.891 173.254 68.9056C173.437 70.3257 173.245 71.7691 172.697 73.0917C172.178 74.416 171.523 75.6825 170.742 76.8704C169.16 79.2238 167.371 81.4304 165.395 83.4637C163.444 85.5139 161.396 87.4682 159.27 89.3317C157.14 91.1948 154.961 92.9866 152.695 94.7008L152.759 94.6452L147.045 100.613L145.607 102.096C145.13 102.583 144.657 103.096 144.123 103.583C143.067 104.555 141.876 105.369 140.586 106.001L140.746 105.888L140.723 105.905L140.611 105.989C140.596 106 140.58 106.01 140.563 106.018C139.325 106.615 137.967 106.917 136.593 106.902C135.217 106.885 133.865 106.544 132.646 105.906C132.041 105.589 131.472 105.208 130.947 104.77L129.505 103.434C128.593 102.509 127.732 101.535 126.925 100.517C123.782 96.4372 121.026 92.0728 118.694 87.4807C117.503 85.2068 116.388 82.8962 115.38 80.5287C115.125 79.939 114.885 79.3384 114.652 78.7323C114.42 78.0865 114.261 77.4985 114.047 76.9064C113.631 75.7224 113.126 74.5714 112.537 73.4632C112.25 72.9178 111.919 72.3967 111.548 71.905C111.373 71.6734 111.173 71.4611 110.953 71.2716C110.8 71.117 110.594 71.0256 110.376 71.0156C109.689 71.0892 108.993 71.022 108.333 70.8182C107.687 70.6359 107.068 70.3712 106.491 70.0307C105.869 69.6902 105.364 69.1716 105.039 68.5416C104.998 68.4558 104.967 68.3653 104.947 68.2721C104.921 68.1754 104.898 68.083 104.889 68.0276C104.857 67.8905 104.814 67.7567 104.757 67.6279C104.634 67.354 104.485 67.0926 104.312 66.8475C103.563 65.8422 102.692 64.9338 101.719 64.1433L102.095 63.8319L102.984 65.5459L102.993 65.5635C103.006 65.589 103.014 65.6169 103.017 65.6455C103.019 65.6742 103.016 65.703 103.007 65.7305C102.999 65.7579 102.985 65.7833 102.966 65.8053C102.948 65.8273 102.925 65.8455 102.899 65.8587C102.865 65.8766 102.826 65.885 102.787 65.8831C102.166 65.9072 101.55 65.7664 101.001 65.4749C100.73 65.3086 100.498 65.0863 100.32 64.8229C100.143 64.5595 100.023 64.2611 99.9705 63.9477C99.8668 63.3516 99.8761 62.7412 99.9979 62.1485C100.107 61.5655 100.275 60.9951 100.5 60.4459L100.562 60.6776C100.205 60.4158 99.9102 60.0783 99.6987 59.6892C99.4907 59.2867 99.4129 58.8296 99.4758 58.381C99.5463 57.9496 99.6981 57.5355 99.9231 57.1607C100.139 56.7892 100.402 56.447 100.705 56.1423L100.652 56.25C100.727 55.5311 100.938 54.833 101.272 54.1923C101.622 53.5497 102.131 53.0079 102.751 52.6191C103.364 52.235 104.043 51.9691 104.754 51.8351C105.46 51.6916 106.182 51.6463 106.9 51.7005L106.769 52.0854C105.091 51.1221 103.52 49.9827 102.083 48.6865C101.716 48.3397 101.399 47.9437 101.141 47.5096C100.996 47.2634 100.914 46.9854 100.901 46.7C100.912 46.3903 101.031 46.0942 101.239 45.8643C101.445 45.6716 101.69 45.5257 101.957 45.4369C102.225 45.348 102.509 45.3182 102.789 45.3495C103.291 45.3744 103.789 45.4545 104.274 45.5884C106.131 46.1578 107.924 46.917 109.624 47.8539C111.332 48.7481 112.993 49.7187 114.631 50.7229L114.635 50.7256C114.661 50.7415 114.685 50.7603 114.706 50.7818C115.187 51.29 115.609 51.8523 115.961 52.4574C116.31 53.0426 116.618 53.6507 116.885 54.2776C117.147 54.9028 117.372 55.5427 117.56 56.1941C117.752 56.8435 117.895 57.504 118.022 58.167L117.995 58.0703C119.483 61.5885 121.221 64.9957 123.195 68.2656C125.147 71.547 127.455 74.6022 130.079 77.3752C131.417 78.7281 132.841 80.0327 134.218 81.3649L136.301 83.3541C137.028 84.0138 137.695 84.7379 138.292 85.5174C139.471 87.0811 140.345 88.8524 140.87 90.7392C141.422 92.6079 141.565 94.5732 141.29 96.5021C141.288 96.517 141.28 96.5305 141.268 96.5395C141.256 96.5486 141.241 96.5525 141.226 96.5505C141.211 96.5484 141.198 96.5405 141.188 96.5285C141.179 96.5165 141.175 96.5015 141.177 96.4865Z" fill="#111928"/>
<path d="M100.683 60.2196L101.998 60.5692L100.662 60.8231C100.581 60.8378 100.498 60.8201 100.431 60.7739C100.363 60.7276 100.317 60.6566 100.302 60.5763C100.286 60.496 100.304 60.4129 100.349 60.3451C100.395 60.2774 100.466 60.2305 100.546 60.2147C100.592 60.2062 100.639 60.2079 100.683 60.2196ZM100.796 55.9664L103.369 56.0127L100.856 56.5673C100.817 56.5759 100.777 56.5768 100.738 56.5698C100.698 56.5628 100.661 56.5482 100.627 56.5267C100.594 56.5052 100.564 56.4773 100.542 56.4446C100.519 56.4118 100.503 56.3749 100.494 56.336C100.485 56.297 100.484 56.2567 100.491 56.2174C100.498 56.178 100.513 56.1405 100.535 56.1068C100.556 56.0732 100.584 56.0441 100.617 56.0212C100.649 55.9983 100.686 55.9821 100.725 55.9735C100.749 55.9686 100.772 55.9662 100.796 55.9664ZM103.564 67.296C99.07 68.8095 94.4776 70.0138 89.8191 70.9006C87.4833 71.3425 85.1226 71.6406 82.7504 71.7934C81.5637 71.8734 80.3743 71.922 79.1845 71.9214C78.59 71.931 77.9953 71.9246 77.4002 71.9023C76.8042 71.8913 76.2094 71.8502 75.6178 71.7921L75.6336 71.7928L75.6277 71.7927H75.6247L75.6105 71.7919C74.9204 71.7312 74.2354 71.6215 73.5609 71.4634C72.8687 71.3121 72.2063 71.047 71.6008 70.679C71.5551 70.6496 71.5216 70.6046 71.5065 70.5524C71.4914 70.5001 71.4958 70.4442 71.5188 70.3949C71.5418 70.3457 71.5819 70.3065 71.6317 70.2845C71.6814 70.2626 71.7374 70.2595 71.7893 70.2757L71.802 70.2797C74.8896 71.249 78.1448 71.5289 81.3668 71.723C84.5991 71.9126 87.8447 71.859 91.0879 71.7562C92.7151 71.6906 94.32 71.6445 95.9684 71.5491C97.5777 71.4774 99.2022 71.3716 100.828 71.2743L110.588 70.5954C110.603 70.5944 110.618 70.5992 110.63 70.6089C110.642 70.6186 110.65 70.6324 110.652 70.6477C110.654 70.6629 110.65 70.6783 110.641 70.6909C110.632 70.7034 110.619 70.712 110.604 70.7151C107.399 71.3653 104.167 71.8689 100.92 72.2691C99.2963 72.4701 97.6689 72.6274 96.0226 72.7636C94.416 72.8836 92.7624 73.0048 91.1291 73.0451C87.8463 73.1498 84.5602 73.0589 81.2882 72.7727C77.9993 72.5092 74.7594 71.8139 71.6519 70.7047L71.8531 70.3056C72.4044 70.6689 73.0141 70.9349 73.6555 71.0918C74.3086 71.2564 74.9738 71.3684 75.6448 71.4267L75.6277 71.4259L75.6336 71.4258L75.6496 71.4265C77.9968 71.5734 80.3531 71.4433 82.6698 71.0389C84.9965 70.6933 87.3045 70.238 89.6226 69.8344C94.2591 69.0103 98.8715 68.0242 103.534 67.1791C103.549 67.1763 103.564 67.1794 103.577 67.1876C103.59 67.1959 103.599 67.2087 103.603 67.2234C103.607 67.2382 103.605 67.2539 103.598 67.2674C103.591 67.2808 103.579 67.2911 103.564 67.296ZM122.914 68.723C123.533 68.477 124.158 68.2742 124.784 68.0751C125.411 67.8852 126.038 67.6959 126.669 67.5347C127.299 67.3611 127.932 67.2118 128.566 67.0642C129.198 66.906 129.839 66.7908 130.474 66.6537L130.004 67.218C130.011 66.4904 130.064 65.7643 130.092 65.0373C130.139 64.3109 130.187 63.5846 130.256 62.859C130.323 62.1333 130.406 61.4081 130.505 60.6834C130.614 59.9591 130.719 59.2346 130.885 58.5122C131.002 59.2438 131.061 59.9737 131.122 60.7035C131.173 61.4331 131.209 62.1621 131.229 62.8907C131.251 63.6192 131.252 64.3471 131.252 65.075C131.232 65.8023 131.237 66.5303 131.198 67.2569L131.196 67.2953C131.189 67.4231 131.138 67.5447 131.053 67.6403C130.968 67.7359 130.853 67.7997 130.727 67.8214C130.082 67.9319 129.441 68.0643 128.792 68.1537C128.144 68.2535 127.497 68.3518 126.845 68.4258C126.196 68.5122 125.541 68.5704 124.888 68.6282C124.232 68.6767 123.576 68.7214 122.914 68.723ZM102.873 18.2002C100.854 17.6685 98.7434 17.5861 96.6894 17.9586C93.7245 18.6289 88.7792 16.7027 88.7792 16.7027C88.7792 16.7027 87.0702 15.6942 87.4143 18.484C87.4143 18.484 88.5677 25.8084 87.7708 30.4158C86.9676 35.029 87.5594 35.2464 88.4834 34.8177C89.401 34.3829 93.6824 34.7694 98.0964 34.8236C102.504 34.878 102.341 33.9904 102.027 31.5751C101.707 29.1598 102.873 18.2002 102.873 18.2002ZM100.953 30.6693C101.218 32.7043 101.357 33.4591 97.6315 33.4108C93.9056 33.3624 90.2888 33.0363 89.516 33.4047C88.737 33.7669 88.2358 33.5799 88.9122 29.6911C89.5882 25.7964 88.6161 19.6131 88.6161 19.6131C88.3201 17.2582 89.7696 18.1096 89.7696 18.1096C89.7696 18.1096 93.9421 19.734 96.4418 19.1663C98.177 18.8537 99.9596 18.9237 101.665 19.3716C101.665 19.3716 100.681 28.6285 100.953 30.6693Z" fill="#111928"/>
<path d="M98.9363 28.9675C99.1101 30.299 99.201 30.7928 96.7634 30.7612C94.3256 30.7296 91.9592 30.5162 91.4536 30.7572C90.9439 30.9942 90.616 30.8718 91.0585 28.3275C91.5008 25.7792 90.8648 21.7337 90.8648 21.7337C90.6711 20.1929 91.6195 20.7499 91.6195 20.7499C91.6195 20.7499 94.3495 21.8127 95.985 21.4413C97.1203 21.2368 98.2866 21.2826 99.4024 21.5757C99.4024 21.5757 98.7584 27.6322 98.9363 28.9675ZM74.0244 17.8163C75.4902 17.6595 76.966 17.6161 78.4385 17.6864C79.912 17.7297 81.38 17.8879 82.829 18.1596C81.3632 18.3176 79.8874 18.3611 78.4149 18.2894C76.9414 18.2449 75.4736 18.0867 74.0244 17.8163ZM76.3569 35.0448C77.8228 34.8881 79.2985 34.8447 80.771 34.915C82.2446 34.9581 83.7125 35.1163 85.1615 35.388C83.6958 35.5462 82.2199 35.5896 80.7475 35.5179C79.274 35.4734 77.8061 35.3152 76.3569 35.0448ZM74.837 29.5315C76.3028 29.3747 77.7785 29.3313 79.251 29.4016C80.7246 29.4448 82.1926 29.603 83.6415 29.8747C82.1758 30.0329 80.7 30.0763 79.2275 30.0046C77.754 29.96 76.2862 29.8019 74.837 29.5315ZM77.4143 40.8806C80.4562 40.7004 83.4946 40.7031 86.5322 40.7505C89.5695 40.8162 92.6058 40.9278 95.6387 41.2239C92.5968 41.4055 89.5584 41.4026 86.5209 41.3539C83.4836 41.287 80.4473 41.1752 77.4143 40.8806ZM77.0834 64.9072C80.0777 64.3806 83.0896 64.0362 86.1058 63.7362C89.1237 63.4545 92.146 63.2184 95.186 63.166C92.1918 63.6939 89.1799 64.0383 86.1636 64.3369C83.1455 64.6174 80.1232 64.8534 77.0834 64.9072ZM75.0199 21.1952C76.2215 20.9372 77.4444 20.7912 78.6729 20.7588C79.9005 20.6995 81.1309 20.7553 82.3481 20.9256C81.1467 21.1848 79.9237 21.3309 78.6951 21.3619C77.4675 21.4199 76.2372 21.3641 75.0199 21.1952ZM75.3481 24.458C76.5497 24.2001 77.7726 24.054 79.0011 24.0217C80.2287 23.9623 81.4591 24.0182 82.6763 24.1884C81.475 24.4477 80.252 24.5937 79.0234 24.6248C77.7958 24.6827 76.5654 24.6269 75.3481 24.458ZM76.6688 32.6526C77.8703 32.3946 79.0932 32.2486 80.3218 32.2162C81.5494 32.1569 82.7798 32.2127 83.9969 32.383C82.7956 32.6422 81.5726 32.7883 80.344 32.8193C79.1164 32.8773 77.8861 32.8215 76.6688 32.6526ZM76.8339 27.1503C78.0354 26.8924 79.2583 26.7464 80.4869 26.714C81.7144 26.6547 82.9449 26.7105 84.162 26.8807C82.9607 27.14 81.7376 27.2861 80.509 27.3171C79.2814 27.3751 78.0511 27.3192 76.8339 27.1503ZM76.288 52.5985C79.3299 52.4183 82.3682 52.4209 85.4059 52.4684C88.4431 52.5341 91.4795 52.6457 94.5124 52.9417C91.4705 53.1233 88.4321 53.1205 85.3945 53.0718C82.3573 53.0048 79.3209 52.893 76.288 52.5985ZM76.6665 44.2621C79.1904 43.9798 81.7176 43.8803 84.2454 43.8257C86.7737 43.7892 89.3027 43.7987 91.8351 43.9926C89.3112 44.2763 86.7841 44.3756 84.2562 44.429C81.7279 44.4642 79.1988 44.4546 76.6665 44.2621ZM77.346 47.525C79.8699 47.2427 82.397 47.1432 84.9249 47.0885C87.4531 47.052 89.9821 47.0615 92.5145 47.2554C89.9906 47.5392 87.4635 47.6385 84.9356 47.6919C82.4074 47.7271 79.8783 47.7174 77.346 47.525ZM79.6688 58.4876C82.1927 58.2053 84.7198 58.1059 87.2477 58.0512C89.7759 58.0148 92.305 58.0242 94.8373 58.2181C92.3135 58.5018 89.7863 58.6012 87.2584 58.6546C84.7302 58.6898 82.2011 58.6802 79.6688 58.4876ZM80.3483 61.7506C82.8722 61.4682 85.3992 61.3687 87.9272 61.3141C90.4554 61.2776 92.9845 61.2871 95.5167 61.4809C92.9929 61.7647 90.4658 61.864 87.9379 61.9175C85.4096 61.9526 82.8806 61.943 80.3483 61.7506ZM80.0795 55.7195C82.6034 55.4372 85.1305 55.3377 87.6584 55.2831C90.1867 55.2466 92.7157 55.2561 95.248 55.45C92.7242 55.7337 90.1971 55.833 87.6691 55.8864C85.1409 55.9216 82.6119 55.912 80.0795 55.7195ZM80.4212 50.2173C82.9451 49.935 85.4722 49.8355 88.0001 49.7808C90.5284 49.7443 93.0574 49.7538 95.5897 49.9477C93.0659 50.2315 90.5387 50.3307 88.0108 50.3842C85.4826 50.4193 82.9535 50.4097 80.4212 50.2173ZM103.332 67.0753C103.277 67.0753 103.223 67.0554 103.182 67.0194C103.14 66.9833 103.112 66.9335 103.104 66.8789C103.096 66.8244 103.108 66.7688 103.138 66.7222C103.167 66.6757 103.213 66.6413 103.265 66.6254C103.294 66.6141 103.325 66.6087 103.356 66.6096C103.387 66.6105 103.418 66.6176 103.446 66.6306C103.474 66.6436 103.499 66.6621 103.52 66.6851C103.541 66.7081 103.557 66.735 103.567 66.7643C103.577 66.7936 103.581 66.8247 103.579 66.8556C103.577 66.8865 103.568 66.9167 103.554 66.9443C103.54 66.9719 103.52 66.9963 103.497 67.0162C103.473 67.036 103.445 67.0508 103.415 67.0597C103.389 67.0693 103.36 67.0746 103.332 67.0753Z" fill="#111928"/>
<path d="M89.9775 155.538C90.1053 156.907 90.2542 158.274 90.477 159.626C90.6724 160.97 90.9767 162.296 91.3869 163.591C91.4927 163.902 91.6181 164.207 91.7623 164.503C91.8323 164.651 91.9107 164.782 91.9926 164.925C92.0809 165.082 92.1783 165.237 92.2568 165.399C92.5873 166.037 92.8466 166.709 93.0299 167.404C93.4134 168.787 93.5534 170.227 93.4437 171.658C93.3905 172.388 93.2451 173.108 93.0107 173.802C92.7776 174.538 92.3713 175.208 91.8259 175.754C91.5371 176.039 91.1986 176.269 90.8271 176.432C90.6418 176.516 90.4489 176.581 90.2511 176.628L89.7251 176.732C89.0882 176.89 88.4686 177.112 87.8758 177.393C86.5445 177.884 85.1511 178.187 83.736 178.292C82.347 178.43 80.9612 178.47 79.5787 178.475C76.8138 178.479 74.06 178.385 71.3049 178.304C69.9277 178.26 68.5509 178.204 67.1747 178.134C65.7972 178.089 64.4209 178.021 63.044 177.958C57.5354 177.716 52.0386 177.28 46.5526 176.761L46.5305 176.758C46.4047 176.746 46.2868 176.692 46.1967 176.603C46.1066 176.514 46.0497 176.397 46.0356 176.272C46.0177 176.126 46.019 175.979 46.0395 175.834C46.0536 175.717 46.0758 175.601 46.1059 175.486C46.1618 175.273 46.2392 175.066 46.3368 174.868C46.4239 174.677 46.5279 174.493 46.6476 174.32C46.7561 174.147 46.8774 173.983 47.0105 173.828C47.5128 173.224 48.0936 172.691 48.7375 172.242C49.979 171.379 51.3092 170.652 52.7054 170.073C53.3967 169.793 54.0909 169.521 54.7915 169.275C55.4933 169.045 56.2032 168.793 56.898 168.582C58.2924 168.143 59.6903 167.719 61.0743 167.259C63.8466 166.393 66.5429 165.301 69.1357 163.992C70.4106 163.332 71.5704 162.47 72.5701 161.44C73.5662 160.391 74.1534 159.019 74.2252 157.574C74.2255 157.566 74.2273 157.558 74.2305 157.551C74.2337 157.544 74.2383 157.538 74.2439 157.533C74.2495 157.528 74.2561 157.524 74.2633 157.521C74.2706 157.518 74.2782 157.517 74.2859 157.517C74.3005 157.518 74.3143 157.525 74.3246 157.535C74.335 157.545 74.3412 157.559 74.3421 157.574C74.3944 159.088 73.8873 160.569 72.9175 161.734C71.9482 162.88 70.7885 163.85 69.4895 164.602C66.9243 166.077 64.2222 167.3 61.4211 168.253C60.0385 168.756 58.6534 169.247 57.2596 169.706C56.5561 169.931 55.8894 170.181 55.2028 170.417C54.5259 170.667 53.8592 170.94 53.198 171.22C51.8872 171.765 50.6367 172.445 49.4666 173.248C48.9047 173.633 48.3931 174.086 47.9435 174.598C47.8346 174.718 47.7356 174.846 47.6473 174.982C47.555 175.108 47.4749 175.242 47.4082 175.383C47.3401 175.512 47.2855 175.647 47.2453 175.787C47.2273 175.85 47.2135 175.913 47.204 175.977C47.1923 176.026 47.1954 176.121 47.189 176.087L46.6722 175.599C52.1415 176.205 57.6135 176.785 63.0884 177.336C64.4585 177.459 65.8286 177.587 67.2003 177.692C68.5725 177.789 69.946 177.864 71.3197 177.931C74.065 178.076 76.8161 178.075 79.5613 177.928C80.9302 177.85 82.2968 177.732 83.6402 177.528C84.9684 177.356 86.2677 177.007 87.5037 176.491C88.1468 176.166 88.8216 175.907 89.5175 175.718L89.7955 175.665L90.004 175.62C90.1409 175.587 90.2743 175.541 90.4021 175.482C90.662 175.366 90.8981 175.203 91.0982 175.001C91.9195 174.04 92.3926 172.831 92.4412 171.567C92.5603 170.248 92.4628 168.919 92.1525 167.631C91.9983 166.99 91.7849 166.364 91.5151 165.763C91.4515 165.611 91.3709 165.47 91.2987 165.323C91.2174 165.163 91.1281 164.993 91.0597 164.826C90.9189 164.495 90.799 164.156 90.7007 163.81C90.3343 162.461 90.0994 161.079 89.9994 159.685C89.8821 158.307 89.8358 156.923 89.8607 155.54C89.8611 155.525 89.8676 155.51 89.8788 155.5C89.8901 155.489 89.9051 155.483 89.9206 155.483C89.9351 155.484 89.9488 155.49 89.9592 155.5C89.9697 155.51 89.9762 155.523 89.9775 155.538Z" fill="#151F32"/>
<path d="M85.8822 163.136C86.1108 163.583 86.2294 164.079 86.2283 164.581C86.236 165.098 86.1221 165.609 85.896 166.074C85.669 166.543 85.3207 166.943 84.8872 167.233C84.4733 167.519 83.9969 167.701 83.498 167.765C83.8873 167.499 84.2551 167.204 84.5978 166.881C84.9185 166.576 85.1809 166.215 85.3721 165.816C85.7468 164.974 85.9214 164.057 85.8822 163.136ZM91.5605 175.167C91.5605 175.167 94.8818 176.32 93.0467 182.351C93.0467 182.351 93.3154 184.595 85.3212 184.174L45.0696 184.226C45.0696 184.226 42.0901 177.641 48.2782 176.349L58.383 177.284C58.383 177.284 55.8688 171.271 56.57 169.307C57.6469 167.551 59.276 166.201 61.2021 165.469C63.1282 164.737 65.2426 164.665 67.2142 165.263C67.2142 165.263 66.7988 174.913 74.2368 178.211C74.2368 178.211 85.1774 177.66 91.5605 175.167ZM61.5861 135.429C61.1089 136.721 60.6419 138.018 60.2433 139.332C59.8225 140.628 59.492 141.952 59.2542 143.294C59.2017 143.621 59.1672 143.951 59.1509 144.282C59.1359 144.595 59.1455 144.943 59.1447 145.301C59.1429 146.011 59.0864 146.72 58.9755 147.422C58.7831 148.87 58.2487 150.252 57.4168 151.453C56.5289 152.663 55.2683 153.549 53.8285 153.974C53.4775 154.078 53.121 154.163 52.7606 154.227L51.741 154.379C51.0381 154.543 50.3196 154.631 49.5978 154.642C48.1663 154.502 46.7715 154.106 45.4793 153.474C44.2026 152.907 42.9708 152.27 41.7567 151.606C36.9181 148.925 32.1792 146.111 27.3983 143.347C22.6187 140.584 17.9222 137.684 13.2569 134.738L13.2384 134.726C13.1315 134.659 13.0512 134.556 13.0108 134.437C12.9704 134.317 12.9725 134.187 13.0167 134.068C13.0677 133.927 13.1373 133.794 13.2237 133.671C13.2919 133.571 13.3665 133.475 13.447 133.384C13.5988 133.217 13.7669 133.065 13.9488 132.93C14.289 132.675 14.6603 132.463 15.0537 132.3C15.7971 131.99 16.5787 131.779 17.3777 131.675C18.918 131.477 20.4747 131.442 22.0224 131.569C23.5443 131.701 25.0756 131.932 26.5481 132.175C28.0265 132.416 29.5076 132.636 30.9938 132.806C32.4795 132.977 33.9696 133.107 35.4602 133.16C36.9478 133.23 38.4383 133.208 39.9233 133.094C41.4008 132.987 42.8568 132.678 44.2507 132.177C45.6605 131.695 46.8495 130.721 47.5999 129.434C47.607 129.421 47.6189 129.411 47.6332 129.406C47.6475 129.402 47.6631 129.403 47.6766 129.409C47.6902 129.416 47.7007 129.427 47.7061 129.441C47.7114 129.455 47.7112 129.471 47.7054 129.484C47.0337 130.889 45.8665 131.995 44.4284 132.591C43.0198 133.205 41.5282 133.609 40.0018 133.788C36.9758 134.14 33.9204 134.159 30.8901 133.846C29.3787 133.716 27.871 133.551 26.3714 133.337C24.8682 133.11 23.4155 132.918 21.9334 132.81C20.4765 132.697 19.0119 132.728 17.5613 132.904C16.8647 132.991 16.1813 133.162 15.5266 133.415C15.2204 133.533 14.9304 133.69 14.6638 133.881C14.5404 133.967 14.4259 134.065 14.322 134.174C14.2767 134.223 14.2342 134.275 14.1949 134.329C14.1615 134.369 14.1193 134.457 14.1288 134.425L13.8887 133.756L27.7276 142.812L31.2109 145.04C32.3804 145.77 33.5622 146.478 34.7443 147.186C37.1083 148.601 39.5239 149.934 42.0014 151.129C43.2407 151.723 44.4946 152.285 45.7664 152.772C46.9862 153.292 48.2866 153.597 49.6103 153.674C50.2674 153.641 50.9192 153.539 51.5547 153.368C51.7295 153.33 51.914 153.305 52.0953 153.278L52.5788 153.204C52.8966 153.144 53.211 153.068 53.5204 152.974C54.7482 152.612 55.8291 151.869 56.6063 150.852C57.3623 149.784 57.8661 148.558 58.0801 147.267C58.1989 146.608 58.2779 145.943 58.3166 145.274C58.335 144.943 58.3419 144.602 58.3776 144.227C58.4135 143.871 58.4689 143.517 58.5435 143.166C58.8451 141.802 59.2614 140.466 59.7879 139.172C60.3019 137.884 60.8511 136.614 61.4794 135.381C61.4865 135.367 61.4988 135.357 61.5135 135.352C61.5283 135.347 61.5443 135.348 61.5582 135.355C61.5709 135.362 61.5808 135.373 61.586 135.387C61.5911 135.4 61.5912 135.415 61.5861 135.429Z" fill="#151F32"/>
<path d="M54.4984 140.358C54.5002 140.86 54.3823 141.355 54.1544 141.802C53.9277 142.267 53.595 142.672 53.1833 142.984C52.7687 143.3 52.2771 143.5 51.7595 143.562C51.2611 143.63 50.7537 143.577 50.2799 143.409C50.747 143.348 51.2087 143.251 51.6605 143.117C52.0844 142.99 52.4816 142.787 52.8325 142.517C53.5471 141.936 54.1173 141.196 54.4984 140.358ZM54.1272 153.655C54.1272 153.655 56.5688 156.185 52.2065 160.736C52.2065 160.736 51.4322 162.859 44.4909 158.871L8.56012 140.728C8.56012 140.728 8.87831 133.506 14.9822 135.151L23.5737 140.551C23.5737 140.551 24.0484 134.051 25.5613 132.616C27.3158 131.536 29.379 131.068 31.428 131.285C33.4769 131.503 35.3958 132.394 36.8842 133.818C36.8842 133.818 32.153 142.239 37.2976 148.542C37.2976 148.542 47.3062 152.995 54.1272 153.655Z" fill="#151F32"/>
<path d="M176.747 42.122L177.376 46.2617C177.594 47.6367 177.824 49.0076 178.092 50.3687C178.343 51.7339 178.668 53.081 179.045 54.4103C179.386 55.7558 179.933 57.0403 180.667 58.218C179.728 57.1565 179.023 55.9094 178.598 54.5576C178.127 53.2305 177.76 51.8686 177.5 50.4845C176.963 47.7301 176.711 44.9279 176.747 42.122ZM177.616 21.9311C177.616 21.9311 186.094 14.1378 196.529 31.587C206.963 49.0363 206.832 56.2865 210.962 55.5846C210.962 55.5846 200.625 63.6159 187.799 50.2171C174.974 36.8183 177.616 21.9311 177.616 21.9311Z" fill="#151F32"/>
<path d="M177.556 50.222C177.489 49.5948 177.516 48.9611 177.636 48.3419C177.779 47.7199 178.025 47.1261 178.364 46.585C179.065 45.5154 180 44.6189 181.098 43.9629C182.18 43.3099 183.332 42.7794 184.531 42.3813C185.727 41.9724 186.955 41.6633 188.202 41.4572L188.117 41.4767C189.144 41.1603 190.217 41.0191 191.29 41.0588C192.37 41.0807 193.436 41.3042 194.434 41.7177C194.678 41.8359 194.929 41.9419 195.166 42.0726C195.397 42.214 195.633 42.3494 195.86 42.498L196.507 42.9907C196.704 43.1477 196.884 43.3014 197.085 43.4505C197.869 44.0515 198.715 44.6064 199.56 45.156L204.692 48.44C206.43 49.5356 208.092 50.7476 209.667 52.0675C210.069 52.4176 210.439 52.8024 210.774 53.2174C210.957 53.4436 211.105 53.6958 211.214 53.9658C211.244 54.0425 211.266 54.1222 211.28 54.2034L211.306 54.3269C211.311 54.3891 211.31 54.4516 211.303 54.5136C211.261 54.7262 211.139 54.9148 210.962 55.0406C210.483 55.3315 209.948 55.5198 209.392 55.5938C208.878 55.6902 208.367 55.7538 207.855 55.804C205.811 55.9906 203.776 56.0347 201.739 56.0633C199.703 56.0851 197.669 56.0819 195.634 56.0718L192.582 56.0293L191.057 56.0004C190.55 55.9984 190.03 55.9702 189.555 56.0041C188.59 56.0777 187.663 56.4134 186.875 56.9752C186.087 57.5369 185.467 58.3033 185.083 59.1917C184.227 61.0334 183.409 62.893 182.573 64.7433C180.923 68.4539 179.319 72.183 177.76 75.9306C174.705 83.4485 171.801 91.031 169.437 98.7784L169.43 98.8027C169.424 98.8219 169.416 98.8405 169.407 98.8585C168.939 99.7734 168.373 100.634 167.718 101.426C167.069 102.232 166.303 102.936 165.447 103.516C164.568 104.118 163.548 104.481 162.487 104.571C161.467 104.612 160.507 104.556 159.515 104.554L153.608 104.455L147.707 104.306C147.691 104.306 147.676 104.299 147.664 104.287C147.653 104.276 147.647 104.26 147.648 104.244C147.648 104.229 147.655 104.214 147.666 104.203C147.677 104.192 147.691 104.186 147.707 104.185L153.599 103.97L159.487 103.805C160.458 103.767 161.469 103.777 162.408 103.701C163.311 103.587 164.171 103.249 164.909 102.718C166.408 101.582 167.605 100.096 168.397 98.3894L168.367 98.4694C170.608 90.6239 173.383 82.9408 176.672 75.4737C178.272 71.7273 179.955 68.0188 181.719 64.348C182.592 62.5086 183.508 60.69 184.428 58.8742C184.899 57.902 185.62 57.0725 186.516 56.4705C187.41 55.8742 188.451 55.5348 189.524 55.4893C191.602 55.5464 193.598 55.6386 195.64 55.6712C197.67 55.7187 199.702 55.7294 201.732 55.6756C203.757 55.6443 205.78 55.5033 207.79 55.2531C208.288 55.1835 208.783 55.1004 209.265 54.9892C209.716 54.9103 210.148 54.7467 210.539 54.5072C210.604 54.4528 210.619 54.4069 210.613 54.4155C210.609 54.4134 210.61 54.4199 210.61 54.4122L210.591 54.3504C210.582 54.3066 210.569 54.264 210.55 54.2236C210.457 54.0263 210.336 53.8434 210.191 53.6807C209.872 53.3171 209.521 52.9819 209.143 52.6788C207.543 51.4584 205.873 50.3315 204.142 49.3037C202.417 48.2387 200.682 47.1785 198.967 46.0649C198.114 45.4977 197.263 44.9277 196.439 44.2839C196.234 44.1278 196.028 43.95 195.83 43.7882L195.268 43.3512C195.071 43.2201 194.866 43.1009 194.666 42.974C194.46 42.8576 194.241 42.7645 194.03 42.6573C192.244 41.9154 190.26 41.7929 188.396 42.3091L188.353 42.3205C188.339 42.324 188.325 42.3268 188.31 42.3287C187.107 42.4818 185.918 42.7335 184.756 43.0812C183.589 43.4188 182.464 43.8851 181.401 44.4715C180.334 45.0359 179.404 45.8287 178.679 46.7935C178.33 47.284 178.064 47.8293 177.894 48.4071C177.734 48.995 177.66 49.6034 177.677 50.2126C177.677 50.2206 177.676 50.2285 177.673 50.236C177.671 50.2435 177.667 50.2504 177.661 50.2563C177.656 50.2622 177.65 50.2671 177.643 50.2705C177.635 50.274 177.628 50.276 177.62 50.2765C177.604 50.2768 177.589 50.2714 177.578 50.2614C177.566 50.2513 177.558 50.2373 177.556 50.222Z" fill="#151F32"/>
<path d="M136.108 83.6017L142.223 76.3789C142.728 75.7753 143.23 75.169 143.72 74.5572L144.446 73.6379C144.675 73.3539 144.883 73.0539 145.069 72.7401C145.698 71.2706 146.45 69.857 147.318 68.5142C149.059 65.7583 151.448 63.4699 154.276 61.8483C155.699 61.0446 157.228 60.445 158.818 60.0674C160.42 59.6696 162.075 59.5305 163.721 59.6554L163.252 59.812L166.897 56.3659L166.907 56.3561C166.981 56.2861 167.075 56.241 167.176 56.2269C170.186 55.7395 173.257 55.7799 176.254 56.3462C177.748 56.6521 179.187 57.1857 180.52 57.9281C181.863 58.64 183.003 59.6818 183.833 60.9555C182.9 59.7941 181.707 58.8688 180.349 58.2548C179.01 57.6399 177.59 57.2176 176.132 57.0006C173.206 56.6085 170.236 56.6921 167.337 57.2481L167.616 57.1092L164.049 60.6362C163.993 60.692 163.925 60.7351 163.851 60.7626C163.776 60.7901 163.697 60.8015 163.618 60.7958L163.58 60.793C162.072 60.7061 160.56 60.8509 159.097 61.2222C156.12 61.9655 153.391 63.4744 151.178 65.5992C150.06 66.6561 149.059 67.8302 148.192 69.1012C147.318 70.3903 146.542 71.7434 145.871 73.1489C145.647 73.5095 145.395 73.8513 145.116 74.1711C144.86 74.4799 144.603 74.7823 144.338 75.0782C143.811 75.6712 143.276 76.2539 142.738 76.8334C141.667 77.996 140.561 79.1242 139.457 80.253C138.354 81.3819 137.243 82.504 136.108 83.6017Z" fill="#151F32"/>
<path d="M181.758 65.3843L174.032 83.6016C174.032 83.6016 176.747 61.9343 164.701 60.9882L163.65 60.224L166.861 57.1196C166.861 57.1196 182.711 57.8203 181.758 65.3843Z" fill="#151F32"/>
<path d="M70.8857 10.9797C71.1761 15.936 71.394 20.8933 71.5392 25.8516C71.7002 30.8098 71.7946 35.7688 71.8761 40.728C71.9363 45.6875 71.9821 50.6472 71.9615 55.6079C71.9571 60.5683 71.8789 65.5298 71.727 70.4924C71.4352 65.5361 71.2168 60.5788 71.0717 55.6205C70.911 50.6624 70.8166 45.7034 70.7365 40.7441C70.6778 35.7846 70.632 30.8249 70.6528 25.8642C70.6578 20.9038 70.7354 15.9423 70.8857 10.9797Z" fill="#111928"/>
</svg>
