<svg width="210" height="140" viewBox="0 0 210 140" fill="none" xmlns="http://www.w3.org/2000/svg">
<path d="M51.2953 57.5977H50.8076V58.0853H51.2953V57.5977Z" fill="#259792"/>
<path d="M53.2225 57.5977H52.7349V58.0853H53.2225V57.5977Z" fill="#259792"/>
<path d="M55.1508 57.5977H54.6631V58.0853H55.1508V57.5977Z" fill="#259792"/>
<path d="M57.078 57.5977H56.5903V58.0853H57.078V57.5977Z" fill="#259792"/>
<path d="M59.0052 57.5977H58.5176V58.0853H59.0052V57.5977Z" fill="#259792"/>
<path d="M60.9325 57.5977H60.4448V58.0853H60.9325V57.5977Z" fill="#259792"/>
<path d="M62.8597 57.5977H62.3721V58.0853H62.8597V57.5977Z" fill="#259792"/>
<path d="M64.7875 57.5977H64.2998V58.0853H64.7875V57.5977Z" fill="#259792"/>
<path d="M66.7147 57.5977H66.2271V58.0853H66.7147V57.5977Z" fill="#259792"/>
<path d="M68.6424 57.5977H68.1548V58.0853H68.6424V57.5977Z" fill="#259792"/>
<path d="M70.5697 57.5977H70.082V58.0853H70.5697V57.5977Z" fill="#259792"/>
<path d="M72.4969 57.5977H72.0093V58.0853H72.4969V57.5977Z" fill="#259792"/>
<path d="M74.4247 57.5977H73.937V58.0853H74.4247V57.5977Z" fill="#259792"/>
<path d="M76.3519 57.5977H75.8643V58.0853H76.3519V57.5977Z" fill="#259792"/>
<path d="M51.2953 59.5571H50.8076V60.0448H51.2953V59.5571Z" fill="#259792"/>
<path d="M53.2225 59.5571H52.7349V60.0448H53.2225V59.5571Z" fill="#259792"/>
<path d="M55.1508 59.5571H54.6631V60.0448H55.1508V59.5571Z" fill="#259792"/>
<path d="M57.078 59.5571H56.5903V60.0448H57.078V59.5571Z" fill="#259792"/>
<path d="M59.0052 59.5571H58.5176V60.0448H59.0052V59.5571Z" fill="#259792"/>
<path d="M60.9325 59.5571H60.4448V60.0448H60.9325V59.5571Z" fill="#259792"/>
<path d="M62.8597 59.5571H62.3721V60.0448H62.8597V59.5571Z" fill="#259792"/>
<path d="M64.7875 59.5571H64.2998V60.0448H64.7875V59.5571Z" fill="#259792"/>
<path d="M66.7147 59.5571H66.2271V60.0448H66.7147V59.5571Z" fill="#259792"/>
<path d="M68.6424 59.5571H68.1548V60.0448H68.6424V59.5571Z" fill="#259792"/>
<path d="M70.5697 59.5571H70.082V60.0448H70.5697V59.5571Z" fill="#259792"/>
<path d="M72.4969 59.5571H72.0093V60.0448H72.4969V59.5571Z" fill="#259792"/>
<path d="M74.4247 59.5571H73.937V60.0448H74.4247V59.5571Z" fill="#259792"/>
<path d="M76.3519 59.5571H75.8643V60.0448H76.3519V59.5571Z" fill="#259792"/>
<path d="M51.2953 61.5166H50.8076V62.0043H51.2953V61.5166Z" fill="#259792"/>
<path d="M53.2225 61.5166H52.7349V62.0043H53.2225V61.5166Z" fill="#259792"/>
<path d="M55.1508 61.5166H54.6631V62.0043H55.1508V61.5166Z" fill="#259792"/>
<path d="M57.078 61.5166H56.5903V62.0043H57.078V61.5166Z" fill="#259792"/>
<path d="M59.0052 61.5166H58.5176V62.0043H59.0052V61.5166Z" fill="#259792"/>
<path d="M60.9325 61.5166H60.4448V62.0043H60.9325V61.5166Z" fill="#259792"/>
<path d="M62.8597 61.5166H62.3721V62.0043H62.8597V61.5166Z" fill="#259792"/>
<path d="M64.7875 61.5166H64.2998V62.0043H64.7875V61.5166Z" fill="#259792"/>
<path d="M66.7147 61.5166H66.2271V62.0043H66.7147V61.5166Z" fill="#259792"/>
<path d="M68.6424 61.5166H68.1548V62.0043H68.6424V61.5166Z" fill="#259792"/>
<path d="M70.5697 61.5166H70.082V62.0043H70.5697V61.5166Z" fill="#259792"/>
<path d="M72.4969 61.5166H72.0093V62.0043H72.4969V61.5166Z" fill="#259792"/>
<path d="M74.4247 61.5166H73.937V62.0043H74.4247V61.5166Z" fill="#259792"/>
<path d="M76.3519 61.5166H75.8643V62.0043H76.3519V61.5166Z" fill="#259792"/>
<path d="M51.2953 63.4766H50.8076V63.9642H51.2953V63.4766Z" fill="#259792"/>
<path d="M53.2225 63.4766H52.7349V63.9642H53.2225V63.4766Z" fill="#259792"/>
<path d="M55.1508 63.4766H54.6631V63.9642H55.1508V63.4766Z" fill="#259792"/>
<path d="M57.078 63.4766H56.5903V63.9642H57.078V63.4766Z" fill="#259792"/>
<path d="M59.0052 63.4766H58.5176V63.9642H59.0052V63.4766Z" fill="#259792"/>
<path d="M60.9325 63.4766H60.4448V63.9642H60.9325V63.4766Z" fill="#259792"/>
<path d="M62.8597 63.4766H62.3721V63.9642H62.8597V63.4766Z" fill="#259792"/>
<path d="M64.7875 63.4766H64.2998V63.9642H64.7875V63.4766Z" fill="#259792"/>
<path d="M66.7147 63.4766H66.2271V63.9642H66.7147V63.4766Z" fill="#259792"/>
<path d="M68.6424 63.4766H68.1548V63.9642H68.6424V63.4766Z" fill="#259792"/>
<path d="M70.5697 63.4766H70.082V63.9642H70.5697V63.4766Z" fill="#259792"/>
<path d="M72.4969 63.4766H72.0093V63.9642H72.4969V63.4766Z" fill="#259792"/>
<path d="M74.4247 63.4766H73.937V63.9642H74.4247V63.4766Z" fill="#259792"/>
<path d="M76.3519 63.4766H75.8643V63.9642H76.3519V63.4766Z" fill="#259792"/>
<path d="M51.2953 65.436H50.8076V65.9237H51.2953V65.436Z" fill="#259792"/>
<path d="M53.2225 65.436H52.7349V65.9237H53.2225V65.436Z" fill="#259792"/>
<path d="M55.1508 65.436H54.6631V65.9237H55.1508V65.436Z" fill="#259792"/>
<path d="M57.078 65.436H56.5903V65.9237H57.078V65.436Z" fill="#259792"/>
<path d="M59.0052 65.436H58.5176V65.9237H59.0052V65.436Z" fill="#259792"/>
<path d="M60.9325 65.436H60.4448V65.9237H60.9325V65.436Z" fill="#259792"/>
<path d="M62.8597 65.436H62.3721V65.9237H62.8597V65.436Z" fill="#259792"/>
<path d="M64.7875 65.436H64.2998V65.9237H64.7875V65.436Z" fill="#259792"/>
<path d="M66.7147 65.436H66.2271V65.9237H66.7147V65.436Z" fill="#259792"/>
<path d="M68.6424 65.436H68.1548V65.9237H68.6424V65.436Z" fill="#259792"/>
<path d="M70.5697 65.436H70.082V65.9237H70.5697V65.436Z" fill="#259792"/>
<path d="M72.4969 65.436H72.0093V65.9237H72.4969V65.436Z" fill="#259792"/>
<path d="M74.4247 65.436H73.937V65.9237H74.4247V65.436Z" fill="#259792"/>
<path d="M76.3519 65.436H75.8643V65.9237H76.3519V65.436Z" fill="#259792"/>
<path d="M51.2953 67.3955H50.8076V67.8832H51.2953V67.3955Z" fill="#259792"/>
<path d="M53.2225 67.3955H52.7349V67.8832H53.2225V67.3955Z" fill="#259792"/>
<path d="M55.1508 67.3955H54.6631V67.8832H55.1508V67.3955Z" fill="#259792"/>
<path d="M57.078 67.3955H56.5903V67.8832H57.078V67.3955Z" fill="#259792"/>
<path d="M59.0052 67.3955H58.5176V67.8832H59.0052V67.3955Z" fill="#259792"/>
<path d="M60.9325 67.3955H60.4448V67.8832H60.9325V67.3955Z" fill="#259792"/>
<path d="M62.8597 67.3955H62.3721V67.8832H62.8597V67.3955Z" fill="#259792"/>
<path d="M64.7875 67.3955H64.2998V67.8832H64.7875V67.3955Z" fill="#259792"/>
<path d="M66.7147 67.3955H66.2271V67.8832H66.7147V67.3955Z" fill="#259792"/>
<path d="M68.6424 67.3955H68.1548V67.8832H68.6424V67.3955Z" fill="#259792"/>
<path d="M70.5697 67.3955H70.082V67.8832H70.5697V67.3955Z" fill="#259792"/>
<path d="M72.4969 67.3955H72.0093V67.8832H72.4969V67.3955Z" fill="#259792"/>
<path d="M74.4247 67.3955H73.937V67.8832H74.4247V67.3955Z" fill="#259792"/>
<path d="M76.3519 67.3955H75.8643V67.8832H76.3519V67.3955Z" fill="#259792"/>
<path d="M51.2953 69.355H50.8076V69.8427H51.2953V69.355Z" fill="#259792"/>
<path d="M53.2225 69.355H52.7349V69.8427H53.2225V69.355Z" fill="#259792"/>
<path d="M55.1508 69.355H54.6631V69.8427H55.1508V69.355Z" fill="#259792"/>
<path d="M57.078 69.355H56.5903V69.8427H57.078V69.355Z" fill="#259792"/>
<path d="M59.0052 69.355H58.5176V69.8427H59.0052V69.355Z" fill="#259792"/>
<path d="M60.9325 69.355H60.4448V69.8427H60.9325V69.355Z" fill="#259792"/>
<path d="M62.8597 69.355H62.3721V69.8427H62.8597V69.355Z" fill="#259792"/>
<path d="M64.7875 69.355H64.2998V69.8427H64.7875V69.355Z" fill="#259792"/>
<path d="M66.7147 69.355H66.2271V69.8427H66.7147V69.355Z" fill="#259792"/>
<path d="M68.6424 69.355H68.1548V69.8427H68.6424V69.355Z" fill="#259792"/>
<path d="M70.5697 69.355H70.082V69.8427H70.5697V69.355Z" fill="#259792"/>
<path d="M72.4969 69.355H72.0093V69.8427H72.4969V69.355Z" fill="#259792"/>
<path d="M74.4247 69.355H73.937V69.8427H74.4247V69.355Z" fill="#259792"/>
<path d="M76.3519 69.355H75.8643V69.8427H76.3519V69.355Z" fill="#259792"/>
<path d="M51.2953 43.6636H50.8076V44.1512H51.2953V43.6636Z" fill="#259792"/>
<path d="M53.2225 43.6636H52.7349V44.1512H53.2225V43.6636Z" fill="#259792"/>
<path d="M55.1503 43.6636H54.6626V44.1512H55.1503V43.6636Z" fill="#259792"/>
<path d="M57.0775 43.6636H56.5898V44.1512H57.0775V43.6636Z" fill="#259792"/>
<path d="M59.0048 43.6636H58.5171V44.1512H59.0048V43.6636Z" fill="#259792"/>
<path d="M60.932 43.6636H60.4443V44.1512H60.932V43.6636Z" fill="#259792"/>
<path d="M62.8597 43.6636H62.3721V44.1512H62.8597V43.6636Z" fill="#259792"/>
<path d="M64.7875 43.6636H64.2998V44.1512H64.7875V43.6636Z" fill="#259792"/>
<path d="M66.7137 43.6636H66.2261V44.1512H66.7137V43.6636Z" fill="#259792"/>
<path d="M68.642 43.6636H68.1543V44.1512H68.642V43.6636Z" fill="#259792"/>
<path d="M70.5692 43.6636H70.0815V44.1512H70.5692V43.6636Z" fill="#259792"/>
<path d="M72.4965 43.6636H72.0088V44.1512H72.4965V43.6636Z" fill="#259792"/>
<path d="M74.4237 43.6636H73.936V44.1512H74.4237V43.6636Z" fill="#259792"/>
<path d="M76.3509 43.6636H75.8633V44.1512H76.3509V43.6636Z" fill="#259792"/>
<path d="M51.2953 45.6235H50.8076V46.1112H51.2953V45.6235Z" fill="#259792"/>
<path d="M53.2225 45.6235H52.7349V46.1112H53.2225V45.6235Z" fill="#259792"/>
<path d="M55.1503 45.6235H54.6626V46.1112H55.1503V45.6235Z" fill="#259792"/>
<path d="M57.0775 45.6235H56.5898V46.1112H57.0775V45.6235Z" fill="#259792"/>
<path d="M59.0048 45.6235H58.5171V46.1112H59.0048V45.6235Z" fill="#259792"/>
<path d="M60.932 45.6235H60.4443V46.1112H60.932V45.6235Z" fill="#259792"/>
<path d="M62.8597 45.6235H62.3721V46.1112H62.8597V45.6235Z" fill="#259792"/>
<path d="M64.7875 45.6235H64.2998V46.1112H64.7875V45.6235Z" fill="#259792"/>
<path d="M66.7137 45.6235H66.2261V46.1112H66.7137V45.6235Z" fill="#259792"/>
<path d="M68.642 45.6235H68.1543V46.1112H68.642V45.6235Z" fill="#259792"/>
<path d="M70.5692 45.6235H70.0815V46.1112H70.5692V45.6235Z" fill="#259792"/>
<path d="M72.4965 45.6235H72.0088V46.1112H72.4965V45.6235Z" fill="#259792"/>
<path d="M74.4237 45.6235H73.936V46.1112H74.4237V45.6235Z" fill="#259792"/>
<path d="M76.3509 45.6235H75.8633V46.1112H76.3509V45.6235Z" fill="#259792"/>
<path d="M51.2953 47.583H50.8076V48.0707H51.2953V47.583Z" fill="#259792"/>
<path d="M53.2225 47.583H52.7349V48.0707H53.2225V47.583Z" fill="#259792"/>
<path d="M55.1503 47.583H54.6626V48.0707H55.1503V47.583Z" fill="#259792"/>
<path d="M57.0775 47.583H56.5898V48.0707H57.0775V47.583Z" fill="#259792"/>
<path d="M59.0048 47.583H58.5171V48.0707H59.0048V47.583Z" fill="#259792"/>
<path d="M60.932 47.583H60.4443V48.0707H60.932V47.583Z" fill="#259792"/>
<path d="M62.8597 47.583H62.3721V48.0707H62.8597V47.583Z" fill="#259792"/>
<path d="M64.7875 47.583H64.2998V48.0707H64.7875V47.583Z" fill="#259792"/>
<path d="M66.7137 47.583H66.2261V48.0707H66.7137V47.583Z" fill="#259792"/>
<path d="M68.642 47.583H68.1543V48.0707H68.642V47.583Z" fill="#259792"/>
<path d="M70.5692 47.583H70.0815V48.0707H70.5692V47.583Z" fill="#259792"/>
<path d="M72.4965 47.583H72.0088V48.0707H72.4965V47.583Z" fill="#259792"/>
<path d="M74.4237 47.583H73.936V48.0707H74.4237V47.583Z" fill="#259792"/>
<path d="M76.3509 47.583H75.8633V48.0707H76.3509V47.583Z" fill="#259792"/>
<path d="M51.2953 49.5425H50.8076V50.0301H51.2953V49.5425Z" fill="#259792"/>
<path d="M53.2225 49.5425H52.7349V50.0301H53.2225V49.5425Z" fill="#259792"/>
<path d="M55.1503 49.5425H54.6626V50.0301H55.1503V49.5425Z" fill="#259792"/>
<path d="M57.0775 49.5425H56.5898V50.0301H57.0775V49.5425Z" fill="#259792"/>
<path d="M59.0048 49.5425H58.5171V50.0301H59.0048V49.5425Z" fill="#259792"/>
<path d="M60.932 49.5425H60.4443V50.0301H60.932V49.5425Z" fill="#259792"/>
<path d="M62.8597 49.5425H62.3721V50.0301H62.8597V49.5425Z" fill="#259792"/>
<path d="M64.7875 49.5425H64.2998V50.0301H64.7875V49.5425Z" fill="#259792"/>
<path d="M66.7137 49.5425H66.2261V50.0301H66.7137V49.5425Z" fill="#259792"/>
<path d="M68.642 49.5425H68.1543V50.0301H68.642V49.5425Z" fill="#259792"/>
<path d="M70.5692 49.5425H70.0815V50.0301H70.5692V49.5425Z" fill="#259792"/>
<path d="M72.4965 49.5425H72.0088V50.0301H72.4965V49.5425Z" fill="#259792"/>
<path d="M74.4237 49.5425H73.936V50.0301H74.4237V49.5425Z" fill="#259792"/>
<path d="M76.3509 49.5425H75.8633V50.0301H76.3509V49.5425Z" fill="#259792"/>
<path d="M51.2953 51.5024H50.8076V51.9901H51.2953V51.5024Z" fill="#259792"/>
<path d="M53.2225 51.5024H52.7349V51.9901H53.2225V51.5024Z" fill="#259792"/>
<path d="M55.1503 51.5024H54.6626V51.9901H55.1503V51.5024Z" fill="#259792"/>
<path d="M57.0775 51.5024H56.5898V51.9901H57.0775V51.5024Z" fill="#259792"/>
<path d="M59.0048 51.5024H58.5171V51.9901H59.0048V51.5024Z" fill="#259792"/>
<path d="M60.932 51.5024H60.4443V51.9901H60.932V51.5024Z" fill="#259792"/>
<path d="M62.8597 51.5024H62.3721V51.9901H62.8597V51.5024Z" fill="#259792"/>
<path d="M64.7875 51.5024H64.2998V51.9901H64.7875V51.5024Z" fill="#259792"/>
<path d="M66.7137 51.5024H66.2261V51.9901H66.7137V51.5024Z" fill="#259792"/>
<path d="M68.642 51.5024H68.1543V51.9901H68.642V51.5024Z" fill="#259792"/>
<path d="M70.5692 51.5024H70.0815V51.9901H70.5692V51.5024Z" fill="#259792"/>
<path d="M72.4965 51.5024H72.0088V51.9901H72.4965V51.5024Z" fill="#259792"/>
<path d="M74.4237 51.5024H73.936V51.9901H74.4237V51.5024Z" fill="#259792"/>
<path d="M76.3509 51.5024H75.8633V51.9901H76.3509V51.5024Z" fill="#259792"/>
<path d="M51.2953 53.4614H50.8076V53.9491H51.2953V53.4614Z" fill="#259792"/>
<path d="M53.2225 53.4614H52.7349V53.9491H53.2225V53.4614Z" fill="#259792"/>
<path d="M55.1503 53.4614H54.6626V53.9491H55.1503V53.4614Z" fill="#259792"/>
<path d="M57.0775 53.4614H56.5898V53.9491H57.0775V53.4614Z" fill="#259792"/>
<path d="M59.0048 53.4614H58.5171V53.9491H59.0048V53.4614Z" fill="#259792"/>
<path d="M60.932 53.4614H60.4443V53.9491H60.932V53.4614Z" fill="#259792"/>
<path d="M62.8597 53.4614H62.3721V53.9491H62.8597V53.4614Z" fill="#259792"/>
<path d="M64.7875 53.4614H64.2998V53.9491H64.7875V53.4614Z" fill="#259792"/>
<path d="M66.7137 53.4614H66.2261V53.9491H66.7137V53.4614Z" fill="#259792"/>
<path d="M68.642 53.4614H68.1543V53.9491H68.642V53.4614Z" fill="#259792"/>
<path d="M70.5692 53.4614H70.0815V53.9491H70.5692V53.4614Z" fill="#259792"/>
<path d="M72.4965 53.4614H72.0088V53.9491H72.4965V53.4614Z" fill="#259792"/>
<path d="M74.4237 53.4614H73.936V53.9491H74.4237V53.4614Z" fill="#259792"/>
<path d="M76.3509 53.4614H75.8633V53.9491H76.3509V53.4614Z" fill="#259792"/>
<path d="M51.2953 55.4214H50.8076V55.9091H51.2953V55.4214Z" fill="#259792"/>
<path d="M53.2225 55.4214H52.7349V55.9091H53.2225V55.4214Z" fill="#259792"/>
<path d="M55.1503 55.4214H54.6626V55.9091H55.1503V55.4214Z" fill="#259792"/>
<path d="M57.0775 55.4214H56.5898V55.9091H57.0775V55.4214Z" fill="#259792"/>
<path d="M59.0048 55.4214H58.5171V55.9091H59.0048V55.4214Z" fill="#259792"/>
<path d="M60.932 55.4214H60.4443V55.9091H60.932V55.4214Z" fill="#259792"/>
<path d="M62.8597 55.4214H62.3721V55.9091H62.8597V55.4214Z" fill="#259792"/>
<path d="M64.7875 55.4214H64.2998V55.9091H64.7875V55.4214Z" fill="#259792"/>
<path d="M66.7137 55.4214H66.2261V55.9091H66.7137V55.4214Z" fill="#259792"/>
<path d="M68.642 55.4214H68.1543V55.9091H68.642V55.4214Z" fill="#259792"/>
<path d="M70.5692 55.4214H70.0815V55.9091H70.5692V55.4214Z" fill="#259792"/>
<path d="M72.4965 55.4214H72.0088V55.9091H72.4965V55.4214Z" fill="#259792"/>
<path d="M74.4237 55.4214H73.936V55.9091H74.4237V55.4214Z" fill="#259792"/>
<path d="M76.3509 55.4214H75.8633V55.9091H76.3509V55.4214Z" fill="#259792"/>
<path d="M119.977 89.4209H119.489V89.9086H119.977V89.4209Z" fill="#259792"/>
<path d="M121.905 89.4209H121.417V89.9086H121.905V89.4209Z" fill="#259792"/>
<path d="M123.832 89.4209H123.344V89.9086H123.832V89.4209Z" fill="#259792"/>
<path d="M125.759 89.4209H125.271V89.9086H125.759V89.4209Z" fill="#259792"/>
<path d="M127.686 89.4209H127.199V89.9086H127.686V89.4209Z" fill="#259792"/>
<path d="M129.614 89.4209H129.126V89.9086H129.614V89.4209Z" fill="#259792"/>
<path d="M131.541 89.4209H131.054V89.9086H131.541V89.4209Z" fill="#259792"/>
<path d="M133.469 89.4209H132.981V89.9086H133.469V89.4209Z" fill="#259792"/>
<path d="M135.396 89.4209H134.908V89.9086H135.396V89.4209Z" fill="#259792"/>
<path d="M137.323 89.4209H136.835V89.9086H137.323V89.4209Z" fill="#259792"/>
<path d="M139.251 89.4209H138.764V89.9086H139.251V89.4209Z" fill="#259792"/>
<path d="M141.179 89.4209H140.691V89.9086H141.179V89.4209Z" fill="#259792"/>
<path d="M143.106 89.4209H142.618V89.9086H143.106V89.4209Z" fill="#259792"/>
<path d="M145.033 89.4209H144.545V89.9086H145.033V89.4209Z" fill="#259792"/>
<path d="M119.977 91.3804H119.489V91.868H119.977V91.3804Z" fill="#259792"/>
<path d="M121.905 91.3804H121.417V91.868H121.905V91.3804Z" fill="#259792"/>
<path d="M123.832 91.3804H123.344V91.868H123.832V91.3804Z" fill="#259792"/>
<path d="M125.759 91.3804H125.271V91.868H125.759V91.3804Z" fill="#259792"/>
<path d="M127.686 91.3804H127.199V91.868H127.686V91.3804Z" fill="#259792"/>
<path d="M129.614 91.3804H129.126V91.868H129.614V91.3804Z" fill="#259792"/>
<path d="M131.541 91.3804H131.054V91.868H131.541V91.3804Z" fill="#259792"/>
<path d="M133.469 91.3804H132.981V91.868H133.469V91.3804Z" fill="#259792"/>
<path d="M135.396 91.3804H134.908V91.868H135.396V91.3804Z" fill="#259792"/>
<path d="M137.323 91.3804H136.835V91.868H137.323V91.3804Z" fill="#259792"/>
<path d="M139.251 91.3804H138.764V91.868H139.251V91.3804Z" fill="#259792"/>
<path d="M141.179 91.3804H140.691V91.868H141.179V91.3804Z" fill="#259792"/>
<path d="M143.106 91.3804H142.618V91.868H143.106V91.3804Z" fill="#259792"/>
<path d="M145.033 91.3804H144.545V91.868H145.033V91.3804Z" fill="#259792"/>
<path d="M119.977 93.3398H119.489V93.8275H119.977V93.3398Z" fill="#259792"/>
<path d="M121.905 93.3398H121.417V93.8275H121.905V93.3398Z" fill="#259792"/>
<path d="M123.832 93.3398H123.344V93.8275H123.832V93.3398Z" fill="#259792"/>
<path d="M125.759 93.3398H125.271V93.8275H125.759V93.3398Z" fill="#259792"/>
<path d="M127.686 93.3398H127.199V93.8275H127.686V93.3398Z" fill="#259792"/>
<path d="M129.614 93.3398H129.126V93.8275H129.614V93.3398Z" fill="#259792"/>
<path d="M131.541 93.3398H131.054V93.8275H131.541V93.3398Z" fill="#259792"/>
<path d="M133.469 93.3398H132.981V93.8275H133.469V93.3398Z" fill="#259792"/>
<path d="M135.396 93.3398H134.908V93.8275H135.396V93.3398Z" fill="#259792"/>
<path d="M137.323 93.3398H136.835V93.8275H137.323V93.3398Z" fill="#259792"/>
<path d="M139.251 93.3398H138.764V93.8275H139.251V93.3398Z" fill="#259792"/>
<path d="M141.179 93.3398H140.691V93.8275H141.179V93.3398Z" fill="#259792"/>
<path d="M143.106 93.3398H142.618V93.8275H143.106V93.3398Z" fill="#259792"/>
<path d="M145.033 93.3398H144.545V93.8275H145.033V93.3398Z" fill="#259792"/>
<path d="M119.977 95.2998H119.489V95.7875H119.977V95.2998Z" fill="#259792"/>
<path d="M121.905 95.2998H121.417V95.7875H121.905V95.2998Z" fill="#259792"/>
<path d="M123.832 95.2998H123.344V95.7875H123.832V95.2998Z" fill="#259792"/>
<path d="M125.759 95.2998H125.271V95.7875H125.759V95.2998Z" fill="#259792"/>
<path d="M127.686 95.2998H127.199V95.7875H127.686V95.2998Z" fill="#259792"/>
<path d="M129.614 95.2998H129.126V95.7875H129.614V95.2998Z" fill="#259792"/>
<path d="M131.541 95.2998H131.054V95.7875H131.541V95.2998Z" fill="#259792"/>
<path d="M133.469 95.2998H132.981V95.7875H133.469V95.2998Z" fill="#259792"/>
<path d="M135.396 95.2998H134.908V95.7875H135.396V95.2998Z" fill="#259792"/>
<path d="M137.323 95.2998H136.835V95.7875H137.323V95.2998Z" fill="#259792"/>
<path d="M139.251 95.2998H138.764V95.7875H139.251V95.2998Z" fill="#259792"/>
<path d="M141.179 95.2998H140.691V95.7875H141.179V95.2998Z" fill="#259792"/>
<path d="M143.106 95.2998H142.618V95.7875H143.106V95.2998Z" fill="#259792"/>
<path d="M145.033 95.2998H144.545V95.7875H145.033V95.2998Z" fill="#259792"/>
<path d="M119.977 97.2593H119.489V97.7469H119.977V97.2593Z" fill="#259792"/>
<path d="M121.905 97.2593H121.417V97.7469H121.905V97.2593Z" fill="#259792"/>
<path d="M123.832 97.2593H123.344V97.7469H123.832V97.2593Z" fill="#259792"/>
<path d="M125.759 97.2593H125.271V97.7469H125.759V97.2593Z" fill="#259792"/>
<path d="M127.686 97.2593H127.199V97.7469H127.686V97.2593Z" fill="#259792"/>
<path d="M129.614 97.2593H129.126V97.7469H129.614V97.2593Z" fill="#259792"/>
<path d="M131.541 97.2593H131.054V97.7469H131.541V97.2593Z" fill="#259792"/>
<path d="M133.469 97.2593H132.981V97.7469H133.469V97.2593Z" fill="#259792"/>
<path d="M135.396 97.2593H134.908V97.7469H135.396V97.2593Z" fill="#259792"/>
<path d="M137.323 97.2593H136.835V97.7469H137.323V97.2593Z" fill="#259792"/>
<path d="M139.251 97.2593H138.764V97.7469H139.251V97.2593Z" fill="#259792"/>
<path d="M141.179 97.2593H140.691V97.7469H141.179V97.2593Z" fill="#259792"/>
<path d="M143.106 97.2593H142.618V97.7469H143.106V97.2593Z" fill="#259792"/>
<path d="M145.033 97.2593H144.545V97.7469H145.033V97.2593Z" fill="#259792"/>
<path d="M119.977 99.2188H119.489V99.7064H119.977V99.2188Z" fill="#259792"/>
<path d="M121.905 99.2188H121.417V99.7064H121.905V99.2188Z" fill="#259792"/>
<path d="M123.832 99.2188H123.344V99.7064H123.832V99.2188Z" fill="#259792"/>
<path d="M125.759 99.2188H125.271V99.7064H125.759V99.2188Z" fill="#259792"/>
<path d="M127.686 99.2188H127.199V99.7064H127.686V99.2188Z" fill="#259792"/>
<path d="M129.614 99.2188H129.126V99.7064H129.614V99.2188Z" fill="#259792"/>
<path d="M131.541 99.2188H131.054V99.7064H131.541V99.2188Z" fill="#259792"/>
<path d="M133.469 99.2188H132.981V99.7064H133.469V99.2188Z" fill="#259792"/>
<path d="M135.396 99.2188H134.908V99.7064H135.396V99.2188Z" fill="#259792"/>
<path d="M137.323 99.2188H136.835V99.7064H137.323V99.2188Z" fill="#259792"/>
<path d="M139.251 99.2188H138.764V99.7064H139.251V99.2188Z" fill="#259792"/>
<path d="M141.179 99.2188H140.691V99.7064H141.179V99.2188Z" fill="#259792"/>
<path d="M143.106 99.2188H142.618V99.7064H143.106V99.2188Z" fill="#259792"/>
<path d="M145.033 99.2188H144.545V99.7064H145.033V99.2188Z" fill="#259792"/>
<path d="M119.977 101.178H119.489V101.666H119.977V101.178Z" fill="#259792"/>
<path d="M121.905 101.178H121.417V101.666H121.905V101.178Z" fill="#259792"/>
<path d="M123.832 101.178H123.344V101.666H123.832V101.178Z" fill="#259792"/>
<path d="M125.759 101.178H125.271V101.666H125.759V101.178Z" fill="#259792"/>
<path d="M127.686 101.178H127.199V101.666H127.686V101.178Z" fill="#259792"/>
<path d="M129.614 101.178H129.126V101.666H129.614V101.178Z" fill="#259792"/>
<path d="M131.541 101.178H131.054V101.666H131.541V101.178Z" fill="#259792"/>
<path d="M133.469 101.178H132.981V101.666H133.469V101.178Z" fill="#259792"/>
<path d="M135.396 101.178H134.908V101.666H135.396V101.178Z" fill="#259792"/>
<path d="M137.323 101.178H136.835V101.666H137.323V101.178Z" fill="#259792"/>
<path d="M139.251 101.178H138.764V101.666H139.251V101.178Z" fill="#259792"/>
<path d="M141.179 101.178H140.691V101.666H141.179V101.178Z" fill="#259792"/>
<path d="M143.106 101.178H142.618V101.666H143.106V101.178Z" fill="#259792"/>
<path d="M145.033 101.178H144.545V101.666H145.033V101.178Z" fill="#259792"/>
<path d="M119.977 75.4868H119.489V75.9745H119.977V75.4868Z" fill="#259792"/>
<path d="M121.905 75.4868H121.417V75.9745H121.905V75.4868Z" fill="#259792"/>
<path d="M123.832 75.4868H123.344V75.9745H123.832V75.4868Z" fill="#259792"/>
<path d="M125.759 75.4868H125.271V75.9745H125.759V75.4868Z" fill="#259792"/>
<path d="M127.686 75.4868H127.199V75.9745H127.686V75.4868Z" fill="#259792"/>
<path d="M129.614 75.4868H129.126V75.9745H129.614V75.4868Z" fill="#259792"/>
<path d="M131.541 75.4868H131.054V75.9745H131.541V75.4868Z" fill="#259792"/>
<path d="M133.469 75.4868H132.981V75.9745H133.469V75.4868Z" fill="#259792"/>
<path d="M135.396 75.4868H134.908V75.9745H135.396V75.4868Z" fill="#259792"/>
<path d="M137.323 75.4868H136.835V75.9745H137.323V75.4868Z" fill="#259792"/>
<path d="M139.251 75.4868H138.764V75.9745H139.251V75.4868Z" fill="#259792"/>
<path d="M141.179 75.4868H140.691V75.9745H141.179V75.4868Z" fill="#259792"/>
<path d="M143.106 75.4868H142.618V75.9745H143.106V75.4868Z" fill="#259792"/>
<path d="M145.033 75.4868H144.545V75.9745H145.033V75.4868Z" fill="#259792"/>
<path d="M119.977 77.4463H119.489V77.934H119.977V77.4463Z" fill="#259792"/>
<path d="M121.905 77.4463H121.417V77.934H121.905V77.4463Z" fill="#259792"/>
<path d="M123.832 77.4463H123.344V77.934H123.832V77.4463Z" fill="#259792"/>
<path d="M125.759 77.4463H125.271V77.934H125.759V77.4463Z" fill="#259792"/>
<path d="M127.686 77.4463H127.199V77.934H127.686V77.4463Z" fill="#259792"/>
<path d="M129.614 77.4463H129.126V77.934H129.614V77.4463Z" fill="#259792"/>
<path d="M131.541 77.4463H131.054V77.934H131.541V77.4463Z" fill="#259792"/>
<path d="M133.469 77.4463H132.981V77.934H133.469V77.4463Z" fill="#259792"/>
<path d="M135.396 77.4463H134.908V77.934H135.396V77.4463Z" fill="#259792"/>
<path d="M137.323 77.4463H136.835V77.934H137.323V77.4463Z" fill="#259792"/>
<path d="M139.251 77.4463H138.764V77.934H139.251V77.4463Z" fill="#259792"/>
<path d="M141.179 77.4463H140.691V77.934H141.179V77.4463Z" fill="#259792"/>
<path d="M143.106 77.4463H142.618V77.934H143.106V77.4463Z" fill="#259792"/>
<path d="M145.033 77.4463H144.545V77.934H145.033V77.4463Z" fill="#259792"/>
<path d="M119.977 79.4062H119.489V79.8939H119.977V79.4062Z" fill="#259792"/>
<path d="M121.905 79.4062H121.417V79.8939H121.905V79.4062Z" fill="#259792"/>
<path d="M123.832 79.4062H123.344V79.8939H123.832V79.4062Z" fill="#259792"/>
<path d="M125.759 79.4062H125.271V79.8939H125.759V79.4062Z" fill="#259792"/>
<path d="M127.686 79.4062H127.199V79.8939H127.686V79.4062Z" fill="#259792"/>
<path d="M129.614 79.4062H129.126V79.8939H129.614V79.4062Z" fill="#259792"/>
<path d="M131.541 79.4062H131.054V79.8939H131.541V79.4062Z" fill="#259792"/>
<path d="M133.469 79.4062H132.981V79.8939H133.469V79.4062Z" fill="#259792"/>
<path d="M135.396 79.4062H134.908V79.8939H135.396V79.4062Z" fill="#259792"/>
<path d="M137.323 79.4062H136.835V79.8939H137.323V79.4062Z" fill="#259792"/>
<path d="M139.251 79.4062H138.764V79.8939H139.251V79.4062Z" fill="#259792"/>
<path d="M141.179 79.4062H140.691V79.8939H141.179V79.4062Z" fill="#259792"/>
<path d="M143.106 79.4062H142.618V79.8939H143.106V79.4062Z" fill="#259792"/>
<path d="M145.033 79.4062H144.545V79.8939H145.033V79.4062Z" fill="#259792"/>
<path d="M119.977 81.3657H119.489V81.8534H119.977V81.3657Z" fill="#259792"/>
<path d="M121.905 81.3657H121.417V81.8534H121.905V81.3657Z" fill="#259792"/>
<path d="M123.832 81.3657H123.344V81.8534H123.832V81.3657Z" fill="#259792"/>
<path d="M125.759 81.3657H125.271V81.8534H125.759V81.3657Z" fill="#259792"/>
<path d="M127.686 81.3657H127.199V81.8534H127.686V81.3657Z" fill="#259792"/>
<path d="M129.614 81.3657H129.126V81.8534H129.614V81.3657Z" fill="#259792"/>
<path d="M131.541 81.3657H131.054V81.8534H131.541V81.3657Z" fill="#259792"/>
<path d="M133.469 81.3657H132.981V81.8534H133.469V81.3657Z" fill="#259792"/>
<path d="M135.396 81.3657H134.908V81.8534H135.396V81.3657Z" fill="#259792"/>
<path d="M137.323 81.3657H136.835V81.8534H137.323V81.3657Z" fill="#259792"/>
<path d="M139.251 81.3657H138.764V81.8534H139.251V81.3657Z" fill="#259792"/>
<path d="M141.179 81.3657H140.691V81.8534H141.179V81.3657Z" fill="#259792"/>
<path d="M143.106 81.3657H142.618V81.8534H143.106V81.3657Z" fill="#259792"/>
<path d="M145.033 81.3657H144.545V81.8534H145.033V81.3657Z" fill="#259792"/>
<path d="M119.977 83.3252H119.489V83.8129H119.977V83.3252Z" fill="#259792"/>
<path d="M121.905 83.3252H121.417V83.8129H121.905V83.3252Z" fill="#259792"/>
<path d="M123.832 83.3252H123.344V83.8129H123.832V83.3252Z" fill="#259792"/>
<path d="M125.759 83.3252H125.271V83.8129H125.759V83.3252Z" fill="#259792"/>
<path d="M127.686 83.3252H127.199V83.8129H127.686V83.3252Z" fill="#259792"/>
<path d="M129.614 83.3252H129.126V83.8129H129.614V83.3252Z" fill="#259792"/>
<path d="M131.541 83.3252H131.054V83.8129H131.541V83.3252Z" fill="#259792"/>
<path d="M133.469 83.3252H132.981V83.8129H133.469V83.3252Z" fill="#259792"/>
<path d="M135.396 83.3252H134.908V83.8129H135.396V83.3252Z" fill="#259792"/>
<path d="M137.323 83.3252H136.835V83.8129H137.323V83.3252Z" fill="#259792"/>
<path d="M139.251 83.3252H138.764V83.8129H139.251V83.3252Z" fill="#259792"/>
<path d="M141.179 83.3252H140.691V83.8129H141.179V83.3252Z" fill="#259792"/>
<path d="M143.106 83.3252H142.618V83.8129H143.106V83.3252Z" fill="#259792"/>
<path d="M145.033 83.3252H144.545V83.8129H145.033V83.3252Z" fill="#259792"/>
<path d="M119.977 85.2852H119.489V85.7728H119.977V85.2852Z" fill="#259792"/>
<path d="M121.905 85.2852H121.417V85.7728H121.905V85.2852Z" fill="#259792"/>
<path d="M123.832 85.2852H123.344V85.7728H123.832V85.2852Z" fill="#259792"/>
<path d="M125.759 85.2852H125.271V85.7728H125.759V85.2852Z" fill="#259792"/>
<path d="M127.686 85.2852H127.199V85.7728H127.686V85.2852Z" fill="#259792"/>
<path d="M129.614 85.2852H129.126V85.7728H129.614V85.2852Z" fill="#259792"/>
<path d="M131.541 85.2852H131.054V85.7728H131.541V85.2852Z" fill="#259792"/>
<path d="M133.469 85.2852H132.981V85.7728H133.469V85.2852Z" fill="#259792"/>
<path d="M135.396 85.2852H134.908V85.7728H135.396V85.2852Z" fill="#259792"/>
<path d="M137.323 85.2852H136.835V85.7728H137.323V85.2852Z" fill="#259792"/>
<path d="M139.251 85.2852H138.764V85.7728H139.251V85.2852Z" fill="#259792"/>
<path d="M141.179 85.2852H140.691V85.7728H141.179V85.2852Z" fill="#259792"/>
<path d="M143.106 85.2852H142.618V85.7728H143.106V85.2852Z" fill="#259792"/>
<path d="M145.033 85.2852H144.545V85.7728H145.033V85.2852Z" fill="#259792"/>
<path d="M119.977 87.2446H119.489V87.7323H119.977V87.2446Z" fill="#259792"/>
<path d="M121.905 87.2446H121.417V87.7323H121.905V87.2446Z" fill="#259792"/>
<path d="M123.832 87.2446H123.344V87.7323H123.832V87.2446Z" fill="#259792"/>
<path d="M125.759 87.2446H125.271V87.7323H125.759V87.2446Z" fill="#259792"/>
<path d="M127.686 87.2446H127.199V87.7323H127.686V87.2446Z" fill="#259792"/>
<path d="M129.614 87.2446H129.126V87.7323H129.614V87.2446Z" fill="#259792"/>
<path d="M131.541 87.2446H131.054V87.7323H131.541V87.2446Z" fill="#259792"/>
<path d="M133.469 87.2446H132.981V87.7323H133.469V87.2446Z" fill="#259792"/>
<path d="M135.396 87.2446H134.908V87.7323H135.396V87.2446Z" fill="#259792"/>
<path d="M137.323 87.2446H136.835V87.7323H137.323V87.2446Z" fill="#259792"/>
<path d="M139.251 87.2446H138.764V87.7323H139.251V87.2446Z" fill="#259792"/>
<path d="M141.179 87.2446H140.691V87.7323H141.179V87.2446Z" fill="#259792"/>
<path d="M143.106 87.2446H142.618V87.7323H143.106V87.2446Z" fill="#259792"/>
<path d="M145.033 87.2446H144.545V87.7323H145.033V87.2446Z" fill="#259792"/>
<mask id="mask0_6714_58851" style="mask-type:luminance" maskUnits="userSpaceOnUse" x="34" y="86" width="18" height="18">
<path d="M34.0654 99.9137L37.8508 103.699L42.7616 98.7886L47.6724 103.699L51.4577 99.9137L46.5469 95.0033L51.4577 90.0925L47.6724 86.3071L42.7616 91.2179L37.8508 86.3071L34.0654 90.0925L38.9762 95.0033L34.0654 99.9137Z" fill="white"/>
</mask>
<g mask="url(#mask0_6714_58851)">
<path d="M51.6148 84.625H51.3013V105.38H51.6148V84.625Z" fill="#FEF4F2"/>
</g>
<mask id="mask1_6714_58851" style="mask-type:luminance" maskUnits="userSpaceOnUse" x="34" y="86" width="18" height="18">
<path d="M34.0654 99.9137L37.8508 103.699L42.7616 98.7886L47.6724 103.699L51.4577 99.9137L46.5469 95.0033L51.4577 90.0925L47.6724 86.3071L42.7616 91.2179L37.8508 86.3071L34.0654 90.0925L38.9762 95.0033L34.0654 99.9137Z" fill="white"/>
</mask>
<g mask="url(#mask1_6714_58851)">
<path d="M50.4995 84.625H50.186V105.38H50.4995V84.625Z" fill="#FEF4F2"/>
</g>
<mask id="mask2_6714_58851" style="mask-type:luminance" maskUnits="userSpaceOnUse" x="34" y="86" width="18" height="18">
<path d="M34.0654 99.9137L37.8508 103.699L42.7616 98.7886L47.6724 103.699L51.4577 99.9137L46.5469 95.0033L51.4577 90.0925L47.6724 86.3071L42.7616 91.2179L37.8508 86.3071L34.0654 90.0925L38.9762 95.0033L34.0654 99.9137Z" fill="white"/>
</mask>
<g mask="url(#mask2_6714_58851)">
<path d="M49.3848 84.625H49.0713V105.38H49.3848V84.625Z" fill="#FEF4F2"/>
</g>
<mask id="mask3_6714_58851" style="mask-type:luminance" maskUnits="userSpaceOnUse" x="34" y="86" width="18" height="18">
<path d="M34.0654 99.9137L37.8508 103.699L42.7616 98.7886L47.6724 103.699L51.4577 99.9137L46.5469 95.0033L51.4577 90.0925L47.6724 86.3071L42.7616 91.2179L37.8508 86.3071L34.0654 90.0925L38.9762 95.0033L34.0654 99.9137Z" fill="white"/>
</mask>
<g mask="url(#mask3_6714_58851)">
<path d="M48.2705 84.625H47.957V105.38H48.2705V84.625Z" fill="#FEF4F2"/>
</g>
<mask id="mask4_6714_58851" style="mask-type:luminance" maskUnits="userSpaceOnUse" x="34" y="86" width="18" height="18">
<path d="M34.0654 99.9137L37.8508 103.699L42.7616 98.7886L47.6724 103.699L51.4577 99.9137L46.5469 95.0033L51.4577 90.0925L47.6724 86.3071L42.7616 91.2179L37.8508 86.3071L34.0654 90.0925L38.9762 95.0033L34.0654 99.9137Z" fill="white"/>
</mask>
<g mask="url(#mask4_6714_58851)">
<path d="M47.1572 84.625H46.8438V105.38H47.1572V84.625Z" fill="#FEF4F2"/>
</g>
<mask id="mask5_6714_58851" style="mask-type:luminance" maskUnits="userSpaceOnUse" x="34" y="86" width="18" height="18">
<path d="M34.0654 99.9137L37.8508 103.699L42.7616 98.7886L47.6724 103.699L51.4577 99.9137L46.5469 95.0033L51.4577 90.0925L47.6724 86.3071L42.7616 91.2179L37.8508 86.3071L34.0654 90.0925L38.9762 95.0033L34.0654 99.9137Z" fill="white"/>
</mask>
<g mask="url(#mask5_6714_58851)">
<path d="M46.0425 84.625H45.729V105.38H46.0425V84.625Z" fill="#FEF4F2"/>
</g>
<mask id="mask6_6714_58851" style="mask-type:luminance" maskUnits="userSpaceOnUse" x="34" y="86" width="18" height="18">
<path d="M34.0654 99.9137L37.8508 103.699L42.7616 98.7886L47.6724 103.699L51.4577 99.9137L46.5469 95.0033L51.4577 90.0925L47.6724 86.3071L42.7616 91.2179L37.8508 86.3071L34.0654 90.0925L38.9762 95.0033L34.0654 99.9137Z" fill="white"/>
</mask>
<g mask="url(#mask6_6714_58851)">
<path d="M44.9282 84.625H44.6147V105.38H44.9282V84.625Z" fill="#FEF4F2"/>
</g>
<mask id="mask7_6714_58851" style="mask-type:luminance" maskUnits="userSpaceOnUse" x="34" y="86" width="18" height="18">
<path d="M34.0654 99.9137L37.8508 103.699L42.7616 98.7886L47.6724 103.699L51.4577 99.9137L46.5469 95.0033L51.4577 90.0925L47.6724 86.3071L42.7616 91.2179L37.8508 86.3071L34.0654 90.0925L38.9762 95.0033L34.0654 99.9137Z" fill="white"/>
</mask>
<g mask="url(#mask7_6714_58851)">
<path d="M43.8135 84.625H43.5V105.38H43.8135V84.625Z" fill="#FEF4F2"/>
</g>
<mask id="mask8_6714_58851" style="mask-type:luminance" maskUnits="userSpaceOnUse" x="34" y="86" width="18" height="18">
<path d="M34.0654 99.9137L37.8508 103.699L42.7616 98.7886L47.6724 103.699L51.4577 99.9137L46.5469 95.0033L51.4577 90.0925L47.6724 86.3071L42.7616 91.2179L37.8508 86.3071L34.0654 90.0925L38.9762 95.0033L34.0654 99.9137Z" fill="white"/>
</mask>
<g mask="url(#mask8_6714_58851)">
<path d="M42.6992 84.625H42.3857V105.38H42.6992V84.625Z" fill="#FEF4F2"/>
</g>
<mask id="mask9_6714_58851" style="mask-type:luminance" maskUnits="userSpaceOnUse" x="34" y="86" width="18" height="18">
<path d="M34.0654 99.9137L37.8508 103.699L42.7616 98.7886L47.6724 103.699L51.4577 99.9137L46.5469 95.0033L51.4577 90.0925L47.6724 86.3071L42.7616 91.2179L37.8508 86.3071L34.0654 90.0925L38.9762 95.0033L34.0654 99.9137Z" fill="white"/>
</mask>
<g mask="url(#mask9_6714_58851)">
<path d="M41.5845 84.625H41.271V105.38H41.5845V84.625Z" fill="#FEF4F2"/>
</g>
<mask id="mask10_6714_58851" style="mask-type:luminance" maskUnits="userSpaceOnUse" x="34" y="86" width="18" height="18">
<path d="M34.0654 99.9137L37.8508 103.699L42.7616 98.7886L47.6724 103.699L51.4577 99.9137L46.5469 95.0033L51.4577 90.0925L47.6724 86.3071L42.7616 91.2179L37.8508 86.3071L34.0654 90.0925L38.9762 95.0033L34.0654 99.9137Z" fill="white"/>
</mask>
<g mask="url(#mask10_6714_58851)">
<path d="M40.4707 84.625H40.1572V105.38H40.4707V84.625Z" fill="#FEF4F2"/>
</g>
<mask id="mask11_6714_58851" style="mask-type:luminance" maskUnits="userSpaceOnUse" x="34" y="86" width="18" height="18">
<path d="M34.0654 99.9137L37.8508 103.699L42.7616 98.7886L47.6724 103.699L51.4577 99.9137L46.5469 95.0033L51.4577 90.0925L47.6724 86.3071L42.7616 91.2179L37.8508 86.3071L34.0654 90.0925L38.9762 95.0033L34.0654 99.9137Z" fill="white"/>
</mask>
<g mask="url(#mask11_6714_58851)">
<path d="M39.3555 84.625H39.042V105.38H39.3555V84.625Z" fill="#FEF4F2"/>
</g>
<mask id="mask12_6714_58851" style="mask-type:luminance" maskUnits="userSpaceOnUse" x="34" y="86" width="18" height="18">
<path d="M34.0654 99.9137L37.8508 103.699L42.7616 98.7886L47.6724 103.699L51.4577 99.9137L46.5469 95.0033L51.4577 90.0925L47.6724 86.3071L42.7616 91.2179L37.8508 86.3071L34.0654 90.0925L38.9762 95.0033L34.0654 99.9137Z" fill="white"/>
</mask>
<g mask="url(#mask12_6714_58851)">
<path d="M38.2412 84.625H37.9277V105.38H38.2412V84.625Z" fill="#FEF4F2"/>
</g>
<mask id="mask13_6714_58851" style="mask-type:luminance" maskUnits="userSpaceOnUse" x="34" y="86" width="18" height="18">
<path d="M34.0654 99.9137L37.8508 103.699L42.7616 98.7886L47.6724 103.699L51.4577 99.9137L46.5469 95.0033L51.4577 90.0925L47.6724 86.3071L42.7616 91.2179L37.8508 86.3071L34.0654 90.0925L38.9762 95.0033L34.0654 99.9137Z" fill="white"/>
</mask>
<g mask="url(#mask13_6714_58851)">
<path d="M37.127 84.625H36.8135V105.38H37.127V84.625Z" fill="#FEF4F2"/>
</g>
<mask id="mask14_6714_58851" style="mask-type:luminance" maskUnits="userSpaceOnUse" x="34" y="86" width="18" height="18">
<path d="M34.0654 99.9137L37.8508 103.699L42.7616 98.7886L47.6724 103.699L51.4577 99.9137L46.5469 95.0033L51.4577 90.0925L47.6724 86.3071L42.7616 91.2179L37.8508 86.3071L34.0654 90.0925L38.9762 95.0033L34.0654 99.9137Z" fill="white"/>
</mask>
<g mask="url(#mask14_6714_58851)">
<path d="M36.0132 84.625H35.6997V105.38H36.0132V84.625Z" fill="#FEF4F2"/>
</g>
<mask id="mask15_6714_58851" style="mask-type:luminance" maskUnits="userSpaceOnUse" x="34" y="86" width="18" height="18">
<path d="M34.0654 99.9137L37.8508 103.699L42.7616 98.7886L47.6724 103.699L51.4577 99.9137L46.5469 95.0033L51.4577 90.0925L47.6724 86.3071L42.7616 91.2179L37.8508 86.3071L34.0654 90.0925L38.9762 95.0033L34.0654 99.9137Z" fill="white"/>
</mask>
<g mask="url(#mask15_6714_58851)">
<path d="M34.8989 84.625H34.5854V105.38H34.8989V84.625Z" fill="#FEF4F2"/>
</g>
<path d="M124.181 44.2134C124.122 44.2134 124.063 44.1894 124.021 44.1423C123.941 44.0535 123.948 43.9166 124.036 43.8365L125.895 42.1541C125.982 42.0753 126.116 42.0802 126.197 42.1656L127.648 43.6888L129.197 42.1603C129.28 42.0792 129.412 42.0778 129.497 42.1565L131.16 43.709L133.033 42.1485C133.115 42.0799 133.233 42.0816 133.314 42.1513L135.189 43.786C135.278 43.8647 135.288 44.0009 135.209 44.0911C135.131 44.1821 134.995 44.1908 134.904 44.1124L133.168 42.5989L131.291 44.1632C131.206 44.2333 131.084 44.2294 131.004 44.1552L129.353 42.6142L127.794 44.1514C127.753 44.1915 127.687 44.2131 127.639 44.2134C127.581 44.2127 127.526 44.1883 127.486 44.1462L126.028 42.6166L124.326 44.1577C124.285 44.1949 124.233 44.2134 124.181 44.2134ZM124.181 41.17C124.122 41.17 124.063 41.146 124.021 41.099C123.941 41.0101 123.948 40.8732 124.036 40.7931L125.895 39.1107C125.982 39.0319 126.116 39.0368 126.197 39.1222L127.648 40.6454L129.197 39.1169C129.28 39.0358 129.412 39.0344 129.497 39.1131L131.16 40.6656L133.033 39.1051C133.115 39.0365 133.233 39.0382 133.314 39.1079L135.189 40.7426C135.278 40.8213 135.288 40.9575 135.209 41.0478C135.131 41.1387 134.995 41.1474 134.904 41.069L133.168 39.5555L131.291 41.1199C131.206 41.1899 131.084 41.186 131.004 41.1118L129.353 39.5708L127.794 41.108C127.753 41.1481 127.687 41.1697 127.639 41.17C127.581 41.1693 127.526 41.1449 127.486 41.1028L126.028 39.5733L124.326 41.1143C124.285 41.1516 124.233 41.17 124.181 41.17ZM124.181 38.1266C124.122 38.1266 124.063 38.1026 124.021 38.0556C123.941 37.9667 123.948 37.8299 124.036 37.7497L125.895 36.0673C125.982 35.9886 126.116 35.9934 126.197 36.0788L127.648 37.602L129.197 36.0736C129.28 35.9924 129.412 35.991 129.497 36.0697L131.16 37.6222L133.033 36.0617C133.115 35.9931 133.233 35.9948 133.314 36.0645L135.189 37.6992C135.278 37.7779 135.288 37.9141 135.209 38.0044C135.131 38.0953 134.995 38.104 134.904 38.0256L133.168 36.5121L131.291 38.0765C131.206 38.1465 131.084 38.1427 131.004 38.0685L129.353 36.5274L127.794 38.0646C127.753 38.1047 127.687 38.1263 127.639 38.1266C127.581 38.1259 127.526 38.1016 127.486 38.0594L126.028 36.5299L124.326 38.0709C124.285 38.1078 124.233 38.1266 124.181 38.1266Z" fill="#2EBDB6"/>
<path d="M31.4036 43.8145L61.5937 55.8455L88.2711 49.2697L106.505 62.4963L134.004 82.5606V87.2311L128.549 89.8464L126.905 95.0027L119.507 96.6465L118.466 103.073L112.333 103.895L109.793 107.333H105.384L98.6208 106.008L90.289 106.137L81.6204 103.522L72.0555 99.8599L71.1586 99.3367L64.2839 94.4423L62.3408 93.2841L46.7975 77.8902L23.7817 73.9296L31.4036 43.8145Z" fill="#2EBDB6"/>
<path d="M156.423 46.6919L130.306 55.3229L106.767 47.2524L80.6493 56.2759L78.2158 60.4131L81.3219 65.2992L92.0826 60.7033L103.74 60.4793L134.005 82.5612L138.152 80.4315L163.709 79.1984L156.423 46.6919Z" fill="#2EBDB6"/>
<path d="M62.3418 93.2847L64.2099 98.1419L69.2169 100.309L76.241 93.957L76.7269 90.2953L73.028 88.5767L64.2848 94.4429L62.3418 93.2847Z" fill="#2EBDB6"/>
<path d="M71.1582 99.3373L72.354 103.074L76.7256 104.867L81.62 103.522L90.2887 92.5372L87.1498 87.7549L82.741 89.7724L72.0552 99.8605L71.1582 99.3373Z" fill="#2EBDB6"/>
<path d="M81.0596 104.082L81.8071 107.37L86.0665 108.64L90.4754 106.025L98.6205 94.9279L95.7248 91.9761L89.84 94.3674L81.0596 104.082Z" fill="#2EBDB6"/>
<path d="M97.0143 97.8428L90.2891 106.137V109.052L93.6515 109.874L97.4626 108.155L102.544 98.7394L99.3308 96.9458L97.0143 97.8428Z" fill="#2EBDB6"/>
<path d="M81.3223 65.2992L92.083 62.4968H106.506L117.313 70.3817L114.501 66.4392L121.376 66.0836L107.172 60.4131L92.083 60.7032L81.3223 65.2992Z" fill="#259792"/>
<path d="M118.466 71.2231L134.341 79.9827L139.273 78.1891L162.645 74.4522L163.708 79.1979L138.152 80.431L134.004 82.5607L118.466 71.2231Z" fill="#259792"/>
<path d="M95.7248 91.9761L90.2887 95.0588L83.6752 105.595L81.3212 105.233L81.0596 104.082L89.84 94.3674L95.7248 91.9761Z" fill="#259792"/>
<path d="M99.3308 96.9458L97.0143 98.7861L91.5218 106.997L90.2891 107.333V106.137L97.0143 97.8428L99.3308 96.9458Z" fill="#259792"/>
<path d="M87.1498 87.7549L82.6104 91.024L72.6902 100.72L72.354 103.074L71.1582 99.3373L72.0552 99.8605L82.741 89.7724L87.1498 87.7549Z" fill="#259792"/>
<path d="M73.028 88.5767L65.2375 95.1156L63.1611 95.4144L62.3418 93.2847L64.2848 94.4429L73.028 88.5767Z" fill="#259792"/>
<path d="M80.3623 58.7084L81.098 63.5057L88.1594 61.1144L87.3377 56.276L85.2452 55.8462L80.3623 58.7084Z" fill="#FEF4F2"/>
<path d="M73.4755 89.1367L75.9041 92.8733L73.0272 95.003L70.8599 93.5832V92.3874L73.4755 89.1367Z" fill="#FEF4F2"/>
<path d="M86.7028 89.1367L89.5801 92.5368L86.4789 95.6756L84.0127 95.414L83.1533 92.9478L86.7028 89.1367Z" fill="#FEF4F2"/>
<path d="M95.2954 92.6489L92.9414 97.4688L95.0339 98.7859L97.6119 95.7174L97.9483 94.7786L95.2954 92.6489Z" fill="#FEF4F2"/>
<path d="M99.3308 97.6929L98.1726 99.0754L97.5376 102.139L99.9289 103.073L102.425 98.9594L99.3308 97.6929Z" fill="#FEF4F2"/>
<path d="M80.6495 56.2759L76.7266 60.413L80.6495 66.009L85.9982 64.0813L80.7244 65.3973L78.216 60.413L80.6495 56.2759Z" fill="#259792"/>
<path d="M134.004 87.2318L128.175 88.0539L116.293 83.7944L128.133 91.1516L128.549 89.8471L134.004 87.2318Z" fill="#259792"/>
<path d="M126.905 95.003L118.984 95.414L108.298 88.1279L119.098 99.1698L119.507 96.6468L126.905 95.003Z" fill="#259792"/>
<path d="M118.466 103.074L111.139 102.139L103.292 96.9458L110.466 103.074L111.078 105.596L112.334 103.896L118.466 103.074Z" fill="#259792"/>
<path d="M102.544 98.7393L101.349 106.543L98.6211 106.009L102.544 98.7393Z" fill="#259792"/>
<path d="M46.7975 77.8902L44.8921 75.5735L24.9981 69.123L23.7817 73.9297L46.7975 77.8902Z" fill="#259792"/>
<path d="M162.169 43.0198L148.017 46.4092L156.68 82.5831L170.832 79.1937L162.169 43.0198Z" fill="#FEF4F2"/>
<path d="M176.078 36.9636L154.982 42.0156L165.122 84.3538L186.217 79.3017L176.078 36.9636Z" fill="#4A5873"/>
<path d="M147.363 49.6858L150.962 73.5066L147.363 77.8904L155.317 76.8921L148.699 49.2441L147.363 49.6858Z" fill="#259792"/>
<path d="M154.244 44.9257L158.239 71.8759L155.317 76.8925L156.68 82.5899L164.264 80.7747L155.606 44.5996L154.244 44.9257Z" fill="#FACBC1"/>
<path d="M171.387 38.0951L178.674 65.3975L170.603 74.5224L161.978 71.2237L165.122 84.3597L186.218 79.3103L176.084 36.9707L171.387 38.0951Z" fill="#151F32"/>
</svg>
