<svg width="177" height="49" viewBox="0 0 177 49" fill="none" xmlns="http://www.w3.org/2000/svg">
<rect y="0.212891" width="177" height="48" rx="6" fill="#F2F5F7"/>
<path fill-rule="evenodd" clip-rule="evenodd" d="M32.2334 28.9866C32.6267 28.3866 32.7734 28.0799 33.0734 27.4066C30.86 26.5666 30.5067 23.4132 32.6934 22.2065C32.0267 21.3665 31.0867 20.8799 30.2 20.8799C29.56 20.8799 29.12 21.0466 28.7267 21.1999C28.3934 21.3266 28.0934 21.4399 27.72 21.4399C27.32 21.4399 26.9667 21.3132 26.5934 21.1799C26.1867 21.0332 25.76 20.8799 25.2267 20.8799C24.2334 20.8799 23.1734 21.4866 22.5 22.5266C21.5534 23.9932 21.72 26.7399 23.2467 29.0865C23.7934 29.9265 24.5267 30.8665 25.48 30.8799C25.88 30.8865 26.14 30.7666 26.4267 30.6399C26.7534 30.4932 27.1067 30.3332 27.7267 30.3332C28.3467 30.3265 28.6934 30.4932 29.02 30.6399C29.3 30.7666 29.5534 30.8865 29.9467 30.8799C30.9134 30.8665 31.6867 29.8266 32.2334 28.9866Z" fill="black"/>
<path fill-rule="evenodd" clip-rule="evenodd" d="M30.06 17.5459C30.1667 18.2792 29.8667 19.0059 29.4734 19.5126C29.0534 20.0592 28.32 20.4859 27.6134 20.4592C27.4867 19.7526 27.8134 19.0259 28.2134 18.5392C28.66 18.0059 29.4134 17.5926 30.06 17.5459Z" fill="black"/>
<line x1="42" y1="19.7129" x2="42" y2="28.7129" stroke="#EAECF0"/>
<path d="M61.7666 24.8466L59.9133 25.7732C59.7866 25.8399 59.6333 25.8132 59.5266 25.7132L58.2799 24.4666C58.1466 24.3332 58.1466 24.1266 58.2799 23.9932L59.5466 22.7266C59.6466 22.6266 59.8066 22.5999 59.9333 22.6666L61.7666 23.5866C62.2933 23.8399 62.2933 24.5866 61.7666 24.8466Z" fill="black"/>
<path d="M58.3666 21.8725C58.5733 21.9725 58.6133 22.2459 58.4533 22.4059L57.34 23.5192L56.8666 23.9926C56.7333 24.1259 56.5266 24.1259 56.3933 23.9926L51.6333 19.2325C51.3666 18.9659 51.68 18.5326 52.02 18.6992L58.3666 21.8725Z" fill="black"/>
<path d="M48.8333 29.6466V18.5333C48.8333 18.2399 49.1866 18.0866 49.3999 18.2933L55.2466 23.9666C55.3866 24.0999 55.3799 24.3199 55.2399 24.4533L49.3933 29.8933C49.1799 30.0933 48.8333 29.9399 48.8333 29.6466Z" fill="black"/>
<path d="M58.3466 26.5594L52.0866 29.6927C51.7466 29.8594 51.4333 29.4261 51.7 29.1594L56.4 24.4594C56.5333 24.326 56.74 24.326 56.8733 24.4594L58.44 26.026C58.5933 26.186 58.5466 26.4594 58.3466 26.5594Z" fill="black"/>
<path d="M79.5819 29.2129H78.2239L78.0979 27.9529C77.6639 28.6809 76.6419 29.4229 75.0599 29.4229C72.4699 29.4229 70.1739 27.5189 70.1739 24.2429C70.1739 20.9809 72.5959 19.0769 75.1719 19.0769C77.5799 19.0769 79.1199 20.4629 79.6519 22.1009L78.0699 22.7029C77.7339 21.5829 76.7539 20.6309 75.1719 20.6309C73.5619 20.6309 71.8819 21.7789 71.8819 24.2429C71.8819 26.6649 73.4499 27.8829 75.1579 27.8829C77.1599 27.8829 77.9159 26.5109 77.9999 25.6569H74.7239V24.1869H79.5819V29.2129ZM82.6117 25.0549H85.9577C85.9297 24.2569 85.3977 23.5429 84.2777 23.5429C83.2557 23.5429 82.6677 24.3269 82.6117 25.0549ZM86.1397 26.8329L87.5117 27.2669C87.1477 28.4569 86.0697 29.4229 84.4317 29.4229C82.5837 29.4229 80.9457 28.0789 80.9457 25.7689C80.9457 23.6129 82.5417 22.1849 84.2637 22.1849C86.3637 22.1849 87.5957 23.5709 87.5957 25.7269C87.5957 25.9929 87.5677 26.2169 87.5537 26.2449H82.5697C82.6117 27.2809 83.4237 28.0229 84.4317 28.0229C85.4117 28.0229 85.9157 27.5049 86.1397 26.8329ZM91.2057 20.3089V22.3949H92.6197V23.8369H91.2057V27.0009C91.2057 27.6029 91.4717 27.8549 92.0737 27.8549C92.2977 27.8549 92.5637 27.8129 92.6337 27.7989V29.1429C92.5357 29.1849 92.2277 29.2969 91.6397 29.2969C90.3797 29.2969 89.5957 28.5409 89.5957 27.2669V23.8369H88.3357V22.3949H88.6857C89.4137 22.3949 89.7357 21.9329 89.7357 21.3309V20.3089H91.2057ZM99.5536 29.2129H97.8736V19.2869H104.048V20.8689H99.5536V23.6549H103.586V25.2089H99.5536V29.2129ZM107.192 29.2129H105.568V19.0769H107.192V29.2129ZM110.896 29.2129H109.286V22.3949H110.896V29.2129ZM109.034 20.0009C109.034 19.4129 109.51 18.9369 110.084 18.9369C110.672 18.9369 111.148 19.4129 111.148 20.0009C111.148 20.5889 110.672 21.0509 110.084 21.0509C109.51 21.0509 109.034 20.5889 109.034 20.0009ZM115.959 23.6829C114.965 23.6829 114.083 24.4249 114.083 25.7969C114.083 27.1689 114.965 27.9389 115.987 27.9389C117.051 27.9389 117.541 27.1969 117.695 26.6789L119.123 27.1969C118.801 28.2609 117.779 29.4229 115.987 29.4229C113.985 29.4229 112.459 27.8689 112.459 25.7969C112.459 23.6969 113.985 22.1849 115.945 22.1849C117.779 22.1849 118.787 23.3329 119.067 24.4249L117.611 24.9569C117.457 24.3549 116.995 23.6829 115.959 23.6829ZM126.95 22.3949L124.15 25.2789L127.006 29.2129H125.018L123.016 26.4269L122.176 27.3089V29.2129H120.566V19.0769H122.176V25.1529L124.794 22.3949H126.95ZM138.584 29.2129L137.646 26.7209H133.446L132.522 29.2129H130.744L134.608 19.2869H136.554L140.418 29.2129H138.584ZM135.546 21.1069L134.034 25.1669H137.058L135.546 21.1069ZM143.176 31.8729H141.566V22.3949H143.134V23.3189C143.47 22.7309 144.254 22.2409 145.304 22.2409C147.32 22.2409 148.454 23.7809 148.454 25.7969C148.454 27.8409 147.208 29.3809 145.248 29.3809C144.268 29.3809 143.526 28.9609 143.176 28.4429V31.8729ZM146.83 25.7969C146.83 24.5229 146.088 23.6829 144.996 23.6829C143.932 23.6829 143.162 24.5229 143.162 25.7969C143.162 27.0989 143.932 27.9389 144.996 27.9389C146.074 27.9389 146.83 27.0989 146.83 25.7969ZM151.625 31.8729H150.015V22.3949H151.583V23.3189C151.919 22.7309 152.703 22.2409 153.753 22.2409C155.769 22.2409 156.903 23.7809 156.903 25.7969C156.903 27.8409 155.657 29.3809 153.697 29.3809C152.717 29.3809 151.975 28.9609 151.625 28.4429V31.8729ZM155.279 25.7969C155.279 24.5229 154.537 23.6829 153.445 23.6829C152.381 23.6829 151.611 24.5229 151.611 25.7969C151.611 27.0989 152.381 27.9389 153.445 27.9389C154.523 27.9389 155.279 27.0989 155.279 25.7969Z" fill="#151F32"/>
</svg>
