<svg width="16" height="17" viewBox="0 0 16 17" fill="none" xmlns="http://www.w3.org/2000/svg">
<path d="M5.41735 9.83381C5.71337 10.984 6.75744 11.8338 8 11.8338C9.24256 11.8338 10.2866 10.984 10.5827 9.83381M7.34513 2.34315L2.82359 5.8599C2.52135 6.09498 2.37022 6.21252 2.26135 6.35973C2.16491 6.49012 2.09307 6.63701 2.04935 6.79319C2 6.9695 2 7.16095 2 7.54386V12.3671C2 13.1139 2 13.4872 2.14532 13.7725C2.27316 14.0233 2.47713 14.2273 2.72801 14.3552C3.01323 14.5005 3.3866 14.5005 4.13333 14.5005H11.8667C12.6134 14.5005 12.9868 14.5005 13.272 14.3552C13.5229 14.2273 13.7268 14.0233 13.8547 13.7725C14 13.4872 14 13.1139 14 12.3671V7.54386C14 7.16095 14 6.9695 13.9506 6.79319C13.9069 6.63701 13.8351 6.49012 13.7386 6.35973C13.6298 6.21252 13.4787 6.09499 13.1764 5.85991L8.65487 2.34315C8.42065 2.16099 8.30354 2.0699 8.17423 2.03489C8.06013 2.004 7.93987 2.004 7.82577 2.03489C7.69646 2.0699 7.57935 2.16099 7.34513 2.34315Z" stroke="#2EBDB6" stroke-width="1.5" stroke-linecap="round" stroke-linejoin="round"/>
</svg>
