<svg width="24" height="24" viewBox="0 0 24 24" fill="none" xmlns="http://www.w3.org/2000/svg">
<path d="M4.818 12C4.818 15.9654 8.034 19.1826 12 19.1826C15.9654 19.1826 19.1826 15.966 19.1826 12C19.1826 11.376 19.2 10.8 19.2 10.2H21V19.2C21 20.388 20.388 21 19.2 21H4.2C3.012 21 2.4 20.388 2.4 19.2V10.2H4.8C4.8 10.8 4.818 11.376 4.818 12ZM0 3.108V20.892C0 22.9134 1.086 24 3.108 24H20.892C22.9134 24 24 22.9134 24 20.892V3.108C24 1.0866 22.9134 0 20.892 0H3.108C1.086 0 0 1.0866 0 3.108ZM7.236 12C7.236 9.366 9.366 7.2366 12 7.2366C14.6346 7.2366 16.7634 9.3666 16.7634 12C16.7634 14.6346 14.634 16.7634 12 16.7634C9.366 16.7634 7.236 14.6346 7.236 12ZM17.4 3.9C17.4 3.402 17.802 3 18.3 3H20.1C20.598 3 21 3.402 21 3.9V5.7C21 6.198 20.598 6.6 20.1 6.6H18.3C17.802 6.6 17.4 6.198 17.4 5.7V3.9Z" fill="#151F32"/>
</svg>
