<svg width="36" height="36" viewBox="0 0 36 36" fill="none" xmlns="http://www.w3.org/2000/svg">
<circle cx="18" cy="18" r="18" fill="#EAF8F8"/>
<g clip-path="url(#clip0_8369_35509)">
<path fill-rule="evenodd" clip-rule="evenodd" d="M17.9993 10.668C15.5997 10.668 13.4693 11.8212 12.1325 13.6009C11.2118 14.8266 10.666 16.3512 10.666 18.0013C10.666 19.6514 11.2118 21.176 12.1325 22.4017C13.4693 24.1814 15.5997 25.3346 17.9993 25.3346C20.399 25.3346 22.5294 24.1814 23.8662 22.4017C24.7869 21.176 25.3327 19.6514 25.3327 18.0013C25.3327 16.3512 24.7869 14.8266 23.8662 13.6009C22.5294 11.8212 20.399 10.668 17.9993 10.668ZM13.267 14.613C13.4164 14.5992 13.5925 14.5833 13.789 14.5662C13.7344 15.3759 13.6866 16.331 13.6712 17.3346H12.0359C12.1456 16.3412 12.4976 15.4217 13.0317 14.6352C13.1 14.6287 13.1789 14.6212 13.267 14.613ZM13.0317 21.3674C12.4976 20.5809 12.1456 19.6614 12.0359 18.668H13.6712C13.6866 19.6716 13.7344 20.6267 13.789 21.4364C13.5925 21.4193 13.4164 21.4034 13.267 21.3896C13.1789 21.3814 13.1 21.3739 13.0317 21.3674ZM15.0047 18.668C15.0213 19.7177 15.0743 20.7156 15.1328 21.5429C15.849 21.5937 16.6275 21.6389 17.3327 21.6581V18.668H15.0047ZM15.2789 23.2452C15.283 23.2847 15.2868 23.3219 15.2904 23.3566C15.9161 23.6737 16.6048 23.8843 17.3327 23.9647V22.9919C16.6577 22.9743 15.9245 22.9337 15.2437 22.8872C15.2557 23.0143 15.267 23.1284 15.2772 23.2281C15.2778 23.2339 15.2783 23.2396 15.2789 23.2452ZM20.7083 23.3566C20.0826 23.6737 19.3939 23.8843 18.666 23.9647V22.9919C19.341 22.9743 20.0742 22.9337 20.755 22.8872C20.743 23.0143 20.7317 23.1284 20.7215 23.2281C20.7169 23.2741 20.7124 23.3169 20.7083 23.3566ZM20.8659 21.5429C20.1497 21.5937 19.3712 21.6389 18.666 21.6581V18.668H20.994C20.9774 19.7177 20.9244 20.7156 20.8659 21.5429ZM20.8659 14.4597C20.9244 15.287 20.9774 16.2849 20.994 17.3346H18.666V14.3445C19.3712 14.3637 20.1497 14.4089 20.8659 14.4597ZM20.755 13.1154C20.0742 13.0689 19.341 13.0283 18.666 13.0107V12.0379C19.3939 12.1183 20.0826 12.3289 20.7083 12.646C20.7124 12.6857 20.7169 12.7285 20.7215 12.7745C20.7317 12.8742 20.743 12.9883 20.755 13.1154ZM15.2437 13.1154C15.9245 13.0689 16.6577 13.0283 17.3327 13.0107V12.0379C16.6048 12.1183 15.9161 12.3289 15.2904 12.646C15.2863 12.6857 15.2818 12.7285 15.2772 12.7745C15.267 12.8742 15.2557 12.9883 15.2437 13.1154ZM17.3327 14.3445C16.6275 14.3637 15.849 14.4089 15.1328 14.4597C15.0743 15.287 15.0213 16.2849 15.0047 17.3346H17.3327V14.3445ZM22.7317 14.613C22.5823 14.5992 22.4062 14.5833 22.2097 14.5662C22.2643 15.3759 22.3121 16.331 22.3275 17.3346H23.9628C23.8531 16.3412 23.5011 15.4217 22.967 14.6352C22.8987 14.6287 22.8198 14.6212 22.7317 14.613ZM22.2097 21.4364C22.2643 20.6267 22.3121 19.6716 22.3275 18.668H23.9628C23.8531 19.6614 23.5011 20.5809 22.967 21.3674C22.8987 21.3739 22.8198 21.3814 22.7317 21.3896C22.5823 21.4034 22.4062 21.4193 22.2097 21.4364Z" fill="#2EBDB6"/>
</g>
<defs>
<clipPath id="clip0_8369_35509">
<rect width="16" height="16" fill="white" transform="translate(10 10)"/>
</clipPath>
</defs>
</svg>
