<svg width="17" height="16" viewBox="0 0 17 16" fill="none" xmlns="http://www.w3.org/2000/svg">
<g clip-path="url(#clip0_4731_74634)">
<path d="M8.49998 16C12.9183 16 16.5 12.4183 16.5 7.99998C16.5 3.58172 12.9183 0 8.49998 0C4.08172 0 0.5 3.58172 0.5 7.99998C0.5 12.4183 4.08172 16 8.49998 16Z" fill="#FFDA44"/>
<path d="M2.84335 13.6564C3.17895 13.992 3.53704 14.2913 3.91263 14.5547L15.0554 3.41197C14.7919 3.03634 14.4927 2.67828 14.157 2.34268C13.8214 2.00709 13.4634 1.70787 13.0878 1.44434L1.94507 12.5871C2.20851 12.9627 2.50776 13.3208 2.84335 13.6564Z" fill="black"/>
<path d="M2.84296 2.34374C0.319116 4.86759 -0.165416 8.658 1.38846 11.6687L12.1679 0.889297C9.1572 -0.664549 5.36672 -0.180017 2.84296 2.34374Z" fill="#6DA544"/>
<path d="M14.1569 13.657C16.6807 11.1332 17.1652 7.34276 15.6114 4.33203L4.83191 15.1115C7.8426 16.6653 11.633 16.1808 14.1569 13.657Z" fill="#D80027"/>
<path d="M5.58652 9.43869L6.33333 9.81922L6.92602 9.22656L6.79489 10.0543L7.54167 10.4349L6.71383 10.566L6.5827 11.3938L6.2022 10.647L5.37439 10.7782L5.96705 10.1855L5.58652 9.43869Z" fill="#F0F0F0"/>
<path d="M9.93735 5.08713L10.6841 5.46766L11.2768 4.875L11.1457 5.70278L11.8925 6.08334L11.0647 6.21447L10.9336 7.04228L10.553 6.2955L9.72522 6.4266L10.3179 5.83394L9.93735 5.08713Z" fill="#F0F0F0"/>
</g>
<defs>
<clipPath id="clip0_4731_74634">
<rect width="16" height="16" fill="white" transform="translate(0.5)"/>
</clipPath>
</defs>
</svg>
