<svg width="90" height="30" viewBox="0 0 90 30" fill="none" xmlns="http://www.w3.org/2000/svg">
<path d="M11.6044 23.6455C11.2094 22.5415 10.4168 21.787 9.50095 21.787H4.43494C4.43494 21.787 2.12346 21.7884 1.7795 19.208L0.644287 20.5697L0.917475 23.8069C0.917475 23.8069 1.46243 27.7518 4.43494 28.6662H9.50095C9.50095 28.6662 10.7466 28.2812 11.1755 27.6584C11.6044 27.0356 11.869 26.175 11.869 25.2252C11.869 24.6562 11.7728 24.1183 11.6044 23.6455Z" fill="url(#paint0_linear_6305_36714)"/>
<path d="M27.34 3.39776C27.2763 3.60442 27.2055 3.81957 27.1277 4.03755C27.1262 4.0418 27.1248 4.04604 27.1234 4.05029C26.4157 6.0348 25.0894 8.38025 22.7807 8.38025H8.06396C3.0291 8.38025 4.33842 12.8305 4.36814 12.9296C-0.247739 1.33398 8.06396 1.33398 8.06396 1.33398H26.2614C26.9337 1.43448 27.7377 1.85913 27.34 3.39776Z" fill="url(#paint1_linear_6305_36714)"/>
<path d="M19.7094 12.8638C19.1772 11.7328 18.1057 10.96 16.8699 10.96H9.54625H4.11081C4.11081 10.96 -2.59999 10.96 1.12697 22.5556C1.10291 22.4565 0.0455451 18.0062 4.11081 18.0062H9.54625H15.9909H16.8699C17.7518 18.0062 18.5515 17.6113 19.1305 16.9743C19.7094 16.336 20.0661 15.4555 20.0661 14.4831C20.0661 13.8999 19.9387 13.3493 19.7094 12.8638Z" fill="url(#paint2_linear_6305_36714)"/>
<path d="M41.0085 9.264C40.3125 9.264 39.3525 9.576 39.3525 10.896V12.192H44.0565V6.624H47.2485V24H44.0565V14.928H39.3525V24H36.1365V14.928H34.1685V12.192H36.1365V10.848C36.1365 8.184 37.8165 6.456 40.4325 6.456C41.1045 6.456 41.7525 6.576 42.0165 6.696V9.384C41.8485 9.336 41.5365 9.264 41.0085 9.264ZM53.8457 24H50.6537V12.192H53.8457V24ZM50.2697 8.328C50.2697 7.224 51.1577 6.336 52.2377 6.336C53.3417 6.336 54.2057 7.224 54.2057 8.328C54.2057 9.384 53.3417 10.272 52.2377 10.272C51.1577 10.272 50.2697 9.384 50.2697 8.328ZM62.5671 14.784C60.9351 14.784 59.5671 15.96 59.5671 18.096C59.5671 20.232 60.9591 21.432 62.5911 21.432C64.2231 21.432 65.0391 20.352 65.3031 19.44L68.1111 20.376C67.5831 22.344 65.7351 24.36 62.5911 24.36C59.1111 24.36 56.3751 21.72 56.3751 18.096C56.3751 14.448 59.0631 11.832 62.4951 11.832C65.7111 11.832 67.5351 13.824 68.0391 15.816L65.1831 16.776C64.8951 15.792 64.1511 14.784 62.5671 14.784ZM81.9064 12.192L77.1784 17.16L82.0024 24H78.0904L74.9704 19.488L73.6504 20.88V24H70.4584V6.624H73.6504V16.584L77.7304 12.192H81.9064ZM83.556 21.984C83.556 20.784 84.54 19.8 85.74 19.8C86.964 19.8 87.948 20.784 87.948 21.984C87.948 23.184 86.964 24.168 85.74 24.168C84.54 24.168 83.556 23.184 83.556 21.984Z" fill="#151F32"/>
<defs>
<linearGradient id="paint0_linear_6305_36714" x1="10.9557" y1="19.2014" x2="1.62299" y2="28.0955" gradientUnits="userSpaceOnUse">
<stop stop-color="#E21C23"/>
<stop offset="1" stop-color="#AE1E22"/>
</linearGradient>
<linearGradient id="paint1_linear_6305_36714" x1="2.97241" y1="9.7262" x2="14.8642" y2="-6.2795" gradientUnits="userSpaceOnUse">
<stop stop-color="#ED1A70"/>
<stop offset="1" stop-color="#F15D2F"/>
</linearGradient>
<linearGradient id="paint2_linear_6305_36714" x1="18.2042" y1="10.9236" x2="8.64148" y2="24.8149" gradientUnits="userSpaceOnUse">
<stop stop-color="#6AC28C"/>
<stop offset="1" stop-color="#38BDB1"/>
</linearGradient>
</defs>
</svg>
