<svg width="16" height="16" viewBox="0 0 16 16" fill="none" xmlns="http://www.w3.org/2000/svg">
<path d="M11.3337 7.33333V5.33333C11.3337 3.49238 9.84127 2 8.00033 2C6.15938 2 4.66699 3.49238 4.66699 5.33333V7.33333M5.86699 14H10.1337C11.2538 14 11.8138 14 12.2416 13.782C12.618 13.5903 12.9239 13.2843 13.1157 12.908C13.3337 12.4802 13.3337 11.9201 13.3337 10.8V10.5333C13.3337 9.41323 13.3337 8.85318 13.1157 8.42535C12.9239 8.04903 12.618 7.74307 12.2416 7.55132C11.8138 7.33333 11.2538 7.33333 10.1337 7.33333H5.86699C4.74689 7.33333 4.18683 7.33333 3.75901 7.55132C3.38269 7.74307 3.07673 8.04903 2.88498 8.42535C2.66699 8.85318 2.66699 9.41323 2.66699 10.5333V10.8C2.66699 11.9201 2.66699 12.4802 2.88498 12.908C3.07673 13.2843 3.38269 13.5903 3.75901 13.782C4.18683 14 4.74689 14 5.86699 14Z" stroke="black" stroke-width="1.5" stroke-linecap="round" stroke-linejoin="round"/>
</svg>
