<svg width="36" height="36" viewBox="0 0 36 36" fill="none" xmlns="http://www.w3.org/2000/svg">
<circle cx="18" cy="18" r="18" fill="#D25026"/>
<path d="M11.333 14.8387C11.333 12.4654 11.833 11.5987 13.6797 11.392C14.0263 11.3454 14.4063 11.332 14.8463 11.332H21.1597C21.593 11.332 21.9797 11.3454 22.3263 11.392C24.173 11.5987 24.673 12.4654 24.673 14.8387V19.052C24.673 21.4254 24.173 22.292 22.3263 22.4987C21.9797 22.5454 21.5997 22.5587 21.1597 22.5587H14.8463C14.413 22.5587 14.0263 22.5454 13.6797 22.4987C11.833 22.292 11.333 21.4254 11.333 19.052V17.3987" stroke="white" stroke-width="1.5" stroke-linecap="round" stroke-linejoin="round"/>
<path d="M19.0527 15.5469H21.5061" stroke="white" stroke-width="1.5" stroke-linecap="round" stroke-linejoin="round"/>
<path d="M14.4932 19.4062H14.5065H21.5132" stroke="white" stroke-width="1.5" stroke-linecap="round" stroke-linejoin="round"/>
<path d="M14.667 24.668H21.3337" stroke="white" stroke-width="1.5" stroke-linecap="round" stroke-linejoin="round"/>
<path d="M14.7965 15.5326H14.8025" stroke="white" stroke-width="2" stroke-linecap="round" stroke-linejoin="round"/>
<path d="M16.9967 15.5326H17.0027" stroke="white" stroke-width="2" stroke-linecap="round" stroke-linejoin="round"/>
</svg>
