<svg width="36" height="37" viewBox="0 0 36 37" fill="none" xmlns="http://www.w3.org/2000/svg">
<circle cx="18" cy="18.5" r="18" fill="#FDF5F3"/>
<path d="M13.36 26V21.06H12.2V19.58H13.36V18.14H12.2V16.66H13.36V11.72H16.5L18.06 16.66H19.88V11.72H22.1V16.66H23.24V18.14H22.1V19.58H23.24V21.06H22.1V26H18.94L17.34 21.06H15.58V26H13.36ZM15.58 19.58H16.9L16.46 18.14H15.54L15.58 19.58ZM19.94 22.88H20.04L19.96 21.06H19.42L19.94 22.88ZM15.5 16.66H16.06L15.48 14.74H15.4L15.5 16.66ZM19 19.58H19.92L19.88 18.14H18.54L19 19.58Z" fill="#F15D2F"/>
</svg>
