<svg width="36" height="36" viewBox="0 0 36 36" fill="none" xmlns="http://www.w3.org/2000/svg">
<circle cx="18" cy="18" r="18" fill="#EAF8F8"/>
<path d="M19.9993 25.1654H15.9993C13.0593 25.1654 12.166 24.272 12.166 21.332V14.6654C12.166 11.7254 13.0593 10.832 15.9993 10.832H19.9993C22.9393 10.832 23.8327 11.7254 23.8327 14.6654V21.332C23.8327 24.272 22.9393 25.1654 19.9993 25.1654ZM15.9993 11.832C13.6127 11.832 13.166 12.2854 13.166 14.6654V21.332C13.166 23.712 13.6127 24.1654 15.9993 24.1654H19.9993C22.386 24.1654 22.8327 23.712 22.8327 21.332V14.6654C22.8327 12.2854 22.386 11.832 19.9993 11.832H15.9993Z" fill="#2EBDB6"/>
<path d="M19.3327 14.168H16.666C16.3927 14.168 16.166 13.9413 16.166 13.668C16.166 13.3946 16.3927 13.168 16.666 13.168H19.3327C19.606 13.168 19.8327 13.3946 19.8327 13.668C19.8327 13.9413 19.606 14.168 19.3327 14.168Z" fill="#2EBDB6"/>
<path d="M18.0001 23.2385C17.1535 23.2385 16.4668 22.5519 16.4668 21.7052C16.4668 20.8585 17.1535 20.1719 18.0001 20.1719C18.8468 20.1719 19.5335 20.8585 19.5335 21.7052C19.5335 22.5519 18.8468 23.2385 18.0001 23.2385ZM18.0001 21.1652C17.7068 21.1652 17.4668 21.4052 17.4668 21.6985C17.4668 21.9919 17.7068 22.2319 18.0001 22.2319C18.2935 22.2319 18.5335 21.9919 18.5335 21.6985C18.5335 21.4052 18.2935 21.1652 18.0001 21.1652Z" fill="#2EBDB6"/>
</svg>
