<svg width="17" height="17" viewBox="0 0 17 17" fill="none" xmlns="http://www.w3.org/2000/svg">
<path d="M11.1663 9.09967V11.8997C11.1663 14.233 10.233 15.1663 7.89967 15.1663H5.09967C2.76634 15.1663 1.83301 14.233 1.83301 11.8997V9.09967C1.83301 6.76634 2.76634 5.83301 5.09967 5.83301H7.89967C10.233 5.83301 11.1663 6.76634 11.1663 9.09967Z" stroke="#98A2B3" stroke-width="1.5" stroke-linecap="round" stroke-linejoin="round"/>
<path d="M15.1663 5.09967V7.89967C15.1663 10.233 14.233 11.1663 11.8997 11.1663H11.1663V9.09967C11.1663 6.76634 10.233 5.83301 7.89967 5.83301H5.83301V5.09967C5.83301 2.76634 6.76634 1.83301 9.09967 1.83301H11.8997C14.233 1.83301 15.1663 2.76634 15.1663 5.09967Z" stroke="#98A2B3" stroke-width="1.5" stroke-linecap="round" stroke-linejoin="round"/>
</svg>
