<svg width="38" height="37" viewBox="0 0 38 37" fill="none" xmlns="http://www.w3.org/2000/svg">
<circle cx="18.5" cy="18.5" r="18" fill="white"/>
<path d="M13.86 26V21.06H12.7V19.58H13.86V18.14H12.7V16.66H13.86V11.72H17L18.56 16.66H20.38V11.72H22.6V16.66H23.74V18.14H22.6V19.58H23.74V21.06H22.6V26H19.44L17.84 21.06H16.08V26H13.86ZM16.08 19.58H17.4L16.96 18.14H16.04L16.08 19.58ZM20.44 22.88H20.54L20.46 21.06H19.92L20.44 22.88ZM16 16.66H16.56L15.98 14.74H15.9L16 16.66ZM19.5 19.58H20.42L20.38 18.14H19.04L19.5 19.58Z" fill="#2EBDB6"/>
</svg>
