<svg width="32" height="33" viewBox="0 0 32 33" fill="none" xmlns="http://www.w3.org/2000/svg">
<rect y="0.5" width="32" height="32" rx="8" fill="#F2F4F7"/>
<path d="M10.5785 16.8989L10.5785 16.8989L10.5815 16.8939C10.7116 16.6716 10.8216 16.3761 10.8987 16.0959C10.9757 15.8162 11.0333 15.5036 11.0333 15.2413V13.6913C11.0333 10.944 13.2664 8.71596 16.0173 8.70801C18.757 8.70838 20.9916 10.9422 20.9916 13.6913V15.2497C20.9916 15.5121 21.0493 15.8251 21.1278 16.1061C21.2061 16.3863 21.3188 16.6838 21.4555 16.9085C21.4558 16.909 21.4561 16.9095 21.4564 16.91L22.3951 18.4718C22.3953 18.4721 22.3956 18.4725 22.3958 18.4728C22.661 18.9199 22.7105 19.4443 22.532 19.9237C22.351 20.4011 21.9719 20.774 21.4742 20.9423C20.5981 21.2343 19.6997 21.4607 18.7956 21.606L18.7956 21.6059L18.7855 21.6077C18.69 21.6251 18.6204 21.6374 18.5547 21.6434L18.5361 21.6451L18.5178 21.6481C18.3834 21.6705 18.2469 21.6858 18.0947 21.7027L18.0947 21.7026L18.0824 21.7043C17.9133 21.7273 17.734 21.743 17.54 21.7599L17.54 21.7599L17.5351 21.7603C17.0348 21.8088 16.5259 21.833 16.0166 21.833C15.4988 21.833 14.9813 21.8087 14.4724 21.7603L14.4724 21.7602L14.4619 21.7594C14.2503 21.7437 14.0467 21.7202 13.8427 21.6888L13.8427 21.6887L13.8327 21.6874C13.7104 21.6711 13.5908 21.6551 13.4794 21.6393C13.4261 21.6299 13.3748 21.6229 13.3338 21.6173L13.33 21.6168C13.2824 21.6103 13.2475 21.6054 13.2144 21.5994L13.2144 21.5994L13.2093 21.5985C12.3056 21.4438 11.4223 21.2329 10.5498 20.942L10.5462 20.9408C10.0168 20.7688 9.62959 20.3915 9.46059 19.9346L9.4598 19.9324C9.29519 19.4935 9.34631 18.96 9.63803 18.4636L10.5785 16.8989ZM15.9916 15.9663C16.6178 15.9663 17.125 15.4592 17.125 14.833V12.2497C17.125 11.6235 16.6178 11.1163 15.9916 11.1163C15.3655 11.1163 14.8583 11.6235 14.8583 12.2497V14.833C14.8583 15.4592 15.3655 15.9663 15.9916 15.9663Z" fill="#4A5873" stroke="#4A5873"/>
<path d="M16 24.3337C15.4904 24.3337 14.9888 24.133 14.6299 23.7818C15.0854 23.8195 15.55 23.842 16.0167 23.842C16.4753 23.842 16.932 23.8195 17.3794 23.7819C17.0189 24.1241 16.5328 24.3337 16 24.3337Z" fill="#4A5873" stroke="#4A5873"/>
<circle cx="20.5" cy="9" r="2.75" fill="#ED1C24" stroke="white" stroke-width="0.5"/>
</svg>
