<svg width="17" height="16" viewBox="0 0 17 16" fill="none" xmlns="http://www.w3.org/2000/svg">
<g clip-path="url(#clip0_4731_74877)">
<path d="M8.5 16C12.9183 16 16.5 12.4183 16.5 8C16.5 3.58172 12.9183 0 8.5 0C4.08172 0 0.5 3.58172 0.5 8C0.5 12.4183 4.08172 16 8.5 16Z" fill="#F0F0F0"/>
<path d="M0.499756 8.00042C0.499756 11.4402 2.67076 14.3725 5.71716 15.5029V0.498047C2.67076 1.62836 0.499756 4.56073 0.499756 8.00042Z" fill="#6DA544"/>
<path d="M16.5 8.00042C16.5 4.56073 14.329 1.62836 11.2826 0.498047V15.5029C14.329 14.3725 16.5 11.4402 16.5 8.00042Z" fill="#6DA544"/>
</g>
<defs>
<clipPath id="clip0_4731_74877">
<rect width="16" height="16" fill="white" transform="translate(0.5)"/>
</clipPath>
</defs>
</svg>
