<svg width="235" height="205" viewBox="0 0 235 205" fill="none" xmlns="http://www.w3.org/2000/svg">
<path fill-rule="evenodd" clip-rule="evenodd" d="M164.654 149.407C165.336 144.827 158.052 138.44 155.01 135.257C148.996 128.962 142.647 123.027 136.376 117.024C130.104 111.022 123.812 105.029 117.941 98.5948C114.129 94.4178 109.623 89.6808 107.441 84.217C102.794 72.5736 122.37 77.2011 127.54 77.7554C140.691 79.1631 155.629 81.7345 168.724 78.0524C176.542 75.8542 180.31 70.7339 179.986 62.3785C179.885 59.6619 178.854 56.3953 180.517 54.0192C182.293 51.4813 185.652 50.3752 188.402 49.7096C198.43 47.2864 209.345 48.5026 219.402 49.5487C230.247 50.6666 241.087 52.4902 251.781 54.0891C256.315 54.7672 261.311 53.7757 265.841 53.0417C271.779 52.0799 277.685 50.8823 283.601 49.7558C296.613 47.2879 310.037 44.6454 323.265 45.5417C331.55 46.1027 340.344 48.4128 345.77 55.4253C348.495 58.9463 349.473 63.7089 350.702 67.995C352.193 73.1737 353.587 78.3856 355.233 83.5103C360.536 100.016 369.167 116.674 386.792 120.15C389.458 120.675 392.151 120.71 394.833 121.05C396.54 121.269 397.988 121.935 398.332 123.91C399.199 128.865 393.06 135.534 390.438 138.957C384.696 146.45 378.438 153.488 372.468 160.777C368.519 165.598 361.98 172.011 360.934 178.444C360.003 184.176 366.601 189.435 370.105 192.866C373.39 196.08 379.508 200.81 379.086 206.257C378.882 208.898 376.918 210.811 374.957 212.229C371.52 214.707 367.762 216.251 364.561 219.189C359.312 224.01 354.471 231.008 353.932 238.507C353.56 243.703 355.819 247.49 358.855 251.245C360.132 252.823 361.189 253.964 360.931 256.169C360.523 259.671 358.665 263.158 357.104 266.224C351.521 277.195 344.396 287.538 336.775 297.047C332.968 301.8 328.921 306.499 324.25 310.334C321.19 312.854 317.134 315.789 313.151 315.174C308.538 314.466 303.927 311.96 299.645 309.959C291.648 306.219 283.811 302.111 276.017 297.935C257.995 288.275 240.236 278.097 222.74 267.401C210.417 259.857 197.817 252.263 186.561 243.021C184.368 241.209 182.346 239.178 180.525 236.956C178.573 234.617 175.908 233.295 173.17 232.194C156.172 225.363 136.37 225.566 118.361 224.835C113.79 224.648 109.219 224.464 104.659 224.125C100.738 223.834 95.9668 223.991 92.4019 222.108C85.3772 218.399 93.3164 209.924 96.6507 206.486C108.39 194.38 122.61 184.796 135.956 174.832C142.303 170.086 148.689 165.36 154.786 160.252C157.96 157.596 164.056 153.422 164.654 149.407Z" stroke="#F15D2F" stroke-width="0.44875"/>
<path fill-rule="evenodd" clip-rule="evenodd" d="M168.099 149.146C165.883 143.848 161.241 139.472 157.449 135.442C151.992 129.64 146.298 124.078 140.721 118.398C135.448 113.027 130.169 107.604 125.429 101.697C122.539 98.0942 118.884 93.7559 117.991 88.9469C116.053 78.523 134.418 82.8779 139.048 83.3236C150.558 84.4346 163.519 86.2736 174.877 82.6851C181.969 80.444 185.505 75.4654 185.248 67.7605C185.16 65.0948 184.624 62.7482 186.128 60.3406C187.868 57.554 191.102 56.1467 194.007 55.2487C203.107 52.4349 213.251 53.0973 222.542 53.779C232.141 54.4832 242.103 55.47 251.197 57.4284C254.834 58.2105 259.249 57.6167 263.028 57.2215C268.842 56.6117 274.634 55.7675 280.437 55.0466C292.23 53.5791 304.299 52.274 316.111 53.7276C324.639 54.7769 333.278 57.5095 339.525 63.905C345.856 70.3898 347.75 79.2268 350.501 87.7734C355.249 102.548 361.947 120.654 377.36 125.987C379.697 126.796 382.045 126.912 384.431 127.389C385.657 127.633 387.037 128.022 387.466 129.403C388.581 132.989 383.188 138.403 381.296 140.728C376.069 147.153 370.38 153.153 364.974 159.412C360.682 164.381 355.373 169.819 353.038 176.132C350.206 183.793 359.919 191.044 362.784 197.184C367.75 207.831 354.688 211.459 347.958 215.139C340.23 219.364 333.041 228.131 337.986 237.262C339.878 240.753 342.51 243.065 342.943 247.309C343.62 253.946 341.248 261.048 338.936 267.152C335.455 276.326 330.81 285.217 325.138 293.121C321.075 298.779 314.42 307.608 306.949 305.723C301.918 304.458 296.999 301.901 292.268 299.583C285.183 296.112 278.242 292.331 271.357 288.453C255.458 279.517 239.846 269.96 224.669 259.753C214.313 252.787 186.473 226.542 184.248 225.417C177.613 222.063 169.61 221.246 162.354 220.494C152.702 219.494 142.984 219.248 133.287 218.914C128.672 218.751 124.015 218.705 119.417 218.268C116.145 217.957 111.86 217.463 109.324 215.038C104.374 210.305 111.916 202.373 115.048 199.008C124.643 188.691 136.077 180.236 146.927 171.462C152.251 167.154 157.645 162.864 162.611 158.09C164.614 156.162 169.469 152.418 168.099 149.146Z" stroke="#F15D2F" stroke-width="0.44875"/>
<path fill-rule="evenodd" clip-rule="evenodd" d="M172.574 147.29C165.98 136.358 155.933 127.438 147.549 117.866C143.341 113.061 139.12 108.14 135.696 102.66C133.915 99.81 131.696 96.2115 131.817 92.6387C132.142 83.0811 148.706 86.9225 153.777 87.336C163.582 88.1331 174.619 89.2902 184.152 85.8506C189.977 83.7475 193.362 79.3478 193.327 72.8769C193.312 70.0058 192.984 67.5185 194.545 64.9413C196.127 62.3304 198.833 60.7322 201.494 59.6311C209.142 56.4635 218.045 56.442 226.077 56.6407C235.499 56.8822 244.88 57.8517 254.145 59.5413C262.26 61.0176 270.759 59.7252 278.973 59.2742C289.854 58.6778 300.883 58.3911 311.625 60.3389C320.108 61.8786 328.414 65.0208 334.953 70.9871C341.595 77.061 344.91 85.1349 347.698 93.7263C351.911 106.714 356.989 124.031 369.59 130.651C371.422 131.616 373.214 131.966 375.192 132.388C376.153 132.593 377.402 132.802 377.719 133.943C378.481 136.688 373.441 141.01 371.982 142.562C367.323 147.516 362.382 152.171 357.639 157.037C353.212 161.58 348.426 166.288 345.244 171.92C340.18 180.889 350.844 188.225 349.128 197.249C348.063 202.852 342.329 206.107 337.85 208.28C332.337 210.952 324.811 212.109 321.354 217.998C318.778 222.384 321.277 225.55 322.979 229.439C325.864 236.029 324.874 244.21 323.411 251.101C321.435 260.414 317.885 269.627 313.008 277.717C310.798 281.384 308.201 285.153 304.832 287.748C301.675 290.18 298.989 290.515 295.444 289.374C284.593 285.878 274.124 279.169 264.139 273.08C251.592 265.427 239.32 257.222 227.561 248.304C219.543 242.223 211.37 235.836 204.699 228.11C202.96 226.096 201.196 223.927 200.078 221.451C199.232 219.589 198.977 218.119 197.261 216.867C192.176 213.156 184.376 212.726 178.41 212.115C168.872 211.136 159.259 210.951 149.677 210.643C144.085 210.468 133.422 210.98 129.811 205.272C126.694 200.343 132.398 193.63 135.318 190.158C142.704 181.376 151.598 174.04 159.982 166.366C163.825 162.85 167.799 159.322 171.149 155.271C172.004 154.238 173.326 152.899 173.725 151.546C174.178 149.995 173.383 148.637 172.574 147.29Z" stroke="#F15D2F" stroke-width="0.44875"/>
<path fill-rule="evenodd" clip-rule="evenodd" d="M172.922 149.653C166.77 139.938 158.855 131.517 152.069 122.267C149.026 118.12 145.975 113.791 143.91 108.984C142.799 106.4 141.69 103.19 142.546 100.321C145.003 92.0854 158.671 94.9609 164.315 95.3227C172.701 95.8687 182.319 96.5984 190.332 93.1842C195.581 90.948 198.052 86.8349 198.026 81.0371C197.997 74.8178 200.821 70.7399 206.229 68.1028C213.009 64.8 221.01 64.2576 228.314 64.1208C237.112 63.9632 245.894 64.6424 254.551 66.1503C262.971 67.6175 271.382 67.38 279.921 67.6966C291.242 68.1176 302.82 69.2452 313.414 73.5697C322.637 77.3354 330.51 83.7222 335.793 92.5416C341.312 101.747 343.086 112.55 347.199 122.428C349.764 128.59 353.402 136.778 359.475 139.952C361.501 141.011 365.548 140.623 363.289 143.955C361.998 145.861 359.895 147.384 358.194 148.843C355.446 151.2 352.632 153.471 349.851 155.785C343.922 160.718 337.617 165.718 332.792 171.897C326.715 179.675 332.802 187.314 330.613 195.811C329.436 200.383 325.807 203.62 322.122 206.035C319.738 207.599 317.196 208.881 314.622 210.046C311.933 211.263 308.855 212.032 306.408 213.763C302.921 216.226 303.708 219.895 303.696 223.769C303.677 230.578 302.86 237.371 301.263 243.995C299.307 252.115 296.382 260.327 291.808 267.277C290.029 269.983 287.867 272.809 285.06 274.375C282.254 275.942 279.681 275.41 276.898 274.382C268.643 271.338 260.759 265.992 253.263 260.922C243.881 254.576 234.785 247.696 226.248 240.148C220.356 234.937 214.493 229.385 209.899 222.841C208.563 220.937 207.322 218.927 206.403 216.754C205.771 215.264 205.59 213.439 204.53 212.229C201.21 208.45 193.415 208.23 188.919 207.73C179.946 206.732 170.9 207.144 161.93 206.205C157.034 205.692 149.332 205.112 146.433 200.198C143.706 195.578 147.739 189.58 150.352 185.934C155.487 178.762 161.847 172.647 167.704 166.148C170.112 163.473 172.729 160.689 174.515 157.486C176.103 154.632 174.499 152.144 172.922 149.653Z" stroke="#F15D2F" stroke-width="0.44875"/>
<path fill-rule="evenodd" clip-rule="evenodd" d="M174.738 150.075C169.951 141.622 163.813 133.829 159.003 125.246C156.187 120.22 151.31 111.749 154.992 105.838C159.032 99.3415 169.424 100.743 175.501 101.102C182.733 101.529 191.246 101.903 198.014 98.4986C200.155 97.4224 202.077 95.8581 203.141 93.5724C204.281 91.1261 203.809 88.7603 204.096 86.1805C204.699 80.7688 208.404 76.9185 212.886 74.5716C219.22 71.2531 226.64 70.3633 233.573 70.0131C241.428 69.6234 249.287 70.0432 257.039 71.2664C264.448 72.4309 271.809 73.3832 279.261 74.322C289.006 75.5447 298.782 77.4859 307.778 81.6502C316.64 85.7542 324.3 92.0724 329.789 100.479C335.143 108.682 338.149 118.166 340.589 127.73C341.973 133.159 344.464 141.336 349.236 144.703C351.358 146.202 353.625 146.469 350.725 149.074C347.072 152.353 342.464 154.727 338.407 157.389C332.556 161.231 326.562 165.143 321.402 169.987C318.107 173.08 316.355 176.303 315.846 180.884C315.461 184.374 315.599 187.908 314.728 191.337C312.687 199.387 305.727 204.054 299.534 208.444C295.551 211.267 291.99 213.34 289.472 217.84C286.494 223.157 284.665 229.159 282.355 234.8C279.817 240.995 277 247.411 272.746 252.557C268.96 257.139 264.949 258.839 259.674 256.638C251.446 253.208 243.817 246.696 236.965 240.704C229.991 234.608 223.243 227.92 217.875 220.187C214.977 216.012 213.274 211.37 210.804 206.982C207.697 201.474 198.674 201.995 193.417 201.614C184.692 200.982 156.776 201.989 161.849 185.629C163.966 178.801 169.069 172.982 173.024 167.277C174.664 164.909 176.94 162.114 177.672 159.224C178.47 156.077 176.176 152.62 174.738 150.075Z" stroke="#F15D2F" stroke-width="0.44875"/>
<path fill-rule="evenodd" clip-rule="evenodd" d="M177.777 151.197C174.284 143.666 169.839 136.376 167.075 128.397C165.28 123.23 163.777 116.462 167.815 111.905C172.372 106.763 180.693 106.678 186.769 106.866C193.029 107.061 200.462 107.557 206.148 104C207.958 102.867 209.56 101.21 210.147 99.0218C210.711 96.923 210.371 94.6855 210.926 92.5457C212.171 87.7404 215.593 84.1489 219.658 81.787C231.681 74.7992 247.898 75.3241 260.841 77.0797C267.319 77.9592 273.878 79.5682 280.316 80.9879C288.67 82.83 296.941 85.3013 304.554 89.3667C320.741 98.0083 330.162 113.11 335.623 130.941C337.342 136.553 338.403 142.503 341.709 147.309C343.413 149.79 342.729 151.279 340.343 152.937C336.614 155.528 332.281 157.281 328.272 159.305C322.57 162.185 316.75 165.103 311.531 168.799C307.934 171.348 305.262 173.925 303.89 178.364C302.911 181.528 302.517 184.846 301.728 188.06C300.227 194.166 297.396 200.02 293.267 204.642C289.988 208.304 286.26 211.518 282.452 214.544C277.501 218.484 273.193 222.598 269.132 227.553C263.75 234.111 255.7 246.495 246.171 241.428C235.66 235.838 226.765 224.367 221.108 213.707C219.208 210.127 217.848 205.887 214.984 203.023C210.696 198.741 205.774 198.113 200.025 197.245C191.418 195.945 172.394 195.043 174.279 181.411C175.026 176.01 178.018 171.255 179.872 166.234C181.956 160.613 180.165 156.33 177.777 151.197Z" stroke="#F15D2F" stroke-width="0.44875"/>
<path fill-rule="evenodd" clip-rule="evenodd" d="M181.067 152.326C177.941 142.73 170.113 126.549 179.295 117.821C184.146 113.208 191.607 112.34 197.792 112.089C202.771 111.883 208.654 112.421 212.922 108.963C216.06 106.42 215.528 101.936 217.124 98.395C219.104 94.005 222.61 90.7021 226.642 88.4343C237.911 82.0958 252.269 81.8235 264.449 83.1659C277.098 84.5613 290.563 89.1815 301.652 95.7958C315.479 104.045 324.787 117.075 330.309 132.614C331.328 135.483 332.206 138.401 333.163 141.292C333.806 143.232 334.903 145.182 335.337 147.185C336.06 150.525 334.242 152.886 331.647 154.593C327.915 157.05 323.564 158.539 319.485 160.187C313.908 162.443 308.224 164.626 302.922 167.464C299.359 169.374 295.618 171.446 293.835 175.435C292.619 178.156 291.995 181.139 291.572 184.085C290.664 190.402 289.568 195.454 285.891 200.803C279.844 209.582 271.475 217.026 262.927 222.977C256.219 227.647 245.629 234.876 237.671 229.844C230.531 225.336 227.279 216.669 223.228 209.444C221.258 205.931 218.944 202.644 216.051 199.917C212.403 196.478 208.744 194.709 203.982 193.507C195.967 191.484 183.733 189.4 182.798 178.72C182.453 174.778 183.587 170.924 183.69 167.001C183.835 161.815 182.644 157.166 181.067 152.326Z" stroke="#F15D2F" stroke-width="0.44875"/>
<path fill-rule="evenodd" clip-rule="evenodd" d="M185.688 153.372C183.984 143.136 181.667 130.209 190.723 122.734C195.11 119.113 200.734 117.575 206.098 116.604C209.94 115.908 215.791 116.427 218.621 112.909C220.701 110.319 221.53 106.433 223.484 103.616C226.169 99.743 229.793 96.7696 233.837 94.6275C244.374 89.045 257.109 88.2174 268.462 89.1632C293.129 91.2205 315.9 108.482 325.565 132.615C328.447 139.809 332.397 147.601 325.069 153.374C317.069 159.671 306.19 161.527 297.187 165.492C293.748 167.005 289.387 168.79 287.084 172.133C285.699 174.142 285.209 176.855 284.795 179.237C283.734 185.304 282.415 190.703 279.224 196.026C274.295 204.253 267.34 211.473 259.849 217.111C253.317 222.028 244.223 227.589 236.664 222.162C230.87 217.993 227.927 210.581 223.812 204.818C219.234 198.401 213.089 193.608 205.99 190.636C199.082 187.751 191.391 185.339 188.769 177.181C187.87 174.383 187.03 170.809 186.985 167.857C186.928 162.994 186.494 158.149 185.688 153.372Z" stroke="#F15D2F" stroke-width="0.44875"/>
<path fill-rule="evenodd" clip-rule="evenodd" d="M190.886 154.24C190.917 144.173 192.327 133.886 200.394 127.186C204.159 124.06 208.61 122.112 213.07 120.413C216.351 119.162 219.69 118.195 222.375 115.731C224.863 113.451 226.914 110.674 229.34 108.314C232.543 105.185 236.196 102.611 240.158 100.691C250.087 95.8915 261.457 94.6787 272.063 95.2806C277.198 95.57 282.726 96.1588 287.548 98.2582C292.205 100.284 296.693 103.047 300.794 106.094C309.511 112.568 316.606 121.177 321.141 131.381C324.25 138.38 325.51 144.915 319.225 150.567C312.139 156.937 302.167 159.521 293.729 163.067C287.943 165.498 281.527 167.768 279.481 174.508C277.853 179.872 276.415 184.979 273.584 189.851C269.381 197.032 263.864 203.275 257.36 208.209C251.415 212.701 244.232 216.185 237.32 212.237C231.844 209.106 228.099 203.399 223.565 199.033C218.514 194.16 212.628 190.997 206.345 188.216C200.7 185.71 195.53 182.397 192.525 176.588C191.909 175.4 191.269 174.112 190.852 172.825C190.319 171.184 190.61 169.682 190.722 167.95C191.022 163.382 190.872 158.797 190.886 154.24Z" stroke="#F15D2F" stroke-width="0.44875"/>
<path fill-rule="evenodd" clip-rule="evenodd" d="M196.753 154.318C198.314 144.99 201.801 136.483 208.754 130.094C211.727 127.361 215.1 125.251 218.283 122.817C220.846 120.854 223.264 119.036 226.096 117.529C232.814 113.963 238.606 108.902 245.627 105.885C255 101.851 265.25 100.398 275.152 100.709C279.987 100.859 284.922 101.41 289.624 102.8C293.662 103.993 297.311 106.565 300.666 109.14C307.243 114.183 313.357 120.855 316.932 128.657C324.815 145.858 302.802 154.107 291.378 159.162C286.123 161.488 278.269 163.91 275.379 169.67C273.313 173.785 271.784 178.058 269.335 181.977C262.759 192.503 250.887 204.248 238.047 200.471C232.552 198.856 227.909 195.008 222.988 192.149C217.92 189.203 212.535 187.169 207.129 185.013C202.076 182.999 198.165 180.637 195.49 175.501C194.211 173.049 194.759 170.432 195.03 167.705C195.477 163.227 196.017 158.737 196.753 154.318Z" stroke="#F15D2F" stroke-width="0.44875"/>
<path fill-rule="evenodd" clip-rule="evenodd" d="M202.167 153.923C206.439 140.138 216.625 125.936 229.385 119.507C244.395 111.945 260.299 106.079 276.822 106.227C284.483 106.295 292.775 107.023 299.304 111.646C304.274 115.163 309.908 120.144 312.002 126.255C317.125 141.203 299.316 149.743 289.15 154.734C283.677 157.421 276.868 159.813 272.369 164.273C269.76 166.859 268.064 170.548 265.826 173.485C259.046 182.384 249.136 188.879 238.075 188.615C232.96 188.493 228.031 186.917 223.152 185.517C218.157 184.084 213.053 182.938 208.129 181.253C204.199 179.907 199.624 177.947 198.836 173.155C197.841 167.116 200.423 159.553 202.167 153.923Z" stroke="#F15D2F" stroke-width="0.44875"/>
<path fill-rule="evenodd" clip-rule="evenodd" d="M207.643 152.444C212.751 139.651 221.242 127.71 233.392 121.47C239.836 118.161 247.013 116.295 253.915 114.423C261.74 112.302 269.781 110.957 277.79 110.908C287.763 110.845 303.744 111.861 307.033 124.344C310.298 136.735 295.965 145.057 287.523 149.758C282.111 152.769 276.407 155.42 271.157 158.813C268.31 160.653 265.985 162.927 263.465 165.211C256.495 171.54 247.263 175.98 238.28 177.728C229.572 179.423 219.162 179.167 210.601 176.851C206.907 175.854 204.438 174.022 203.92 169.813C203.206 163.962 205.532 157.728 207.643 152.444Z" stroke="#F15D2F" stroke-width="0.44875"/>
<path fill-rule="evenodd" clip-rule="evenodd" d="M213.287 149.653C218.132 138.443 226.351 128.786 237.028 123.25C248.996 117.044 263.525 114.804 276.603 114.539C283.555 114.398 298.718 113.453 300.764 123.134C302.81 132.815 291.45 140.302 284.946 144.386C277.054 149.332 268.649 153.988 260.315 158.234C253.075 161.927 245.381 165.658 237.762 168.198C233.463 169.643 229.056 170.685 224.593 171.312C221.289 171.768 217.057 172.556 213.852 171.347C205.77 168.295 210.971 155.013 213.287 149.653Z" stroke="#F15D2F" stroke-width="0.44875"/>
<path fill-rule="evenodd" clip-rule="evenodd" d="M220.114 147.121C230.2 126.063 253.081 118.456 274.088 117.805C278.97 117.654 292.761 116.528 294.379 123.682C295.946 130.618 286.579 137.121 282.187 140.209C268.577 149.778 252.626 155.973 237.456 162.208C232.72 164.154 224.033 168.62 219.057 165.181C213.656 161.442 218.024 151.488 220.114 147.121Z" stroke="#F15D2F" stroke-width="0.44875"/>
<path fill-rule="evenodd" clip-rule="evenodd" d="M227.625 143.923C235.945 128.552 254.313 121.823 270.356 121.137C274.286 120.97 284.332 120.114 286.524 125.096C288.553 129.705 281.24 134.81 278.482 136.861C272.342 141.429 265.365 144.897 258.489 148.205C252.132 151.266 245.697 154.416 239.133 156.823C235.676 158.089 229.122 160.918 225.916 157.651C222.463 154.136 225.778 147.336 227.625 143.923Z" stroke="#F15D2F" stroke-width="0.44875"/>
<path fill-rule="evenodd" clip-rule="evenodd" d="M235.913 140.331C241.981 130.39 254.926 125.317 265.763 124.635C268.679 124.452 275.022 123.792 276.967 126.994C278.757 129.942 274.638 133.23 272.799 134.758C264.65 141.532 253.403 146.973 243.422 149.844C240.913 150.566 236.375 152.042 234.299 149.489C232.171 146.868 234.519 142.613 235.913 140.331Z" stroke="#F15D2F" stroke-width="0.44875"/>
<path fill-rule="evenodd" clip-rule="evenodd" d="M36.2065 142.505C37.6454 132.06 34.0598 120.425 38.2809 110.206C41.7473 101.812 52.5728 102.728 59.6064 99.7641C65.1956 97.4093 68.9475 92.2941 72.5283 87.3833C75.7451 82.9748 78.7314 78.3835 82.0688 74.074C84.2285 71.2884 88.0524 65.7543 91.7392 66.2096C95.2688 66.6449 97.7754 71.7994 99.3936 74.8673C101.504 78.8664 103.275 83.0566 105.299 87.1012C108.71 93.923 113.236 99.2796 118.557 104.509C124.612 110.458 130.806 116.258 137.138 121.907C141.798 126.077 146.497 130.226 150.906 134.698C153.671 137.504 159.891 142.927 159.265 147.221C158.966 149.27 156.78 151.255 155.29 152.701C152.768 155.148 149.99 157.314 147.213 159.423C142.04 163.353 136.71 167.044 131.422 170.796C124.559 175.666 117.978 180.482 111.717 186.245C105.243 192.212 98.9762 198.439 92.6186 204.555C88.3127 208.698 83.922 213.419 78.3081 215.505C71.2778 218.111 66.5433 213.499 59.999 212.45C54.3695 211.546 56.9002 197.828 56.7722 193.886C56.6489 189.897 55.6193 186.044 55.6022 182.061C55.5817 177.09 56.3336 172.123 56.8983 167.189C57.5906 161.154 58.3763 155.428 52.6513 152.207C49.3928 150.377 45.6939 149.529 42.2341 148.201C39.9929 147.34 35.7518 145.805 36.2065 142.505Z" stroke="#F15D2F" stroke-width="0.44875"/>
<path fill-rule="evenodd" clip-rule="evenodd" d="M39.2615 141.076C40.0113 132.251 38.2373 120.536 42.9212 112.026C46.9232 104.754 55.894 105.108 62.4526 101.972C67.8664 99.3856 70.8867 94.2575 74.1605 89.2667C76.7869 85.2631 79.3601 81.209 82.231 77.3838C84.3468 74.5648 87.6534 69.7649 91.1699 69.654C94.3313 69.5542 96.925 74.6378 98.2929 77.2314C100.288 81.0176 101.874 85.0403 103.543 88.9964C106.476 95.9458 109.6 102.27 114.603 107.812C119.628 113.378 125.374 117.845 131.166 122.465C135.697 126.08 140.189 129.774 144.404 133.791C147.545 136.783 152.119 140.697 153.057 145.316C153.8 148.97 146.459 153.718 144.243 155.451C139.683 159.015 134.928 162.287 130.168 165.534C124.367 169.49 118.495 172.828 113.184 177.541C103.686 185.968 95.1407 196.966 83.7252 202.561C76.84 205.936 69.7474 205.98 62.9279 204.271C60.2275 203.594 60.1963 199.411 60.2164 196.977C60.2492 192.933 60.7946 188.899 60.9627 184.86C61.1196 181.078 60.7434 177.405 60.5629 173.646C60.381 169.838 60.7518 166.021 60.7711 162.217C60.784 159.856 60.8586 157.118 59.6496 155.032C58.3989 152.873 55.9724 151.677 53.8376 150.723C49.8267 148.943 38.7329 147.305 39.2615 141.076Z" stroke="#F15D2F" stroke-width="0.44875"/>
<path fill-rule="evenodd" clip-rule="evenodd" d="M43.3883 137.967C43.6254 129.797 43.7672 119.597 48.9481 112.832C53.1831 107.299 60.4384 107.079 66.0816 103.917C70.7753 101.288 73.1573 96.3256 75.9802 91.8078C78.2963 88.1023 80.6239 84.3808 83.2725 80.9229C85.2812 78.3004 87.8993 74.7286 91.1683 74.2079C93.9632 73.7632 96.3858 78.0486 97.5706 80.1784C99.5874 83.8077 101.08 87.7564 102.566 91.655C104.996 98.0342 107.099 104.773 111.107 110.273C115.003 115.612 120.055 119.186 125.158 123.115C129.066 126.126 132.934 129.223 136.526 132.649C139.285 135.278 142.721 138.42 143.78 142.253C144.698 145.559 140.562 148.671 138.442 150.579C134.94 153.727 131.161 156.528 127.425 159.35C123.393 162.393 119.029 165.102 115.096 168.251C106.825 174.878 99.8522 182.551 90.2105 187.121C83.966 190.082 75.8201 192.392 69.2291 190.74C64.4893 189.551 66.5295 178.368 66.6184 174.708C66.7597 168.724 66.2391 162.333 64.7389 156.571C63.449 151.632 58.9136 149.474 54.6994 147.764C52.0597 146.691 49.2423 145.898 46.747 144.484C43.8587 142.844 43.2889 141.392 43.3883 137.967Z" stroke="#F15D2F" stroke-width="0.44875"/>
<path fill-rule="evenodd" clip-rule="evenodd" d="M47.2912 134.719C47.74 127.85 49.1033 119.855 53.8346 114.579C57.9806 109.958 64.1665 109.524 69.0394 106.13C72.8423 103.483 74.9355 98.536 77.3608 94.6355C80.3253 89.8662 84.8283 80.9083 90.6252 79.8321C96.0175 78.832 99.6195 91.06 100.951 94.7457C103.058 100.579 104.605 106.86 107.4 112.377C109.807 117.128 113.549 120.124 117.516 123.335C122.572 127.435 130.416 132.581 132.414 139.366C133.905 144.422 125.629 150.328 122.669 153.218C119.574 156.237 117.017 159.986 113.858 162.872C108.873 167.425 101.446 170.568 95.3535 172.901C89.4305 175.17 81.8303 177.522 75.6833 176.369C71.6431 175.613 71.8862 168.876 71.516 165.51C70.9801 160.724 69.9618 156.352 66.8964 152.682C63.7762 148.947 59.7531 146.794 55.4834 144.796C53.291 143.775 50.753 142.852 48.9072 141.186C46.8643 139.368 47.1193 137.36 47.2912 134.719Z" stroke="#F15D2F" stroke-width="0.44875"/>
<path fill-rule="evenodd" clip-rule="evenodd" d="M51.9433 131.434C52.8749 125.583 55.1022 119.533 59.5577 115.593C63.2686 112.311 68.3664 111.806 71.9564 108.42C74.7998 105.74 76.6653 101.65 78.7988 98.3581C81.4094 94.3231 85.3222 87.1748 90.3909 86.4133C95.3373 85.674 98.2338 94.6534 99.5378 98.2307C101.447 103.476 102.806 108.933 104.74 114.168C106.255 118.275 108.444 121.108 111.482 124.072C115.048 127.552 120.15 131.584 121.562 136.653C122.578 140.323 118.002 145.234 116.182 148.05C114.961 149.942 113.812 151.877 113.017 154.008C112.398 155.668 112.119 157.249 110.862 158.563C107.697 161.867 101.929 161.476 97.8784 162.104C92.4991 162.936 86.7728 163.941 81.3495 163.469C78.0157 163.182 76.824 159.714 75.2868 157.168C73.4706 154.158 70.614 151.755 68.1709 149.319C64.9472 146.099 61.2485 143.837 57.4196 141.514C55.6925 140.466 53.6413 139.382 52.4457 137.642C51.1955 135.836 51.6076 133.546 51.9433 131.434Z" stroke="#F15D2F" stroke-width="0.44875"/>
<path fill-rule="evenodd" clip-rule="evenodd" d="M56.7333 128.611C58.1402 123.793 60.8938 119.404 64.8599 116.454C67.9007 114.188 71.6257 113.221 74.2297 110.338C76.6563 107.65 78.5492 104.461 80.665 101.514C82.9037 98.3987 86.3259 93.1424 90.434 92.8316C94.8614 92.4974 97.2803 98.7007 98.6192 102.139C100.311 106.483 101.402 111.045 102.828 115.49C103.908 118.805 105.456 121.923 107.42 124.74C109.478 127.707 112.427 130.7 113.122 134.453C113.736 137.776 111.096 141.278 110.242 144.422C109.329 147.781 109.458 151.475 106.857 154.08C101.492 159.452 90.5317 156.621 84.1475 155.774C77.8473 154.944 73.367 150.465 68.8262 146.161C65.8266 143.32 62.6334 140.813 59.5248 138.118C56.356 135.368 55.4952 132.852 56.7333 128.611Z" stroke="#F15D2F" stroke-width="0.44875"/>
<path fill-rule="evenodd" clip-rule="evenodd" d="M61.1198 126.403C64.1418 119.573 70.746 116.711 75.8782 111.987C80.0777 108.119 84.1205 99.3954 90.239 99.0984C97.1855 98.7617 99.3617 111.477 100.987 116.504C102.791 122.079 106.773 127 107.857 132.775C108.427 135.806 107.147 138.356 106.167 141.148C105.092 144.214 104.153 147.374 101.724 149.602C96.9445 153.986 89.1135 152.748 83.4487 152.02C77.5846 151.266 72.9423 147.046 68.8124 142.912C64.4315 138.533 58.0231 133.407 61.1198 126.403Z" stroke="#F15D2F" stroke-width="0.44875"/>
<path fill-rule="evenodd" clip-rule="evenodd" d="M64.6463 124.967C67.5984 120.223 72.7981 116.797 77.1013 113.47C80.6924 110.696 85.0229 104.668 89.8097 104.926C95.436 105.227 97.7232 112.724 99.2468 117.34C100.747 121.876 103.158 126.793 103.638 131.592C104.139 136.592 99.8448 142.563 96.1751 145.484C92.0823 148.74 86.1238 149.261 81.219 148.353C76.0828 147.407 71.8298 143.544 68.4213 139.691C64.7773 135.572 61.2147 130.472 64.6463 124.967Z" stroke="#F15D2F" stroke-width="0.44875"/>
<path fill-rule="evenodd" clip-rule="evenodd" d="M67.7899 124.471C70.5136 120.567 74.6598 117.547 78.4662 114.87C81.4038 112.803 85.8234 109.201 89.5327 109.665C93.6134 110.176 96.5182 114.215 97.5813 118.061C98.629 121.855 99.6239 126.562 99.2648 130.493C98.481 139.052 86.4844 146.932 78.6894 144.945C71.2987 143.06 62.3603 132.248 67.7899 124.471Z" stroke="#F15D2F" stroke-width="0.44875"/>
<path fill-rule="evenodd" clip-rule="evenodd" d="M70.6331 124.431C74.3409 119.369 82.5 112.593 88.9678 113.395C96.3917 114.317 96.9077 123.329 94.9735 129.506C93.0041 135.811 83.0485 143.847 76.4475 141.542C70.0048 139.292 66.2381 130.434 70.6331 124.431Z" stroke="#F15D2F" stroke-width="0.44875"/>
<path fill-rule="evenodd" clip-rule="evenodd" d="M73.6961 123.99C76.8274 119.756 82.8839 114.796 88.3065 115.45C94.7674 116.231 93.5152 123.581 91.3534 127.944C89.1065 132.473 81.1814 139.581 75.7489 137.433C70.4672 135.339 70.6952 128.048 73.6961 123.99Z" stroke="#F15D2F" stroke-width="0.44875"/>
<path fill-rule="evenodd" clip-rule="evenodd" d="M76.3264 123.851C78.4311 120.81 83.0737 117.271 86.9016 117.722C91.5799 118.276 89.7783 123.982 88.1429 126.618C86.1985 129.756 80.5127 134.853 76.6375 133.291C72.8221 131.753 74.5905 126.357 76.3264 123.851Z" stroke="#F15D2F" stroke-width="0.44875"/>
</svg>
