<svg width="16" height="17" viewBox="0 0 16 17" fill="none" xmlns="http://www.w3.org/2000/svg">
<path d="M9.92676 12.6467H4.06675C3.72009 12.6467 3.39341 12.6134 3.10008 12.5468C2.94674 12.5268 2.76009 12.4734 2.56675 12.4001C1.68009 12.0667 0.633423 11.2467 0.633423 9.20675V5.7734C0.633423 3.5934 1.88675 2.34009 4.06675 2.34009H9.92676C11.7668 2.34009 12.9534 3.22007 13.2734 4.82007C13.3334 5.1134 13.3601 5.42673 13.3601 5.7734V9.20675C13.3601 11.4001 12.1134 12.6467 9.92676 12.6467ZM4.0734 3.35343C2.4334 3.35343 1.64008 4.14674 1.64008 5.78674V9.22009C1.64008 10.4134 2.06008 11.1468 2.92008 11.4734C3.05342 11.5201 3.18009 11.5534 3.30009 11.5734C3.55342 11.6267 3.80007 11.6534 4.0734 11.6534H9.93341C11.5734 11.6534 12.3667 10.8601 12.3667 9.22009V5.78674C12.3667 5.50674 12.3468 5.26007 12.3001 5.03341C12.0734 3.90007 11.3001 3.35343 9.93341 3.35343H4.0734Z" fill="#667085"/>
<path d="M11.9268 14.6466H6.06677C5.5001 14.6466 4.99343 14.5666 4.56009 14.3999C3.58009 14.0332 2.94009 13.2599 2.72009 12.1532C2.68675 11.9866 2.7401 11.8132 2.8601 11.6999C2.9801 11.5799 3.15344 11.5332 3.3201 11.5732C3.5401 11.6199 3.78677 11.6466 4.06677 11.6466H9.92677C11.5668 11.6466 12.3601 10.8532 12.3601 9.21325V5.7799C12.3601 5.4999 12.3401 5.25323 12.2934 5.02656C12.2601 4.85989 12.3134 4.69323 12.4268 4.57323C12.5468 4.45323 12.7134 4.39989 12.8801 4.43989C14.4801 4.76656 15.3601 5.95323 15.3601 7.7799V11.2132C15.3601 13.3999 14.1134 14.6466 11.9268 14.6466ZM3.94677 12.6466C4.16011 13.0332 4.4801 13.3066 4.9201 13.4666C5.2401 13.5866 5.62675 13.6466 6.07342 13.6466H11.9334C13.5734 13.6466 14.3668 12.8532 14.3668 11.2132V7.7799C14.3668 6.72656 14.0401 6.02657 13.3668 5.6599C13.3668 5.6999 13.3668 5.7399 13.3668 5.7799V9.21325C13.3668 11.3932 12.1134 12.6466 9.93343 12.6466H4.07342C4.02675 12.6466 3.98677 12.6466 3.94677 12.6466Z" fill="#667085"/>
<path d="M6.99988 9.76001C5.75321 9.76001 4.73987 8.74667 4.73987 7.5C4.73987 6.25333 5.75321 5.23999 6.99988 5.23999C8.24655 5.23999 9.25989 6.25333 9.25989 7.5C9.25989 8.74667 8.24655 9.76001 6.99988 9.76001ZM6.99988 6.23999C6.30654 6.23999 5.73987 6.80667 5.73987 7.5C5.73987 8.19333 6.30654 8.76001 6.99988 8.76001C7.69321 8.76001 8.25989 8.19333 8.25989 7.5C8.25989 6.80667 7.69321 6.23999 6.99988 6.23999Z" fill="#667085"/>
<path d="M3.18689 9.4668C2.91356 9.4668 2.68689 9.24013 2.68689 8.9668V6.03345C2.68689 5.76011 2.91356 5.53345 3.18689 5.53345C3.46022 5.53345 3.68689 5.76011 3.68689 6.03345V8.9668C3.68689 9.24013 3.46689 9.4668 3.18689 9.4668Z" fill="#667085"/>
<path d="M10.8066 9.4668C10.5333 9.4668 10.3066 9.24013 10.3066 8.9668V6.03345C10.3066 5.76011 10.5333 5.53345 10.8066 5.53345C11.08 5.53345 11.3066 5.76011 11.3066 6.03345V8.9668C11.3066 9.24013 11.0866 9.4668 10.8066 9.4668Z" fill="#667085"/>
</svg>
