<svg width="16" height="17" viewBox="0 0 16 17" fill="none" xmlns="http://www.w3.org/2000/svg">
<path d="M9.92688 12.6465H4.06687C3.72021 12.6465 3.39353 12.6132 3.1002 12.5465C2.94687 12.5265 2.76021 12.4732 2.56687 12.3998C1.68021 12.0665 0.633545 11.2465 0.633545 9.2065V5.77315C0.633545 3.59315 1.88687 2.33984 4.06687 2.33984H9.92688C11.7669 2.33984 12.9535 3.21982 13.2735 4.81982C13.3335 5.11316 13.3602 5.42649 13.3602 5.77315V9.2065C13.3602 11.3998 12.1135 12.6465 9.92688 12.6465ZM4.07353 3.35319C2.43353 3.35319 1.6402 4.1465 1.6402 5.7865V9.21985C1.6402 10.4132 2.06021 11.1465 2.92021 11.4732C3.05354 11.5199 3.18021 11.5532 3.30021 11.5732C3.55354 11.6265 3.80019 11.6532 4.07353 11.6532H9.93353C11.5735 11.6532 12.3669 10.8598 12.3669 9.21985V5.7865C12.3669 5.5065 12.3469 5.25983 12.3002 5.03316C12.0735 3.89983 11.3002 3.35319 9.93353 3.35319H4.07353Z" fill="#2EBDB6"/>
<path d="M11.9267 14.6475H6.06665C5.49998 14.6475 4.99331 14.5675 4.55997 14.4009C3.57997 14.0342 2.93997 13.2609 2.71997 12.1542C2.68663 11.9875 2.73998 11.8142 2.85998 11.7009C2.97998 11.5809 3.15332 11.5342 3.31998 11.5742C3.53998 11.6209 3.78665 11.6475 4.06665 11.6475H9.92665C11.5667 11.6475 12.36 10.8542 12.36 9.21422V5.78087C12.36 5.50087 12.34 5.2542 12.2933 5.02754C12.26 4.86087 12.3133 4.69421 12.4267 4.57421C12.5467 4.45421 12.7133 4.40087 12.88 4.44087C14.48 4.76753 15.36 5.95421 15.36 7.78087V11.2142C15.36 13.4009 14.1133 14.6475 11.9267 14.6475ZM3.94665 12.6475C4.15998 13.0342 4.47998 13.3076 4.91998 13.4676C5.23998 13.5876 5.62663 13.6475 6.0733 13.6475H11.9333C13.5733 13.6475 14.3666 12.8542 14.3666 11.2142V7.78087C14.3666 6.72754 14.04 6.02754 13.3666 5.66088C13.3666 5.70088 13.3666 5.74087 13.3666 5.78087V9.21422C13.3666 11.3942 12.1133 12.6475 9.9333 12.6475H4.0733C4.02663 12.6475 3.98665 12.6475 3.94665 12.6475Z" fill="#2EBDB6"/>
<path d="M7 9.76025C5.75333 9.76025 4.73999 8.74691 4.73999 7.50024C4.73999 6.25358 5.75333 5.24023 7 5.24023C8.24667 5.24023 9.26001 6.25358 9.26001 7.50024C9.26001 8.74691 8.24667 9.76025 7 9.76025ZM7 6.24023C6.30667 6.24023 5.73999 6.80691 5.73999 7.50024C5.73999 8.19358 6.30667 8.76025 7 8.76025C7.69333 8.76025 8.26001 8.19358 8.26001 7.50024C8.26001 6.80691 7.69333 6.24023 7 6.24023Z" fill="#2EBDB6"/>
<path d="M3.18677 9.46655C2.91343 9.46655 2.68677 9.23989 2.68677 8.96655V6.0332C2.68677 5.75987 2.91343 5.5332 3.18677 5.5332C3.4601 5.5332 3.68677 5.75987 3.68677 6.0332V8.96655C3.68677 9.23989 3.46677 9.46655 3.18677 9.46655Z" fill="#2EBDB6"/>
<path d="M10.8066 9.46655C10.5333 9.46655 10.3066 9.23989 10.3066 8.96655V6.0332C10.3066 5.75987 10.5333 5.5332 10.8066 5.5332C11.08 5.5332 11.3066 5.75987 11.3066 6.0332V8.96655C11.3066 9.23989 11.0866 9.46655 10.8066 9.46655Z" fill="#2EBDB6"/>
</svg>
