<svg width="61" height="61" viewBox="0 0 61 61" fill="none" xmlns="http://www.w3.org/2000/svg">
<rect x="0.5" y="0.5" width="60" height="60" rx="30" fill="#259792" fill-opacity="0.08"/>
<path fill-rule="evenodd" clip-rule="evenodd" d="M27.5 22.7849C27.5 22.103 27.7709 21.4491 28.253 20.9669C28.7352 20.4847 29.3891 20.2139 30.071 20.2139H36.929C37.6109 20.2139 38.2648 20.4847 38.747 20.9669C39.2291 21.4491 39.5 22.103 39.5 22.7849V38.2139C39.5 38.5515 39.4335 38.8858 39.3043 39.1977C39.1751 39.5097 38.9857 39.7931 38.747 40.0318C38.5082 40.2706 38.2248 40.46 37.9129 40.5892C37.601 40.7184 37.2666 40.7849 36.929 40.7849H30.165C30.1337 40.7861 30.1023 40.7868 30.071 40.7869H24.071C23.3891 40.7869 22.7352 40.516 22.253 40.0338C21.7709 39.5517 21.5 38.8977 21.5 38.2159V31.3629C21.5 30.8869 21.886 30.5009 22.361 30.5009H23.643V29.2159C23.643 28.7294 23.7465 28.2486 23.9467 27.8052C24.1468 27.3619 24.439 26.9662 24.8038 26.6444C25.1686 26.3227 25.5976 26.0822 26.0625 25.939C26.5274 25.7958 27.0174 25.7532 27.5 25.8139V22.7849ZM29.214 26.5389C29.6152 26.86 29.939 27.2673 30.1616 27.7305C30.3842 28.1937 30.4999 28.701 30.5 29.2149V30.5009H31.781C32.257 30.5009 32.643 30.8869 32.643 31.3629V38.2159C32.643 38.5159 32.591 38.8029 32.497 39.0709H36.929C37.1563 39.0709 37.3743 38.9806 37.535 38.8199C37.6957 38.6591 37.786 38.4412 37.786 38.2139V22.7849C37.786 22.5576 37.6957 22.3396 37.535 22.1789C37.3743 22.0182 37.1563 21.9279 36.929 21.9279H35.099C35.1743 22.0581 35.214 22.206 35.2141 22.3565C35.2142 22.507 35.1746 22.6548 35.0994 22.7852C35.0242 22.9155 34.916 23.0238 34.7857 23.099C34.6553 23.1743 34.5075 23.2139 34.357 23.2139H32.643C32.4924 23.2141 32.3445 23.1746 32.214 23.0994C32.0835 23.0242 31.9752 22.916 31.8998 22.7856C31.8245 22.6552 31.7849 22.5073 31.7849 22.3567C31.7849 22.2061 31.8246 22.0582 31.9 21.9279H30.071C29.8437 21.9279 29.6257 22.0182 29.465 22.1789C29.3043 22.3396 29.214 22.5576 29.214 22.7849V26.5389ZM30.125 39.0709C30.3426 39.0574 30.5469 38.9614 30.6963 38.8026C30.8457 38.6437 30.9289 38.4339 30.929 38.2159V32.2159H23.214V38.2159C23.214 38.6889 23.598 39.0729 24.071 39.0729H29.214V39.0709H30.125ZM25.86 28.0029C26.0997 27.7627 26.4053 27.5992 26.7381 27.5329C27.0708 27.4666 27.4158 27.5005 27.7292 27.6304C28.0426 27.7603 28.3105 27.9803 28.4988 28.2626C28.6871 28.5448 28.7874 28.8766 28.787 29.2159V30.5009H25.357V29.2159C25.357 28.7609 25.538 28.3249 25.86 28.0029ZM26.215 34.3579H27.93V36.9299H26.214L26.215 34.3579Z" fill="#2EBDB6"/>
</svg>
