<svg width="16" height="16" viewBox="0 0 16 16" fill="none" xmlns="http://www.w3.org/2000/svg">
<path d="M9.62004 12.5467C9.49337 12.5467 9.3667 12.5001 9.2667 12.4001C9.07337 12.2067 9.07337 11.8867 9.2667 11.6934L12.96 8.00008L9.2667 4.30674C9.07337 4.11341 9.07337 3.79341 9.2667 3.60008C9.46004 3.40674 9.78004 3.40674 9.97337 3.60008L14.02 7.64674C14.2134 7.84008 14.2134 8.16008 14.02 8.35341L9.97337 12.4001C9.87337 12.5001 9.7467 12.5467 9.62004 12.5467Z" fill="#161C2C"/>
<path d="M13.5534 8.5H2.33337C2.06004 8.5 1.83337 8.27333 1.83337 8C1.83337 7.72667 2.06004 7.5 2.33337 7.5H13.5534C13.8267 7.5 14.0534 7.72667 14.0534 8C14.0534 8.27333 13.8267 8.5 13.5534 8.5Z" fill="#161C2C"/>
</svg>
