<svg width="83" height="79" viewBox="0 0 83 79" fill="none" xmlns="http://www.w3.org/2000/svg">
<path d="M6.0867 25.994C8.77424 38.138 10.8891 52.9983 14.2904 64.9622C22.9257 67.1211 28.4845 68.3132 35.6632 70.0355C41.6337 66.2476 47.504 63.1371 53.4742 59.3489C58.834 62.5641 62.2351 66.1093 67.183 69.9276C69.0201 70.2031 71.6432 70.0139 73.5552 69.6988C73.5654 69.7054 73.5757 69.7126 73.5859 69.719C73.7383 69.8172 73.9644 69.7815 74.0889 69.6542C74.1506 69.5914 74.178 69.5242 74.2712 69.3773C74.5061 68.8356 74.2767 68.0661 74.2491 67.507C73.6686 55.8864 73.792 45.0115 73.9669 33.4161C73.9705 33.1727 73.7724 33.0274 73.5519 33.0011C72.9421 32.9286 72.0048 32.1028 71.4473 31.786C66.161 28.7831 64.5295 28.0186 54.7698 22.1113C54.8603 22.0609 54.935 22.0136 55.0614 21.8695C62.1947 22.9429 69.1697 21.7701 76.4275 21.8346C76.5811 21.836 76.7009 21.8739 76.808 21.745C76.9333 21.5944 76.9648 21.3219 76.8044 21.1117C76.7684 20.9382 76.6406 20.7783 76.4198 20.7548C69.5255 20.0176 62.5677 20.1093 55.6952 21.0278C55.659 21.0328 55.6261 21.0419 55.5945 21.0536C56.2204 20.552 56.372 19.6138 56.4088 18.7857C56.5211 16.2667 56.3078 13.5401 55.3284 11.2106C55.2482 11.0194 55.0777 10.732 54.9079 10.5029C60.2445 10.1003 65.5449 10.4951 70.8162 11.4242C71.3388 11.516 71.5632 10.7162 71.037 10.6235C65.4785 9.64411 59.876 9.22966 54.2433 9.72489C54.1788 9.73043 54.1221 9.74813 54.0734 9.77414C53.8955 9.49969 53.6833 9.26507 53.4305 9.12176C51.8468 8.22619 51.6324 10.857 51.7389 12.0027C48.7584 12.1637 45.7684 12.4116 42.8745 13.1525C40.0968 13.8635 37.4076 14.9722 36.1778 17.6589C35.0141 17.2314 33.8123 17.1014 32.4954 17.3482C30.7734 16.9572 28.2195 18.176 27.1358 19.9494C25.914 21.948 25.6786 24.7819 26.1641 27.0736C26.6497 29.3652 27.7724 31.3857 29.1867 33.2535C30.157 34.535 30.9264 35.153 31.6153 35.6012C31.7592 35.6948 31.96 35.817 32.1896 35.9507C31.9821 36.102 31.7763 36.255 31.5683 36.4055C31.2262 36.6532 30.8835 36.9 30.5402 37.1459C30.4392 37.2184 29.7868 37.8315 29.7602 37.8331C29.4006 37.8561 28.2566 36.9536 27.9121 36.7519C19.8575 32.037 18.3079 30.1982 11.0271 25.4385C10.7502 25.2572 10.4171 25.4996 10.4027 25.7967C10.359 26.7023 10.7707 27.7456 10.9643 28.629C11.0529 29.0346 11.1442 29.4393 11.2335 29.8446L10.9441 28.8008C9.17423 28.1543 7.5307 27.2045 6.0867 25.994ZM54.4685 10.5372C54.471 10.5521 54.4727 10.5668 54.4754 10.5823C54.4699 10.5676 54.4635 10.5527 54.4577 10.538L54.4688 10.5372H54.4685ZM53.314 10.198C53.7279 10.3538 53.911 11.4491 54.0079 11.9429C53.8853 11.8787 53.929 11.892 52.5573 11.9604C52.4491 11.3774 52.2015 9.77912 53.314 10.198ZM44.5074 13.6328C47.5662 13.0203 50.6951 12.8789 53.8034 12.7298C53.9561 12.7226 54.0635 12.6482 54.1288 12.5472C54.5056 14.431 54.9707 17.943 54.8166 19.8644C54.7822 20.2897 54.8077 21.5704 54.02 21.0807C53.7389 20.9058 53.4675 19.8979 53.4446 19.6027C53.4028 19.0737 52.5725 19.0693 52.6146 19.6027C52.6555 20.1262 52.9394 21.0857 53.4047 21.6929C53.304 21.6667 53.1969 21.6814 53.107 21.7339C48.9819 24.0081 45.0192 26.5092 41.2026 29.262C41.2903 28.8348 41.3623 28.3977 41.4212 27.9517C43.0245 26.894 43.8426 24.4668 45.7657 22.9872C47.0265 22.0172 48.6165 21.7441 49.9849 20.9758C51.3405 20.215 52.412 19.0596 53.8194 18.3752C54.2995 18.1419 53.8792 17.4259 53.4003 17.6586C52.3708 18.1594 51.5356 18.8842 50.6215 19.5587C49.564 20.3384 48.404 20.7678 47.1972 21.258C45.2743 22.0385 43.9325 23.4135 42.7854 25.1139C42.2883 25.8512 40.2689 28.8113 39.5897 26.8293C39.2565 25.8579 39.9493 24.6917 40.5176 24.0131C40.6591 23.8448 40.8036 23.6792 40.9511 23.5162C41.0106 23.4799 41.0607 23.4285 41.0928 23.3612C42.1303 22.2261 43.2618 21.1487 43.9499 19.6594C44.0957 19.344 43.8393 19.056 43.582 19.0297C43.4782 18.9827 43.3537 18.9783 43.2245 19.0502C42.088 19.6824 40.7345 19.5075 39.6104 20.1306C38.8864 19.2649 38.0611 18.5436 36.9372 17.9856C38.2351 15.1061 41.6292 14.2091 44.5074 13.6328ZM40.9605 22.3132C40.7738 21.7917 40.4556 21.2558 40.1103 20.7744C40.8911 20.3334 41.8674 20.3193 42.7597 20.098C42.2492 20.9058 41.6151 21.6113 40.9603 22.3132H40.9605ZM24.7692 35.7457V36.141C24.7692 36.408 25.1842 36.4083 25.1842 36.141V35.9938C26.6215 36.8523 28.0615 37.7064 29.4628 38.6299C29.5768 38.7052 29.7683 38.7104 29.8817 38.6299C30.9218 37.8911 31.9564 37.1447 32.9856 36.3909C33.8311 36.8352 34.7685 37.2502 35.1846 37.2098L35.2136 37.2344C35.6203 37.5761 36.2102 36.9918 35.8007 36.6476C32.0701 33.5108 27.7146 29.4498 27.781 24.1257C27.8499 18.6322 33.9064 16.19 37.9952 19.6633C38.3892 20.0029 38.7559 20.3727 39.0922 20.7694C39.1243 20.8596 39.1918 20.9404 39.279 20.9963C39.7972 21.6476 40.2321 22.3868 40.2913 23.0331C39.7595 23.6077 39.1143 24.3041 38.8808 25.1358C38.5748 26.2258 38.5516 28.4414 40.1549 28.391C40.2833 28.3868 40.411 28.3704 40.5364 28.3423C39.9728 31.936 38.3267 34.8769 36.3468 37.9294C36.0552 38.379 36.7735 38.7954 37.0634 38.3483C38.7295 35.7797 40.1206 33.3129 40.9041 30.4965C44.9401 27.537 49.1421 24.8674 53.5256 22.4505C53.7116 22.3481 53.7561 22.1735 53.7146 22.0161C53.7514 22.0451 53.7887 22.0722 53.8269 22.0963C53.7533 22.269 53.7804 22.4834 53.9866 22.6082C64.3674 28.8957 65.868 29.5608 71.54 32.7942C72.0219 33.0689 72.5744 33.5102 73.1324 33.7202C73.1031 35.6663 73.0771 37.6126 73.0536 39.559C72.9717 39.5036 72.8895 39.4489 72.8074 39.3938C72.5849 39.2449 72.3769 39.6041 72.5982 39.7524C72.9117 39.9621 72.9523 40.011 73.0486 39.9989C72.9498 48.5874 72.9468 56.6727 73.3184 65.3429C73.3494 66.0645 73.3826 66.786 73.4185 67.5073C73.4318 67.7729 73.39 68.2712 73.4368 68.6294C70.7445 66.8801 68.1032 65.0549 65.4715 63.2162C65.9416 63.1772 66.3828 62.974 66.7179 62.6421C67.053 62.3102 67.2605 61.8709 67.3039 61.4012C67.3288 61.1356 66.9138 61.1373 66.8889 61.4012C66.82 62.1388 66.1925 62.7486 65.4555 62.8031C65.3031 62.8142 65.2405 62.9558 65.2635 63.0709C61.6292 60.53 58.0049 57.9747 54.2746 55.576C54.2635 55.4654 54.2131 55.36 54.1382 55.2836C54.1849 55.213 54.2069 55.129 54.2007 55.0446C53.8347 47.0403 53.9655 39.0474 53.9052 31.0382C53.9011 30.5042 53.0711 30.5031 53.0752 31.0382C53.1353 39.0474 53.0047 47.0403 53.3707 55.0446C53.3768 55.1771 53.4327 55.2767 53.5129 55.3434C51.8542 56.4753 50.1807 57.5852 48.4928 58.673C47.2206 59.3745 45.956 60.0895 44.6991 60.818L44.5857 60.6476C44.4382 60.4263 44.0786 60.6338 44.2274 60.857L44.3411 61.0277C41.5852 62.633 38.8671 64.3024 36.1891 66.0346C26.4859 62.4531 28.2372 63.2364 20.4402 59.6926C20.0965 59.5365 19.536 59.3985 19.3324 59.1298C19.1241 58.8554 19.0012 57.9042 18.9099 57.5672C18.6056 56.4412 18.3049 55.3143 18.0052 54.1872C18.0689 54.0972 18.0752 53.9595 17.9568 53.8806L17.9159 53.853C14.8291 42.218 11.3719 27.1933 11.2847 26.6068C18.314 31.2603 19.0231 32.305 24.7692 35.7457Z" fill="#151F32"/>
<path d="M57.0587 18.703C57.0293 18.7301 57.0033 18.7611 56.9862 18.7993C56.7596 19.3092 56.9106 19.9071 57.3915 20.218C57.8826 20.5356 58.515 20.3445 58.8166 19.8625C59.1115 19.3908 59.0227 18.7658 58.5482 18.4496C57.9999 18.0835 57.2515 18.3071 57.0587 18.703ZM58.1294 19.3947C58.0757 19.5006 57.9717 19.5831 57.8582 19.5313C57.7625 19.4879 57.659 19.3175 57.703 19.2184C57.7049 19.214 57.7157 19.1844 57.716 19.1833C57.8795 19.0037 58.2735 19.1114 58.1294 19.3947ZM36.2367 23.7295C35.8012 22.5916 34.4113 22.1126 33.3635 22.6574C33.3353 22.4239 33.1472 22.2239 32.8711 22.3365C31.7013 22.8151 31.2304 24.2175 31.7149 25.3674C32.5216 27.2819 35.1796 27.3807 36.0945 25.6327C36.3983 25.0517 36.473 24.347 36.2367 23.7295ZM32.627 25.3314C32.2165 24.7081 32.2552 23.6166 32.9524 23.2066C32.9887 23.4813 33.2626 23.719 33.5478 23.5156C34.2691 23.0019 35.3423 23.3186 35.5268 24.2402C35.6095 24.6536 35.4806 25.0926 35.2413 25.4282C34.5496 26.3982 33.1912 26.1871 32.627 25.3314ZM22.2133 48.1423L29.0248 50.046C29.54 50.1899 29.76 49.3895 29.2454 49.2459L22.4338 47.3419C21.9187 47.198 21.6987 47.9984 22.2133 48.1423ZM49.0641 41.5546C46.0176 43.0967 43.0751 44.8363 40.2556 46.7623C39.8171 47.0616 40.2318 47.7812 40.6745 47.4788C43.494 45.5528 46.4364 43.8132 49.483 42.2711C49.9597 42.0299 49.54 41.3136 49.0641 41.5546ZM56.0422 39.9178C58.4566 41.276 60.8099 42.74 63.0952 44.3057C63.0529 44.4598 63.2474 44.6286 63.4068 44.516C65.857 46.2068 68.2249 48.014 70.5022 49.9315C70.9083 50.2734 71.4982 49.6894 71.089 49.3447C68.7182 47.3488 66.2515 45.4699 63.6975 43.7145C63.6702 43.6626 63.6238 43.6234 63.5681 43.6049C63.5553 43.6013 63.5437 43.6036 63.5315 43.6022C61.2407 42.0317 58.8816 40.5633 56.4611 39.2012C55.9949 38.939 55.576 39.6558 56.0422 39.9178ZM36.9942 41.0831C37.677 41.0101 38.8767 40.6701 39.0139 39.8511C39.1757 38.8875 37.8655 38.8717 37.2681 39.0867C37.2604 39.0895 37.2543 39.0936 37.2468 39.0967C36.6144 39.1122 35.4734 39.36 35.3392 40.1239C35.187 40.9927 36.4008 41.1468 36.9942 41.0831ZM38.0256 39.7853C38.3217 39.749 38.1543 39.8129 38.016 39.8791C37.6499 40.0542 37.3165 40.2249 36.9018 40.2642C36.7201 40.2813 36.5142 40.2144 36.3441 40.2374L36.2572 40.2105C36.6169 40.1054 36.8448 39.9355 37.2537 39.9264C37.2919 39.9256 37.3268 39.9195 37.3597 39.9109C37.4004 39.9092 37.4427 39.9034 37.4889 39.8868C37.6715 39.821 37.8386 39.8085 38.0256 39.7853ZM40.4174 25.4019C40.159 25.3336 40.0489 25.7339 40.307 25.8023C40.4609 25.8415 40.6019 25.9199 40.7165 26.0297C40.8311 26.1396 40.9154 26.2772 40.9611 26.4292C41.038 26.6843 41.4386 26.5756 41.3611 26.3188C41.2955 26.098 41.1743 25.8978 41.0091 25.7372C40.8439 25.5767 40.64 25.4612 40.4174 25.4019ZM40.2523 39.4715L42.4111 38.8236C42.6662 38.7472 42.5577 38.3466 42.3007 38.4235L40.1419 39.0712C39.8868 39.1478 39.9952 39.5485 40.252 39.4715H40.2523ZM43.8143 38.4999C44.5314 38.2896 45.2822 38.2189 46.026 38.2916C46.2916 38.3165 46.29 37.9015 46.026 37.8766C45.2448 37.802 44.4566 37.8778 43.704 38.0998C43.448 38.1745 43.557 38.5751 43.8143 38.4999ZM48.2927 38.6144C48.7747 38.6573 49.2052 38.8643 49.5488 39.2026C49.7392 39.3902 50.033 39.0969 49.8421 38.9094C49.4174 38.4908 48.8854 38.2523 48.2927 38.1994C48.0271 38.1754 48.0285 38.5906 48.2927 38.6144ZM51.1363 40.9951C51.2442 41.2386 51.602 41.0278 51.4943 40.7857L51.0627 39.8143C50.9546 39.5709 50.5968 39.7814 50.7042 40.0238L51.136 40.9951H51.1363ZM51.46 42.2905C51.6382 42.6311 51.6944 42.9932 51.6476 43.3731C51.615 43.6376 52.0302 43.6354 52.0626 43.3731C52.1179 42.9221 52.0286 42.4828 51.8183 42.0811C51.6944 41.8442 51.3361 42.0539 51.46 42.2905ZM51.4609 45.1606L51.1372 46.132C51.0528 46.386 51.4534 46.4947 51.5375 46.2424L51.8612 45.2708C51.9456 45.0168 51.545 44.9078 51.4609 45.1604V45.1606ZM49.8753 49.1989L50.523 48.1196C50.6607 47.89 50.3019 47.6811 50.1647 47.9102L49.517 48.9897C49.3792 49.2193 49.7378 49.4282 49.8753 49.1989ZM47.5197 51.3441L46.0966 52.7272C45.9048 52.9137 46.1984 53.2069 46.3898 53.0205L47.8133 51.6377C48.005 51.4512 47.7115 51.1579 47.5197 51.3444V51.3441ZM43.9734 54.9699L43.5457 56.1587C43.4552 56.4105 43.8561 56.5189 43.946 56.2691L44.3735 55.08C44.464 54.8282 44.0631 54.7197 43.9734 54.9699ZM43.3432 58.1086L43.559 59.4043C43.603 59.6671 44.0028 59.5556 43.9593 59.2936L43.7435 57.9988C43.6995 57.7357 43.2995 57.8472 43.3432 58.1089V58.1086ZM66.6739 58.2691C66.9066 58.7951 66.9836 59.3767 66.8958 59.9451C66.856 60.2063 67.2558 60.3189 67.2959 60.0555C67.4018 59.3611 67.3152 58.7026 67.0325 58.0597C66.9251 57.8156 66.5677 58.0267 66.6739 58.2691ZM65.7573 55.4562C65.6038 55.2404 65.2438 55.4471 65.399 55.6657L66.1615 56.7402C66.3148 56.956 66.6748 56.7491 66.5198 56.5308L65.7573 55.4562ZM62.693 51.4905C62.5474 51.2675 62.1881 51.4753 62.3347 51.6997L63.399 53.3292C63.5443 53.5517 63.9039 53.3439 63.7573 53.1195L62.693 51.4905ZM61.6687 48.0164L61.7703 49.2041C61.7927 49.4683 62.208 49.4708 62.1853 49.2041L62.0837 48.0164C62.0611 47.7522 61.6458 47.75 61.6687 48.0164ZM62.4691 46.6483L62.9265 45.2533C63.0098 44.9988 62.6091 44.8898 62.5261 45.1429L62.0691 46.5379C61.9858 46.7924 62.3864 46.9014 62.4691 46.6483ZM65.0291 42.4017L66.1242 41.448C66.3262 41.2724 66.0312 40.9797 65.8309 41.1548C65.4657 41.4724 65.1005 41.7903 64.7359 42.1085C64.5339 42.2841 64.8286 42.5766 65.0291 42.4017ZM67.8276 39.8824C68.185 39.6648 68.6004 39.5616 69.0181 39.5866C69.2851 39.6005 69.2843 39.1855 69.0181 39.1716C68.5267 39.1461 68.039 39.2688 67.6182 39.5238C67.3894 39.6613 67.5977 40.0202 67.8276 39.8824ZM70.9119 39.0507C71.009 39.0209 71.1125 39.0188 71.2107 39.0446C71.309 39.0704 71.3981 39.1231 71.468 39.1968C71.6553 39.3877 71.9488 39.0942 71.7613 38.9033C71.6391 38.7783 71.4853 38.6888 71.3163 38.6443C71.1473 38.5998 70.9694 38.6019 70.8015 38.6504C70.5456 38.7243 70.6541 39.1246 70.9119 39.0507ZM18.5541 41.6229C18.8175 41.5867 18.7055 41.1866 18.4437 41.2226C18.2279 41.2515 18.0085 41.2346 17.7997 41.1728C17.5909 41.1111 17.3975 41.0059 17.2322 40.8643C17.0297 40.6927 16.7348 40.9846 16.9389 41.1578C17.4001 41.5493 17.9562 41.7051 18.5541 41.6226V41.6229ZM20.3964 41.6503L21.4743 41.3211C21.7289 41.2436 21.6204 40.843 21.3639 40.921L20.2861 41.25C20.0315 41.3277 20.14 41.7286 20.3964 41.6503ZM22.6012 40.4429C23.0024 40.3923 23.3526 40.174 23.543 39.811C23.6669 39.5747 23.3089 39.3647 23.1847 39.6013C23.0679 39.8243 22.8568 39.9958 22.6012 40.0279C22.4892 40.042 22.3951 40.1131 22.3937 40.2354C22.3926 40.3367 22.49 40.4568 22.6012 40.4429ZM24.5083 38.4044L24.832 37.8649C24.97 37.6353 24.6112 37.4264 24.4737 37.6555L24.15 38.195C24.0122 38.4246 24.371 38.6335 24.5083 38.4044ZM32.046 54.6918L33.1253 55.1234C33.3735 55.2225 33.4811 54.8213 33.236 54.7233L32.1562 54.2915C31.9083 54.1921 31.8006 54.5933 32.046 54.6915V54.6918ZM28.8121 53.9097L30.2131 54.1376C30.4746 54.1802 30.5866 53.7805 30.3235 53.7376L28.9222 53.5096C28.661 53.467 28.549 53.8668 28.8121 53.9097ZM26.3832 53.4487L25.6279 53.7724C25.5239 53.817 25.5026 53.9678 25.5532 54.0566C25.6141 54.1636 25.7347 54.175 25.8371 54.1313L26.5927 53.807C26.6964 53.7628 26.7177 53.612 26.6674 53.5232C26.6062 53.4161 26.4856 53.405 26.3832 53.4487ZM24.8848 55.6239L24.669 56.2713C24.5841 56.5253 24.9847 56.6343 25.0691 56.382L25.2849 55.734C25.3695 55.4803 24.9689 55.3713 24.8848 55.6239ZM24.2482 57.9114L23.0649 58.6733C22.8408 58.8175 23.0488 59.1768 23.2743 59.0316L24.4576 58.2699C24.6815 58.1258 24.4737 57.7664 24.2482 57.9114ZM22.0094 58.3933L21.2541 58.1775C20.9968 58.1039 20.8867 58.504 21.1434 58.5776L21.899 58.7934C22.1563 58.867 22.2659 58.4666 22.0094 58.3933ZM20.2963 57.6604C20.4855 57.8497 20.7791 57.5564 20.5898 57.3672L19.8343 56.6119C19.6453 56.4226 19.3515 56.7159 19.541 56.9051L20.2963 57.6604ZM18.3414 55.0819L18.9838 55.7348C19.1714 55.9252 19.4649 55.6316 19.2771 55.4413L18.6349 54.7884C18.4473 54.5977 18.1538 54.8913 18.3416 55.0816L18.3414 55.0819Z" fill="#151F32"/>
</svg>
