<svg width="38" height="38" viewBox="0 0 38 38" fill="none" xmlns="http://www.w3.org/2000/svg">
<circle cx="19" cy="19" r="19" fill="#F6F7F9"/>
<path d="M17.793 24.0626C17.5618 23.4163 17.0978 22.9746 16.5617 22.9746H13.596C13.596 22.9746 12.2429 22.9754 12.0415 21.4648L11.377 22.262L11.5369 24.1571C11.5369 24.1571 11.8559 26.4664 13.596 27.0017H16.5617C16.5617 27.0017 17.2909 26.7764 17.542 26.4118C17.793 26.0472 17.948 25.5434 17.948 24.9873C17.948 24.6542 17.8916 24.3394 17.793 24.0626Z" fill="url(#paint0_linear_8322_38186)"/>
<path d="M27.0051 12.2081C26.9678 12.3291 26.9264 12.4551 26.8808 12.5827C26.88 12.5852 26.8792 12.5877 26.8783 12.5901C26.464 13.7519 25.6876 15.1249 24.3361 15.1249H15.7209C12.7734 15.1249 13.5399 17.7301 13.5573 17.7881C10.8551 11 15.7209 11 15.7209 11H26.3737C26.7673 11.0588 27.238 11.3074 27.0051 12.2081Z" fill="url(#paint1_linear_8322_38186)"/>
<path d="M22.538 17.7512C22.2264 17.0892 21.5991 16.6367 20.8757 16.6367H16.5884H13.4065C13.4065 16.6367 9.47795 16.6367 11.6597 23.4248C11.6456 23.3668 11.0267 20.7616 13.4065 20.7616H16.5884H20.3612H20.8757C21.392 20.7616 21.8602 20.5304 22.1991 20.1576C22.538 19.7839 22.7468 19.2684 22.7468 18.6992C22.7468 18.3578 22.6722 18.0354 22.538 17.7512Z" fill="url(#paint2_linear_8322_38186)"/>
<defs>
<linearGradient id="paint0_linear_8322_38186" x1="17.4133" y1="21.461" x2="11.9499" y2="26.6676" gradientUnits="userSpaceOnUse">
<stop stop-color="#E21C23"/>
<stop offset="1" stop-color="#AE1E22"/>
</linearGradient>
<linearGradient id="paint1_linear_8322_38186" x1="12.7402" y1="15.9128" x2="19.7017" y2="6.54303" gradientUnits="userSpaceOnUse">
<stop stop-color="#ED1A70"/>
<stop offset="1" stop-color="#F15D2F"/>
</linearGradient>
<linearGradient id="paint2_linear_8322_38186" x1="21.6568" y1="16.6154" x2="16.0588" y2="24.7475" gradientUnits="userSpaceOnUse">
<stop stop-color="#6AC28C"/>
<stop offset="1" stop-color="#38BDB1"/>
</linearGradient>
</defs>
</svg>
