<svg width="145" height="18" viewBox="0 0 145 18" fill="none" xmlns="http://www.w3.org/2000/svg">
<path d="M4.66536 7.66667V6.33333C4.66536 4.49238 6.15775 3 7.9987 3C9.08924 3 10.0575 3.5237 10.6656 4.33333M7.9987 10.3333V11.6667M12.6654 11C12.6654 13.5773 10.576 15.6667 7.9987 15.6667C5.42137 15.6667 3.33203 13.5773 3.33203 11C3.33203 8.42267 5.42137 6.33333 7.9987 6.33333C10.576 6.33333 12.6654 8.42267 12.6654 11Z" stroke="#8C8F97" stroke-width="1.5" stroke-linecap="round" stroke-linejoin="round"/>
<path d="M24.49 12.25L25.68 11.83C25.764 12.53 26.296 13.09 27.248 13.09C27.99 13.09 28.396 12.67 28.396 12.194C28.396 11.774 28.088 11.452 27.528 11.326L26.38 11.074C25.33 10.85 24.7 10.136 24.7 9.184C24.7 8.036 25.778 7.056 27.094 7.056C28.942 7.056 29.516 8.26 29.656 8.862L28.494 9.296C28.438 8.946 28.158 8.176 27.094 8.176C26.422 8.176 25.974 8.61 25.974 9.072C25.974 9.478 26.226 9.772 26.744 9.884L27.836 10.122C29.054 10.388 29.698 11.13 29.698 12.124C29.698 13.076 28.9 14.21 27.234 14.21C25.386 14.21 24.602 13.02 24.49 12.25ZM31.8857 9.94H35.5677C35.5397 8.974 34.9097 8.218 33.7197 8.218C32.6137 8.218 31.9417 9.072 31.8857 9.94ZM35.7637 11.69L36.8977 12.082C36.5197 13.272 35.4417 14.21 33.8737 14.21C32.0677 14.21 30.4857 12.894 30.4857 10.612C30.4857 8.498 32.0117 7.056 33.7057 7.056C35.7777 7.056 36.9397 8.484 36.9397 10.584C36.9397 10.752 36.9257 10.92 36.9117 11.004H31.8437C31.8717 12.208 32.7397 13.048 33.8737 13.048C34.9657 13.048 35.5117 12.446 35.7637 11.69ZM41.0976 8.274C40.0336 8.274 39.0536 9.058 39.0536 10.626C39.0536 12.166 40.0196 12.992 41.1116 12.992C42.3716 12.992 42.8336 12.138 42.9876 11.606L44.1496 12.11C43.8276 13.076 42.8616 14.21 41.1116 14.21C39.1516 14.21 37.7096 12.67 37.7096 10.626C37.7096 8.526 39.1796 7.056 41.0976 7.056C42.8896 7.056 43.8136 8.176 44.0936 9.198L42.9036 9.702C42.7356 9.044 42.2456 8.274 41.0976 8.274ZM49.7131 13.188C49.3491 13.888 48.5091 14.21 47.7251 14.21C46.1571 14.21 45.2051 13.034 45.2051 11.508V7.266H46.5211V11.312C46.5211 12.236 46.9411 13.048 48.0471 13.048C49.1111 13.048 49.6431 12.348 49.6431 11.326V7.266H50.9591V12.754C50.9591 13.286 51.0011 13.762 51.0291 14H49.7691C49.7411 13.846 49.7131 13.468 49.7131 13.188ZM56.5928 7.196V8.596C56.3968 8.568 56.2008 8.554 56.0188 8.554C54.9128 8.554 54.1708 9.142 54.1708 10.626V14H52.8548V7.266H54.1428V8.442C54.6328 7.406 55.4728 7.154 56.1588 7.154C56.3408 7.154 56.5228 7.182 56.5928 7.196ZM58.431 9.94H62.113C62.085 8.974 61.455 8.218 60.265 8.218C59.159 8.218 58.487 9.072 58.431 9.94ZM62.309 11.69L63.443 12.082C63.065 13.272 61.987 14.21 60.419 14.21C58.613 14.21 57.031 12.894 57.031 10.612C57.031 8.498 58.557 7.056 60.251 7.056C62.323 7.056 63.485 8.484 63.485 10.584C63.485 10.752 63.471 10.92 63.457 11.004H58.389C58.417 12.208 59.285 13.048 60.419 13.048C61.511 13.048 62.057 12.446 62.309 11.69ZM65.5989 10.612C65.5989 11.998 66.3129 13.02 67.5729 13.02C68.7769 13.02 69.5189 11.97 69.5189 10.584C69.5189 9.198 68.7909 8.246 67.5869 8.246C66.3829 8.246 65.5989 9.226 65.5989 10.612ZM69.5329 13.09V12.978C69.2109 13.622 68.4969 14.182 67.4469 14.182C65.4729 14.182 64.2549 12.614 64.2549 10.612C64.2549 8.708 65.5429 7.084 67.4469 7.084C68.6369 7.084 69.2809 7.672 69.5049 8.218V3.864H70.8069V12.754C70.8069 13.398 70.8629 13.888 70.8769 14H69.6029C69.5749 13.846 69.5329 13.496 69.5329 13.09ZM77.1474 14H75.8454V3.864H77.1474V8.218C77.4694 7.616 78.2534 7.07 79.3734 7.07C81.4174 7.07 82.4674 8.638 82.4674 10.598C82.4674 12.6 81.3334 14.182 79.3314 14.182C78.3374 14.182 77.5674 13.748 77.1474 13.02V14ZM81.1234 10.598C81.1234 9.142 80.3534 8.232 79.1354 8.232C77.9734 8.232 77.1334 9.142 77.1334 10.598C77.1334 12.054 77.9734 13.006 79.1354 13.006C80.3394 13.006 81.1234 12.054 81.1234 10.598ZM85.2008 16.814H83.7588L85.4388 13.258L82.5408 7.266H84.0528L86.1528 11.914L88.1688 7.266H89.5828L85.2008 16.814Z" fill="#8C8F97"/>
<path d="M99.9461 13.4293C99.7438 12.8637 99.3378 12.4773 98.8687 12.4773H96.2737C96.2737 12.4773 95.0897 12.478 94.9135 11.1562L94.332 11.8537L94.472 13.5119C94.472 13.5119 94.7511 15.5327 96.2737 16.001H98.8687C98.8687 16.001 99.5067 15.8038 99.7264 15.4848C99.9461 15.1658 100.082 14.7249 100.082 14.2384C100.082 13.947 100.032 13.6714 99.9461 13.4293Z" fill="url(#paint0_linear_8376_39010)"/>
<path d="M108.005 3.05712C107.973 3.16298 107.936 3.27319 107.896 3.38485C107.896 3.38702 107.895 3.3892 107.894 3.39137C107.532 4.40789 106.852 5.6093 105.67 5.6093H98.1315C95.5525 5.6093 96.2231 7.88886 96.2384 7.93961C93.874 2 98.1315 2 98.1315 2H107.453C107.797 2.05148 108.209 2.26899 108.005 3.05712Z" fill="url(#paint1_linear_8376_39010)"/>
<path d="M104.096 7.90488C103.823 7.32556 103.274 6.92969 102.641 6.92969H98.8899H96.1057C96.1057 6.92969 92.6682 6.92969 94.5773 12.8693C94.5649 12.8185 94.0233 10.539 96.1057 10.539H98.8899H102.191H102.641C103.093 10.539 103.503 10.3367 103.799 10.0104C104.096 9.68343 104.278 9.23245 104.278 8.73434C104.278 8.43562 104.213 8.15357 104.096 7.90488Z" fill="url(#paint2_linear_8376_39010)"/>
<path d="M114.364 5.1584C113.947 5.1584 113.371 5.3456 113.371 6.1376V6.9152H116.193V3.5744H118.108V14H116.193V8.5568H113.371V14H111.441V8.5568H110.26V6.9152H111.441V6.1088C111.441 4.5104 112.449 3.4736 114.019 3.4736C114.422 3.4736 114.811 3.5456 114.969 3.6176V5.2304C114.868 5.2016 114.681 5.1584 114.364 5.1584ZM122.067 14H120.151V6.9152H122.067V14ZM119.921 4.5968C119.921 3.9344 120.454 3.4016 121.102 3.4016C121.764 3.4016 122.283 3.9344 122.283 4.5968C122.283 5.2304 121.764 5.7632 121.102 5.7632C120.454 5.7632 119.921 5.2304 119.921 4.5968ZM127.299 8.4704C126.32 8.4704 125.499 9.176 125.499 10.4576C125.499 11.7392 126.335 12.4592 127.314 12.4592C128.293 12.4592 128.783 11.8112 128.941 11.264L130.626 11.8256C130.309 13.0064 129.2 14.216 127.314 14.216C125.226 14.216 123.584 12.632 123.584 10.4576C123.584 8.2688 125.197 6.6992 127.256 6.6992C129.186 6.6992 130.28 7.8944 130.583 9.0896L128.869 9.6656C128.696 9.0752 128.25 8.4704 127.299 8.4704ZM138.903 6.9152L136.066 9.896L138.961 14H136.613L134.741 11.2928L133.949 12.128V14H132.034V3.5744H133.949V9.5504L136.397 6.9152H138.903ZM139.893 12.7904C139.893 12.0704 140.483 11.48 141.203 11.48C141.937 11.48 142.528 12.0704 142.528 12.7904C142.528 13.5104 141.937 14.1008 141.203 14.1008C140.483 14.1008 139.893 13.5104 139.893 12.7904Z" fill="#151F32"/>
<defs>
<linearGradient id="paint0_linear_8376_39010" x1="99.6138" y1="11.1529" x2="94.8334" y2="15.7087" gradientUnits="userSpaceOnUse">
<stop stop-color="#E21C23"/>
<stop offset="1" stop-color="#AE1E22"/>
</linearGradient>
<linearGradient id="paint1_linear_8376_39010" x1="95.5234" y1="6.29874" x2="101.615" y2="-1.89985" gradientUnits="userSpaceOnUse">
<stop stop-color="#ED1A70"/>
<stop offset="1" stop-color="#F15D2F"/>
</linearGradient>
<linearGradient id="paint2_linear_8376_39010" x1="103.325" y1="6.91104" x2="98.4264" y2="14.0266" gradientUnits="userSpaceOnUse">
<stop stop-color="#6AC28C"/>
<stop offset="1" stop-color="#38BDB1"/>
</linearGradient>
</defs>
</svg>
