<svg width="56" height="56" viewBox="0 0 56 56" fill="none" xmlns="http://www.w3.org/2000/svg">
<rect x="4" y="4" width="48" height="48" rx="24" fill="#DCFAE6"/>
<path d="M28 36.0002H37M19 36.0002H20.6745C21.1637 36.0002 21.4083 36.0002 21.6385 35.945C21.8426 35.896 22.0377 35.8152 22.2166 35.7055C22.4184 35.5818 22.5914 35.4089 22.9373 35.063L35.5 22.5002C36.3285 21.6718 36.3285 20.3287 35.5 19.5002C34.6716 18.6718 33.3285 18.6718 32.5 19.5002L19.9373 32.063C19.5914 32.4089 19.4184 32.5818 19.2947 32.7837C19.1851 32.9626 19.1043 33.1577 19.0553 33.3618C19 33.5919 19 33.8365 19 34.3257V36.0002Z" stroke="#079455" stroke-width="2" stroke-linecap="round" stroke-linejoin="round"/>
<rect x="4" y="4" width="48" height="48" rx="24" stroke="#ECFDF3" stroke-width="8"/>
</svg>
