<svg width="48" height="48" viewBox="0 0 48 48" fill="none" xmlns="http://www.w3.org/2000/svg">
<circle cx="24" cy="24" r="24" fill="#EAF8F8"/>
<path d="M24 29.3332H30M18 29.3332H19.1164C19.4425 29.3332 19.6055 29.3332 19.759 29.2963C19.895 29.2637 20.0251 29.2098 20.1444 29.1367C20.279 29.0542 20.3943 28.9389 20.6249 28.7083L29 20.3332C29.5523 19.7809 29.5523 18.8854 29 18.3332C28.4477 17.7809 27.5523 17.7809 27 18.3332L18.6248 26.7083C18.3942 26.9389 18.2789 27.0542 18.1965 27.1888C18.1234 27.3081 18.0695 27.4381 18.0368 27.5742C18 27.7276 18 27.8907 18 28.2168V29.3332Z" stroke="#2EBDB6" stroke-width="1.5" stroke-linecap="round" stroke-linejoin="round"/>
</svg>
