<svg width="97" height="30" viewBox="0 0 97 30" fill="none" xmlns="http://www.w3.org/2000/svg">
<g style="mix-blend-mode:multiply">
<path d="M21.3952 12.484L20.0992 12.892C20.0152 12.364 19.5712 11.584 18.4312 11.584C17.5672 11.584 16.9672 12.16 16.9672 12.808C16.9672 13.348 17.3032 13.756 17.9632 13.9L19.1872 14.152C20.6872 14.452 21.4912 15.4 21.4912 16.6C21.4912 17.92 20.4232 19.18 18.4792 19.18C16.3192 19.18 15.3232 17.788 15.1912 16.564L16.5352 16.18C16.6192 17.068 17.2552 17.884 18.4792 17.884C19.4992 17.884 20.0272 17.368 20.0272 16.708C20.0272 16.156 19.6192 15.712 18.8872 15.556L17.6872 15.304C16.3912 15.04 15.5272 14.188 15.5272 12.916C15.5272 11.488 16.8352 10.312 18.4192 10.312C20.4232 10.312 21.2032 11.536 21.3952 12.484ZM23.7568 15.436H26.6248C26.6008 14.752 26.1448 14.14 25.1848 14.14C24.3088 14.14 23.8048 14.812 23.7568 15.436ZM26.7808 16.96L27.9568 17.332C27.6448 18.352 26.7208 19.18 25.3168 19.18C23.7328 19.18 22.3288 18.028 22.3288 16.048C22.3288 14.2 23.6968 12.976 25.1728 12.976C26.9728 12.976 28.0288 14.164 28.0288 16.012C28.0288 16.24 28.0048 16.432 27.9928 16.456H23.7208C23.7568 17.344 24.4528 17.98 25.3168 17.98C26.1568 17.98 26.5888 17.536 26.7808 16.96ZM31.123 11.368V13.156H32.335V14.392H31.123V17.104C31.123 17.62 31.351 17.836 31.867 17.836C32.059 17.836 32.287 17.8 32.347 17.788V18.94C32.263 18.976 31.999 19.072 31.495 19.072C30.415 19.072 29.743 18.424 29.743 17.332V14.392H28.663V13.156H28.963C29.587 13.156 29.863 12.76 29.863 12.244V11.368H31.123ZM38.1104 19H36.7184V10.312H38.1104V19ZM41.2859 19H39.9059V13.156H41.2859V19ZM39.6899 11.104C39.6899 10.6 40.0979 10.192 40.5899 10.192C41.0939 10.192 41.5019 10.6 41.5019 11.104C41.5019 11.608 41.0939 12.004 40.5899 12.004C40.0979 12.004 39.6899 11.608 39.6899 11.104ZM44.4616 19H43.0816V13.156H44.4136V13.9C44.7496 13.3 45.4816 12.988 46.1416 12.988C46.9096 12.988 47.5816 13.336 47.8936 14.02C48.3496 13.252 49.0336 12.988 49.7896 12.988C50.8456 12.988 51.8536 13.66 51.8536 15.208V19H50.5096V15.436C50.5096 14.752 50.1616 14.236 49.3816 14.236C48.6496 14.236 48.1696 14.812 48.1696 15.532V19H46.8016V15.436C46.8016 14.764 46.4656 14.236 45.6736 14.236C44.9296 14.236 44.4616 14.788 44.4616 15.532V19ZM54.9382 19H53.5582V13.156H54.9382V19ZM53.3422 11.104C53.3422 10.6 53.7502 10.192 54.2422 10.192C54.7462 10.192 55.1542 10.6 55.1542 11.104C55.1542 11.608 54.7462 12.004 54.2422 12.004C53.7502 12.004 53.3422 11.608 53.3422 11.104ZM58.498 11.368V13.156H59.71V14.392H58.498V17.104C58.498 17.62 58.726 17.836 59.242 17.836C59.434 17.836 59.662 17.8 59.722 17.788V18.94C59.638 18.976 59.374 19.072 58.87 19.072C57.79 19.072 57.118 18.424 57.118 17.332V14.392H56.038V13.156H56.338C56.962 13.156 57.238 12.76 57.238 12.244V11.368H58.498Z" fill="#151F32"/>
<path d="M74.5 19.0001H79M70 19.0001H70.8373C71.0819 19.0001 71.2042 19.0001 71.3192 18.9725C71.4213 18.948 71.5188 18.9076 71.6083 18.8528C71.7092 18.7909 71.7957 18.7044 71.9686 18.5315L78.25 12.2501C78.6642 11.8359 78.6642 11.1643 78.25 10.7501C77.8358 10.3359 77.1642 10.3359 76.75 10.7501L70.4686 17.0315C70.2957 17.2044 70.2092 17.2909 70.1474 17.3918C70.0925 17.4813 70.0521 17.5788 70.0276 17.6809C70 17.796 70 17.9183 70 18.1629V19.0001Z" stroke="black" stroke-linecap="round" stroke-linejoin="round"/>
<rect x="1" y="0.5" width="95" height="29" rx="14.5" stroke="#EAECF0"/>
</g>
</svg>
