<svg width="65" height="73" viewBox="0 0 65 73" fill="none" xmlns="http://www.w3.org/2000/svg">
<g clip-path="url(#clip0_7281_48088)">
<path d="M34.7505 72.7196H1.25072L0.5 19.7949H34.7505V72.7196Z" fill="#2EBDB6"/>
<path d="M34.7506 40.7403V30.3301L0.93457 50.429L1.08195 60.7517L34.7506 40.7403Z" fill="#E3CECE"/>
<path d="M31.2349 19.7949H13.7197L0.610596 27.5861L0.75644 37.9104L31.2349 19.7949Z" fill="#E3CECE"/>
<path d="M34.7505 63.7731V53.3613L2.1842 72.7188H19.6994L34.7505 63.7731Z" fill="#E3CECE"/>
<path d="M64.4982 19.7949H34.7505V72.7181H64.4982V19.7949Z" fill="#259792"/>
<path d="M64.4966 23.0588V19.7949H52.4729L34.7505 30.3295V40.7397L64.4966 23.0588Z" fill="#D1AEAE"/>
<path d="M64.4967 69.127V58.7168L40.9374 72.7194H58.4541L64.4967 69.127Z" fill="#D1AEAE"/>
<path d="M64.4966 46.0938V35.6836L34.7505 53.363V63.7748L64.4966 46.0938Z" fill="#D1AEAE"/>
<path d="M34.7505 72.7204L49.6236 42.8223L64.4966 72.7204H34.7505Z" fill="#259792"/>
<path d="M34.7505 19.7949L49.6236 46.2573L64.4966 19.7949H34.7505Z" fill="#259792"/>
<path d="M37.7902 25.205L36.8568 19.7949H34.7505L37.7902 25.205Z" fill="#DABEBE"/>
<path d="M52.9058 40.4189L60.786 26.3978L59.6469 19.7949H49.3472L52.9058 40.4189Z" fill="#E3CECE"/>
<path d="M35.69 72.7201H45.9912L43.0958 55.9434L35.449 71.3154L35.69 72.7201Z" fill="#D1AEAE"/>
<path d="M55.2838 54.1992L58.4801 72.72H64.4966L55.2838 54.1992Z" fill="#E3CECE"/>
<path d="M15.3792 72.7196L12.6542 19.7949H21.695L22.8925 72.7196H15.3792Z" fill="#E3CECE"/>
<path d="M52.5051 72.7196L55.1242 19.7949H48.2879L47.488 72.7196H52.5051Z" fill="#DABEBE"/>
<g style="mix-blend-mode:overlay" opacity="0.3">
<path d="M0.5 19.7949H64.4966L64.3201 20.1112L0.504606 20.1526L0.5 19.7949Z" fill="white"/>
</g>
<path d="M40.3248 1.53262C47.3853 3.31039 36.7325 19.797 36.7325 19.797H33.6298C33.6298 19.797 35.535 3.42707 32.4861 0.771158C32.4861 0.771158 36.1736 0.48868 40.3233 1.53262H40.3248Z" fill="#259792"/>
<path d="M32.1882 19.7974C26.9225 19.7974 10.6646 16.6303 11.859 12.6034C12.3825 10.8379 16.9313 9.30273 16.9313 9.30273C19.9833 15.8519 32.1882 19.7974 32.1882 19.7974Z" fill="#259792"/>
<path d="M11.859 12.6035C11.859 12.6035 13.9821 5.54159 32.1882 19.7975H33.9429C33.9429 19.7975 29.1669 5.86552 21.3696 6.04667C16.7363 6.15567 12.3886 10.5157 11.8574 12.6035H11.859Z" fill="#E3CECE"/>
<path d="M37.4064 19.7959C42.3098 19.7959 57.4454 16.7485 56.3339 12.8736C55.8457 11.1741 51.6116 9.69727 51.6116 9.69727C48.77 15.9993 37.4064 19.7974 37.4064 19.7974V19.7959Z" fill="#2EBDB6"/>
<path d="M56.3339 12.8739C56.3339 12.8739 54.3581 6.07754 37.4064 19.7961H35.7714C35.7714 19.7961 40.2173 6.38919 47.4773 6.5642C51.7912 6.66859 55.838 10.8658 56.3324 12.8739H56.3339Z" fill="#DABEBE"/>
<path d="M40.3247 1.53365C40.3247 1.53365 30.6913 -1.1023 28.2411 0.537303C21.6014 4.98326 32.9757 19.7965 32.9757 19.7965H35.6976C34.6629 0.84895 40.3247 1.53212 40.3247 1.53212V1.53365Z" fill="#DABEBE"/>
<path d="M28.0646 13.6786C26.9025 13.7492 25.7019 13.8705 25.2751 14.7671C26.8579 15.8033 27.2893 19.7811 27.2924 19.7964C27.2955 19.7964 27.2985 19.7964 27.3001 19.7964H32.4875C32.4875 19.7964 31.5772 13.4652 28.0646 13.6771V13.6786Z" fill="#2EBDB6"/>
<path d="M28.0646 13.6791C24.2712 13.6791 20.886 12.3834 18.6953 14.1396C16.5429 15.8652 17.4226 19.7984 19.0775 19.7984H27.3001C24.4999 19.7984 24.5506 13.8909 28.0646 13.6791Z" fill="#DABEBE"/>
<path d="M34.494 12.2286C35.5057 12.3146 36.5497 12.4666 36.9212 13.575C35.5441 14.8569 35.168 19.7788 35.1664 19.7972C35.1634 19.7972 35.1618 19.7972 35.1588 19.7972H30.6453C30.6453 19.7972 31.4374 11.9661 34.494 12.2271V12.2286Z" fill="#2EBDB6"/>
<path d="M34.494 12.2276C37.7947 12.2276 40.7408 10.6249 42.646 12.7972C44.5189 14.9327 43.7528 19.7977 42.3144 19.7977H35.1588C37.5951 19.7977 37.5506 12.4902 34.494 12.2276Z" fill="#E3CECE"/>
</g>
<defs>
<clipPath id="clip0_7281_48088">
<rect width="63.9966" height="72.7212" fill="white" transform="translate(0.5)"/>
</clipPath>
</defs>
</svg>
