<svg width="16" height="17" viewBox="0 0 16 17" fill="none" xmlns="http://www.w3.org/2000/svg">
<path d="M8.00004 10.4999C9.10461 10.4999 10 9.60449 10 8.49992C10 7.39535 9.10461 6.49992 8.00004 6.49992C6.89547 6.49992 6.00004 7.39535 6.00004 8.49992C6.00004 9.60449 6.89547 10.4999 8.00004 10.4999Z" stroke="#667085" stroke-width="1.5" stroke-linecap="round" stroke-linejoin="round"/>
<path d="M12.4849 10.3181C12.4042 10.5009 12.3801 10.7037 12.4158 10.9003C12.4514 11.0969 12.5452 11.2783 12.6849 11.4211L12.7213 11.4575C12.834 11.5701 12.9234 11.7038 12.9844 11.8509C13.0454 11.9981 13.0768 12.1558 13.0768 12.3151C13.0768 12.4744 13.0454 12.6321 12.9844 12.7792C12.9234 12.9264 12.834 13.0601 12.7213 13.1726C12.6087 13.2853 12.475 13.3748 12.3278 13.4357C12.1807 13.4967 12.023 13.5281 11.8637 13.5281C11.7044 13.5281 11.5467 13.4967 11.3995 13.4357C11.2524 13.3748 11.1187 13.2853 11.0061 13.1726L10.9697 13.1363C10.8269 12.9966 10.6455 12.9028 10.4489 12.8672C10.2523 12.8315 10.0495 12.8556 9.86671 12.9363C9.68745 13.0131 9.53458 13.1407 9.42689 13.3033C9.31921 13.4659 9.26142 13.6564 9.26065 13.8514V13.9545C9.26065 14.2759 9.13294 14.5842 8.90562 14.8116C8.67831 15.0389 8.37 15.1666 8.04853 15.1666C7.72705 15.1666 7.41874 15.0389 7.19143 14.8116C6.96411 14.5842 6.8364 14.2759 6.8364 13.9545V13.8999C6.83171 13.6993 6.76678 13.5048 6.65005 13.3416C6.53332 13.1783 6.37018 13.054 6.18186 12.9848C5.99906 12.9041 5.79629 12.88 5.59968 12.9157C5.40308 12.9513 5.22166 13.045 5.07883 13.1848L5.04247 13.2211C4.92989 13.3338 4.79621 13.4232 4.64906 13.4842C4.50191 13.5452 4.34418 13.5766 4.18489 13.5766C4.0256 13.5766 3.86787 13.5452 3.72072 13.4842C3.57357 13.4232 3.43989 13.3338 3.32731 13.2211C3.21461 13.1086 3.12521 12.9749 3.06421 12.8277C3.00321 12.6806 2.97181 12.5228 2.97181 12.3636C2.97181 12.2043 3.00321 12.0465 3.06421 11.8994C3.12521 11.7522 3.21461 11.6186 3.32731 11.506L3.36368 11.4696C3.5034 11.3268 3.59712 11.1454 3.63277 10.9488C3.66842 10.7522 3.64435 10.5494 3.56368 10.3666C3.48685 10.1873 3.35929 10.0345 3.19669 9.92677C3.03409 9.81909 2.84355 9.7613 2.64853 9.76052H2.5455C2.22402 9.76052 1.91571 9.63282 1.6884 9.4055C1.46108 9.17819 1.33337 8.86988 1.33337 8.5484C1.33337 8.22693 1.46108 7.91862 1.6884 7.6913C1.91571 7.46399 2.22402 7.33628 2.5455 7.33628H2.60004C2.80064 7.33159 2.9952 7.26666 3.1584 7.14993C3.32161 7.03319 3.44593 6.87006 3.51519 6.68174C3.59587 6.49894 3.61993 6.29617 3.58429 6.09956C3.54864 5.90296 3.45491 5.72154 3.31519 5.57871L3.27883 5.54234C3.16613 5.42977 3.07673 5.29609 3.01573 5.14894C2.95473 5.00179 2.92333 4.84406 2.92333 4.68477C2.92333 4.52548 2.95473 4.36775 3.01573 4.2206C3.07673 4.07345 3.16613 3.93976 3.27883 3.82719C3.3914 3.71449 3.52509 3.62509 3.67223 3.56409C3.81938 3.50309 3.97711 3.47169 4.1364 3.47169C4.2957 3.47169 4.45343 3.50309 4.60057 3.56409C4.74772 3.62509 4.88141 3.71449 4.99398 3.82719L5.03034 3.86356C5.17318 4.00327 5.3546 4.097 5.5512 4.13265C5.7478 4.1683 5.95058 4.14423 6.13337 4.06355H6.18186C6.36111 3.98673 6.51399 3.85916 6.62167 3.69656C6.72936 3.53396 6.78714 3.34343 6.78792 3.1484V3.04537C6.78792 2.7239 6.91563 2.41559 7.14294 2.18827C7.37026 1.96096 7.67857 1.83325 8.00004 1.83325C8.32152 1.83325 8.62982 1.96096 8.85714 2.18827C9.08446 2.41559 9.21216 2.7239 9.21216 3.04537V3.09992C9.21294 3.29494 9.27073 3.48548 9.37841 3.64808C9.48609 3.81068 9.63897 3.93824 9.81822 4.01507C10.001 4.09575 10.2038 4.11981 10.4004 4.08416C10.597 4.04852 10.7784 3.95479 10.9213 3.81507L10.9576 3.77871C11.0702 3.66601 11.2039 3.5766 11.351 3.5156C11.4982 3.4546 11.6559 3.42321 11.8152 3.42321C11.9745 3.42321 12.1322 3.4546 12.2794 3.5156C12.4265 3.5766 12.5602 3.66601 12.6728 3.77871C12.7855 3.89128 12.8749 4.02496 12.9359 4.17211C12.9969 4.31926 13.0283 4.47699 13.0283 4.63628C13.0283 4.79557 12.9969 4.9533 12.9359 5.10045C12.8749 5.2476 12.7855 5.38128 12.6728 5.49386L12.6364 5.53022C12.4967 5.67306 12.403 5.85447 12.3673 6.05108C12.3317 6.24768 12.3557 6.45045 12.4364 6.63325V6.68174C12.5132 6.86099 12.6408 7.01387 12.8034 7.12155C12.966 7.22923 13.1565 7.28702 13.3516 7.2878H13.4546C13.7761 7.2878 14.0844 7.4155 14.3117 7.64282C14.539 7.87014 14.6667 8.17844 14.6667 8.49992C14.6667 8.82139 14.539 9.1297 14.3117 9.35702C14.0844 9.58433 13.7761 9.71204 13.4546 9.71204H13.4C13.205 9.71282 13.0145 9.77061 12.8519 9.87829C12.6893 9.98597 12.5617 10.1388 12.4849 10.3181Z" stroke="#667085" stroke-width="1.5" stroke-linecap="round" stroke-linejoin="round"/>
</svg>
