<svg width="32" height="32" viewBox="0 0 32 32" fill="none" xmlns="http://www.w3.org/2000/svg">
<rect width="32" height="32" rx="8" fill="#58CAC5"/>
<path opacity="0.4" d="M19.2062 13.8499L19.2062 13.8499L19.2039 13.8512L16.6455 15.2345L16.6439 15.2354C16.4432 15.3449 16.2256 15.3993 16 15.3993C15.7744 15.3993 15.5568 15.3449 15.3561 15.2354L15.3539 15.2342L10.1138 12.41C10.1135 12.4099 10.1133 12.4097 10.1131 12.4096C9.89468 12.2906 9.75 12.0532 9.75 11.7827C9.75 11.5121 9.89465 11.2748 10.113 11.1557L11.7536 10.273L11.7547 10.2723L13.062 9.56462L13.0631 9.56403L15.3536 8.3313L15.3536 8.33131L15.3561 8.32996C15.7569 8.11137 16.2431 8.11137 16.6439 8.32996L16.6439 8.32997L16.6461 8.33116L21.8863 11.1553C21.8865 11.1554 21.8867 11.1556 21.887 11.1557C22.1053 11.2747 22.25 11.5121 22.25 11.7827C22.25 12.0533 22.1052 12.2908 21.8867 12.4097C21.8866 12.4098 21.8864 12.4099 21.8863 12.41L20.4395 13.1916L20.4373 13.1927L19.2062 13.8499Z" fill="white" stroke="white"/>
<path opacity="0.4" d="M14.2501 16.659L9.37505 14.2173C9.00005 14.0256 8.56672 14.0506 8.20838 14.2673C7.85005 14.484 7.64172 14.8673 7.64172 15.284V19.8923C7.64172 20.6923 8.08338 21.409 8.80004 21.7673L13.675 24.2007C13.8417 24.284 14.0251 24.3256 14.2084 24.3256C14.4251 24.3256 14.6417 24.2673 14.8334 24.1423C15.1917 23.9257 15.4001 23.5423 15.4001 23.1256V18.5173C15.4084 17.734 14.9667 17.0173 14.2501 16.659Z" fill="white"/>
<path opacity="0.4" d="M24.3583 15.2907V19.899C24.3583 20.6907 23.9167 21.4074 23.2 21.7657L18.325 24.2074C18.1584 24.2907 17.975 24.3324 17.7917 24.3324C17.575 24.3324 17.3584 24.2741 17.1584 24.1491C16.8084 23.9324 16.5917 23.549 16.5917 23.1324V18.5324C16.5917 17.7324 17.0334 17.0157 17.75 16.6574L19.5417 15.7657L20.7917 15.1407L22.625 14.224C23 14.0324 23.4334 14.049 23.7917 14.274C24.1417 14.4907 24.3583 14.8741 24.3583 15.2907Z" fill="white"/>
<path d="M20.6749 13.6333L19.4416 14.2917L11.5166 9.83331L12.8249 9.125L20.4749 13.4417C20.5583 13.4917 20.6249 13.5583 20.6749 13.6333Z" fill="white"/>
<path d="M20.7916 15.1426V17.0343C20.7916 17.3759 20.5083 17.6593 20.1666 17.6593C19.825 17.6593 19.5416 17.3759 19.5416 17.0343V15.7676L20.7916 15.1426Z" fill="white"/>
</svg>
