<svg width="16" height="17" viewBox="0 0 16 17" fill="none" xmlns="http://www.w3.org/2000/svg">
<path d="M14 2.5H2M14 14.5H2M3.33333 8.5C3.33333 7.87874 3.33333 7.56812 3.43483 7.32309C3.57015 6.99638 3.82972 6.73682 4.15642 6.60149C4.40145 6.5 4.71208 6.5 5.33333 6.5L10.6667 6.5C11.2879 6.5 11.5986 6.5 11.8436 6.60149C12.1703 6.73682 12.4298 6.99639 12.5652 7.32309C12.6667 7.56812 12.6667 7.87874 12.6667 8.5C12.6667 9.12126 12.6667 9.43188 12.5652 9.67691C12.4298 10.0036 12.1703 10.2632 11.8436 10.3985C11.5985 10.5 11.2879 10.5 10.6667 10.5L5.33333 10.5C4.71208 10.5 4.40145 10.5 4.15642 10.3985C3.82972 10.2632 3.57015 10.0036 3.43483 9.67691C3.33333 9.43188 3.33333 9.12126 3.33333 8.5Z" stroke="#98A2B3" stroke-width="1.5" stroke-linecap="round" stroke-linejoin="round"/>
</svg>
