<svg width="16" height="17" viewBox="0 0 16 17" fill="none" xmlns="http://www.w3.org/2000/svg">
<path d="M7.99992 10.5007C9.10449 10.5007 9.99992 9.60522 9.99992 8.50065C9.99992 7.39608 9.10449 6.50065 7.99992 6.50065C6.89535 6.50065 5.99992 7.39608 5.99992 8.50065C5.99992 9.60522 6.89535 10.5007 7.99992 10.5007Z" stroke="#2EBDB6" stroke-width="1.5" stroke-linecap="round" stroke-linejoin="round"/>
<path d="M12.4848 10.3188C12.4041 10.5016 12.38 10.7044 12.4157 10.901C12.4513 11.0976 12.545 11.279 12.6848 11.4219L12.7211 11.4582C12.8338 11.5708 12.9232 11.7045 12.9842 11.8516C13.0452 11.9988 13.0766 12.1565 13.0766 12.3158C13.0766 12.4751 13.0452 12.6328 12.9842 12.78C12.9232 12.9271 12.8338 13.0608 12.7211 13.1734C12.6086 13.2861 12.4749 13.3755 12.3277 13.4365C12.1806 13.4975 12.0228 13.5289 11.8636 13.5289C11.7043 13.5289 11.5465 13.4975 11.3994 13.4365C11.2522 13.3755 11.1186 13.2861 11.006 13.1734L10.9696 13.137C10.8268 12.9973 10.6454 12.9036 10.4488 12.8679C10.2522 12.8323 10.0494 12.8563 9.86659 12.937C9.68733 13.0138 9.53445 13.1414 9.42677 13.304C9.31909 13.4666 9.2613 13.6571 9.26052 13.8522V13.9552C9.26052 14.2767 9.13282 14.585 8.9055 14.8123C8.67819 15.0396 8.36988 15.1673 8.0484 15.1673C7.72693 15.1673 7.41862 15.0396 7.1913 14.8123C6.96399 14.585 6.83628 14.2767 6.83628 13.9552V13.9007C6.83159 13.7 6.76666 13.5055 6.64993 13.3423C6.53319 13.1791 6.37006 13.0548 6.18174 12.9855C5.99894 12.9048 5.79617 12.8808 5.59956 12.9164C5.40296 12.9521 5.22154 13.0458 5.07871 13.1855L5.04234 13.2219C4.92977 13.3346 4.79609 13.424 4.64894 13.485C4.50179 13.546 4.34406 13.5774 4.18477 13.5774C4.02548 13.5774 3.86775 13.546 3.7206 13.485C3.57345 13.424 3.43976 13.3346 3.32719 13.2219C3.21449 13.1093 3.12509 12.9756 3.06409 12.8285C3.00309 12.6813 2.97169 12.5236 2.97169 12.3643C2.97169 12.205 3.00309 12.0473 3.06409 11.9001C3.12509 11.753 3.21449 11.6193 3.32719 11.5067L3.36356 11.4703C3.50327 11.3275 3.597 11.1461 3.63265 10.9495C3.6683 10.7529 3.64423 10.5501 3.56355 10.3673C3.48673 10.1881 3.35916 10.0352 3.19656 9.9275C3.03396 9.81982 2.84343 9.76204 2.6484 9.76126H2.54537C2.2239 9.76126 1.91559 9.63355 1.68827 9.40623C1.46096 9.17892 1.33325 8.87061 1.33325 8.54914C1.33325 8.22766 1.46096 7.91935 1.68827 7.69204C1.91559 7.46472 2.2239 7.33701 2.54537 7.33701H2.59992C2.80052 7.33232 2.99507 7.26739 3.15828 7.15066C3.32149 7.03393 3.44581 6.87079 3.51507 6.68247C3.59575 6.49967 3.61981 6.2969 3.58416 6.10029C3.54852 5.90369 3.45479 5.72227 3.31507 5.57944L3.27871 5.54308C3.16601 5.4305 3.0766 5.29682 3.0156 5.14967C2.9546 5.00252 2.92321 4.84479 2.92321 4.6855C2.92321 4.52621 2.9546 4.36848 3.0156 4.22133C3.0766 4.07418 3.16601 3.9405 3.27871 3.82792C3.39128 3.71523 3.52496 3.62582 3.67211 3.56482C3.81926 3.50382 3.97699 3.47242 4.13628 3.47242C4.29557 3.47242 4.4533 3.50382 4.60045 3.56482C4.7476 3.62582 4.88128 3.71523 4.99386 3.82792L5.03022 3.86429C5.17306 4.00401 5.35447 4.09773 5.55108 4.13338C5.74768 4.16903 5.95045 4.14496 6.13325 4.06429H6.18174C6.36099 3.98746 6.51387 3.8599 6.62155 3.6973C6.72923 3.5347 6.78702 3.34416 6.7878 3.14914V3.04611C6.7878 2.72463 6.9155 2.41632 7.14282 2.18901C7.37014 1.96169 7.67844 1.83398 7.99992 1.83398C8.32139 1.83398 8.6297 1.96169 8.85702 2.18901C9.08433 2.41632 9.21204 2.72463 9.21204 3.04611V3.10065C9.21282 3.29567 9.27061 3.48621 9.37829 3.64881C9.48597 3.81141 9.63885 3.93898 9.8181 4.0158C10.0009 4.09648 10.2037 4.12054 10.4003 4.0849C10.5969 4.04925 10.7783 3.95552 10.9211 3.8158L10.9575 3.77944C11.0701 3.66674 11.2038 3.57734 11.3509 3.51634C11.4981 3.45534 11.6558 3.42394 11.8151 3.42394C11.9744 3.42394 12.1321 3.45534 12.2792 3.51634C12.4264 3.57734 12.5601 3.66674 12.6726 3.77944C12.7853 3.89201 12.8748 4.0257 12.9357 4.17284C12.9967 4.31999 13.0281 4.47772 13.0281 4.63701C13.0281 4.79631 12.9967 4.95404 12.9357 5.10118C12.8748 5.24833 12.7853 5.38202 12.6726 5.49459L12.6363 5.53095C12.4966 5.67379 12.4028 5.85521 12.3672 6.05181C12.3315 6.24841 12.3556 6.45119 12.4363 6.63398V6.68247C12.5131 6.86172 12.6407 7.0146 12.8033 7.12228C12.9659 7.22997 13.1564 7.28775 13.3514 7.28853H13.4545C13.7759 7.28853 14.0842 7.41624 14.3116 7.64355C14.5389 7.87087 14.6666 8.17918 14.6666 8.50065C14.6666 8.82213 14.5389 9.13043 14.3116 9.35775C14.0842 9.58507 13.7759 9.71277 13.4545 9.71277H13.3999C13.2049 9.71355 13.0144 9.77134 12.8518 9.87902C12.6892 9.9867 12.5616 10.1396 12.4848 10.3188Z" stroke="#2EBDB6" stroke-width="1.5" stroke-linecap="round" stroke-linejoin="round"/>
</svg>
