<svg width="44" height="44" viewBox="0 0 44 44" fill="none" xmlns="http://www.w3.org/2000/svg">
<g filter="url(#filter0_d_5507_8462)">
<rect x="2" y="1" width="40" height="40" rx="8" fill="white"/>
<path d="M18.6667 24.3333L22 21M22 21L25.3333 24.3333M22 21V28.5M28.6667 24.9524C29.6846 24.1117 30.3333 22.8399 30.3333 21.4167C30.3333 18.8854 28.2813 16.8333 25.75 16.8333C25.5679 16.8333 25.3976 16.7383 25.3051 16.5814C24.2184 14.7374 22.212 13.5 19.9167 13.5C16.4649 13.5 13.6667 16.2982 13.6667 19.75C13.6667 21.4718 14.3629 23.0309 15.4891 24.1613" stroke="#475467" stroke-width="1.66667" stroke-linecap="round" stroke-linejoin="round"/>
<rect x="2.5" y="1.5" width="39" height="39" rx="7.5" stroke="#EAECF0"/>
</g>
<defs>
<filter id="filter0_d_5507_8462" x="0" y="0" width="44" height="44" filterUnits="userSpaceOnUse" color-interpolation-filters="sRGB">
<feFlood flood-opacity="0" result="BackgroundImageFix"/>
<feColorMatrix in="SourceAlpha" type="matrix" values="0 0 0 0 0 0 0 0 0 0 0 0 0 0 0 0 0 0 127 0" result="hardAlpha"/>
<feOffset dy="1"/>
<feGaussianBlur stdDeviation="1"/>
<feColorMatrix type="matrix" values="0 0 0 0 0.0627451 0 0 0 0 0.0941176 0 0 0 0 0.156863 0 0 0 0.05 0"/>
<feBlend mode="normal" in2="BackgroundImageFix" result="effect1_dropShadow_5507_8462"/>
<feBlend mode="normal" in="SourceGraphic" in2="effect1_dropShadow_5507_8462" result="shape"/>
</filter>
</defs>
</svg>
