<svg width="118" height="31" viewBox="0 0 118 31" fill="none" xmlns="http://www.w3.org/2000/svg">
<path opacity="0.8" fill-rule="evenodd" clip-rule="evenodd" d="M14.2539 23.2165C18.5571 23.2165 22.0456 19.728 22.0456 15.4248C22.0456 11.1216 18.5571 7.63314 14.2539 7.63314C9.95069 7.63314 6.46224 11.1216 6.46224 15.4248C6.46224 19.728 9.95069 23.2165 14.2539 23.2165ZM14.2539 29.1748C21.8478 29.1748 28.0039 23.0187 28.0039 15.4248C28.0039 7.83089 21.8478 1.6748 14.2539 1.6748C6.65999 1.6748 0.503906 7.83089 0.503906 15.4248C0.503906 23.0187 6.65999 29.1748 14.2539 29.1748Z" fill="#969696"/>
<path opacity="0.6" d="M14.4112 15.7255C15.8431 14.2936 18.1647 14.2936 19.5966 15.7255L26.7266 22.8555C28.1585 24.2874 28.1585 26.6091 26.7266 28.041V28.041C25.2947 29.4729 22.9731 29.4729 21.5412 28.041L14.4112 20.911C12.9793 19.4791 12.9793 17.1575 14.4112 15.7255V15.7255Z" fill="#969696"/>
<path d="M16.4131 22.9134L20.9414 27.4417C23.1134 26.2304 24.923 24.4472 26.1665 22.2959L21.6753 17.8047C20.8864 20.2668 18.9062 22.1958 16.4131 22.9134Z" fill="#969696"/>
<path d="M50.204 22.9873C49.8074 23.4773 49.3232 23.8507 48.7515 24.1073C48.1915 24.364 47.5732 24.4923 46.8965 24.4923C45.9865 24.4923 45.164 24.294 44.429 23.8973C43.694 23.5123 42.854 22.824 41.909 21.8323C40.8007 21.6923 39.809 21.3365 38.934 20.7648C38.0707 20.1932 37.394 19.4582 36.904 18.5598C36.4257 17.6498 36.1865 16.6465 36.1865 15.5498C36.1865 14.3482 36.4724 13.269 37.044 12.3123C37.6274 11.344 38.4265 10.5857 39.4415 10.0373C40.4682 9.48901 41.6174 9.21484 42.889 9.21484C44.1607 9.21484 45.304 9.48901 46.319 10.0373C47.334 10.5857 48.1332 11.344 48.7165 12.3123C49.2999 13.269 49.5915 14.3482 49.5915 15.5498C49.5915 16.9732 49.189 18.2215 48.384 19.2948C47.5907 20.3682 46.5349 21.1148 45.2165 21.5348C45.5082 21.8382 45.7882 22.054 46.0565 22.1823C46.3365 22.3223 46.634 22.3923 46.949 22.3923C47.7074 22.3923 48.3724 22.089 48.944 21.4823L50.204 22.9873ZM39.0565 15.5498C39.0565 16.3082 39.2199 16.9848 39.5465 17.5798C39.8849 18.1748 40.3457 18.6415 40.929 18.9798C41.5124 19.3065 42.1657 19.4698 42.889 19.4698C43.6124 19.4698 44.2657 19.3065 44.849 18.9798C45.4324 18.6415 45.8874 18.1748 46.214 17.5798C46.5524 16.9848 46.7215 16.3082 46.7215 15.5498C46.7215 14.7915 46.5524 14.1148 46.214 13.5198C45.8874 12.9248 45.4324 12.464 44.849 12.1373C44.2657 11.799 43.6124 11.6298 42.889 11.6298C42.1657 11.6298 41.5124 11.799 40.929 12.1373C40.3457 12.464 39.8849 12.9248 39.5465 13.5198C39.2199 14.1148 39.0565 14.7915 39.0565 15.5498Z" fill="#969696"/>
<path d="M61.0146 12.2598V21.6748H58.4246V20.5548C58.063 20.9632 57.6313 21.2782 57.1296 21.4998C56.628 21.7098 56.0855 21.8148 55.5021 21.8148C54.2655 21.8148 53.2855 21.459 52.5621 20.7473C51.8388 20.0357 51.4771 18.9798 51.4771 17.5798V12.2598H54.2071V17.1773C54.2071 18.694 54.843 19.4523 56.1146 19.4523C56.768 19.4523 57.293 19.2423 57.6896 18.8223C58.0863 18.3907 58.2846 17.7548 58.2846 16.9148V12.2598H61.0146Z" fill="#969696"/>
<path d="M68.0238 21.8148C67.0321 21.8148 66.1396 21.6107 65.3463 21.2023C64.5646 20.7823 63.9521 20.2048 63.5088 19.4698C63.0655 18.7348 62.8438 17.9007 62.8438 16.9673C62.8438 16.034 63.0655 15.1998 63.5088 14.4648C63.9521 13.7298 64.5646 13.1582 65.3463 12.7498C66.1396 12.3298 67.0321 12.1198 68.0238 12.1198C69.0155 12.1198 69.9021 12.3298 70.6838 12.7498C71.4655 13.1582 72.078 13.7298 72.5213 14.4648C72.9646 15.1998 73.1863 16.034 73.1863 16.9673C73.1863 17.9007 72.9646 18.7348 72.5213 19.4698C72.078 20.2048 71.4655 20.7823 70.6838 21.2023C69.9021 21.6107 69.0155 21.8148 68.0238 21.8148ZM68.0238 19.5748C68.7238 19.5748 69.2955 19.3415 69.7388 18.8748C70.1938 18.3965 70.4213 17.7607 70.4213 16.9673C70.4213 16.174 70.1938 15.544 69.7388 15.0773C69.2955 14.599 68.7238 14.3598 68.0238 14.3598C67.3238 14.3598 66.7463 14.599 66.2913 15.0773C65.8363 15.544 65.6088 16.174 65.6088 16.9673C65.6088 17.7607 65.8363 18.3965 66.2913 18.8748C66.7463 19.3415 67.3238 19.5748 68.0238 19.5748Z" fill="#969696"/>
<path d="M81.0836 21.2198C80.8153 21.4182 80.4828 21.5698 80.0861 21.6748C79.7011 21.7682 79.2928 21.8148 78.8611 21.8148C77.7411 21.8148 76.8719 21.529 76.2536 20.9573C75.6469 20.3857 75.3436 19.5457 75.3436 18.4373V14.5698H73.8911V12.4698H75.3436V10.1773H78.0736V12.4698H80.4186V14.5698H78.0736V18.4023C78.0736 18.799 78.1728 19.1082 78.3711 19.3298C78.5811 19.5398 78.8728 19.6448 79.2461 19.6448C79.6778 19.6448 80.0453 19.5282 80.3486 19.2948L81.0836 21.2198Z" fill="#969696"/>
<path d="M82.6161 12.2598H85.3461V21.6748H82.6161V12.2598ZM83.9811 10.9473C83.4794 10.9473 83.0711 10.8015 82.7561 10.5098C82.4411 10.2182 82.2836 9.85651 82.2836 9.42484C82.2836 8.99318 82.4411 8.63151 82.7561 8.33984C83.0711 8.04818 83.4794 7.90234 83.9811 7.90234C84.4827 7.90234 84.8911 8.04234 85.2061 8.32234C85.5211 8.60234 85.6786 8.95234 85.6786 9.37234C85.6786 9.82734 85.5211 10.2065 85.2061 10.5098C84.8911 10.8015 84.4827 10.9473 83.9811 10.9473Z" fill="#969696"/>
<path d="M97.1022 17.0023C97.1022 17.0373 97.0847 17.2823 97.0497 17.7373H89.9272C90.0556 18.3207 90.3589 18.7815 90.8372 19.1198C91.3156 19.4582 91.9106 19.6273 92.6222 19.6273C93.1122 19.6273 93.5439 19.5573 93.9172 19.4173C94.3022 19.2657 94.6581 19.0323 94.9847 18.7173L96.4372 20.2923C95.5506 21.3073 94.2556 21.8148 92.5522 21.8148C91.4906 21.8148 90.5514 21.6107 89.7347 21.2023C88.9181 20.7823 88.2881 20.2048 87.8447 19.4698C87.4014 18.7348 87.1797 17.9007 87.1797 16.9673C87.1797 16.0457 87.3956 15.2173 87.8272 14.4823C88.2706 13.7357 88.8714 13.1582 89.6297 12.7498C90.3997 12.3298 91.2572 12.1198 92.2022 12.1198C93.1239 12.1198 93.9581 12.3182 94.7047 12.7148C95.4514 13.1115 96.0347 13.6832 96.4547 14.4298C96.8864 15.1648 97.1022 16.0223 97.1022 17.0023ZM92.2197 14.1848C91.6014 14.1848 91.0822 14.3598 90.6622 14.7098C90.2422 15.0598 89.9856 15.5382 89.8922 16.1448H94.5297C94.4364 15.5498 94.1797 15.0773 93.7597 14.7273C93.3397 14.3657 92.8264 14.1848 92.2197 14.1848Z" fill="#969696"/>
<path d="M104.642 12.1198C105.809 12.1198 106.748 12.4698 107.46 13.1698C108.183 13.8698 108.545 14.9082 108.545 16.2848V21.6748H105.815V16.7048C105.815 15.9582 105.651 15.404 105.325 15.0423C104.998 14.669 104.526 14.4823 103.907 14.4823C103.219 14.4823 102.671 14.6982 102.262 15.1298C101.854 15.5498 101.65 16.1798 101.65 17.0198V21.6748H98.9198V12.2598H101.527V13.3623C101.889 12.9657 102.338 12.6623 102.875 12.4523C103.411 12.2307 104.001 12.1198 104.642 12.1198Z" fill="#969696"/>
<path d="M117.092 21.2198C116.824 21.4182 116.491 21.5698 116.094 21.6748C115.709 21.7682 115.301 21.8148 114.869 21.8148C113.749 21.8148 112.88 21.529 112.262 20.9573C111.655 20.3857 111.352 19.5457 111.352 18.4373V14.5698H109.899V12.4698H111.352V10.1773H114.082V12.4698H116.427V14.5698H114.082V18.4023C114.082 18.799 114.181 19.1082 114.379 19.3298C114.589 19.5398 114.881 19.6448 115.254 19.6448C115.686 19.6448 116.054 19.5282 116.357 19.2948L117.092 21.2198Z" fill="#969696"/>
</svg>
