<svg width="108" height="20" viewBox="0 0 108 20" fill="none" xmlns="http://www.w3.org/2000/svg">
<g clip-path="url(#clip0_3219_32661)">
<path d="M9.53834 1.60996C9.70914 1.19932 10.2909 1.19932 10.4617 1.60996L12.5278 6.57744C12.5998 6.75056 12.7626 6.86885 12.9495 6.88383L18.3123 7.31376C18.7556 7.3493 18.9354 7.90256 18.5976 8.19189L14.5117 11.6919C14.3693 11.8139 14.3071 12.0053 14.3506 12.1876L15.5989 17.4208C15.7021 17.8534 15.2315 18.1954 14.8519 17.9635L10.2606 15.1592C10.1006 15.0615 9.89938 15.0615 9.73937 15.1592L5.14806 17.9635C4.76851 18.1954 4.29788 17.8534 4.40108 17.4208L5.64939 12.1876C5.69289 12.0053 5.6307 11.8139 5.48831 11.6919L1.40241 8.19189C1.06464 7.90256 1.24441 7.3493 1.68773 7.31376L7.05054 6.88383C7.23744 6.86885 7.40024 6.75056 7.47225 6.57744L9.53834 1.60996Z" fill="#F2F4F7"/>
<g clip-path="url(#clip1_3219_32661)">
<path d="M9.53834 1.60996C9.70914 1.19932 10.2909 1.19932 10.4617 1.60996L12.5278 6.57744C12.5998 6.75056 12.7626 6.86885 12.9495 6.88383L18.3123 7.31376C18.7556 7.3493 18.9354 7.90256 18.5976 8.19189L14.5117 11.6919C14.3693 11.8139 14.3071 12.0053 14.3506 12.1876L15.5989 17.4208C15.7021 17.8534 15.2315 18.1954 14.8519 17.9635L10.2606 15.1592C10.1006 15.0615 9.89938 15.0615 9.73937 15.1592L5.14806 17.9635C4.76851 18.1954 4.29788 17.8534 4.40108 17.4208L5.64939 12.1876C5.69289 12.0053 5.6307 11.8139 5.48831 11.6919L1.40241 8.19189C1.06464 7.90256 1.24441 7.3493 1.68773 7.31376L7.05054 6.88383C7.23744 6.86885 7.40024 6.75056 7.47225 6.57744L9.53834 1.60996Z" fill="#101828"/>
</g>
</g>
<g clip-path="url(#clip2_3219_32661)">
<path d="M31.5383 1.60996C31.7091 1.19932 32.2909 1.19932 32.4617 1.60996L34.5278 6.57744C34.5998 6.75056 34.7626 6.86885 34.9495 6.88383L40.3123 7.31376C40.7556 7.3493 40.9354 7.90256 40.5976 8.19189L36.5117 11.6919C36.3693 11.8139 36.3071 12.0053 36.3506 12.1876L37.5989 17.4208C37.7021 17.8534 37.2315 18.1954 36.8519 17.9635L32.2606 15.1592C32.1006 15.0615 31.8994 15.0615 31.7394 15.1592L27.1481 17.9635C26.7685 18.1954 26.2979 17.8534 26.4011 17.4208L27.6494 12.1876C27.6929 12.0053 27.6307 11.8139 27.4883 11.6919L23.4024 8.19189C23.0646 7.90256 23.2444 7.3493 23.6877 7.31376L29.0505 6.88383C29.2374 6.86885 29.4002 6.75056 29.4722 6.57744L31.5383 1.60996Z" fill="#F2F4F7"/>
<g clip-path="url(#clip3_3219_32661)">
<path d="M31.5383 1.60996C31.7091 1.19932 32.2909 1.19932 32.4617 1.60996L34.5278 6.57744C34.5998 6.75056 34.7626 6.86885 34.9495 6.88383L40.3123 7.31376C40.7556 7.3493 40.9354 7.90256 40.5976 8.19189L36.5117 11.6919C36.3693 11.8139 36.3071 12.0053 36.3506 12.1876L37.5989 17.4208C37.7021 17.8534 37.2315 18.1954 36.8519 17.9635L32.2606 15.1592C32.1006 15.0615 31.8994 15.0615 31.7394 15.1592L27.1481 17.9635C26.7685 18.1954 26.2979 17.8534 26.4011 17.4208L27.6494 12.1876C27.6929 12.0053 27.6307 11.8139 27.4883 11.6919L23.4024 8.19189C23.0646 7.90256 23.2444 7.3493 23.6877 7.31376L29.0505 6.88383C29.2374 6.86885 29.4002 6.75056 29.4722 6.57744L31.5383 1.60996Z" fill="#101828"/>
</g>
</g>
<g clip-path="url(#clip4_3219_32661)">
<path d="M53.5383 1.60996C53.7091 1.19932 54.2909 1.19932 54.4617 1.60996L56.5278 6.57744C56.5998 6.75056 56.7626 6.86885 56.9495 6.88383L62.3123 7.31376C62.7556 7.3493 62.9354 7.90256 62.5976 8.19189L58.5117 11.6919C58.3693 11.8139 58.3071 12.0053 58.3506 12.1876L59.5989 17.4208C59.7021 17.8534 59.2315 18.1954 58.8519 17.9635L54.2606 15.1592C54.1006 15.0615 53.8994 15.0615 53.7394 15.1592L49.1481 17.9635C48.7685 18.1954 48.2979 17.8534 48.4011 17.4208L49.6494 12.1876C49.6929 12.0053 49.6307 11.8139 49.4883 11.6919L45.4024 8.19189C45.0646 7.90256 45.2444 7.3493 45.6877 7.31376L51.0505 6.88383C51.2374 6.86885 51.4002 6.75056 51.4722 6.57744L53.5383 1.60996Z" fill="#F2F4F7"/>
<g clip-path="url(#clip5_3219_32661)">
<path d="M53.5383 1.60996C53.7091 1.19932 54.2909 1.19932 54.4617 1.60996L56.5278 6.57744C56.5998 6.75056 56.7626 6.86885 56.9495 6.88383L62.3123 7.31376C62.7556 7.3493 62.9354 7.90256 62.5976 8.19189L58.5117 11.6919C58.3693 11.8139 58.3071 12.0053 58.3506 12.1876L59.5989 17.4208C59.7021 17.8534 59.2315 18.1954 58.8519 17.9635L54.2606 15.1592C54.1006 15.0615 53.8994 15.0615 53.7394 15.1592L49.1481 17.9635C48.7685 18.1954 48.2979 17.8534 48.4011 17.4208L49.6494 12.1876C49.6929 12.0053 49.6307 11.8139 49.4883 11.6919L45.4024 8.19189C45.0646 7.90256 45.2444 7.3493 45.6877 7.31376L51.0505 6.88383C51.2374 6.86885 51.4002 6.75056 51.4722 6.57744L53.5383 1.60996Z" fill="#101828"/>
</g>
</g>
<g clip-path="url(#clip6_3219_32661)">
<path d="M75.5383 1.60996C75.7091 1.19932 76.2909 1.19932 76.4617 1.60996L78.5278 6.57744C78.5998 6.75056 78.7626 6.86885 78.9495 6.88383L84.3123 7.31376C84.7556 7.3493 84.9354 7.90256 84.5976 8.19189L80.5117 11.6919C80.3693 11.8139 80.3071 12.0053 80.3506 12.1876L81.5989 17.4208C81.7021 17.8534 81.2315 18.1954 80.8519 17.9635L76.2606 15.1592C76.1006 15.0615 75.8994 15.0615 75.7394 15.1592L71.1481 17.9635C70.7685 18.1954 70.2979 17.8534 70.4011 17.4208L71.6494 12.1876C71.6929 12.0053 71.6307 11.8139 71.4883 11.6919L67.4024 8.19189C67.0646 7.90256 67.2444 7.3493 67.6877 7.31376L73.0505 6.88383C73.2374 6.86885 73.4002 6.75056 73.4722 6.57744L75.5383 1.60996Z" fill="#F2F4F7"/>
<g clip-path="url(#clip7_3219_32661)">
<path d="M75.5383 1.60996C75.7091 1.19932 76.2909 1.19932 76.4617 1.60996L78.5278 6.57744C78.5998 6.75056 78.7626 6.86885 78.9495 6.88383L84.3123 7.31376C84.7556 7.3493 84.9354 7.90256 84.5976 8.19189L80.5117 11.6919C80.3693 11.8139 80.3071 12.0053 80.3506 12.1876L81.5989 17.4208C81.7021 17.8534 81.2315 18.1954 80.8519 17.9635L76.2606 15.1592C76.1006 15.0615 75.8994 15.0615 75.7394 15.1592L71.1481 17.9635C70.7685 18.1954 70.2979 17.8534 70.4011 17.4208L71.6494 12.1876C71.6929 12.0053 71.6307 11.8139 71.4883 11.6919L67.4024 8.19189C67.0646 7.90256 67.2444 7.3493 67.6877 7.31376L73.0505 6.88383C73.2374 6.86885 73.4002 6.75056 73.4722 6.57744L75.5383 1.60996Z" fill="#101828"/>
</g>
</g>
<g clip-path="url(#clip8_3219_32661)">
<path d="M97.5383 1.60996C97.7091 1.19932 98.2909 1.19932 98.4617 1.60996L100.528 6.57744C100.6 6.75056 100.763 6.86885 100.949 6.88383L106.312 7.31376C106.756 7.3493 106.935 7.90256 106.598 8.19189L102.512 11.6919C102.369 11.8139 102.307 12.0053 102.351 12.1876L103.599 17.4208C103.702 17.8534 103.231 18.1954 102.852 17.9635L98.2606 15.1592C98.1006 15.0615 97.8994 15.0615 97.7394 15.1592L93.1481 17.9635C92.7685 18.1954 92.2979 17.8534 92.4011 17.4208L93.6494 12.1876C93.6929 12.0053 93.6307 11.8139 93.4883 11.6919L89.4024 8.19189C89.0646 7.90256 89.2444 7.3493 89.6877 7.31376L95.0505 6.88383C95.2374 6.86885 95.4002 6.75056 95.4722 6.57744L97.5383 1.60996Z" fill="#F2F4F7"/>
<g clip-path="url(#clip9_3219_32661)">
<path d="M97.5383 1.60996C97.7091 1.19932 98.2909 1.19932 98.4617 1.60996L100.528 6.57744C100.6 6.75056 100.763 6.86885 100.949 6.88383L106.312 7.31376C106.756 7.3493 106.935 7.90256 106.598 8.19189L102.512 11.6919C102.369 11.8139 102.307 12.0053 102.351 12.1876L103.599 17.4208C103.702 17.8534 103.231 18.1954 102.852 17.9635L98.2606 15.1592C98.1006 15.0615 97.8994 15.0615 97.7394 15.1592L93.1481 17.9635C92.7685 18.1954 92.2979 17.8534 92.4011 17.4208L93.6494 12.1876C93.6929 12.0053 93.6307 11.8139 93.4883 11.6919L89.4024 8.19189C89.0646 7.90256 89.2444 7.3493 89.6877 7.31376L95.0505 6.88383C95.2374 6.86885 95.4002 6.75056 95.4722 6.57744L97.5383 1.60996Z" fill="#101828"/>
</g>
</g>
<defs>
<clipPath id="clip0_3219_32661">
<rect width="20" height="20" fill="white"/>
</clipPath>
<clipPath id="clip1_3219_32661">
<rect width="20" height="20" fill="white"/>
</clipPath>
<clipPath id="clip2_3219_32661">
<rect width="20" height="20" fill="white" transform="translate(22)"/>
</clipPath>
<clipPath id="clip3_3219_32661">
<rect width="20" height="20" fill="white" transform="translate(22)"/>
</clipPath>
<clipPath id="clip4_3219_32661">
<rect width="20" height="20" fill="white" transform="translate(44)"/>
</clipPath>
<clipPath id="clip5_3219_32661">
<rect width="20" height="20" fill="white" transform="translate(44)"/>
</clipPath>
<clipPath id="clip6_3219_32661">
<rect width="20" height="20" fill="white" transform="translate(66)"/>
</clipPath>
<clipPath id="clip7_3219_32661">
<rect width="20" height="20" fill="white" transform="translate(66)"/>
</clipPath>
<clipPath id="clip8_3219_32661">
<rect width="20" height="20" fill="white" transform="translate(88)"/>
</clipPath>
<clipPath id="clip9_3219_32661">
<rect width="20" height="20" fill="white" transform="translate(88)"/>
</clipPath>
</defs>
</svg>
