<svg width="81" height="80" viewBox="0 0 81 80" fill="none" xmlns="http://www.w3.org/2000/svg">
<path d="M40.4994 6.67188C22.1327 6.67188 7.16602 21.6385 7.16602 40.0052C7.16602 58.3719 22.1327 73.3385 40.4994 73.3385C58.866 73.3385 73.8327 58.3719 73.8327 40.0052C73.8327 21.6385 58.866 6.67188 40.4994 6.67188ZM56.4327 32.3385L37.5327 51.2385C37.066 51.7052 36.4327 51.9719 35.766 51.9719C35.0993 51.9719 34.466 51.7052 33.9994 51.2385L24.566 41.8052C23.5993 40.8385 23.5993 39.2385 24.566 38.2719C25.5327 37.3052 27.1327 37.3052 28.0993 38.2719L35.766 45.9385L52.8994 28.8052C53.866 27.8385 55.466 27.8385 56.4327 28.8052C57.3994 29.7719 57.3994 31.3385 56.4327 32.3385Z" fill="white"/>
</svg>
