<svg width="25" height="24" viewBox="0 0 25 24" fill="none" xmlns="http://www.w3.org/2000/svg">
<rect x="0.5" width="24" height="24" rx="8" fill="#EAF8F8"/>
<path d="M9.83337 5.33301V7.33301" stroke="#2EBDB6" stroke-miterlimit="10" stroke-linecap="round" stroke-linejoin="round"/>
<path d="M15.1666 5.33301V7.33301" stroke="#2EBDB6" stroke-miterlimit="10" stroke-linecap="round" stroke-linejoin="round"/>
<path d="M16.6333 18.2667C17.8115 18.2667 18.7667 17.3115 18.7667 16.1333C18.7667 14.9551 17.8115 14 16.6333 14C15.4551 14 14.5 14.9551 14.5 16.1333C14.5 17.3115 15.4551 18.2667 16.6333 18.2667Z" stroke="#2EBDB6" stroke-linecap="round" stroke-linejoin="round"/>
<path d="M19.1667 18.6667L18.5 18" stroke="#2EBDB6" stroke-linecap="round" stroke-linejoin="round"/>
<path d="M6.83337 10.0596H18.1667" stroke="#2EBDB6" stroke-miterlimit="10" stroke-linecap="round" stroke-linejoin="round"/>
<path d="M13.4133 18.6663H9.83333C7.5 18.6663 6.5 17.333 6.5 15.333V9.66634C6.5 7.66634 7.5 6.33301 9.83333 6.33301H15.1667C17.5 6.33301 18.5 7.66634 18.5 9.66634V12.6663" stroke="#2EBDB6" stroke-miterlimit="10" stroke-linecap="round" stroke-linejoin="round"/>
<path d="M12.497 13.1331H12.503" stroke="#2EBDB6" stroke-linecap="round" stroke-linejoin="round"/>
<path d="M10.0295 13.1331H10.0355" stroke="#2EBDB6" stroke-linecap="round" stroke-linejoin="round"/>
<path d="M10.0295 15.1331H10.0355" stroke="#2EBDB6" stroke-linecap="round" stroke-linejoin="round"/>
</svg>
