<svg width="16" height="17" viewBox="0 0 16 17" fill="none" xmlns="http://www.w3.org/2000/svg">
<path d="M14.6667 14.5V13.1667C14.6667 11.9241 13.8169 10.88 12.6667 10.584M10.3334 2.69384C11.3107 3.08943 12 4.04754 12 5.16667C12 6.28579 11.3107 7.2439 10.3334 7.63949M11.3334 14.5C11.3334 13.2575 11.3334 12.6362 11.1304 12.1462C10.8597 11.4928 10.3406 10.9736 9.6872 10.703C9.19714 10.5 8.57589 10.5 7.33337 10.5H5.33337C4.09086 10.5 3.46961 10.5 2.97955 10.703C2.32614 10.9736 1.80701 11.4928 1.53636 12.1462C1.33337 12.6362 1.33337 13.2575 1.33337 14.5M9.00004 5.16667C9.00004 6.63943 7.80613 7.83333 6.33337 7.83333C4.86061 7.83333 3.66671 6.63943 3.66671 5.16667C3.66671 3.69391 4.86061 2.5 6.33337 2.5C7.80613 2.5 9.00004 3.69391 9.00004 5.16667Z" stroke="#98A2B3" stroke-width="1.5" stroke-linecap="round" stroke-linejoin="round"/>
</svg>
