<svg width="31" height="30" viewBox="0 0 31 30" fill="none" xmlns="http://www.w3.org/2000/svg">
<g clip-path="url(#clip0_4377_77476)">
<path d="M8 13.125C8.49728 13.125 8.97419 13.3225 9.32583 13.6742C9.67746 14.0258 9.875 14.5027 9.875 15C9.875 15.4973 9.67746 15.9742 9.32583 16.3258C8.97419 16.6775 8.49728 16.875 8 16.875C7.50272 16.875 7.02581 16.6775 6.67417 16.3258C6.32254 15.9742 6.125 15.4973 6.125 15C6.125 14.5027 6.32254 14.0258 6.67417 13.6742C7.02581 13.3225 7.50272 13.125 8 13.125ZM15.5 13.125C15.9973 13.125 16.4742 13.3225 16.8258 13.6742C17.1775 14.0258 17.375 14.5027 17.375 15C17.375 15.4973 17.1775 15.9742 16.8258 16.3258C16.4742 16.6775 15.9973 16.875 15.5 16.875C15.0027 16.875 14.5258 16.6775 14.1742 16.3258C13.8225 15.9742 13.625 15.4973 13.625 15C13.625 14.5027 13.8225 14.0258 14.1742 13.6742C14.5258 13.3225 15.0027 13.125 15.5 13.125ZM23 13.125C23.4973 13.125 23.9742 13.3225 24.3258 13.6742C24.6775 14.0258 24.875 14.5027 24.875 15C24.875 15.4973 24.6775 15.9742 24.3258 16.3258C23.9742 16.6775 23.4973 16.875 23 16.875C22.5027 16.875 22.0258 16.6775 21.6742 16.3258C21.3225 15.9742 21.125 15.4973 21.125 15C21.125 14.5027 21.3225 14.0258 21.6742 13.6742C22.0258 13.3225 22.5027 13.125 23 13.125Z" fill="black"/>
</g>
<defs>
<clipPath id="clip0_4377_77476">
<rect width="30" height="30" fill="white" transform="translate(0.5)"/>
</clipPath>
</defs>
</svg>
