<svg width="96" height="30" viewBox="0 0 96 30" fill="none" xmlns="http://www.w3.org/2000/svg">
<g style="mix-blend-mode:multiply">
<path d="M21.6339 11.848H18.8619V19H17.4219V11.848H14.6619V10.492H21.6339V11.848ZM25.3063 13.12V14.536C25.1503 14.512 24.9943 14.5 24.8503 14.5C23.7703 14.5 23.2783 15.124 23.2783 16.216V19H21.8863V13.156H23.2423V14.092C23.5183 13.456 24.1663 13.084 24.9343 13.084C25.1023 13.084 25.2463 13.108 25.3063 13.12ZM26.1201 17.416C26.1201 16.372 26.8881 15.796 27.8841 15.652L29.3841 15.424C29.7201 15.376 29.8161 15.208 29.8161 15.004C29.8161 14.512 29.4801 14.116 28.7121 14.116C27.9801 14.116 27.5721 14.584 27.5121 15.172L26.2401 14.884C26.3481 13.876 27.2601 12.976 28.7001 12.976C30.5001 12.976 31.1841 13.996 31.1841 15.16V18.064C31.1841 18.592 31.2441 18.94 31.2561 19H29.9601C29.9481 18.964 29.9001 18.724 29.9001 18.256C29.6241 18.7 29.0481 19.18 28.1001 19.18C26.8761 19.18 26.1201 18.34 26.1201 17.416ZM28.3641 18.088C29.1441 18.088 29.8161 17.716 29.8161 16.576V16.312L28.2921 16.54C27.8601 16.612 27.5121 16.852 27.5121 17.332C27.5121 17.728 27.8121 18.088 28.3641 18.088ZM34.2588 15.628V19H32.8668V13.156H34.2228V13.936C34.6068 13.264 35.3028 12.988 35.9508 12.988C37.3788 12.988 38.0628 14.02 38.0628 15.304V19H36.6708V15.544C36.6708 14.824 36.3468 14.248 35.4708 14.248C34.6788 14.248 34.2588 14.86 34.2588 15.628ZM39.2414 17.416L40.4534 17.08C40.5014 17.608 40.8974 18.076 41.6414 18.076C42.2174 18.076 42.5174 17.764 42.5174 17.404C42.5174 17.092 42.3014 16.852 41.8334 16.756L40.9694 16.564C39.9374 16.336 39.3974 15.664 39.3974 14.86C39.3974 13.84 40.3334 12.976 41.5454 12.976C43.1774 12.976 43.7054 14.032 43.8014 14.608L42.6254 14.944C42.5774 14.608 42.3254 14.068 41.5454 14.068C41.0534 14.068 40.7054 14.38 40.7054 14.74C40.7054 15.052 40.9334 15.28 41.2934 15.352L42.1814 15.532C43.2854 15.772 43.8614 16.444 43.8614 17.308C43.8614 18.196 43.1414 19.18 41.6534 19.18C39.9614 19.18 39.3134 18.076 39.2414 17.416ZM47.8338 11.5C47.4618 11.5 46.9698 11.668 46.9698 12.388V13.156H48.3258V14.368H46.9698V19H45.5658V14.368H44.5458V13.156H45.5658V12.352C45.5658 11.044 46.4058 10.252 47.6058 10.252C47.9538 10.252 48.2418 10.324 48.3378 10.372V11.56C48.2538 11.536 48.0978 11.5 47.8338 11.5ZM50.2333 15.436H53.1013C53.0773 14.752 52.6213 14.14 51.6613 14.14C50.7853 14.14 50.2813 14.812 50.2333 15.436ZM53.2573 16.96L54.4333 17.332C54.1213 18.352 53.1973 19.18 51.7933 19.18C50.2093 19.18 48.8053 18.028 48.8053 16.048C48.8053 14.2 50.1733 12.976 51.6493 12.976C53.4493 12.976 54.5053 14.164 54.5053 16.012C54.5053 16.24 54.4813 16.432 54.4693 16.456H50.1973C50.2333 17.344 50.9293 17.98 51.7933 17.98C52.6333 17.98 53.0653 17.536 53.2573 16.96ZM59.2555 13.12V14.536C59.0995 14.512 58.9435 14.5 58.7995 14.5C57.7195 14.5 57.2275 15.124 57.2275 16.216V19H55.8355V13.156H57.1915V14.092C57.4675 13.456 58.1155 13.084 58.8835 13.084C59.0515 13.084 59.1955 13.108 59.2555 13.12Z" fill="#151F32"/>
<path d="M71 17.5L76 12.5M76 12.5H71M76 12.5V17.5" stroke="black" stroke-linecap="round" stroke-linejoin="round"/>
<rect x="1" y="0.5" width="94" height="29" rx="14.5" stroke="#EAECF0"/>
</g>
</svg>
