<svg width="36" height="36" viewBox="0 0 36 36" fill="none" xmlns="http://www.w3.org/2000/svg">
<path d="M21.3333 12.9998V12.3332C21.3333 11.3997 21.3333 10.933 21.1517 10.5765C20.9919 10.2629 20.7369 10.0079 20.4233 9.84816C20.0668 9.6665 19.6001 9.6665 18.6667 9.6665H17.3333C16.3999 9.6665 15.9332 9.6665 15.5767 9.84816C15.2631 10.0079 15.0081 10.2629 14.8483 10.5765C14.6667 10.933 14.6667 11.3997 14.6667 12.3332V12.9998M16.3333 17.5832V21.7498M19.6667 17.5832V21.7498M10.5 12.9998H25.5M23.8333 12.9998V22.3332C23.8333 23.7333 23.8333 24.4334 23.5608 24.9681C23.3212 25.4386 22.9387 25.821 22.4683 26.0607C21.9335 26.3332 21.2335 26.3332 19.8333 26.3332H16.1667C14.7665 26.3332 14.0665 26.3332 13.5317 26.0607C13.0613 25.821 12.6788 25.4386 12.4392 24.9681C12.1667 24.4334 12.1667 23.7333 12.1667 22.3332V12.9998" stroke="#667085" stroke-width="1.66667" stroke-linecap="round" stroke-linejoin="round"/>
</svg>
