<svg width="17" height="16" viewBox="0 0 17 16" fill="none" xmlns="http://www.w3.org/2000/svg">
<g clip-path="url(#clip0_4731_27512)">
<path d="M8.5 16C12.9183 16 16.5 12.4183 16.5 8C16.5 3.58172 12.9183 0 8.5 0C4.08172 0 0.5 3.58172 0.5 8C0.5 12.4183 4.08172 16 8.5 16Z" fill="#F0F0F0"/>
<path d="M8.15186 7.99908H16.4997C16.4997 7.27701 16.4034 6.57751 16.2241 5.91211H8.15186V7.99908Z" fill="#D80027"/>
<path d="M8.15186 3.82525H15.3255C14.8358 3.02612 14.2096 2.31978 13.4795 1.73828H8.15186V3.82525Z" fill="#D80027"/>
<path d="M8.49977 15.9999C10.3826 15.9999 12.1131 15.3491 13.4796 14.2607H3.5199C4.88646 15.3491 6.61699 15.9999 8.49977 15.9999Z" fill="#D80027"/>
<path d="M1.67398 12.1729H15.3256C15.7188 11.5314 16.0237 10.8301 16.2242 10.0859H0.775391C0.975922 10.8301 1.28083 11.5314 1.67398 12.1729Z" fill="#D80027"/>
<path d="M4.20575 1.24931H4.93478L4.25666 1.74197L4.51569 2.53912L3.83759 2.04647L3.1595 2.53912L3.38325 1.85047C2.78619 2.34781 2.26287 2.9305 1.83162 3.57975H2.06522L1.63356 3.89334C1.56631 4.00553 1.50181 4.1195 1.44 4.23516L1.64612 4.86956L1.26156 4.59016C1.16597 4.79269 1.07853 4.99978 0.999938 5.21119L1.22703 5.91019H2.06522L1.38709 6.40284L1.64612 7.2L0.968031 6.70734L0.561844 7.00247C0.521187 7.32928 0.5 7.66216 0.5 8H8.5C8.5 3.58175 8.5 3.06087 8.5 0C6.91963 0 5.44641 0.458438 4.20575 1.24931ZM4.51569 7.2L3.83759 6.70734L3.1595 7.2L3.41853 6.40284L2.74041 5.91019H3.57859L3.83759 5.11303L4.09659 5.91019H4.93478L4.25666 6.40284L4.51569 7.2ZM4.25666 4.07241L4.51569 4.86956L3.83759 4.37691L3.1595 4.86956L3.41853 4.07241L2.74041 3.57975H3.57859L3.83759 2.78259L4.09659 3.57975H4.93478L4.25666 4.07241ZM7.38525 7.2L6.70716 6.70734L6.02906 7.2L6.28809 6.40284L5.60997 5.91019H6.44816L6.70716 5.11303L6.96616 5.91019H7.80434L7.12622 6.40284L7.38525 7.2ZM7.12622 4.07241L7.38525 4.86956L6.70716 4.37691L6.02906 4.86956L6.28809 4.07241L5.60997 3.57975H6.44816L6.70716 2.78259L6.96616 3.57975H7.80434L7.12622 4.07241ZM7.12622 1.74197L7.38525 2.53912L6.70716 2.04647L6.02906 2.53912L6.28809 1.74197L5.60997 1.24931H6.44816L6.70716 0.452156L6.96616 1.24931H7.80434L7.12622 1.74197Z" fill="#0052B4"/>
</g>
<defs>
<clipPath id="clip0_4731_27512">
<rect width="16" height="16" fill="white" transform="translate(0.5)"/>
</clipPath>
</defs>
</svg>
