<svg width="16" height="17" viewBox="0 0 16 17" fill="none" xmlns="http://www.w3.org/2000/svg">
<path d="M12.6667 6.4987C12.6667 9.07603 10.5773 11.1654 8 11.1654M12.6667 6.4987C12.6667 3.92137 10.5773 1.83203 8 1.83203M12.6667 6.4987H3.33333M8 11.1654C5.42267 11.1654 3.33333 9.07603 3.33333 6.4987M8 11.1654C9.16726 9.88747 9.83123 8.22908 9.86727 6.4987C9.83123 4.76831 9.16726 3.10993 8 1.83203M8 11.1654C6.83274 9.88747 6.16999 8.22908 6.13394 6.4987C6.16999 4.76831 6.83274 3.10993 8 1.83203M8 11.1654V12.4987M3.33333 6.4987C3.33333 3.92137 5.42267 1.83203 8 1.83203M9.33333 13.832C9.33333 14.5684 8.73638 15.1654 8 15.1654C7.26362 15.1654 6.66667 14.5684 6.66667 13.832M9.33333 13.832C9.33333 13.0957 8.73638 12.4987 8 12.4987M9.33333 13.832H14M6.66667 13.832C6.66667 13.0957 7.26362 12.4987 8 12.4987M6.66667 13.832H2" stroke="#98A2B3" stroke-width="1.5" stroke-linecap="round" stroke-linejoin="round"/>
</svg>
