<svg width="36" height="36" viewBox="0 0 36 36" fill="none" xmlns="http://www.w3.org/2000/svg">
<circle cx="18" cy="18" r="18" fill="#EAF8F8"/>
<path d="M23.8039 12.1953C24.0643 12.4556 24.0643 12.8777 23.8039 13.1381L13.1373 23.8047C12.8769 24.0651 12.4548 24.0651 12.1944 23.8047C11.9341 23.5444 11.9341 23.1223 12.1944 22.8619L22.8611 12.1953C23.1215 11.9349 23.5436 11.9349 23.8039 12.1953Z" fill="#2EBDB6"/>
<path d="M20.5322 13.5814C19.7813 13.2278 18.9347 13 17.9992 13C16.0364 13 14.465 14.0025 13.3482 15.0665C12.2289 16.1329 11.5026 17.3198 11.2151 17.8332C11.0267 18.1697 11.0042 18.5714 11.1589 18.9282C11.2669 19.1774 11.4506 19.5635 11.7213 20.0115C11.9117 20.3266 12.3216 20.4277 12.6367 20.2372C12.9518 20.0468 13.0529 19.637 12.8624 19.3219C12.6447 18.9615 12.4936 18.6499 12.4019 18.4429C12.6724 17.9662 13.3131 16.9415 14.268 16.0318C15.2543 15.0921 16.5125 14.3333 17.9992 14.3333C18.5339 14.3333 19.039 14.4315 19.5126 14.6009L20.5322 13.5814Z" fill="#2EBDB6"/>
<path d="M21.7929 16.0919C22.7132 16.9863 23.3318 17.9767 23.5964 18.443C23.5048 18.6499 23.3537 18.9615 23.1359 19.3219C22.9455 19.637 23.0465 20.0468 23.3617 20.2372C23.6768 20.4277 24.0866 20.3266 24.277 20.0115C24.5478 19.5635 24.7315 19.1774 24.8395 18.9282C24.9941 18.5714 24.9717 18.1697 24.7833 17.8332C24.5032 17.333 23.8066 16.1935 22.7358 15.149L21.7929 16.0919Z" fill="#2EBDB6"/>
<path d="M17.9992 15.3333C18.2415 15.3333 18.4777 15.3592 18.7053 15.4083L17.3334 16.7802C16.7644 16.981 16.3135 17.4319 16.1127 18.0009L14.7408 19.3728C14.6917 19.1452 14.6659 18.9089 14.6659 18.6667C14.6659 16.8257 16.1582 15.3333 17.9992 15.3333Z" fill="#2EBDB6"/>
<path d="M17.9992 20.6667C17.7653 20.6667 17.5407 20.6265 17.3321 20.5527L16.3314 21.5534C16.8219 21.8374 17.3916 22 17.9992 22C19.8401 22 21.3325 20.5076 21.3325 18.6667C21.3325 18.0591 21.1699 17.4894 20.8859 16.9989L19.8852 17.9996C19.959 18.2082 19.9992 18.4328 19.9992 18.6667C19.9992 19.7712 19.1038 20.6667 17.9992 20.6667Z" fill="#2EBDB6"/>
</svg>
