<svg width="41" height="42" viewBox="0 0 41 42" fill="none" xmlns="http://www.w3.org/2000/svg">
<rect width="41" height="42" rx="10" fill="#EAF8F8"/>
<path d="M20.002 29.416V27.7852C17.1992 27.6387 15.2949 26.252 15.1387 23.9473L15.1289 23.8008H17.7363L17.7559 23.9082C17.9219 24.8066 18.5859 25.4512 20.002 25.5781V22.082L19.2695 21.9258C16.6621 21.3789 15.334 20.168 15.334 18.0977V18.0781C15.334 15.793 17.2188 14.2598 20.002 14.123V12.4922H20.9785V14.1328C23.6836 14.2988 25.4121 15.6855 25.6074 17.9414L25.627 18.1074H23.0195L23 18.0195C22.8535 17.0527 22.1406 16.4668 20.9785 16.3301V19.7188L21.75 19.875C24.4648 20.4512 25.8125 21.5645 25.8125 23.6836V23.7031C25.8125 26.1738 23.8105 27.6289 20.9785 27.7852V29.416H20.002ZM18.0586 17.8828C18.0586 18.6738 18.5957 19.2012 20.002 19.5137V16.3203C18.7129 16.4375 18.0586 17.082 18.0586 17.8633V17.8828ZM23.0879 23.957C23.0879 23.1172 22.5996 22.6387 20.9785 22.2871V25.5977C22.4434 25.4902 23.0879 24.8555 23.0879 23.9766V23.957Z" fill="#2EBDB6"/>
</svg>
