<svg width="17" height="16" viewBox="0 0 17 16" fill="none" xmlns="http://www.w3.org/2000/svg">
<path d="M8.50016 10.6667V14M12.5002 14L9.86589 11.8048C9.38004 11.3999 9.13711 11.1975 8.86594 11.1201C8.62686 11.0519 8.37347 11.0519 8.13439 11.1201C7.86322 11.1975 7.62029 11.3999 7.13444 11.8048L4.50016 14M5.8335 7.33333V8M8.50016 6V8M11.1668 4.66667V8M15.1668 2H1.8335M2.50016 2H14.5002V7.46667C14.5002 8.58677 14.5002 9.14682 14.2822 9.57465C14.0904 9.95097 13.7845 10.2569 13.4081 10.4487C12.9803 10.6667 12.4203 10.6667 11.3002 10.6667H5.70016C4.58006 10.6667 4.02001 10.6667 3.59218 10.4487C3.21586 10.2569 2.9099 9.95097 2.71815 9.57465C2.50016 9.14682 2.50016 8.58677 2.50016 7.46667V2Z" stroke="#475467" stroke-width="1.5" stroke-linecap="round" stroke-linejoin="round"/>
</svg>
