<svg width="48" height="48" viewBox="0 0 48 48" fill="none" xmlns="http://www.w3.org/2000/svg">
<circle cx="24" cy="24" r="24" fill="#F2F4F7"/>
<path d="M28 23.1663L25.7105 25.4559C25.5785 25.5879 25.5125 25.6539 25.4364 25.6786C25.3694 25.7004 25.2973 25.7004 25.2304 25.6786C25.1543 25.6539 25.0883 25.5879 24.9563 25.4559L23.0438 23.5435C22.9118 23.4115 22.8458 23.3455 22.7697 23.3207C22.7028 23.299 22.6306 23.299 22.5637 23.3207C22.4876 23.3455 22.4216 23.4115 22.2896 23.5435L20 25.833M30.6667 24.4997C30.6667 28.1816 27.6819 31.1663 24 31.1663C20.3181 31.1663 17.3334 28.1816 17.3334 24.4997C17.3334 20.8178 20.3181 17.833 24 17.833C27.6819 17.833 30.6667 20.8178 30.6667 24.4997Z" stroke="#606B81" stroke-width="1.5" stroke-linecap="round" stroke-linejoin="round"/>
</svg>
