<svg width="324" height="203" viewBox="0 0 324 203" fill="none" xmlns="http://www.w3.org/2000/svg">
<path d="M107.842 5.50989L107.54 6.30911C107.3 6.16848 106.87 6.02735 106.38 6.02607C105.03 6.02253 104.178 7.0103 104.094 8.34009C104.355 7.91077 104.946 7.50232 105.806 7.50457C107.086 7.50792 108.024 8.31038 108.021 9.72038C108.017 11.1104 106.885 11.9274 105.615 11.9241C104.375 11.9208 103.087 11.0575 103.093 8.91747C103.099 6.50748 104.553 5.14128 106.443 5.14623C107.033 5.14777 107.542 5.29911 107.842 5.50989ZM104.231 9.71045C104.228 10.5604 104.917 11.0723 105.627 11.0741C106.387 11.0761 107.028 10.5778 107.031 9.71778C107.033 8.84779 106.384 8.34609 105.634 8.34412C104.884 8.34216 104.233 8.84046 104.231 9.71045ZM108.731 10.0222L109.671 9.7447C109.729 10.5449 110.318 11.0864 111.128 11.0885C111.898 11.0905 112.519 10.5822 112.521 9.78216C112.524 8.89217 111.875 8.44047 111.125 8.4385C110.665 8.4373 110.224 8.61614 109.943 8.90541C109.604 8.77452 109.314 8.64376 108.984 8.5229L109.833 5.30511L113.253 5.31406L113.251 6.21406L110.481 6.20681L109.996 8.06554C110.287 7.7463 110.807 7.58767 111.317 7.589C112.587 7.59233 113.515 8.40476 113.511 9.74476C113.508 10.9648 112.566 11.9523 111.126 11.9485C109.746 11.9449 108.818 11.0425 108.731 10.0222ZM115.333 8.55952C115.33 9.54952 115.509 10.25 115.897 10.661C116.147 10.9217 116.466 11.0825 116.926 11.0837C117.386 11.0849 117.707 10.9257 117.957 10.6664C118.348 10.2574 118.53 9.5579 118.533 8.5679C118.536 7.57791 118.357 6.87744 117.968 6.46642C117.719 6.20576 117.4 6.04493 116.94 6.04372C116.48 6.04252 116.159 6.20168 115.908 6.46102C115.517 6.87 115.336 7.56953 115.333 8.55952ZM114.363 8.55698C114.365 7.66699 114.517 6.84738 114.949 6.20851C115.371 5.57961 116.022 5.17131 116.942 5.17372C117.862 5.17613 118.511 5.58783 118.929 6.21893C119.357 6.86006 119.505 7.68045 119.503 8.57044C119.501 9.46044 119.348 10.28 118.917 10.9189C118.495 11.5478 117.844 11.9561 116.924 11.9537C116.004 11.9513 115.355 11.5396 114.937 10.9085C114.508 10.2674 114.361 9.44698 114.363 8.55698Z" fill="#151F32"/>
<path d="M199.241 98.5402L199.239 99.4802C198.638 99.9586 196.803 101.584 196.484 105.013L195.474 105.01C195.774 101.241 198.159 99.4373 198.159 99.4373L194.509 99.4278L194.511 98.5278L199.241 98.5402ZM199.486 103.261L200.427 102.983C200.485 103.783 201.074 104.325 201.884 104.327C202.654 104.329 203.275 103.821 203.277 103.021C203.279 102.131 202.631 101.679 201.881 101.677C201.421 101.676 200.98 101.855 200.699 102.144C200.36 102.013 200.07 101.882 199.74 101.761L200.589 98.5437L204.009 98.5527L204.006 99.4527L201.236 99.4454L200.752 101.304C201.042 100.985 201.563 100.826 202.073 100.828C203.343 100.831 204.271 101.643 204.267 102.983C204.264 104.203 203.321 105.191 201.881 105.187C200.501 105.183 199.574 104.281 199.486 103.261ZM206.089 101.798C206.086 102.788 206.264 103.489 206.653 103.9C206.903 104.16 207.222 104.321 207.682 104.322C208.142 104.324 208.463 104.164 208.713 103.905C209.104 103.496 209.286 102.796 209.289 101.806C209.291 100.816 209.113 100.116 208.724 99.705C208.475 99.4444 208.155 99.2835 207.695 99.2823C207.235 99.2811 206.915 99.4403 206.664 99.6996C206.273 100.109 206.091 100.808 206.089 101.798ZM205.119 101.796C205.121 100.906 205.273 100.086 205.705 99.4471C206.127 98.8182 206.778 98.4099 207.698 98.4123C208.618 98.4147 209.267 98.8264 209.685 99.4575C210.113 100.099 210.261 100.919 210.259 101.809C210.256 102.699 210.104 103.519 209.673 104.158C209.251 104.786 208.6 105.195 207.68 105.192C206.76 105.19 206.111 104.778 205.693 104.147C205.264 103.506 205.116 102.686 205.119 101.796Z" fill="#151F32"/>
<path d="M150.137 181.171C150.827 181.163 151.338 180.744 151.34 180.114C151.341 179.534 150.872 179.073 150.142 179.071C149.412 179.069 148.941 179.528 148.94 180.108C148.938 180.738 149.447 181.159 150.137 181.171ZM150.129 184.191C150.999 184.193 151.49 183.715 151.492 183.105C151.493 182.485 150.995 181.993 150.135 181.991C149.275 181.989 148.773 182.478 148.772 183.098C148.77 183.708 149.259 184.189 150.129 184.191ZM150.127 185.041C148.637 185.037 147.779 184.215 147.782 183.175C147.784 182.385 148.325 181.806 149.016 181.578C148.426 181.357 147.958 180.775 147.96 180.055C147.963 178.995 148.905 178.258 150.145 178.261C151.384 178.264 152.323 179.007 152.32 180.067C152.318 180.767 151.856 181.366 151.256 181.584C151.945 181.806 152.484 182.397 152.482 183.187C152.479 184.227 151.617 185.045 150.127 185.041ZM153.277 183.139L154.218 182.862C154.276 183.662 154.865 184.204 155.675 184.206C156.445 184.208 157.066 183.699 157.068 182.899C157.07 182.009 156.422 181.558 155.672 181.556C155.212 181.554 154.771 181.733 154.49 182.023C154.151 181.892 153.861 181.761 153.531 181.64L154.38 178.422L157.8 178.431L157.797 179.331L155.027 179.324L154.543 181.183C154.833 180.863 155.354 180.705 155.864 180.706C157.134 180.71 158.062 181.522 158.058 182.862C158.055 184.082 157.112 185.069 155.672 185.066C154.292 185.062 153.365 184.16 153.277 183.139ZM159.88 181.677C159.877 182.667 160.055 183.367 160.444 183.778C160.694 184.039 161.013 184.2 161.473 184.201C161.933 184.202 162.254 184.043 162.504 183.784C162.895 183.375 163.077 182.675 163.08 181.685C163.082 180.695 162.904 179.995 162.515 179.584C162.266 179.323 161.946 179.162 161.486 179.161C161.026 179.16 160.706 179.319 160.455 179.578C160.064 179.987 159.882 180.687 159.88 181.677ZM158.91 181.674C158.912 180.784 159.064 179.965 159.496 179.326C159.918 178.697 160.569 178.289 161.489 178.291C162.409 178.293 163.058 178.705 163.476 179.336C163.904 179.977 164.052 180.798 164.05 181.688C164.047 182.578 163.895 183.397 163.464 184.036C163.042 184.665 162.391 185.073 161.471 185.071C160.551 185.068 159.902 184.657 159.484 184.026C159.055 183.385 158.907 182.564 158.91 181.674Z" fill="#151F32"/>
<path d="M1.39367 102.742L2.3344 102.464C2.39231 103.264 2.98089 103.806 3.79089 103.808C4.56089 103.81 5.18222 103.302 5.18431 102.502C5.18664 101.612 4.53782 101.16 3.78783 101.158C3.32783 101.157 2.88736 101.336 2.6066 101.625C2.26694 101.494 1.97728 101.363 1.6476 101.242L2.49603 98.0245L5.91602 98.0335L5.91366 98.9335L3.14367 98.9262L2.6588 100.785C2.94964 100.466 3.47005 100.307 3.98005 100.308C5.25005 100.312 6.17792 101.124 6.17441 102.464C6.17122 103.684 5.22863 104.672 3.78864 104.668C2.40864 104.664 1.481 103.762 1.39367 102.742ZM7.99604 101.279C7.99345 102.269 8.17161 102.969 8.56054 103.38C8.80986 103.641 9.12944 103.802 9.58944 103.803C10.0494 103.804 10.3699 103.645 10.6205 103.386C11.0116 102.977 11.1934 102.277 11.196 101.287C11.1986 100.297 11.0205 99.5968 10.6315 99.1858C10.3822 98.9252 10.0626 98.7643 9.60263 98.7631C9.14264 98.7619 8.82222 98.9211 8.57154 99.1804C8.18047 99.5894 7.99863 100.289 7.99604 101.279ZM7.02604 101.276C7.02837 100.386 7.18052 99.5668 7.6122 98.9279C8.03384 98.299 8.68492 97.8907 9.60491 97.8931C10.5249 97.8955 11.1738 98.3072 11.5922 98.9383C12.0205 99.5794 12.1684 100.4 12.166 101.29C12.1637 102.18 12.0115 102.999 11.5799 103.638C11.1582 104.267 10.5072 104.676 9.58716 104.673C8.66716 104.671 8.01824 104.259 7.59989 103.628C7.17157 102.987 7.02371 102.166 7.02604 101.276ZM14.0898 101.295C14.0872 102.285 14.2653 102.985 14.6543 103.396C14.9036 103.657 15.2232 103.818 15.6832 103.819C16.1432 103.82 16.4636 103.661 16.7143 103.402C17.1053 102.993 17.2872 102.293 17.2898 101.303C17.2924 100.313 17.1142 99.6128 16.7253 99.2018C16.4759 98.9411 16.1564 98.7803 15.6964 98.7791C15.2364 98.7779 14.9159 98.937 14.6653 99.1964C14.2742 99.6054 14.0924 100.305 14.0898 101.295ZM13.1198 101.292C13.1221 100.402 13.2743 99.5827 13.7059 98.9439C14.1276 98.315 14.7786 97.9067 15.6986 97.9091C16.6186 97.9115 17.2676 98.3232 17.6859 98.9543C18.1142 99.5954 18.2621 100.416 18.2598 101.306C18.2574 102.196 18.1053 103.015 17.6736 103.654C17.252 104.283 16.6009 104.691 15.6809 104.689C14.7609 104.687 14.112 104.275 13.6936 103.644C13.2653 103.003 13.1174 102.182 13.1198 101.292Z" fill="#151F32"/>
<path d="M100.004 194.766L99.5266 193.955L101.441 192.2L98.3412 192.192L98.3436 191.292L102.744 191.303L102.741 192.183L100.887 193.888C101.837 193.891 102.885 194.534 102.882 195.864C102.879 196.954 102.036 197.941 100.526 197.937C99.0262 197.933 98.1787 196.951 98.1215 195.891L99.0821 195.674C99.1198 196.534 99.7384 197.075 100.518 197.077C101.408 197.08 101.89 196.531 101.892 195.881C101.894 195.031 101.215 194.669 100.575 194.668C100.375 194.667 100.175 194.706 100.004 194.766ZM104.752 194.548C104.75 195.538 104.928 196.239 105.317 196.65C105.566 196.911 105.886 197.071 106.346 197.073C106.806 197.074 107.126 196.915 107.377 196.655C107.768 196.246 107.95 195.547 107.952 194.557C107.955 193.567 107.777 192.866 107.388 192.455C107.139 192.195 106.819 192.034 106.359 192.033C105.899 192.031 105.579 192.191 105.328 192.45C104.937 192.859 104.755 193.558 104.752 194.548ZM103.782 194.546C103.785 193.656 103.937 192.836 104.369 192.197C104.79 191.569 105.441 191.16 106.361 191.163C107.281 191.165 107.93 191.577 108.349 192.208C108.777 192.849 108.925 193.669 108.922 194.559C108.92 195.449 108.768 196.269 108.336 196.908C107.915 197.537 107.264 197.945 106.344 197.943C105.424 197.94 104.775 197.529 104.356 196.897C103.928 196.256 103.78 195.436 103.782 194.546ZM110.846 194.564C110.844 195.554 111.022 196.255 111.411 196.666C111.66 196.927 111.98 197.087 112.44 197.089C112.9 197.09 113.22 196.931 113.471 196.671C113.862 196.262 114.044 195.563 114.046 194.573C114.049 193.583 113.871 192.882 113.482 192.471C113.232 192.211 112.913 192.05 112.453 192.049C111.993 192.047 111.672 192.207 111.422 192.466C111.031 192.875 110.849 193.574 110.846 194.564ZM109.876 194.562C109.878 193.672 110.031 192.852 110.462 192.213C110.884 191.584 111.535 191.176 112.455 191.179C113.375 191.181 114.024 191.593 114.442 192.224C114.871 192.865 115.018 193.685 115.016 194.575C115.014 195.465 114.862 196.285 114.43 196.924C114.008 197.553 113.357 197.961 112.437 197.959C111.517 197.956 110.868 197.544 110.45 196.913C110.022 196.272 109.874 195.452 109.876 194.562Z" fill="#151F32"/>
<path d="M105.509 179.268C85.7278 178.943 66.8526 170.917 52.895 156.895C38.9374 142.874 30.9975 123.963 30.7627 104.18" stroke="#EB3223" stroke-width="8" stroke-linecap="round" stroke-linejoin="round"/>
<path d="M31.9134 90.0723C34.9543 72.8378 43.8499 57.1808 57.098 45.7456C70.3461 34.3104 87.1347 27.7978 104.629 27.3076" stroke="#EDCF49" stroke-width="8" stroke-linecap="round" stroke-linejoin="round"/>
<path d="M182.754 104.024C182.634 116.259 179.561 128.284 173.797 139.078C168.034 149.871 159.749 159.113 149.648 166.018" stroke="#EDEDED" stroke-width="8" stroke-linecap="round" stroke-linejoin="round"/>
<path d="M116.364 27.8873C132.406 29.9314 147.377 37.0391 159.102 48.177C170.826 59.315 178.693 73.9024 181.557 89.8183" stroke="#EDEDED" stroke-width="8" stroke-linecap="round" stroke-linejoin="round"/>
<path d="M116.364 27.8873C132.838 29.9865 148.172 37.4244 160.019 49.0633" stroke="#B8CE46" stroke-width="8" stroke-linecap="round" stroke-linejoin="round"/>
<g clip-path="url(#clip0_9241_60945)">
<path fill-rule="evenodd" clip-rule="evenodd" d="M136.007 76.8065C136.232 76.6411 136.548 76.6828 136.722 76.9009C136.897 77.1191 136.869 77.4362 136.658 77.6197L102.697 107.207C101.669 108.102 100.102 107.962 99.2495 106.897C98.3974 105.833 98.6032 104.273 99.7023 103.466L136.007 76.8065Z" fill="#D0D5DD"/>
<circle cx="102.797" cy="104.766" r="6.5" transform="rotate(-28.6765 102.797 104.766)" fill="white" stroke="#D0D5DD" stroke-width="3"/>
</g>
<rect width="40" height="47" transform="translate(261.026 0.5)" fill="white"/>
<path d="M274.389 13.5H273.225L273.117 12.42C272.745 13.044 271.869 13.68 270.513 13.68C268.293 13.68 266.325 12.048 266.325 9.24C266.325 6.444 268.401 4.812 270.609 4.812C272.673 4.812 273.993 6 274.449 7.404L273.093 7.92C272.805 6.96 271.965 6.144 270.609 6.144C269.229 6.144 267.789 7.128 267.789 9.24C267.789 11.316 269.133 12.36 270.597 12.36C272.313 12.36 272.961 11.184 273.033 10.452H270.225V9.192H274.389V13.5ZM278.582 12.432C279.446 12.432 280.214 11.796 280.214 10.572C280.214 9.36 279.446 8.736 278.582 8.736C277.73 8.736 276.95 9.36 276.95 10.572C276.95 11.784 277.73 12.432 278.582 12.432ZM278.582 7.476C280.334 7.476 281.618 8.784 281.618 10.572C281.618 12.372 280.334 13.68 278.582 13.68C276.842 13.68 275.558 12.372 275.558 10.572C275.558 8.784 276.842 7.476 278.582 7.476ZM285.531 12.432C286.395 12.432 287.163 11.796 287.163 10.572C287.163 9.36 286.395 8.736 285.531 8.736C284.679 8.736 283.899 9.36 283.899 10.572C283.899 11.784 284.679 12.432 285.531 12.432ZM285.531 7.476C287.283 7.476 288.567 8.784 288.567 10.572C288.567 12.372 287.283 13.68 285.531 13.68C283.791 13.68 282.507 12.372 282.507 10.572C282.507 8.784 283.791 7.476 285.531 7.476ZM290.848 10.56C290.848 11.676 291.472 12.42 292.42 12.42C293.332 12.42 293.968 11.664 293.968 10.548C293.968 9.432 293.344 8.736 292.432 8.736C291.52 8.736 290.848 9.444 290.848 10.56ZM295.312 4.812V12.432C295.312 12.96 295.36 13.404 295.372 13.5H294.04C294.016 13.368 293.98 12.984 293.98 12.744C293.704 13.236 293.092 13.644 292.264 13.644C290.584 13.644 289.456 12.324 289.456 10.56C289.456 8.88 290.596 7.5 292.24 7.5C293.26 7.5 293.776 7.968 293.956 8.34V4.812H295.312Z" fill="#B8CE46"/>
<path d="M273.133 26.948V29.468C271.837 30.548 267.445 34.484 266.749 42.5H263.773C264.445 33.812 269.869 29.468 269.869 29.468H261.517V26.948H273.133ZM276.243 34.724C276.243 36.692 276.603 38.204 277.347 39.164C277.875 39.86 278.619 40.316 279.747 40.316C280.875 40.316 281.595 39.86 282.147 39.164C282.891 38.204 283.227 36.692 283.227 34.724C283.227 32.756 282.891 31.244 282.147 30.284C281.595 29.588 280.875 29.132 279.747 29.132C278.619 29.132 277.875 29.588 277.347 30.284C276.579 31.244 276.243 32.756 276.243 34.724ZM273.387 34.724C273.387 32.66 273.723 30.716 274.779 29.132C275.787 27.62 277.419 26.588 279.747 26.588C282.075 26.588 283.683 27.62 284.691 29.132C285.747 30.716 286.083 32.66 286.083 34.724C286.083 36.788 285.747 38.732 284.691 40.316C283.683 41.828 282.075 42.86 279.747 42.86C277.419 42.86 275.787 41.828 274.779 40.316C273.723 38.732 273.387 36.788 273.387 34.724ZM288.007 41.972L288.799 39.62C289.399 40.004 290.551 40.34 291.583 40.34C294.847 40.34 296.599 38.372 296.743 35.444C296.167 36.452 294.799 37.244 292.951 37.244C290.143 37.244 287.575 35.324 287.575 32.012C287.575 28.796 290.167 26.588 293.431 26.588C296.671 26.588 299.575 28.892 299.575 33.86C299.575 39.5 296.887 42.86 291.607 42.86C290.335 42.86 288.799 42.5 288.007 41.972ZM296.359 31.916C296.359 30.188 294.943 29.036 293.383 29.036C291.799 29.036 290.407 30.164 290.407 31.916C290.407 33.74 291.775 34.82 293.383 34.82C294.943 34.82 296.359 33.692 296.359 31.916Z" fill="#151F32"/>
<rect x="239.026" y="75.5" width="84" height="32" rx="8" fill="#259792"/>
<path d="M261.906 95.5H260.478V89.236L257.826 95.5H256.578L253.95 89.26V95.5H252.546V86.992H254.466L257.226 93.484L259.95 86.992H261.906V95.5ZM264.777 91.936H267.645C267.621 91.252 267.165 90.64 266.205 90.64C265.329 90.64 264.825 91.312 264.777 91.936ZM267.801 93.46L268.977 93.832C268.665 94.852 267.741 95.68 266.337 95.68C264.753 95.68 263.349 94.528 263.349 92.548C263.349 90.7 264.717 89.476 266.193 89.476C267.993 89.476 269.049 90.664 269.049 92.512C269.049 92.74 269.025 92.932 269.013 92.956H264.741C264.777 93.844 265.473 94.48 266.337 94.48C267.177 94.48 267.609 94.036 267.801 93.46ZM272.143 87.868V89.656H273.355V90.892H272.143V93.604C272.143 94.12 272.371 94.336 272.887 94.336C273.079 94.336 273.307 94.3 273.367 94.288V95.44C273.283 95.476 273.019 95.572 272.515 95.572C271.435 95.572 270.763 94.924 270.763 93.832V90.892H269.683V89.656H269.983C270.607 89.656 270.883 89.26 270.883 88.744V87.868H272.143ZM278.1 89.62V91.036C277.944 91.012 277.788 91 277.644 91C276.564 91 276.072 91.624 276.072 92.716V95.5H274.68V89.656H276.036V90.592C276.312 89.956 276.96 89.584 277.728 89.584C277.896 89.584 278.04 89.608 278.1 89.62ZM280.642 95.5H279.262V89.656H280.642V95.5ZM279.046 87.604C279.046 87.1 279.454 86.692 279.946 86.692C280.45 86.692 280.858 87.1 280.858 87.604C280.858 88.108 280.45 88.504 279.946 88.504C279.454 88.504 279.046 88.108 279.046 87.604ZM284.982 90.76C284.13 90.76 283.374 91.396 283.374 92.572C283.374 93.748 284.13 94.408 285.006 94.408C285.918 94.408 286.338 93.772 286.47 93.328L287.694 93.772C287.418 94.684 286.542 95.68 285.006 95.68C283.29 95.68 281.982 94.348 281.982 92.572C281.982 90.772 283.29 89.476 284.97 89.476C286.542 89.476 287.406 90.46 287.646 91.396L286.398 91.852C286.266 91.336 285.87 90.76 284.982 90.76Z" fill="white"/>
<path d="M299.192 94.8337L305.859 88.167M305.859 88.167H299.192M305.859 88.167V94.8337" stroke="white" stroke-width="1.5" stroke-linecap="round" stroke-linejoin="round"/>
<defs>
<clipPath id="clip0_9241_60945">
<rect width="52" height="19" fill="white" transform="translate(90.5 98.9531) rotate(-28.6765)"/>
</clipPath>
</defs>
</svg>
