<svg width="77" height="30" viewBox="0 0 77 30" fill="none" xmlns="http://www.w3.org/2000/svg">
<g style="mix-blend-mode:multiply">
<path d="M17.0459 17.68H18.5579C20.0339 17.68 21.2579 16.732 21.2579 14.764C21.2579 12.772 20.0459 11.812 18.5699 11.812H17.0459V17.68ZM18.6059 19H15.6059V10.492H18.6179C20.9339 10.492 22.7579 12.028 22.7579 14.764C22.7579 17.488 20.9099 19 18.6059 19ZM23.7861 17.416C23.7861 16.372 24.5541 15.796 25.5501 15.652L27.0501 15.424C27.3861 15.376 27.4821 15.208 27.4821 15.004C27.4821 14.512 27.1461 14.116 26.3781 14.116C25.6461 14.116 25.2381 14.584 25.1781 15.172L23.9061 14.884C24.0141 13.876 24.9261 12.976 26.3661 12.976C28.1661 12.976 28.8501 13.996 28.8501 15.16V18.064C28.8501 18.592 28.9101 18.94 28.9221 19H27.6261C27.6141 18.964 27.5661 18.724 27.5661 18.256C27.2901 18.7 26.7141 19.18 25.7661 19.18C24.5421 19.18 23.7861 18.34 23.7861 17.416ZM26.0301 18.088C26.8101 18.088 27.4821 17.716 27.4821 16.576V16.312L25.9581 16.54C25.5261 16.612 25.1781 16.852 25.1781 17.332C25.1781 17.728 25.4781 18.088 26.0301 18.088ZM32.2734 11.368V13.156H33.4854V14.392H32.2734V17.104C32.2734 17.62 32.5014 17.836 33.0174 17.836C33.2094 17.836 33.4374 17.8 33.4974 17.788V18.94C33.4134 18.976 33.1494 19.072 32.6454 19.072C31.5654 19.072 30.8934 18.424 30.8934 17.332V14.392H29.8134V13.156H30.1134C30.7374 13.156 31.0134 12.76 31.0134 12.244V11.368H32.2734ZM34.5673 17.416C34.5673 16.372 35.3353 15.796 36.3313 15.652L37.8313 15.424C38.1673 15.376 38.2633 15.208 38.2633 15.004C38.2633 14.512 37.9273 14.116 37.1593 14.116C36.4273 14.116 36.0193 14.584 35.9593 15.172L34.6873 14.884C34.7953 13.876 35.7073 12.976 37.1473 12.976C38.9473 12.976 39.6313 13.996 39.6313 15.16V18.064C39.6313 18.592 39.6913 18.94 39.7033 19H38.4073C38.3953 18.964 38.3473 18.724 38.3473 18.256C38.0713 18.7 37.4953 19.18 36.5473 19.18C35.3233 19.18 34.5673 18.34 34.5673 17.416ZM36.8113 18.088C37.5913 18.088 38.2633 17.716 38.2633 16.576V16.312L36.7393 16.54C36.3073 16.612 35.9593 16.852 35.9593 17.332C35.9593 17.728 36.2593 18.088 36.8113 18.088Z" fill="#151F32"/>
<path d="M55.5 10.1348V12.2C55.5 12.4801 55.5 12.6201 55.5545 12.727C55.6024 12.8211 55.6789 12.8976 55.773 12.9455C55.88 13 56.02 13 56.3 13H58.3653M56.5 15.5H52.5M56.5 17.5H52.5M53.5 13.5H52.5M55.5 10H52.9C52.0599 10 51.6399 10 51.319 10.1635C51.0368 10.3073 50.8073 10.5368 50.6635 10.819C50.5 11.1399 50.5 11.5599 50.5 12.4V17.6C50.5 18.4401 50.5 18.8601 50.6635 19.181C50.8073 19.4632 51.0368 19.6927 51.319 19.8365C51.6399 20 52.0599 20 52.9 20H56.1C56.9401 20 57.3601 20 57.681 19.8365C57.9632 19.6927 58.1927 19.4632 58.3365 19.181C58.5 18.8601 58.5 18.4401 58.5 17.6V13L55.5 10Z" stroke="black" stroke-linecap="round" stroke-linejoin="round"/>
<rect x="1" y="0.5" width="75" height="29" rx="14.5" stroke="#EAECF0"/>
</g>
</svg>
