<svg width="21" height="20" viewBox="0 0 21 20" fill="none" xmlns="http://www.w3.org/2000/svg">
<path d="M17.1668 10.417V5.66699C17.1668 4.26686 17.1668 3.5668 16.8943 3.03202C16.6547 2.56161 16.2722 2.17916 15.8018 1.93948C15.267 1.66699 14.567 1.66699 13.1668 1.66699H7.8335C6.43336 1.66699 5.7333 1.66699 5.19852 1.93948C4.72811 2.17916 4.34566 2.56161 4.10598 3.03202C3.8335 3.5668 3.8335 4.26686 3.8335 5.66699V14.3337C3.8335 15.7338 3.8335 16.4339 4.10598 16.9686C4.34566 17.439 4.72811 17.8215 5.19852 18.0612C5.7333 18.3337 6.43333 18.3337 7.83338 18.3337H10.9168M12.1668 9.16699H7.16683M8.8335 12.5003H7.16683M13.8335 5.83366H7.16683M13.0002 15.8337L15.5002 18.3337M15.5002 18.3337L18.0002 15.8337M15.5002 18.3337V13.3337" stroke="#475467" stroke-width="1.5" stroke-linecap="round" stroke-linejoin="round"/>
</svg>
