<svg width="96" height="30" viewBox="0 0 96 30" fill="none" xmlns="http://www.w3.org/2000/svg">
<g style="mix-blend-mode:multiply">
<path d="M13.4483 14.404H14.9483C15.8603 14.404 16.4123 13.9 16.4123 13.096C16.4123 12.28 15.8603 11.764 14.9483 11.764H13.4483V14.404ZM15.1643 15.676H13.4483V19H12.0083V10.492H15.1643C16.7963 10.492 17.8763 11.596 17.8763 13.084C17.8763 14.584 16.7963 15.676 15.1643 15.676ZM18.4658 17.416C18.4658 16.372 19.2338 15.796 20.2298 15.652L21.7298 15.424C22.0658 15.376 22.1618 15.208 22.1618 15.004C22.1618 14.512 21.8258 14.116 21.0578 14.116C20.3258 14.116 19.9178 14.584 19.8578 15.172L18.5858 14.884C18.6938 13.876 19.6058 12.976 21.0458 12.976C22.8458 12.976 23.5298 13.996 23.5298 15.16V18.064C23.5298 18.592 23.5898 18.94 23.6018 19H22.3058C22.2938 18.964 22.2458 18.724 22.2458 18.256C21.9698 18.7 21.3938 19.18 20.4458 19.18C19.2218 19.18 18.4658 18.34 18.4658 17.416ZM20.7098 18.088C21.4898 18.088 22.1618 17.716 22.1618 16.576V16.312L20.6378 16.54C20.2058 16.612 19.8578 16.852 19.8578 17.332C19.8578 17.728 20.1578 18.088 20.7098 18.088ZM26.8479 21.364H25.3599L26.7639 18.304L24.2679 13.156H25.8399L27.5199 16.852L29.0919 13.156H30.5679L26.8479 21.364ZM32.9675 19H31.5875V13.156H32.9195V13.9C33.2555 13.3 33.9875 12.988 34.6475 12.988C35.4155 12.988 36.0875 13.336 36.3995 14.02C36.8555 13.252 37.5395 12.988 38.2955 12.988C39.3515 12.988 40.3595 13.66 40.3595 15.208V19H39.0155V15.436C39.0155 14.752 38.6675 14.236 37.8875 14.236C37.1555 14.236 36.6755 14.812 36.6755 15.532V19H35.3075V15.436C35.3075 14.764 34.9715 14.236 34.1795 14.236C33.4355 14.236 32.9675 14.788 32.9675 15.532V19ZM43.0361 15.436H45.9041C45.8801 14.752 45.4241 14.14 44.4641 14.14C43.5881 14.14 43.0841 14.812 43.0361 15.436ZM46.0601 16.96L47.2361 17.332C46.9241 18.352 46.0001 19.18 44.5961 19.18C43.0121 19.18 41.6081 18.028 41.6081 16.048C41.6081 14.2 42.9761 12.976 44.4521 12.976C46.2521 12.976 47.3081 14.164 47.3081 16.012C47.3081 16.24 47.2841 16.432 47.2721 16.456H43.0001C43.0361 17.344 43.7321 17.98 44.5961 17.98C45.4361 17.98 45.8681 17.536 46.0601 16.96ZM50.0303 15.628V19H48.6383V13.156H49.9943V13.936C50.3783 13.264 51.0743 12.988 51.7223 12.988C53.1503 12.988 53.8343 14.02 53.8343 15.304V19H52.4423V15.544C52.4423 14.824 52.1183 14.248 51.2423 14.248C50.4503 14.248 50.0303 14.86 50.0303 15.628ZM57.2929 11.368V13.156H58.5049V14.392H57.2929V17.104C57.2929 17.62 57.5209 17.836 58.0369 17.836C58.2289 17.836 58.4569 17.8 58.5169 17.788V18.94C58.4329 18.976 58.1689 19.072 57.6649 19.072C56.5849 19.072 55.9129 18.424 55.9129 17.332V14.392H54.8329V13.156H55.1329C55.7569 13.156 56.0329 12.76 56.0329 12.244V11.368H57.2929Z" fill="#2EBDB6"/>
<path d="M72.1666 18.3337L78.8333 11.667M78.8333 11.667H72.1666M78.8333 11.667V18.3337" stroke="#2EBDB6" stroke-width="1.5" stroke-linecap="round" stroke-linejoin="round"/>
<rect x="1" y="0.5" width="94" height="29" rx="14.5" stroke="#2EBDB6"/>
</g>
</svg>
